<?xml version="1.0" encoding="UTF-8"?>
<svg xmlns="http://www.w3.org/2000/svg" xmlns:xlink="http://www.w3.org/1999/xlink" width="410pt" height="40pt" viewBox="0 0 410 40" version="1.1">
<defs>
<linearGradient id="linear0" gradientUnits="userSpaceOnUse" x1="0" y1="0" x2="41.05" y2="0" >
<stop offset="0.99" style="stop-color:rgb(74.901961%,38.039216%,41.568627%);stop-opacity:1;"/>
<stop offset="0.99" style="stop-color:rgb(100%,100%,100%);stop-opacity:1;"/>
</linearGradient>
<clipPath id="clip1">
  <path d="M 0 0 L 99 0 L 99 30 L 0 30 Z M 0 0 "/>
</clipPath>
<clipPath id="clip2">
  <path d="M 33 0 L 50 0 L 50 30 L 33 30 Z M 33 0 "/>
</clipPath>
<linearGradient id="linear1" gradientUnits="userSpaceOnUse" x1="0" y1="0" x2="41.05" y2="0" gradientTransform="matrix(1,0,0,1,104,0)">
<stop offset="0.99" style="stop-color:rgb(63.921569%,74.509804%,54.901961%);stop-opacity:1;"/>
<stop offset="0.99" style="stop-color:rgb(100%,100%,100%);stop-opacity:1;"/>
</linearGradient>
<clipPath id="clip3">
  <path d="M 104 0 L 203 0 L 203 30 L 104 30 Z M 104 0 "/>
</clipPath>
<clipPath id="clip4">
  <path d="M 137 0 L 154 0 L 154 30 L 137 30 Z M 137 0 "/>
</clipPath>
<linearGradient id="linear2" gradientUnits="userSpaceOnUse" x1="0" y1="0" x2="40.65" y2="0" gradientTransform="matrix(1,0,0,1,208,0)">
<stop offset="0.99" style="stop-color:rgb(36.862745%,50.588235%,67.45098%);stop-opacity:1;"/>
<stop offset="0.99" style="stop-color:rgb(100%,100%,100%);stop-opacity:1;"/>
</linearGradient>
<clipPath id="clip5">
  <path d="M 208 0 L 306 0 L 306 30 L 208 30 Z M 208 0 "/>
</clipPath>
<clipPath id="clip6">
  <path d="M 240 0 L 257 0 L 257 30 L 240 30 Z M 240 0 "/>
</clipPath>
<linearGradient id="linear3" gradientUnits="userSpaceOnUse" x1="0" y1="0" x2="41.05" y2="0" gradientTransform="matrix(1,0,0,1,311,0)">
<stop offset="0.99" style="stop-color:rgb(70.588235%,55.686275%,67.843137%);stop-opacity:1;"/>
<stop offset="0.99" style="stop-color:rgb(100%,100%,100%);stop-opacity:1;"/>
</linearGradient>
<clipPath id="clip7">
  <path d="M 311 0 L 410 0 L 410 30 L 311 30 Z M 311 0 "/>
</clipPath>
<clipPath id="clip8">
  <path d="M 344 0 L 361 0 L 361 30 L 344 30 Z M 344 0 "/>
</clipPath>
</defs>
<g id="surface2">
<path style=" stroke:none;fill-rule:nonzero;fill:url(#linear0);" d="M 0 0 L 99 0 L 99 30 L 0 30 Z M 0 0 "/>
<g clip-path="url(#clip1)" clip-rule="nonzero">
<path style="fill:none;stroke-width:1;stroke-linecap:butt;stroke-linejoin:miter;stroke:rgb(38.039216%,50.588235%,100%);stroke-opacity:1;stroke-miterlimit:10;" d="M 0 0 L 99 0 L 99 30 L 0 30 Z M 0 0 "/>
</g>
<path style=" stroke:none;fill-rule:nonzero;fill:rgb(38.039216%,50.588235%,100%);fill-opacity:0.490196;" d="M 33.601562 0 L 48.601562 0 L 48.601562 30 L 33.601562 30 Z M 33.601562 0 "/>
<g clip-path="url(#clip2)" clip-rule="nonzero">
<path style="fill:none;stroke-width:1;stroke-linecap:butt;stroke-linejoin:miter;stroke:rgb(38.039216%,50.588235%,100%);stroke-opacity:1;stroke-miterlimit:10;" d="M 0.0015625 0 L 15.001562 0 L 15.001562 30 L 0.0015625 30 Z M 0.0015625 0 " transform="matrix(1,0,0,1,33.6,0)"/>
</g>
<path style=" stroke:none;fill-rule:nonzero;fill:url(#linear1);" d="M 104 0 L 203 0 L 203 30 L 104 30 Z M 104 0 "/>
<g clip-path="url(#clip3)" clip-rule="nonzero">
<path style="fill:none;stroke-width:1;stroke-linecap:butt;stroke-linejoin:miter;stroke:rgb(38.039216%,50.588235%,100%);stroke-opacity:1;stroke-miterlimit:10;" d="M 0 0 L 99 0 L 99 30 L 0 30 Z M 0 0 " transform="matrix(1,0,0,1,104,0)"/>
</g>
<path style=" stroke:none;fill-rule:nonzero;fill:rgb(38.039216%,50.588235%,100%);fill-opacity:0.490196;" d="M 137.601562 0 L 152.601562 0 L 152.601562 30 L 137.601562 30 Z M 137.601562 0 "/>
<g clip-path="url(#clip4)" clip-rule="nonzero">
<path style="fill:none;stroke-width:1;stroke-linecap:butt;stroke-linejoin:miter;stroke:rgb(38.039216%,50.588235%,100%);stroke-opacity:1;stroke-miterlimit:10;" d="M 0.0015625 0 L 15.001563 0 L 15.001563 30 L 0.0015625 30 Z M 0.0015625 0 " transform="matrix(1,0,0,1,137.6,0)"/>
</g>
<path style=" stroke:none;fill-rule:nonzero;fill:url(#linear2);" d="M 208 0 L 306 0 L 306 30 L 208 30 Z M 208 0 "/>
<g clip-path="url(#clip5)" clip-rule="nonzero">
<path style="fill:none;stroke-width:1;stroke-linecap:butt;stroke-linejoin:miter;stroke:rgb(38.039216%,50.588235%,100%);stroke-opacity:1;stroke-miterlimit:10;" d="M 0 0 L 98 0 L 98 30 L 0 30 Z M 0 0 " transform="matrix(1,0,0,1,208,0)"/>
</g>
<path style=" stroke:none;fill-rule:nonzero;fill:rgb(38.039216%,50.588235%,100%);fill-opacity:0.490196;" d="M 241.199219 0 L 256.199219 0 L 256.199219 30 L 241.199219 30 Z M 241.199219 0 "/>
<g clip-path="url(#clip6)" clip-rule="nonzero">
<path style="fill:none;stroke-width:1;stroke-linecap:butt;stroke-linejoin:miter;stroke:rgb(38.039216%,50.588235%,100%);stroke-opacity:1;stroke-miterlimit:10;" d="M -0.00078125 0 L 14.999219 0 L 14.999219 30 L -0.00078125 30 Z M -0.00078125 0 " transform="matrix(1,0,0,1,241.2,0)"/>
</g>
<path style=" stroke:none;fill-rule:nonzero;fill:url(#linear3);" d="M 311 0 L 410 0 L 410 30 L 311 30 Z M 311 0 "/>
<g clip-path="url(#clip7)" clip-rule="nonzero">
<path style="fill:none;stroke-width:1;stroke-linecap:butt;stroke-linejoin:miter;stroke:rgb(38.039216%,50.588235%,100%);stroke-opacity:1;stroke-miterlimit:10;" d="M 0 0 L 99 0 L 99 30 L 0 30 Z M 0 0 " transform="matrix(1,0,0,1,311,0)"/>
</g>
<path style=" stroke:none;fill-rule:nonzero;fill:rgb(38.039216%,50.588235%,100%);fill-opacity:0.490196;" d="M 344.601562 0 L 359.601562 0 L 359.601562 30 L 344.601562 30 Z M 344.601562 0 "/>
<g clip-path="url(#clip8)" clip-rule="nonzero">
<path style="fill:none;stroke-width:1;stroke-linecap:butt;stroke-linejoin:miter;stroke:rgb(38.039216%,50.588235%,100%);stroke-opacity:1;stroke-miterlimit:10;" d="M 0.0015625 0 L 15.001562 0 L 15.001562 30 L 0.0015625 30 Z M 0.0015625 0 " transform="matrix(1,0,0,1,344.6,0)"/>
</g>
</g>
</svg>
