<?xml version="1.0" encoding="UTF-8"?>
<svg xmlns="http://www.w3.org/2000/svg" xmlns:xlink="http://www.w3.org/1999/xlink" width="268pt" height="206pt" viewBox="0 0 268 206" version="1.1">
<defs>
<clipPath id="clip1">
  <path d="M 10 10 L 52 10 L 52 42 L 10 42 Z M 10 10 "/>
</clipPath>
<clipPath id="clip2">
  <path d="M 11 11 L 51 11 L 51 41 L 11 41 Z M 11 11 "/>
</clipPath>
<clipPath id="clip3">
  <path d="M 11 16 C 11 13.238281 13.238281 11 16 11 L 46 11 C 48.761719 11 51 13.238281 51 16 L 51 36 C 51 38.761719 48.761719 41 46 41 L 16 41 C 13.238281 41 11 38.761719 11 36 Z M 11 16 "/>
</clipPath>
<clipPath id="clip4">
  <path d="M 150 120 L 192 120 L 192 152 L 150 152 Z M 150 120 "/>
</clipPath>
<clipPath id="clip5">
  <path d="M 151 121 L 191 121 L 191 151 L 151 151 Z M 151 121 "/>
</clipPath>
<clipPath id="clip6">
  <path d="M 151 126 C 151 123.238281 153.238281 121 156 121 L 186 121 C 188.761719 121 191 123.238281 191 126 L 191 146 C 191 148.761719 188.761719 151 186 151 L 156 151 C 153.238281 151 151 148.761719 151 146 Z M 151 126 "/>
</clipPath>
<clipPath id="clip7">
  <path d="M 80 55 L 122 55 L 122 87 L 80 87 Z M 80 55 "/>
</clipPath>
<clipPath id="clip8">
  <path d="M 81 56 L 121 56 L 121 86 L 81 86 Z M 81 56 "/>
</clipPath>
<clipPath id="clip9">
  <path d="M 81 61 C 81 58.238281 83.238281 56 86 56 L 116 56 C 118.761719 56 121 58.238281 121 61 L 121 81 C 121 83.761719 118.761719 86 116 86 L 86 86 C 83.238281 86 81 83.761719 81 81 Z M 81 61 "/>
</clipPath>
<clipPath id="clip10">
  <path d="M 150 120 L 192 120 L 192 152 L 150 152 Z M 150 120 "/>
</clipPath>
<clipPath id="clip11">
  <path d="M 151 121 L 191 121 L 191 151 L 151 151 Z M 151 121 "/>
</clipPath>
<clipPath id="clip12">
  <path d="M 151 126 C 151 123.238281 153.238281 121 156 121 L 186 121 C 188.761719 121 191 123.238281 191 126 L 191 146 C 191 148.761719 188.761719 151 186 151 L 156 151 C 153.238281 151 151 148.761719 151 146 Z M 151 126 "/>
</clipPath>
<clipPath id="clip13">
  <path d="M 0 0 L 42 0 L 42 52 L 0 52 Z M 0 0 "/>
</clipPath>
<clipPath id="clip14">
  <path d="M 1 1 L 41 1 L 41 51 L 1 51 Z M 1 1 "/>
</clipPath>
<clipPath id="clip15">
  <path d="M 1 6 C 1 3.238281 3.238281 1 6 1 L 36 1 C 38.761719 1 41 3.238281 41 6 L 41 46 C 41 48.761719 38.761719 51 36 51 L 6 51 C 3.238281 51 1 48.761719 1 46 Z M 1 6 "/>
</clipPath>
<clipPath id="clip16">
  <path d="M 150 120 L 192 120 L 192 152 L 150 152 Z M 150 120 "/>
</clipPath>
<clipPath id="clip17">
  <path d="M 151 121 L 191 121 L 191 151 L 151 151 Z M 151 121 "/>
</clipPath>
<clipPath id="clip18">
  <path d="M 151 126 C 151 123.238281 153.238281 121 156 121 L 186 121 C 188.761719 121 191 123.238281 191 126 L 191 146 C 191 148.761719 188.761719 151 186 151 L 156 151 C 153.238281 151 151 148.761719 151 146 Z M 151 126 "/>
</clipPath>
<clipPath id="clip19">
  <path d="M 76 54 L 118 54 L 118 86 L 76 86 Z M 76 54 "/>
</clipPath>
<clipPath id="clip20">
  <path d="M 77 55 L 117 55 L 117 85 L 77 85 Z M 77 55 "/>
</clipPath>
<clipPath id="clip21">
  <path d="M 77 60 C 77 57.238281 79.238281 55 82 55 L 112 55 C 114.761719 55 117 57.238281 117 60 L 117 80 C 117 82.761719 114.761719 85 112 85 L 82 85 C 79.238281 85 77 82.761719 77 80 Z M 77 60 "/>
</clipPath>
<clipPath id="clip22">
  <path d="M 220 120 L 262 120 L 262 152 L 220 152 Z M 220 120 "/>
</clipPath>
<clipPath id="clip23">
  <path d="M 221 121 L 261 121 L 261 151 L 221 151 Z M 221 121 "/>
</clipPath>
<clipPath id="clip24">
  <path d="M 221 126 C 221 123.238281 223.238281 121 226 121 L 256 121 C 258.761719 121 261 123.238281 261 126 L 261 146 C 261 148.761719 258.761719 151 256 151 L 226 151 C 223.238281 151 221 148.761719 221 146 Z M 221 126 "/>
</clipPath>
<clipPath id="clip25">
  <path d="M 76 54 L 118 54 L 118 86 L 76 86 Z M 76 54 "/>
</clipPath>
<clipPath id="clip26">
  <path d="M 77 55 L 117 55 L 117 85 L 77 85 Z M 77 55 "/>
</clipPath>
<clipPath id="clip27">
  <path d="M 77 60 C 77 57.238281 79.238281 55 82 55 L 112 55 C 114.761719 55 117 57.238281 117 60 L 117 80 C 117 82.761719 114.761719 85 112 85 L 82 85 C 79.238281 85 77 82.761719 77 80 Z M 77 60 "/>
</clipPath>
<clipPath id="clip28">
  <path d="M 150 165 L 192 165 L 192 197 L 150 197 Z M 150 165 "/>
</clipPath>
<clipPath id="clip29">
  <path d="M 151 166 L 191 166 L 191 196 L 151 196 Z M 151 166 "/>
</clipPath>
<clipPath id="clip30">
  <path d="M 151 171 C 151 168.238281 153.238281 166 156 166 L 186 166 C 188.761719 166 191 168.238281 191 171 L 191 191 C 191 193.761719 188.761719 196 186 196 L 156 196 C 153.238281 196 151 193.761719 151 191 Z M 151 171 "/>
</clipPath>
<clipPath id="clip31">
  <path d="M 76 54 L 118 54 L 118 86 L 76 86 Z M 76 54 "/>
</clipPath>
<clipPath id="clip32">
  <path d="M 77 55 L 117 55 L 117 85 L 77 85 Z M 77 55 "/>
</clipPath>
<clipPath id="clip33">
  <path d="M 77 60 C 77 57.238281 79.238281 55 82 55 L 112 55 C 114.761719 55 117 57.238281 117 60 L 117 80 C 117 82.761719 114.761719 85 112 85 L 82 85 C 79.238281 85 77 82.761719 77 80 Z M 77 60 "/>
</clipPath>
<clipPath id="clip34">
  <path d="M 220 165 L 262 165 L 262 197 L 220 197 Z M 220 165 "/>
</clipPath>
<clipPath id="clip35">
  <path d="M 221 166 L 261 166 L 261 196 L 221 196 Z M 221 166 "/>
</clipPath>
<clipPath id="clip36">
  <path d="M 221 171 C 221 168.238281 223.238281 166 226 166 L 256 166 C 258.761719 166 261 168.238281 261 171 L 261 191 C 261 193.761719 258.761719 196 256 196 L 226 196 C 223.238281 196 221 193.761719 221 191 Z M 221 171 "/>
</clipPath>
<clipPath id="clip37">
  <path d="M 76 54 L 118 54 L 118 86 L 76 86 Z M 76 54 "/>
</clipPath>
<clipPath id="clip38">
  <path d="M 77 55 L 117 55 L 117 85 L 77 85 Z M 77 55 "/>
</clipPath>
<clipPath id="clip39">
  <path d="M 77 60 C 77 57.238281 79.238281 55 82 55 L 112 55 C 114.761719 55 117 57.238281 117 60 L 117 80 C 117 82.761719 114.761719 85 112 85 L 82 85 C 79.238281 85 77 82.761719 77 80 Z M 77 60 "/>
</clipPath>
<clipPath id="clip40">
  <path d="M 140 110 L 182 110 L 182 162 L 140 162 Z M 140 110 "/>
</clipPath>
<clipPath id="clip41">
  <path d="M 141 111 L 181 111 L 181 161 L 141 161 Z M 141 111 "/>
</clipPath>
<clipPath id="clip42">
  <path d="M 141 116 C 141 113.238281 143.238281 111 146 111 L 176 111 C 178.761719 111 181 113.238281 181 116 L 181 156 C 181 158.761719 178.761719 161 176 161 L 146 161 C 143.238281 161 141 158.761719 141 156 Z M 141 116 "/>
</clipPath>
</defs>
<g id="surface2">
<path style="fill:none;stroke-width:1.5;stroke-linecap:butt;stroke-linejoin:miter;stroke:rgb(0%,0%,0%);stroke-opacity:0.266667;stroke-dasharray:10,4;stroke-dashoffset:1;stroke-miterlimit:10;" d="M 0.75 0.75 L 127.25 0.75 L 127.25 95.25 L 0.75 95.25 Z M 0.75 0.75 "/>
<path style="fill:none;stroke-width:1.5;stroke-linecap:butt;stroke-linejoin:miter;stroke:rgb(0%,0%,0%);stroke-opacity:0.2;stroke-dasharray:10,4;stroke-dashoffset:1;stroke-miterlimit:10;" d="M 10 10 L 118 10 L 118 86 L 10 86 Z M 10 10 "/>
<path style="fill:none;stroke-width:1.5;stroke-linecap:butt;stroke-linejoin:miter;stroke:rgb(0%,0%,0%);stroke-opacity:0.266667;stroke-dasharray:10,4;stroke-dashoffset:1;stroke-miterlimit:10;" d="M 140.75 0.75 L 267.25 0.75 L 267.25 95.25 L 140.75 95.25 Z M 140.75 0.75 "/>
<path style="fill:none;stroke-width:1.5;stroke-linecap:butt;stroke-linejoin:miter;stroke:rgb(0%,0%,0%);stroke-opacity:0.2;stroke-dasharray:10,4;stroke-dashoffset:1;stroke-miterlimit:10;" d="M 150 10 L 258 10 L 258 86 L 150 86 Z M 150 10 "/>
<path style="fill:none;stroke-width:1.5;stroke-linecap:butt;stroke-linejoin:miter;stroke:rgb(0%,0%,0%);stroke-opacity:0.266667;stroke-dasharray:10,4;stroke-dashoffset:1;stroke-miterlimit:10;" d="M 0.75 110.75 L 127.25 110.75 L 127.25 205.25 L 0.75 205.25 Z M 0.75 110.75 "/>
<path style="fill:none;stroke-width:1.5;stroke-linecap:butt;stroke-linejoin:miter;stroke:rgb(0%,0%,0%);stroke-opacity:0.2;stroke-dasharray:10,4;stroke-dashoffset:1;stroke-miterlimit:10;" d="M 10 120 L 118 120 L 118 196 L 10 196 Z M 10 120 "/>
<path style="fill:none;stroke-width:1.5;stroke-linecap:butt;stroke-linejoin:miter;stroke:rgb(0%,0%,0%);stroke-opacity:0.266667;stroke-dasharray:10,4;stroke-dashoffset:1;stroke-miterlimit:10;" d="M 140.75 110.75 L 267.25 110.75 L 267.25 205.25 L 140.75 205.25 Z M 140.75 110.75 "/>
<path style="fill:none;stroke-width:1.5;stroke-linecap:butt;stroke-linejoin:miter;stroke:rgb(0%,0%,0%);stroke-opacity:0.2;stroke-dasharray:10,4;stroke-dashoffset:1;stroke-miterlimit:10;" d="M 150 120 L 258 120 L 258 196 L 150 196 Z M 150 120 "/>
<path style="fill:none;stroke-width:0.75;stroke-linecap:butt;stroke-linejoin:miter;stroke:rgb(0%,0%,0%);stroke-opacity:0.1;stroke-miterlimit:10;" d="M 10 10 L 150 120 "/>
<path style="fill:none;stroke-width:0.75;stroke-linecap:butt;stroke-linejoin:miter;stroke:rgb(0%,0%,0%);stroke-opacity:0.1;stroke-miterlimit:10;" d="M 50 10 L 190 120 M 10 40 L 150 150 "/>
<path style="fill:none;stroke-width:0.75;stroke-linecap:butt;stroke-linejoin:miter;stroke:rgb(0%,0%,0%);stroke-opacity:0.1;stroke-miterlimit:10;" d="M 50 40 L 190 150 "/>
<path style="fill:none;stroke-width:0.75;stroke-linecap:butt;stroke-linejoin:miter;stroke:rgb(0%,0%,0%);stroke-opacity:0.1;stroke-miterlimit:10;" d="M 80 55 L 150 120 "/>
<path style="fill:none;stroke-width:0.75;stroke-linecap:butt;stroke-linejoin:miter;stroke:rgb(0%,0%,0%);stroke-opacity:0.1;stroke-miterlimit:10;" d="M 120 55 L 190 120 M 80 85 L 150 150 "/>
<path style="fill:none;stroke-width:0.75;stroke-linecap:butt;stroke-linejoin:miter;stroke:rgb(0%,0%,0%);stroke-opacity:0.1;stroke-miterlimit:10;" d="M 120 85 L 190 150 "/>
<path style="fill:none;stroke-width:0.75;stroke-linecap:butt;stroke-linejoin:miter;stroke:rgb(0%,0%,0%);stroke-opacity:0.1;stroke-miterlimit:10;" d="M 0 0 L 150 120 "/>
<path style="fill:none;stroke-width:0.75;stroke-linecap:butt;stroke-linejoin:miter;stroke:rgb(0%,0%,0%);stroke-opacity:0.1;stroke-miterlimit:10;" d="M 40 0 L 190 120 M 0 50 L 150 170 "/>
<path style="fill:none;stroke-width:0.75;stroke-linecap:butt;stroke-linejoin:miter;stroke:rgb(0%,0%,0%);stroke-opacity:0.1;stroke-miterlimit:10;" d="M 40 50 L 190 170 "/>
<path style="fill:none;stroke-width:0.75;stroke-linecap:butt;stroke-linejoin:miter;stroke:rgb(0%,0%,0%);stroke-opacity:0.1;stroke-miterlimit:10;" d="M 150 120 L 76 54 "/>
<path style="fill:none;stroke-width:0.75;stroke-linecap:butt;stroke-linejoin:miter;stroke:rgb(0%,0%,0%);stroke-opacity:0.1;stroke-miterlimit:10;" d="M 190 120 L 116 54 M 150 150 L 76 84 "/>
<path style="fill:none;stroke-width:0.75;stroke-linecap:butt;stroke-linejoin:miter;stroke:rgb(0%,0%,0%);stroke-opacity:0.1;stroke-miterlimit:10;" d="M 190 150 L 116 84 "/>
<path style="fill:none;stroke-width:0.75;stroke-linecap:butt;stroke-linejoin:miter;stroke:rgb(0%,0%,0%);stroke-opacity:0.1;stroke-miterlimit:10;" d="M 220 120 L 76 54 "/>
<path style="fill:none;stroke-width:0.75;stroke-linecap:butt;stroke-linejoin:miter;stroke:rgb(0%,0%,0%);stroke-opacity:0.1;stroke-miterlimit:10;" d="M 260 120 L 116 54 M 220 150 L 76 84 "/>
<path style="fill:none;stroke-width:0.75;stroke-linecap:butt;stroke-linejoin:miter;stroke:rgb(0%,0%,0%);stroke-opacity:0.1;stroke-miterlimit:10;" d="M 260 150 L 116 84 "/>
<path style="fill:none;stroke-width:0.75;stroke-linecap:butt;stroke-linejoin:miter;stroke:rgb(0%,0%,0%);stroke-opacity:0.1;stroke-miterlimit:10;" d="M 150 165 L 76 54 "/>
<path style="fill:none;stroke-width:0.75;stroke-linecap:butt;stroke-linejoin:miter;stroke:rgb(0%,0%,0%);stroke-opacity:0.1;stroke-miterlimit:10;" d="M 190 165 L 116 54 M 150 195 L 76 84 "/>
<path style="fill:none;stroke-width:0.75;stroke-linecap:butt;stroke-linejoin:miter;stroke:rgb(0%,0%,0%);stroke-opacity:0.1;stroke-miterlimit:10;" d="M 190 195 L 116 84 "/>
<path style="fill:none;stroke-width:0.75;stroke-linecap:butt;stroke-linejoin:miter;stroke:rgb(0%,0%,0%);stroke-opacity:0.1;stroke-miterlimit:10;" d="M 220 165 L 76 54 "/>
<path style="fill:none;stroke-width:0.75;stroke-linecap:butt;stroke-linejoin:miter;stroke:rgb(0%,0%,0%);stroke-opacity:0.1;stroke-miterlimit:10;" d="M 260 165 L 116 54 M 220 195 L 76 84 "/>
<path style="fill:none;stroke-width:0.75;stroke-linecap:butt;stroke-linejoin:miter;stroke:rgb(0%,0%,0%);stroke-opacity:0.1;stroke-miterlimit:10;" d="M 260 195 L 116 84 "/>
<path style="fill:none;stroke-width:0.75;stroke-linecap:butt;stroke-linejoin:miter;stroke:rgb(0%,0%,0%);stroke-opacity:0.1;stroke-miterlimit:10;" d="M 140 110 L 150 120 "/>
<path style="fill:none;stroke-width:0.75;stroke-linecap:butt;stroke-linejoin:miter;stroke:rgb(0%,0%,0%);stroke-opacity:0.1;stroke-miterlimit:10;" d="M 180 110 L 190 120 M 140 160 L 150 170 "/>
<path style="fill:none;stroke-width:0.75;stroke-linecap:butt;stroke-linejoin:miter;stroke:rgb(0%,0%,0%);stroke-opacity:0.1;stroke-miterlimit:10;" d="M 180 160 L 190 170 "/>
<g clip-path="url(#clip1)" clip-rule="nonzero">
<path style="fill:none;stroke-width:1;stroke-linecap:butt;stroke-linejoin:miter;stroke:rgb(38.039216%,50.588235%,100%);stroke-opacity:1;stroke-miterlimit:10;" d="M 0 5 C 0 2.238281 2.238281 0 5 0 L 35 0 C 37.761719 0 40 2.238281 40 5 L 40 25 C 40 27.761719 37.761719 30 35 30 L 5 30 C 2.238281 30 0 27.761719 0 25 Z M 0 5 " transform="matrix(1,0,0,1,11,11)"/>
</g>
<path style=" stroke:none;fill-rule:nonzero;fill:rgb(38.039216%,50.588235%,100%);fill-opacity:0.490196;" d="M 11 16 C 11 13.238281 13.238281 11 16 11 L 46 11 C 48.761719 11 51 13.238281 51 16 L 51 36 C 51 38.761719 48.761719 41 46 41 L 16 41 C 13.238281 41 11 38.761719 11 36 Z M 11 16 "/>
<g clip-path="url(#clip2)" clip-rule="nonzero">
<g clip-path="url(#clip3)" clip-rule="nonzero">
<path style="fill:none;stroke-width:1;stroke-linecap:butt;stroke-linejoin:miter;stroke:rgb(38.039216%,50.588235%,100%);stroke-opacity:1;stroke-miterlimit:10;" d="M 0 5 C 0 2.238281 2.238281 0 5 0 L 35 0 C 37.761719 0 40 2.238281 40 5 L 40 25 C 40 27.761719 37.761719 30 35 30 L 5 30 C 2.238281 30 0 27.761719 0 25 Z M 0 5 " transform="matrix(1,0,0,1,11,11)"/>
</g>
</g>
<g clip-path="url(#clip4)" clip-rule="nonzero">
<path style="fill:none;stroke-width:1;stroke-linecap:butt;stroke-linejoin:miter;stroke:rgb(38.039216%,50.588235%,100%);stroke-opacity:1;stroke-miterlimit:10;" d="M 0 5 C 0 2.238281 2.238281 0 5 0 L 35 0 C 37.761719 0 40 2.238281 40 5 L 40 25 C 40 27.761719 37.761719 30 35 30 L 5 30 C 2.238281 30 0 27.761719 0 25 Z M 0 5 " transform="matrix(1,0,0,1,151,121)"/>
</g>
<path style=" stroke:none;fill-rule:nonzero;fill:rgb(38.039216%,50.588235%,100%);fill-opacity:0.490196;" d="M 151 126 C 151 123.238281 153.238281 121 156 121 L 186 121 C 188.761719 121 191 123.238281 191 126 L 191 146 C 191 148.761719 188.761719 151 186 151 L 156 151 C 153.238281 151 151 148.761719 151 146 Z M 151 126 "/>
<g clip-path="url(#clip5)" clip-rule="nonzero">
<g clip-path="url(#clip6)" clip-rule="nonzero">
<path style="fill:none;stroke-width:1;stroke-linecap:butt;stroke-linejoin:miter;stroke:rgb(38.039216%,50.588235%,100%);stroke-opacity:1;stroke-miterlimit:10;" d="M 0 5 C 0 2.238281 2.238281 0 5 0 L 35 0 C 37.761719 0 40 2.238281 40 5 L 40 25 C 40 27.761719 37.761719 30 35 30 L 5 30 C 2.238281 30 0 27.761719 0 25 Z M 0 5 " transform="matrix(1,0,0,1,151,121)"/>
</g>
</g>
<g clip-path="url(#clip7)" clip-rule="nonzero">
<path style="fill:none;stroke-width:1;stroke-linecap:butt;stroke-linejoin:miter;stroke:rgb(38.039216%,50.588235%,100%);stroke-opacity:1;stroke-miterlimit:10;" d="M 0 5 C 0 2.238281 2.238281 0 5 0 L 35 0 C 37.761719 0 40 2.238281 40 5 L 40 25 C 40 27.761719 37.761719 30 35 30 L 5 30 C 2.238281 30 0 27.761719 0 25 Z M 0 5 " transform="matrix(1,0,0,1,81,56)"/>
</g>
<path style=" stroke:none;fill-rule:nonzero;fill:rgb(38.039216%,50.588235%,100%);fill-opacity:0.490196;" d="M 81 61 C 81 58.238281 83.238281 56 86 56 L 116 56 C 118.761719 56 121 58.238281 121 61 L 121 81 C 121 83.761719 118.761719 86 116 86 L 86 86 C 83.238281 86 81 83.761719 81 81 Z M 81 61 "/>
<g clip-path="url(#clip8)" clip-rule="nonzero">
<g clip-path="url(#clip9)" clip-rule="nonzero">
<path style="fill:none;stroke-width:1;stroke-linecap:butt;stroke-linejoin:miter;stroke:rgb(38.039216%,50.588235%,100%);stroke-opacity:1;stroke-miterlimit:10;" d="M 0 5 C 0 2.238281 2.238281 0 5 0 L 35 0 C 37.761719 0 40 2.238281 40 5 L 40 25 C 40 27.761719 37.761719 30 35 30 L 5 30 C 2.238281 30 0 27.761719 0 25 Z M 0 5 " transform="matrix(1,0,0,1,81,56)"/>
</g>
</g>
<g clip-path="url(#clip10)" clip-rule="nonzero">
<path style="fill:none;stroke-width:1;stroke-linecap:butt;stroke-linejoin:miter;stroke:rgb(38.039216%,50.588235%,100%);stroke-opacity:1;stroke-miterlimit:10;" d="M 0 5 C 0 2.238281 2.238281 0 5 0 L 35 0 C 37.761719 0 40 2.238281 40 5 L 40 25 C 40 27.761719 37.761719 30 35 30 L 5 30 C 2.238281 30 0 27.761719 0 25 Z M 0 5 " transform="matrix(1,0,0,1,151,121)"/>
</g>
<path style=" stroke:none;fill-rule:nonzero;fill:rgb(38.039216%,50.588235%,100%);fill-opacity:0.490196;" d="M 151 126 C 151 123.238281 153.238281 121 156 121 L 186 121 C 188.761719 121 191 123.238281 191 126 L 191 146 C 191 148.761719 188.761719 151 186 151 L 156 151 C 153.238281 151 151 148.761719 151 146 Z M 151 126 "/>
<g clip-path="url(#clip11)" clip-rule="nonzero">
<g clip-path="url(#clip12)" clip-rule="nonzero">
<path style="fill:none;stroke-width:1;stroke-linecap:butt;stroke-linejoin:miter;stroke:rgb(38.039216%,50.588235%,100%);stroke-opacity:1;stroke-miterlimit:10;" d="M 0 5 C 0 2.238281 2.238281 0 5 0 L 35 0 C 37.761719 0 40 2.238281 40 5 L 40 25 C 40 27.761719 37.761719 30 35 30 L 5 30 C 2.238281 30 0 27.761719 0 25 Z M 0 5 " transform="matrix(1,0,0,1,151,121)"/>
</g>
</g>
<g clip-path="url(#clip13)" clip-rule="nonzero">
<path style="fill:none;stroke-width:1;stroke-linecap:butt;stroke-linejoin:miter;stroke:rgb(38.039216%,50.588235%,100%);stroke-opacity:1;stroke-miterlimit:10;" d="M 0 5 C 0 2.238281 2.238281 0 5 0 L 35 0 C 37.761719 0 40 2.238281 40 5 L 40 45 C 40 47.761719 37.761719 50 35 50 L 5 50 C 2.238281 50 0 47.761719 0 45 Z M 0 5 " transform="matrix(1,0,0,1,1,1)"/>
</g>
<path style=" stroke:none;fill-rule:nonzero;fill:rgb(66.666667%,0%,100%);fill-opacity:0.490196;" d="M 1 6 C 1 3.238281 3.238281 1 6 1 L 36 1 C 38.761719 1 41 3.238281 41 6 L 41 46 C 41 48.761719 38.761719 51 36 51 L 6 51 C 3.238281 51 1 48.761719 1 46 Z M 1 6 "/>
<g clip-path="url(#clip14)" clip-rule="nonzero">
<g clip-path="url(#clip15)" clip-rule="nonzero">
<path style="fill:none;stroke-width:1;stroke-linecap:butt;stroke-linejoin:miter;stroke:rgb(38.039216%,50.588235%,100%);stroke-opacity:1;stroke-miterlimit:10;" d="M 0 5 C 0 2.238281 2.238281 0 5 0 L 35 0 C 37.761719 0 40 2.238281 40 5 L 40 45 C 40 47.761719 37.761719 50 35 50 L 5 50 C 2.238281 50 0 47.761719 0 45 Z M 0 5 " transform="matrix(1,0,0,1,1,1)"/>
</g>
</g>
<g clip-path="url(#clip16)" clip-rule="nonzero">
<path style="fill:none;stroke-width:1;stroke-linecap:butt;stroke-linejoin:miter;stroke:rgb(38.039216%,50.588235%,100%);stroke-opacity:1;stroke-miterlimit:10;" d="M 0 5 C 0 2.238281 2.238281 0 5 0 L 35 0 C 37.761719 0 40 2.238281 40 5 L 40 25 C 40 27.761719 37.761719 30 35 30 L 5 30 C 2.238281 30 0 27.761719 0 25 Z M 0 5 " transform="matrix(1,0,0,1,151,121)"/>
</g>
<path style=" stroke:none;fill-rule:nonzero;fill:rgb(38.039216%,50.588235%,100%);fill-opacity:0.490196;" d="M 151 126 C 151 123.238281 153.238281 121 156 121 L 186 121 C 188.761719 121 191 123.238281 191 126 L 191 146 C 191 148.761719 188.761719 151 186 151 L 156 151 C 153.238281 151 151 148.761719 151 146 Z M 151 126 "/>
<g clip-path="url(#clip17)" clip-rule="nonzero">
<g clip-path="url(#clip18)" clip-rule="nonzero">
<path style="fill:none;stroke-width:1;stroke-linecap:butt;stroke-linejoin:miter;stroke:rgb(38.039216%,50.588235%,100%);stroke-opacity:1;stroke-miterlimit:10;" d="M 0 5 C 0 2.238281 2.238281 0 5 0 L 35 0 C 37.761719 0 40 2.238281 40 5 L 40 25 C 40 27.761719 37.761719 30 35 30 L 5 30 C 2.238281 30 0 27.761719 0 25 Z M 0 5 " transform="matrix(1,0,0,1,151,121)"/>
</g>
</g>
<g clip-path="url(#clip19)" clip-rule="nonzero">
<path style="fill:none;stroke-width:1;stroke-linecap:butt;stroke-linejoin:miter;stroke:rgb(38.039216%,50.588235%,100%);stroke-opacity:1;stroke-miterlimit:10;" d="M 0 5 C 0 2.238281 2.238281 0 5 0 L 35 0 C 37.761719 0 40 2.238281 40 5 L 40 25 C 40 27.761719 37.761719 30 35 30 L 5 30 C 2.238281 30 0 27.761719 0 25 Z M 0 5 " transform="matrix(1,0,0,1,77,55)"/>
</g>
<path style=" stroke:none;fill-rule:nonzero;fill:rgb(38.039216%,50.588235%,100%);fill-opacity:0.490196;" d="M 77 60 C 77 57.238281 79.238281 55 82 55 L 112 55 C 114.761719 55 117 57.238281 117 60 L 117 80 C 117 82.761719 114.761719 85 112 85 L 82 85 C 79.238281 85 77 82.761719 77 80 Z M 77 60 "/>
<g clip-path="url(#clip20)" clip-rule="nonzero">
<g clip-path="url(#clip21)" clip-rule="nonzero">
<path style="fill:none;stroke-width:1;stroke-linecap:butt;stroke-linejoin:miter;stroke:rgb(38.039216%,50.588235%,100%);stroke-opacity:1;stroke-miterlimit:10;" d="M 0 5 C 0 2.238281 2.238281 0 5 0 L 35 0 C 37.761719 0 40 2.238281 40 5 L 40 25 C 40 27.761719 37.761719 30 35 30 L 5 30 C 2.238281 30 0 27.761719 0 25 Z M 0 5 " transform="matrix(1,0,0,1,77,55)"/>
</g>
</g>
<g clip-path="url(#clip22)" clip-rule="nonzero">
<path style="fill:none;stroke-width:1;stroke-linecap:butt;stroke-linejoin:miter;stroke:rgb(38.039216%,50.588235%,100%);stroke-opacity:1;stroke-miterlimit:10;" d="M 0 5 C 0 2.238281 2.238281 0 5 0 L 35 0 C 37.761719 0 40 2.238281 40 5 L 40 25 C 40 27.761719 37.761719 30 35 30 L 5 30 C 2.238281 30 0 27.761719 0 25 Z M 0 5 " transform="matrix(1,0,0,1,221,121)"/>
</g>
<path style=" stroke:none;fill-rule:nonzero;fill:rgb(38.039216%,50.588235%,100%);fill-opacity:0.490196;" d="M 221 126 C 221 123.238281 223.238281 121 226 121 L 256 121 C 258.761719 121 261 123.238281 261 126 L 261 146 C 261 148.761719 258.761719 151 256 151 L 226 151 C 223.238281 151 221 148.761719 221 146 Z M 221 126 "/>
<g clip-path="url(#clip23)" clip-rule="nonzero">
<g clip-path="url(#clip24)" clip-rule="nonzero">
<path style="fill:none;stroke-width:1;stroke-linecap:butt;stroke-linejoin:miter;stroke:rgb(38.039216%,50.588235%,100%);stroke-opacity:1;stroke-miterlimit:10;" d="M 0 5 C 0 2.238281 2.238281 0 5 0 L 35 0 C 37.761719 0 40 2.238281 40 5 L 40 25 C 40 27.761719 37.761719 30 35 30 L 5 30 C 2.238281 30 0 27.761719 0 25 Z M 0 5 " transform="matrix(1,0,0,1,221,121)"/>
</g>
</g>
<g clip-path="url(#clip25)" clip-rule="nonzero">
<path style="fill:none;stroke-width:1;stroke-linecap:butt;stroke-linejoin:miter;stroke:rgb(38.039216%,50.588235%,100%);stroke-opacity:1;stroke-miterlimit:10;" d="M 0 5 C 0 2.238281 2.238281 0 5 0 L 35 0 C 37.761719 0 40 2.238281 40 5 L 40 25 C 40 27.761719 37.761719 30 35 30 L 5 30 C 2.238281 30 0 27.761719 0 25 Z M 0 5 " transform="matrix(1,0,0,1,77,55)"/>
</g>
<path style=" stroke:none;fill-rule:nonzero;fill:rgb(38.039216%,50.588235%,100%);fill-opacity:0.490196;" d="M 77 60 C 77 57.238281 79.238281 55 82 55 L 112 55 C 114.761719 55 117 57.238281 117 60 L 117 80 C 117 82.761719 114.761719 85 112 85 L 82 85 C 79.238281 85 77 82.761719 77 80 Z M 77 60 "/>
<g clip-path="url(#clip26)" clip-rule="nonzero">
<g clip-path="url(#clip27)" clip-rule="nonzero">
<path style="fill:none;stroke-width:1;stroke-linecap:butt;stroke-linejoin:miter;stroke:rgb(38.039216%,50.588235%,100%);stroke-opacity:1;stroke-miterlimit:10;" d="M 0 5 C 0 2.238281 2.238281 0 5 0 L 35 0 C 37.761719 0 40 2.238281 40 5 L 40 25 C 40 27.761719 37.761719 30 35 30 L 5 30 C 2.238281 30 0 27.761719 0 25 Z M 0 5 " transform="matrix(1,0,0,1,77,55)"/>
</g>
</g>
<g clip-path="url(#clip28)" clip-rule="nonzero">
<path style="fill:none;stroke-width:1;stroke-linecap:butt;stroke-linejoin:miter;stroke:rgb(38.039216%,50.588235%,100%);stroke-opacity:1;stroke-miterlimit:10;" d="M 0 5 C 0 2.238281 2.238281 0 5 0 L 35 0 C 37.761719 0 40 2.238281 40 5 L 40 25 C 40 27.761719 37.761719 30 35 30 L 5 30 C 2.238281 30 0 27.761719 0 25 Z M 0 5 " transform="matrix(1,0,0,1,151,166)"/>
</g>
<path style=" stroke:none;fill-rule:nonzero;fill:rgb(38.039216%,50.588235%,100%);fill-opacity:0.490196;" d="M 151 171 C 151 168.238281 153.238281 166 156 166 L 186 166 C 188.761719 166 191 168.238281 191 171 L 191 191 C 191 193.761719 188.761719 196 186 196 L 156 196 C 153.238281 196 151 193.761719 151 191 Z M 151 171 "/>
<g clip-path="url(#clip29)" clip-rule="nonzero">
<g clip-path="url(#clip30)" clip-rule="nonzero">
<path style="fill:none;stroke-width:1;stroke-linecap:butt;stroke-linejoin:miter;stroke:rgb(38.039216%,50.588235%,100%);stroke-opacity:1;stroke-miterlimit:10;" d="M 0 5 C 0 2.238281 2.238281 0 5 0 L 35 0 C 37.761719 0 40 2.238281 40 5 L 40 25 C 40 27.761719 37.761719 30 35 30 L 5 30 C 2.238281 30 0 27.761719 0 25 Z M 0 5 " transform="matrix(1,0,0,1,151,166)"/>
</g>
</g>
<g clip-path="url(#clip31)" clip-rule="nonzero">
<path style="fill:none;stroke-width:1;stroke-linecap:butt;stroke-linejoin:miter;stroke:rgb(38.039216%,50.588235%,100%);stroke-opacity:1;stroke-miterlimit:10;" d="M 0 5 C 0 2.238281 2.238281 0 5 0 L 35 0 C 37.761719 0 40 2.238281 40 5 L 40 25 C 40 27.761719 37.761719 30 35 30 L 5 30 C 2.238281 30 0 27.761719 0 25 Z M 0 5 " transform="matrix(1,0,0,1,77,55)"/>
</g>
<path style=" stroke:none;fill-rule:nonzero;fill:rgb(38.039216%,50.588235%,100%);fill-opacity:0.490196;" d="M 77 60 C 77 57.238281 79.238281 55 82 55 L 112 55 C 114.761719 55 117 57.238281 117 60 L 117 80 C 117 82.761719 114.761719 85 112 85 L 82 85 C 79.238281 85 77 82.761719 77 80 Z M 77 60 "/>
<g clip-path="url(#clip32)" clip-rule="nonzero">
<g clip-path="url(#clip33)" clip-rule="nonzero">
<path style="fill:none;stroke-width:1;stroke-linecap:butt;stroke-linejoin:miter;stroke:rgb(38.039216%,50.588235%,100%);stroke-opacity:1;stroke-miterlimit:10;" d="M 0 5 C 0 2.238281 2.238281 0 5 0 L 35 0 C 37.761719 0 40 2.238281 40 5 L 40 25 C 40 27.761719 37.761719 30 35 30 L 5 30 C 2.238281 30 0 27.761719 0 25 Z M 0 5 " transform="matrix(1,0,0,1,77,55)"/>
</g>
</g>
<g clip-path="url(#clip34)" clip-rule="nonzero">
<path style="fill:none;stroke-width:1;stroke-linecap:butt;stroke-linejoin:miter;stroke:rgb(38.039216%,50.588235%,100%);stroke-opacity:1;stroke-miterlimit:10;" d="M 0 5 C 0 2.238281 2.238281 0 5 0 L 35 0 C 37.761719 0 40 2.238281 40 5 L 40 25 C 40 27.761719 37.761719 30 35 30 L 5 30 C 2.238281 30 0 27.761719 0 25 Z M 0 5 " transform="matrix(1,0,0,1,221,166)"/>
</g>
<path style=" stroke:none;fill-rule:nonzero;fill:rgb(38.039216%,50.588235%,100%);fill-opacity:0.490196;" d="M 221 171 C 221 168.238281 223.238281 166 226 166 L 256 166 C 258.761719 166 261 168.238281 261 171 L 261 191 C 261 193.761719 258.761719 196 256 196 L 226 196 C 223.238281 196 221 193.761719 221 191 Z M 221 171 "/>
<g clip-path="url(#clip35)" clip-rule="nonzero">
<g clip-path="url(#clip36)" clip-rule="nonzero">
<path style="fill:none;stroke-width:1;stroke-linecap:butt;stroke-linejoin:miter;stroke:rgb(38.039216%,50.588235%,100%);stroke-opacity:1;stroke-miterlimit:10;" d="M 0 5 C 0 2.238281 2.238281 0 5 0 L 35 0 C 37.761719 0 40 2.238281 40 5 L 40 25 C 40 27.761719 37.761719 30 35 30 L 5 30 C 2.238281 30 0 27.761719 0 25 Z M 0 5 " transform="matrix(1,0,0,1,221,166)"/>
</g>
</g>
<g clip-path="url(#clip37)" clip-rule="nonzero">
<path style="fill:none;stroke-width:1;stroke-linecap:butt;stroke-linejoin:miter;stroke:rgb(38.039216%,50.588235%,100%);stroke-opacity:1;stroke-miterlimit:10;" d="M 0 5 C 0 2.238281 2.238281 0 5 0 L 35 0 C 37.761719 0 40 2.238281 40 5 L 40 25 C 40 27.761719 37.761719 30 35 30 L 5 30 C 2.238281 30 0 27.761719 0 25 Z M 0 5 " transform="matrix(1,0,0,1,77,55)"/>
</g>
<path style=" stroke:none;fill-rule:nonzero;fill:rgb(38.039216%,50.588235%,100%);fill-opacity:0.490196;" d="M 77 60 C 77 57.238281 79.238281 55 82 55 L 112 55 C 114.761719 55 117 57.238281 117 60 L 117 80 C 117 82.761719 114.761719 85 112 85 L 82 85 C 79.238281 85 77 82.761719 77 80 Z M 77 60 "/>
<g clip-path="url(#clip38)" clip-rule="nonzero">
<g clip-path="url(#clip39)" clip-rule="nonzero">
<path style="fill:none;stroke-width:1;stroke-linecap:butt;stroke-linejoin:miter;stroke:rgb(38.039216%,50.588235%,100%);stroke-opacity:1;stroke-miterlimit:10;" d="M 0 5 C 0 2.238281 2.238281 0 5 0 L 35 0 C 37.761719 0 40 2.238281 40 5 L 40 25 C 40 27.761719 37.761719 30 35 30 L 5 30 C 2.238281 30 0 27.761719 0 25 Z M 0 5 " transform="matrix(1,0,0,1,77,55)"/>
</g>
</g>
<g clip-path="url(#clip40)" clip-rule="nonzero">
<path style="fill:none;stroke-width:1;stroke-linecap:butt;stroke-linejoin:miter;stroke:rgb(38.039216%,50.588235%,100%);stroke-opacity:1;stroke-miterlimit:10;" d="M 0 5 C 0 2.238281 2.238281 0 5 0 L 35 0 C 37.761719 0 40 2.238281 40 5 L 40 45 C 40 47.761719 37.761719 50 35 50 L 5 50 C 2.238281 50 0 47.761719 0 45 Z M 0 5 " transform="matrix(1,0,0,1,141,111)"/>
</g>
<path style=" stroke:none;fill-rule:nonzero;fill:rgb(66.666667%,0%,100%);fill-opacity:0.490196;" d="M 141 116 C 141 113.238281 143.238281 111 146 111 L 176 111 C 178.761719 111 181 113.238281 181 116 L 181 156 C 181 158.761719 178.761719 161 176 161 L 146 161 C 143.238281 161 141 158.761719 141 156 Z M 141 116 "/>
<g clip-path="url(#clip41)" clip-rule="nonzero">
<g clip-path="url(#clip42)" clip-rule="nonzero">
<path style="fill:none;stroke-width:1;stroke-linecap:butt;stroke-linejoin:miter;stroke:rgb(38.039216%,50.588235%,100%);stroke-opacity:1;stroke-miterlimit:10;" d="M 0 5 C 0 2.238281 2.238281 0 5 0 L 35 0 C 37.761719 0 40 2.238281 40 5 L 40 45 C 40 47.761719 37.761719 50 35 50 L 5 50 C 2.238281 50 0 47.761719 0 45 Z M 0 5 " transform="matrix(1,0,0,1,141,111)"/>
</g>
</g>
</g>
</svg>
