<?xml version="1.0" encoding="UTF-8"?>
<svg xmlns="http://www.w3.org/2000/svg" xmlns:xlink="http://www.w3.org/1999/xlink" width="320pt" height="240pt" viewBox="0 0 320 240" version="1.1">
<defs>
<clipPath id="clip1">
  <path d="M 0 0 L 72 0 L 72 72 L 0 72 Z M 0 0 "/>
</clipPath>
<clipPath id="clip2">
  <path d="M 0 0 L 71 0 L 71 71 L 0 71 Z M 0 0 "/>
</clipPath>
<clipPath id="clip3">
  <path d="M -29 -24 C -29 -26.761719 -26.761719 -29 -24 -29 L 66 -29 C 68.761719 -29 71 -26.761719 71 -24 L 71 66 C 71 68.761719 68.761719 71 66 71 L -24 71 C -26.761719 71 -29 68.761719 -29 66 Z M -29 -24 "/>
</clipPath>
<clipPath id="clip4">
  <path d="M 50 50 L 152 50 L 152 152 L 50 152 Z M 50 50 "/>
</clipPath>
<clipPath id="clip5">
  <path d="M 51 51 L 151 51 L 151 151 L 51 151 Z M 51 51 "/>
</clipPath>
<clipPath id="clip6">
  <path d="M 51 56 C 51 53.238281 53.238281 51 56 51 L 146 51 C 148.761719 51 151 53.238281 151 56 L 151 146 C 151 148.761719 148.761719 151 146 151 L 56 151 C 53.238281 151 51 148.761719 51 146 Z M 51 56 "/>
</clipPath>
</defs>
<g id="surface2">
<path style="fill:none;stroke-width:1.5;stroke-linecap:butt;stroke-linejoin:miter;stroke:rgb(0%,0%,0%);stroke-opacity:0.266667;stroke-dasharray:10,4;stroke-dashoffset:1;stroke-miterlimit:10;" d="M 0.75 0.75 L 319.25 0.75 L 319.25 239.25 L 0.75 239.25 Z M 0.75 0.75 "/>
<path style="fill:none;stroke-width:1.5;stroke-linecap:butt;stroke-linejoin:miter;stroke:rgb(0%,0%,0%);stroke-opacity:0.2;stroke-dasharray:10,4;stroke-dashoffset:1;stroke-miterlimit:10;" d="M 10 10 L 310 10 L 310 230 L 10 230 Z M 10 10 "/>
<path style="fill:none;stroke-width:0.75;stroke-linecap:butt;stroke-linejoin:miter;stroke:rgb(0%,0%,0%);stroke-opacity:0.1;stroke-miterlimit:10;" d="M -30 -30 L 50 50 "/>
<path style="fill:none;stroke-width:0.75;stroke-linecap:butt;stroke-linejoin:miter;stroke:rgb(0%,0%,0%);stroke-opacity:0.1;stroke-miterlimit:10;" d="M 70 -30 L 150 50 M -30 70 L 50 150 "/>
<path style="fill:none;stroke-width:0.75;stroke-linecap:butt;stroke-linejoin:miter;stroke:rgb(0%,0%,0%);stroke-opacity:0.1;stroke-miterlimit:10;" d="M 70 70 L 150 150 "/>
<g clip-path="url(#clip1)" clip-rule="nonzero">
<path style="fill:none;stroke-width:1;stroke-linecap:butt;stroke-linejoin:miter;stroke:rgb(38.039216%,50.588235%,100%);stroke-opacity:1;stroke-miterlimit:10;" d="M 0 5 C 0 2.238281 2.238281 0 5 0 L 95 0 C 97.761719 0 100 2.238281 100 5 L 100 95 C 100 97.761719 97.761719 100 95 100 L 5 100 C 2.238281 100 0 97.761719 0 95 Z M 0 5 " transform="matrix(1,0,0,1,-29,-29)"/>
</g>
<path style=" stroke:none;fill-rule:nonzero;fill:rgb(38.039216%,50.588235%,100%);fill-opacity:0.490196;" d="M -29 -24 C -29 -26.761719 -26.761719 -29 -24 -29 L 66 -29 C 68.761719 -29 71 -26.761719 71 -24 L 71 66 C 71 68.761719 68.761719 71 66 71 L -24 71 C -26.761719 71 -29 68.761719 -29 66 Z M -29 -24 "/>
<g clip-path="url(#clip2)" clip-rule="nonzero">
<g clip-path="url(#clip3)" clip-rule="nonzero">
<path style="fill:none;stroke-width:1;stroke-linecap:butt;stroke-linejoin:miter;stroke:rgb(38.039216%,50.588235%,100%);stroke-opacity:1;stroke-miterlimit:10;" d="M 0 5 C 0 2.238281 2.238281 0 5 0 L 95 0 C 97.761719 0 100 2.238281 100 5 L 100 95 C 100 97.761719 97.761719 100 95 100 L 5 100 C 2.238281 100 0 97.761719 0 95 Z M 0 5 " transform="matrix(1,0,0,1,-29,-29)"/>
</g>
</g>
<g clip-path="url(#clip4)" clip-rule="nonzero">
<path style="fill:none;stroke-width:1;stroke-linecap:butt;stroke-linejoin:miter;stroke:rgb(38.039216%,50.588235%,100%);stroke-opacity:1;stroke-miterlimit:10;" d="M 0 5 C 0 2.238281 2.238281 0 5 0 L 95 0 C 97.761719 0 100 2.238281 100 5 L 100 95 C 100 97.761719 97.761719 100 95 100 L 5 100 C 2.238281 100 0 97.761719 0 95 Z M 0 5 " transform="matrix(1,0,0,1,51,51)"/>
</g>
<path style=" stroke:none;fill-rule:nonzero;fill:rgb(38.039216%,50.588235%,100%);fill-opacity:0.490196;" d="M 51 56 C 51 53.238281 53.238281 51 56 51 L 146 51 C 148.761719 51 151 53.238281 151 56 L 151 146 C 151 148.761719 148.761719 151 146 151 L 56 151 C 53.238281 151 51 148.761719 51 146 Z M 51 56 "/>
<g clip-path="url(#clip5)" clip-rule="nonzero">
<g clip-path="url(#clip6)" clip-rule="nonzero">
<path style="fill:none;stroke-width:1;stroke-linecap:butt;stroke-linejoin:miter;stroke:rgb(38.039216%,50.588235%,100%);stroke-opacity:1;stroke-miterlimit:10;" d="M 0 5 C 0 2.238281 2.238281 0 5 0 L 95 0 C 97.761719 0 100 2.238281 100 5 L 100 95 C 100 97.761719 97.761719 100 95 100 L 5 100 C 2.238281 100 0 97.761719 0 95 Z M 0 5 " transform="matrix(1,0,0,1,51,51)"/>
</g>
</g>
</g>
</svg>
