<?xml version="1.0" encoding="UTF-8"?>
<?xml-stylesheet href="../ldoc.css" type="text/css"?>
<svg xmlns="http://www.w3.org/2000/svg" xmlns:xlink="http://www.w3.org/1999/xlink" width="128" height="96" viewBox="0 0 128 96">
<defs>
<filter id="filter-remove-color" x="0%" y="0%" width="100%" height="100%">
<feColorMatrix color-interpolation-filters="sRGB" values="0 0 0 0 1 0 0 0 0 1 0 0 0 0 1 0 0 0 1 0" />
</filter>
<filter id="filter-remove-color-and-invert-alpha" x="0%" y="0%" width="100%" height="100%">
<feColorMatrix color-interpolation-filters="sRGB" values="0 0 0 0 1 0 0 0 0 1 0 0 0 0 1 0 0 0 -1 1"/>
</filter>
<filter id="filter-0" x="0%" y="0%" width="100%" height="100%">
<feImage xlink:href="#compositing-group-1" result="source" x="0" y="0" width="184.32" height="138.24"/>
<feImage xlink:href="#compositing-group-2" result="destination" x="0" y="0" width="184.32" height="138.24"/>
<feComposite in="source" in2="destination" operator="arithmetic" k1="0" k2="1" k3="1" k4="0" color-interpolation-filters="sRGB"/>
</filter>
<filter id="filter-1" x="0%" y="0%" width="100%" height="100%">
<feImage xlink:href="#compositing-group-4" result="source" x="0" y="0" width="184.32" height="138.24"/>
<feImage xlink:href="#compositing-group-5" result="destination" x="0" y="0" width="184.32" height="138.24"/>
<feComposite in="source" in2="destination" operator="arithmetic" k1="0" k2="1" k3="1" k4="0" color-interpolation-filters="sRGB"/>
</filter>
<filter id="filter-2" x="0%" y="0%" width="100%" height="100%">
<feImage xlink:href="#compositing-group-7" result="source" x="0" y="0" width="184.32" height="138.24"/>
<feImage xlink:href="#compositing-group-8" result="destination" x="0" y="0" width="184.32" height="138.24"/>
<feComposite in="source" in2="destination" operator="arithmetic" k1="0" k2="1" k3="1" k4="0" color-interpolation-filters="sRGB"/>
</filter>
<filter id="filter-3" x="0%" y="0%" width="100%" height="100%">
<feImage xlink:href="#compositing-group-10" result="source" x="0" y="0" width="184.32" height="138.24"/>
<feImage xlink:href="#compositing-group-11" result="destination" x="0" y="0" width="184.32" height="138.24"/>
<feComposite in="source" in2="destination" operator="arithmetic" k1="0" k2="1" k3="1" k4="0" color-interpolation-filters="sRGB"/>
</filter>
<g id="compositing-group-0" transform="translate(38.16, 31.12)">
<rect x="-38.16" y="-31.12" width="184.32" height="138.24" fill="rgb(0%, 0%, 0%)" fill-opacity="0"/>
<clipPath id="clip-0">
<path clip-rule="nonzero" d="M 0 0 L 52 0 L 52 42 L 0 42 Z M 0 0 "/>
</clipPath>
<g clip-path="url(#clip-0)">
<path fill="none" stroke-width="2" stroke-linecap="butt" stroke-linejoin="miter" stroke="rgb(100%, 100%, 100%)" stroke-opacity="1" stroke-miterlimit="10" d="M 0 5 C 0 2.238281 2.238281 0 5 0 L 35 0 C 37.761719 0 40 2.238281 40 5 L 40 25 C 40 27.761719 37.761719 30 35 30 L 5 30 C 2.238281 30 0 27.761719 0 25 Z M 0 5 " transform="matrix(1, 0, 0, 1, 11, 11)"/>
</g>
</g>
<mask id="mask-1">
<use xlink:href="#compositing-group-0"/>
</mask>
<mask id="mask-2">
<use xlink:href="#compositing-group-0" filter="url(#filter-remove-color-and-invert-alpha)"/>
</mask>
<g id="compositing-group-1" mask="url(#mask-1)">
<g transform="translate(38.16, 31.12)">
<rect x="-38.16" y="-31.12" width="184.32" height="138.24" fill="rgb(100%, 0%, 0%)" fill-opacity="1"/>
</g>
</g>
<g id="compositing-group-2" mask="url(#mask-2)">
<g transform="translate(38.16, 31.12)">
</g>
</g>
<g id="compositing-group-3" transform="translate(38.16, 31.12)">
<rect x="-38.16" y="-31.12" width="184.32" height="138.24" fill="rgb(0%, 0%, 0%)" fill-opacity="0"/>
<path fill-rule="nonzero" fill="rgb(100%, 100%, 100%)" fill-opacity="1" d="M 11 16 C 11 13.238281 13.238281 11 16 11 L 46 11 C 48.761719 11 51 13.238281 51 16 L 51 36 C 51 38.761719 48.761719 41 46 41 L 16 41 C 13.238281 41 11 38.761719 11 36 Z M 11 16 "/>
</g>
<mask id="mask-3">
<use xlink:href="#compositing-group-3"/>
</mask>
<mask id="mask-4">
<use xlink:href="#compositing-group-3" filter="url(#filter-remove-color-and-invert-alpha)"/>
</mask>
<g id="compositing-group-4" mask="url(#mask-3)">
<g transform="translate(38.16, 31.12)">
</g>
</g>
<g id="compositing-group-5" mask="url(#mask-4)">
<g transform="translate(38.16, 31.12)">
<g filter="url(#filter-0)" transform="translate(-38.16, -31.12)">
<rect x="0" y="0" width="184.32" height="138.24" fill="rgb(0%, 0%, 0%)" fill-opacity="1"/>
</g>
</g>
</g>
<clipPath id="clip-1">
<rect x="0" y="0" width="52" height="42"/>
</clipPath>
<g id="source-6" clip-path="url(#clip-1)">
<g filter="url(#filter-1)" transform="translate(-38.16, -31.12)">
<rect x="0" y="0" width="184.32" height="138.24" fill="rgb(0%, 0%, 0%)" fill-opacity="1"/>
</g>
</g>
<mask id="mask-0">
<g filter="url(#filter-remove-color)">
<use xlink:href="#source-6" transform="matrix(1, 0, 0, 1, 10, 10)"/>
</g>
</mask>
<g id="compositing-group-6" transform="translate(57.16, 55.12)">
<rect x="-57.16" y="-55.12" width="184.32" height="138.24" fill="rgb(0%, 0%, 0%)" fill-opacity="0"/>
<clipPath id="clip-2">
<path clip-rule="nonzero" d="M 1 6 L 71 6 L 71 66 L 1 66 Z M 1 6 "/>
</clipPath>
<g clip-path="url(#clip-2)">
<path fill="none" stroke-width="2" stroke-linecap="butt" stroke-linejoin="miter" stroke="rgb(100%, 100%, 100%)" stroke-opacity="1" stroke-miterlimit="10" d="M 0 5 C 0 2.238281 2.238281 0 5 0 L 35 0 C 37.761719 0 40 2.238281 40 5 L 40 25 C 40 27.761719 37.761719 30 35 30 L 5 30 C 2.238281 30 0 27.761719 0 25 Z M 0 5 " transform="matrix(1, 0, 0, 1, 30, 35)"/>
</g>
</g>
<mask id="mask-6">
<use xlink:href="#compositing-group-6"/>
</mask>
<mask id="mask-7">
<use xlink:href="#compositing-group-6" filter="url(#filter-remove-color-and-invert-alpha)"/>
</mask>
<g id="compositing-group-7" mask="url(#mask-6)">
<g transform="translate(57.16, 55.12)">
<rect x="-57.16" y="-55.12" width="184.32" height="138.24" fill="rgb(100%, 0%, 0%)" fill-opacity="1"/>
</g>
</g>
<g id="compositing-group-8" mask="url(#mask-7)">
<g transform="translate(57.16, 55.12)">
</g>
</g>
<g id="compositing-group-9" transform="translate(57.16, 55.12)">
<rect x="-57.16" y="-55.12" width="184.32" height="138.24" fill="rgb(0%, 0%, 0%)" fill-opacity="0"/>
<path fill-rule="nonzero" fill="rgb(100%, 100%, 100%)" fill-opacity="1" d="M 30 40 C 30 37.238281 32.238281 35 35 35 L 65 35 C 67.761719 35 70 37.238281 70 40 L 70 60 C 70 62.761719 67.761719 65 65 65 L 35 65 C 32.238281 65 30 62.761719 30 60 Z M 30 40 "/>
</g>
<mask id="mask-8">
<use xlink:href="#compositing-group-9"/>
</mask>
<mask id="mask-9">
<use xlink:href="#compositing-group-9" filter="url(#filter-remove-color-and-invert-alpha)"/>
</mask>
<g id="compositing-group-10" mask="url(#mask-8)">
<g transform="translate(57.16, 55.12)">
</g>
</g>
<g id="compositing-group-11" mask="url(#mask-9)">
<g transform="translate(57.16, 55.12)">
<g filter="url(#filter-2)" transform="translate(-57.16, -55.12)">
<rect x="0" y="0" width="184.32" height="138.24" fill="rgb(0%, 0%, 0%)" fill-opacity="1"/>
</g>
</g>
</g>
<clipPath id="clip-3">
<rect x="0" y="0" width="71" height="66"/>
</clipPath>
<g id="source-8" clip-path="url(#clip-3)">
<g filter="url(#filter-3)" transform="translate(-57.16, -55.12)">
<rect x="0" y="0" width="184.32" height="138.24" fill="rgb(0%, 0%, 0%)" fill-opacity="1"/>
</g>
</g>
<mask id="mask-5">
<g filter="url(#filter-remove-color)">
<use xlink:href="#source-8" transform="matrix(1, 0, 0, 1, 29, 34)"/>
</g>
</mask>
</defs>
<path fill="none" stroke-width="1.5" stroke-linecap="butt" stroke-linejoin="miter" stroke="rgb(0%, 0%, 0%)" stroke-opacity="0.266667" stroke-dasharray="10 4" stroke-dashoffset="1" stroke-miterlimit="10" d="M 0.75 0.75 L 127.25 0.75 L 127.25 95.25 L 0.75 95.25 Z M 0.75 0.75 "/>
<path fill="none" stroke-width="1.5" stroke-linecap="butt" stroke-linejoin="miter" stroke="rgb(0%, 0%, 0%)" stroke-opacity="0.2" stroke-dasharray="10 4" stroke-dashoffset="1" stroke-miterlimit="10" d="M 10 10 L 118 10 L 118 86 L 10 86 Z M 10 10 "/>
<path fill="none" stroke-width="0.75" stroke-linecap="butt" stroke-linejoin="miter" stroke="rgb(0%, 0%, 0%)" stroke-opacity="0.1" stroke-miterlimit="10" d="M 10 10 L 29 34 "/>
<path fill="none" stroke-width="0.75" stroke-linecap="butt" stroke-linejoin="miter" stroke="rgb(0%, 0%, 0%)" stroke-opacity="0.1" stroke-miterlimit="10" d="M 50 10 L 69 34 M 10 40 L 29 64 "/>
<path fill="none" stroke-width="0.75" stroke-linecap="butt" stroke-linejoin="miter" stroke="rgb(0%, 0%, 0%)" stroke-opacity="0.1" stroke-miterlimit="10" d="M 50 40 L 69 64 "/>
<path fill-rule="nonzero" fill="rgb(38.039216%, 50.588235%, 100%)" fill-opacity="0.490196" d="M 11 16 C 11 13.238281 13.238281 11 16 11 L 46 11 C 48.761719 11 51 13.238281 51 16 L 51 36 C 51 38.761719 48.761719 41 46 41 L 16 41 C 13.238281 41 11 38.761719 11 36 Z M 11 16 "/>
<g mask="url(#mask-0)">
<rect x="-12.8" y="-9.6" width="153.6" height="115.2" fill="rgb(38.039216%, 50.588235%, 100%)" fill-opacity="1"/>
</g>
<path fill-rule="nonzero" fill="rgb(38.039216%, 50.588235%, 100%)" fill-opacity="0.490196" d="M 30 40 C 30 37.238281 32.238281 35 35 35 L 65 35 C 67.761719 35 70 37.238281 70 40 L 70 60 C 70 62.761719 67.761719 65 65 65 L 35 65 C 32.238281 65 30 62.761719 30 60 Z M 30 40 "/>
<g mask="url(#mask-5)">
<rect x="-12.8" y="-9.6" width="153.6" height="115.2" fill="rgb(38.039216%, 50.588235%, 100%)" fill-opacity="1"/>
</g>
<path fill-rule="nonzero" fill="rgb(100%, 0%, 0%)" fill-opacity="1" d="M 50 50 L 50 60 L 53 58 L 56 62 L 58 62 L 55 58 L 59 58 Z M 50 50 "/>
</svg>
