<?xml version="1.0" encoding="UTF-8"?>
<svg xmlns="http://www.w3.org/2000/svg" xmlns:xlink="http://www.w3.org/1999/xlink" width="128pt" height="96pt" viewBox="0 0 128 96" version="1.1">
<defs>
<clipPath id="clip1">
  <path d="M 46 36 L 86 36 L 86 95 L 46 95 Z M 46 36 "/>
</clipPath>
<clipPath id="clip2">
  <path d="M 46 41 C 46 38.238281 48.238281 36 51 36 L 81 36 C 83.761719 36 86 38.238281 86 41 L 86 90 C 86 92.761719 83.761719 95 81 95 L 51 95 C 48.238281 95 46 92.761719 46 90 Z M 46 41 "/>
</clipPath>
</defs>
<g id="surface2">
<path style="fill:none;stroke-width:1.5;stroke-linecap:butt;stroke-linejoin:miter;stroke:rgb(0%,0%,0%);stroke-opacity:0.266667;stroke-dasharray:10,4;stroke-dashoffset:1;stroke-miterlimit:10;" d="M 0.75 0.75 L 127.25 0.75 L 127.25 95.25 L 0.75 95.25 Z M 0.75 0.75 "/>
<path style="fill:none;stroke-width:1.5;stroke-linecap:butt;stroke-linejoin:miter;stroke:rgb(0%,0%,0%);stroke-opacity:0.2;stroke-dasharray:10,4;stroke-dashoffset:1;stroke-miterlimit:10;" d="M 10 10 L 118 10 L 118 86 L 10 86 Z M 10 10 "/>
<path style="fill:none;stroke-width:1.5;stroke-linecap:butt;stroke-linejoin:miter;stroke:rgb(0%,0%,0%);stroke-opacity:0.1;stroke-miterlimit:10;" d="M 45 35 L 45 35 "/>
<path style="fill:none;stroke-width:1.5;stroke-linecap:butt;stroke-linejoin:miter;stroke:rgb(0%,0%,0%);stroke-opacity:0.1;stroke-miterlimit:10;" d="M 85 35 L 85 35 M 45 65 L 45 94 "/>
<path style="fill:none;stroke-width:1.5;stroke-linecap:butt;stroke-linejoin:miter;stroke:rgb(0%,0%,0%);stroke-opacity:0.1;stroke-miterlimit:10;" d="M 85 65 L 85 94 "/>
<g clip-path="url(#clip1)" clip-rule="nonzero">
<g clip-path="url(#clip2)" clip-rule="nonzero">
<rect x="0" y="0" width="128" height="96" style="fill:rgb(38.039216%,50.588235%,100%);fill-opacity:0.490196;stroke:none;"/>
<path style="fill:none;stroke-width:2;stroke-linecap:butt;stroke-linejoin:miter;stroke:rgb(38.039216%,50.588235%,100%);stroke-opacity:1;stroke-miterlimit:10;" d="M 1 6 C 1 3.238281 3.238281 1 6 1 L 36 1 C 38.761719 1 41 3.238281 41 6 L 41 55 C 41 57.761719 38.761719 60 36 60 L 6 60 C 3.238281 60 1 57.761719 1 55 Z M 1 6 " transform="matrix(1,0,0,1,45,35)"/>
<rect x="0" y="0" width="128" height="96" style="fill:rgb(38.039216%,50.588235%,100%);fill-opacity:0.490196;stroke:none;"/>
<path style="fill:none;stroke-width:2;stroke-linecap:butt;stroke-linejoin:miter;stroke:rgb(38.039216%,50.588235%,100%);stroke-opacity:1;stroke-miterlimit:10;" d="M 1 6 C 1 3.238281 3.238281 1 6 1 L 36 1 C 38.761719 1 41 3.238281 41 6 L 41 55 C 41 57.761719 38.761719 60 36 60 L 6 60 C 3.238281 60 1 57.761719 1 55 Z M 1 6 " transform="matrix(1,0,0,1,45,35)"/>
</g>
</g>
</g>
</svg>
