<?xml version="1.0" encoding="UTF-8"?>
<svg xmlns="http://www.w3.org/2000/svg" xmlns:xlink="http://www.w3.org/1999/xlink" width="286pt" height="222pt" viewBox="0 0 286 222" version="1.1">
<g id="surface2">
<path style="fill:none;stroke-width:1.5;stroke-linecap:butt;stroke-linejoin:miter;stroke:rgb(0%,0%,0%);stroke-opacity:0.266667;stroke-dasharray:10,4;stroke-dashoffset:1;stroke-miterlimit:10;" d="M 0.75 0.75 L 63.25 0.75 L 63.25 47.25 L 0.75 47.25 Z M 0.75 0.75 "/>
<path style="fill:none;stroke-width:1.5;stroke-linecap:butt;stroke-linejoin:miter;stroke:rgb(0%,0%,0%);stroke-opacity:0.2;stroke-dasharray:10,4;stroke-dashoffset:1;stroke-miterlimit:10;" d="M 0 0 L 64 0 L 64 48 L 0 48 Z M 0 0 "/>
<path style="fill:none;stroke-width:1.5;stroke-linecap:butt;stroke-linejoin:miter;stroke:rgb(0%,0%,0%);stroke-opacity:0.266667;stroke-dasharray:10,4;stroke-dashoffset:1;stroke-miterlimit:10;" d="M 74.75 0.75 L 137.25 0.75 L 137.25 47.25 L 74.75 47.25 Z M 74.75 0.75 "/>
<path style="fill:none;stroke-width:1.5;stroke-linecap:butt;stroke-linejoin:miter;stroke:rgb(0%,0%,0%);stroke-opacity:0.2;stroke-dasharray:10,4;stroke-dashoffset:1;stroke-miterlimit:10;" d="M 74 0 L 138 0 L 138 48 L 74 48 Z M 74 0 "/>
<path style="fill:none;stroke-width:1.5;stroke-linecap:butt;stroke-linejoin:miter;stroke:rgb(0%,0%,0%);stroke-opacity:0.266667;stroke-dasharray:10,4;stroke-dashoffset:1;stroke-miterlimit:10;" d="M 148.75 0.75 L 211.25 0.75 L 211.25 47.25 L 148.75 47.25 Z M 148.75 0.75 "/>
<path style="fill:none;stroke-width:1.5;stroke-linecap:butt;stroke-linejoin:miter;stroke:rgb(0%,0%,0%);stroke-opacity:0.2;stroke-dasharray:10,4;stroke-dashoffset:1;stroke-miterlimit:10;" d="M 148 0 L 212 0 L 212 48 L 148 48 Z M 148 0 "/>
<path style="fill:none;stroke-width:1.5;stroke-linecap:butt;stroke-linejoin:miter;stroke:rgb(0%,0%,0%);stroke-opacity:0.266667;stroke-dasharray:10,4;stroke-dashoffset:1;stroke-miterlimit:10;" d="M 222.75 0.75 L 285.25 0.75 L 285.25 47.25 L 222.75 47.25 Z M 222.75 0.75 "/>
<path style="fill:none;stroke-width:1.5;stroke-linecap:butt;stroke-linejoin:miter;stroke:rgb(0%,0%,0%);stroke-opacity:0.2;stroke-dasharray:10,4;stroke-dashoffset:1;stroke-miterlimit:10;" d="M 222 0 L 286 0 L 286 48 L 222 48 Z M 222 0 "/>
<path style="fill:none;stroke-width:1.5;stroke-linecap:butt;stroke-linejoin:miter;stroke:rgb(0%,0%,0%);stroke-opacity:0.266667;stroke-dasharray:10,4;stroke-dashoffset:1;stroke-miterlimit:10;" d="M 0.75 58.75 L 63.25 58.75 L 63.25 105.25 L 0.75 105.25 Z M 0.75 58.75 "/>
<path style="fill:none;stroke-width:1.5;stroke-linecap:butt;stroke-linejoin:miter;stroke:rgb(0%,0%,0%);stroke-opacity:0.2;stroke-dasharray:10,4;stroke-dashoffset:1;stroke-miterlimit:10;" d="M 0 58 L 64 58 L 64 106 L 0 106 Z M 0 58 "/>
<path style="fill:none;stroke-width:1.5;stroke-linecap:butt;stroke-linejoin:miter;stroke:rgb(0%,0%,0%);stroke-opacity:0.266667;stroke-dasharray:10,4;stroke-dashoffset:1;stroke-miterlimit:10;" d="M 74.75 58.75 L 137.25 58.75 L 137.25 105.25 L 74.75 105.25 Z M 74.75 58.75 "/>
<path style="fill:none;stroke-width:1.5;stroke-linecap:butt;stroke-linejoin:miter;stroke:rgb(0%,0%,0%);stroke-opacity:0.2;stroke-dasharray:10,4;stroke-dashoffset:1;stroke-miterlimit:10;" d="M 74 58 L 138 58 L 138 106 L 74 106 Z M 74 58 "/>
<path style="fill:none;stroke-width:1.5;stroke-linecap:butt;stroke-linejoin:miter;stroke:rgb(0%,0%,0%);stroke-opacity:0.266667;stroke-dasharray:10,4;stroke-dashoffset:1;stroke-miterlimit:10;" d="M 148.75 58.75 L 211.25 58.75 L 211.25 105.25 L 148.75 105.25 Z M 148.75 58.75 "/>
<path style="fill:none;stroke-width:1.5;stroke-linecap:butt;stroke-linejoin:miter;stroke:rgb(0%,0%,0%);stroke-opacity:0.2;stroke-dasharray:10,4;stroke-dashoffset:1;stroke-miterlimit:10;" d="M 148 58 L 212 58 L 212 106 L 148 106 Z M 148 58 "/>
<path style="fill:none;stroke-width:1.5;stroke-linecap:butt;stroke-linejoin:miter;stroke:rgb(0%,0%,0%);stroke-opacity:0.266667;stroke-dasharray:10,4;stroke-dashoffset:1;stroke-miterlimit:10;" d="M 222.75 58.75 L 285.25 58.75 L 285.25 105.25 L 222.75 105.25 Z M 222.75 58.75 "/>
<path style="fill:none;stroke-width:1.5;stroke-linecap:butt;stroke-linejoin:miter;stroke:rgb(0%,0%,0%);stroke-opacity:0.2;stroke-dasharray:10,4;stroke-dashoffset:1;stroke-miterlimit:10;" d="M 222 58 L 286 58 L 286 106 L 222 106 Z M 222 58 "/>
<path style="fill:none;stroke-width:1.5;stroke-linecap:butt;stroke-linejoin:miter;stroke:rgb(0%,0%,0%);stroke-opacity:0.266667;stroke-dasharray:10,4;stroke-dashoffset:1;stroke-miterlimit:10;" d="M 0.75 116.75 L 63.25 116.75 L 63.25 163.25 L 0.75 163.25 Z M 0.75 116.75 "/>
<path style="fill:none;stroke-width:1.5;stroke-linecap:butt;stroke-linejoin:miter;stroke:rgb(0%,0%,0%);stroke-opacity:0.2;stroke-dasharray:10,4;stroke-dashoffset:1;stroke-miterlimit:10;" d="M 0 116 L 64 116 L 64 164 L 0 164 Z M 0 116 "/>
<path style="fill:none;stroke-width:1.5;stroke-linecap:butt;stroke-linejoin:miter;stroke:rgb(0%,0%,0%);stroke-opacity:0.266667;stroke-dasharray:10,4;stroke-dashoffset:1;stroke-miterlimit:10;" d="M 74.75 116.75 L 137.25 116.75 L 137.25 163.25 L 74.75 163.25 Z M 74.75 116.75 "/>
<path style="fill:none;stroke-width:1.5;stroke-linecap:butt;stroke-linejoin:miter;stroke:rgb(0%,0%,0%);stroke-opacity:0.2;stroke-dasharray:10,4;stroke-dashoffset:1;stroke-miterlimit:10;" d="M 74 116 L 138 116 L 138 164 L 74 164 Z M 74 116 "/>
<path style="fill:none;stroke-width:1.5;stroke-linecap:butt;stroke-linejoin:miter;stroke:rgb(0%,0%,0%);stroke-opacity:0.266667;stroke-dasharray:10,4;stroke-dashoffset:1;stroke-miterlimit:10;" d="M 148.75 116.75 L 211.25 116.75 L 211.25 163.25 L 148.75 163.25 Z M 148.75 116.75 "/>
<path style="fill:none;stroke-width:1.5;stroke-linecap:butt;stroke-linejoin:miter;stroke:rgb(0%,0%,0%);stroke-opacity:0.2;stroke-dasharray:10,4;stroke-dashoffset:1;stroke-miterlimit:10;" d="M 148 116 L 212 116 L 212 164 L 148 164 Z M 148 116 "/>
<path style="fill:none;stroke-width:1.5;stroke-linecap:butt;stroke-linejoin:miter;stroke:rgb(0%,0%,0%);stroke-opacity:0.266667;stroke-dasharray:10,4;stroke-dashoffset:1;stroke-miterlimit:10;" d="M 222.75 116.75 L 285.25 116.75 L 285.25 163.25 L 222.75 163.25 Z M 222.75 116.75 "/>
<path style="fill:none;stroke-width:1.5;stroke-linecap:butt;stroke-linejoin:miter;stroke:rgb(0%,0%,0%);stroke-opacity:0.2;stroke-dasharray:10,4;stroke-dashoffset:1;stroke-miterlimit:10;" d="M 222 116 L 286 116 L 286 164 L 222 164 Z M 222 116 "/>
<path style="fill:none;stroke-width:1.5;stroke-linecap:butt;stroke-linejoin:miter;stroke:rgb(0%,0%,0%);stroke-opacity:0.266667;stroke-dasharray:10,4;stroke-dashoffset:1;stroke-miterlimit:10;" d="M 0.75 174.75 L 63.25 174.75 L 63.25 221.25 L 0.75 221.25 Z M 0.75 174.75 "/>
<path style="fill:none;stroke-width:1.5;stroke-linecap:butt;stroke-linejoin:miter;stroke:rgb(0%,0%,0%);stroke-opacity:0.2;stroke-dasharray:10,4;stroke-dashoffset:1;stroke-miterlimit:10;" d="M 0 174 L 64 174 L 64 222 L 0 222 Z M 0 174 "/>
<path style="fill:none;stroke-width:1.5;stroke-linecap:butt;stroke-linejoin:miter;stroke:rgb(0%,0%,0%);stroke-opacity:0.266667;stroke-dasharray:10,4;stroke-dashoffset:1;stroke-miterlimit:10;" d="M 74.75 174.75 L 137.25 174.75 L 137.25 221.25 L 74.75 221.25 Z M 74.75 174.75 "/>
<path style="fill:none;stroke-width:1.5;stroke-linecap:butt;stroke-linejoin:miter;stroke:rgb(0%,0%,0%);stroke-opacity:0.2;stroke-dasharray:10,4;stroke-dashoffset:1;stroke-miterlimit:10;" d="M 74 174 L 138 174 L 138 222 L 74 222 Z M 74 174 "/>
<path style="fill:none;stroke-width:1.5;stroke-linecap:butt;stroke-linejoin:miter;stroke:rgb(0%,0%,0%);stroke-opacity:0.266667;stroke-dasharray:10,4;stroke-dashoffset:1;stroke-miterlimit:10;" d="M 148.75 174.75 L 211.25 174.75 L 211.25 221.25 L 148.75 221.25 Z M 148.75 174.75 "/>
<path style="fill:none;stroke-width:1.5;stroke-linecap:butt;stroke-linejoin:miter;stroke:rgb(0%,0%,0%);stroke-opacity:0.2;stroke-dasharray:10,4;stroke-dashoffset:1;stroke-miterlimit:10;" d="M 148 174 L 212 174 L 212 222 L 148 222 Z M 148 174 "/>
<path style="fill:none;stroke-width:1.5;stroke-linecap:butt;stroke-linejoin:miter;stroke:rgb(0%,0%,0%);stroke-opacity:0.266667;stroke-dasharray:10,4;stroke-dashoffset:1;stroke-miterlimit:10;" d="M 222.75 174.75 L 285.25 174.75 L 285.25 221.25 L 222.75 221.25 Z M 222.75 174.75 "/>
<path style="fill:none;stroke-width:1.5;stroke-linecap:butt;stroke-linejoin:miter;stroke:rgb(0%,0%,0%);stroke-opacity:0.2;stroke-dasharray:10,4;stroke-dashoffset:1;stroke-miterlimit:10;" d="M 222 174 L 286 174 L 286 222 L 222 222 Z M 222 174 "/>
<path style="fill:none;stroke-width:1.5;stroke-linecap:butt;stroke-linejoin:miter;stroke:rgb(38.039216%,50.588235%,100%);stroke-opacity:1;stroke-miterlimit:10;" d="M 0 5 C 0 2.238281 2.238281 0 5 0 L 15 0 C 17.761719 0 20 2.238281 20 5 L 20 10 C 20 12.761719 17.761719 15 15 15 L 5 15 C 2.238281 15 0 12.761719 0 10 Z M 0 5 " transform="matrix(1,0,0,1,22,16)"/>
<path style=" stroke:none;fill-rule:nonzero;fill:rgb(38.039216%,50.588235%,100%);fill-opacity:0.490196;" d="M 22 21 C 22 18.238281 24.238281 16 27 16 L 37 16 C 39.761719 16 42 18.238281 42 21 L 42 26 C 42 28.761719 39.761719 31 37 31 L 27 31 C 24.238281 31 22 28.761719 22 26 Z M 22 21 "/>
<path style="fill:none;stroke-width:1.5;stroke-linecap:butt;stroke-linejoin:miter;stroke:rgb(38.039216%,50.588235%,100%);stroke-opacity:1;stroke-miterlimit:10;" d="M 0 5 C 0 2.238281 2.238281 0 5 0 L 15 0 C 17.761719 0 20 2.238281 20 5 L 20 16 C 20 18.761719 17.761719 21 15 21 L 5 21 C 2.238281 21 0 18.761719 0 16 Z M 0 5 " transform="matrix(1,0,0,1,22,10)"/>
<path style=" stroke:none;fill-rule:nonzero;fill:rgb(38.039216%,50.588235%,100%);fill-opacity:0.490196;" d="M 22 15 C 22 12.238281 24.238281 10 27 10 L 37 10 C 39.761719 10 42 12.238281 42 15 L 42 26 C 42 28.761719 39.761719 31 37 31 L 27 31 C 24.238281 31 22 28.761719 22 26 Z M 22 15 "/>
<path style="fill:none;stroke-width:1.5;stroke-linecap:butt;stroke-linejoin:miter;stroke:rgb(0%,0%,0%);stroke-opacity:0.1;stroke-miterlimit:10;" d="M 22 16 L 22 10 "/>
<path style="fill:none;stroke-width:1.5;stroke-linecap:butt;stroke-linejoin:miter;stroke:rgb(0%,0%,0%);stroke-opacity:0.1;stroke-miterlimit:10;" d="M 42 16 L 42 10 M 22 31 L 22 31 "/>
<path style="fill:none;stroke-width:1.5;stroke-linecap:butt;stroke-linejoin:miter;stroke:rgb(0%,0%,0%);stroke-opacity:0.1;stroke-miterlimit:10;" d="M 42 31 L 42 31 "/>
<path style="fill:none;stroke-width:1.5;stroke-linecap:butt;stroke-linejoin:miter;stroke:rgb(38.039216%,50.588235%,100%);stroke-opacity:1;stroke-miterlimit:10;" d="M 0 5 C 0 2.238281 2.238281 0 5 0 L 15 0 C 17.761719 0 20 2.238281 20 5 L 20 10 C 20 12.761719 17.761719 15 15 15 L 5 15 C 2.238281 15 0 12.761719 0 10 Z M 0 5 " transform="matrix(1,0,0,1,96,16)"/>
<path style=" stroke:none;fill-rule:nonzero;fill:rgb(38.039216%,50.588235%,100%);fill-opacity:0.490196;" d="M 96 21 C 96 18.238281 98.238281 16 101 16 L 111 16 C 113.761719 16 116 18.238281 116 21 L 116 26 C 116 28.761719 113.761719 31 111 31 L 101 31 C 98.238281 31 96 28.761719 96 26 Z M 96 21 "/>
<path style="fill:none;stroke-width:1.5;stroke-linecap:butt;stroke-linejoin:miter;stroke:rgb(38.039216%,50.588235%,100%);stroke-opacity:1;stroke-miterlimit:10;" d="M 0 5 C 0 2.238281 2.238281 0 5 0 L 31 0 C 33.761719 0 36 2.238281 36 5 L 36 16 C 36 18.761719 33.761719 21 31 21 L 5 21 C 2.238281 21 0 18.761719 0 16 Z M 0 5 " transform="matrix(1,0,0,1,96,10)"/>
<path style=" stroke:none;fill-rule:nonzero;fill:rgb(38.039216%,50.588235%,100%);fill-opacity:0.490196;" d="M 96 15 C 96 12.238281 98.238281 10 101 10 L 127 10 C 129.761719 10 132 12.238281 132 15 L 132 26 C 132 28.761719 129.761719 31 127 31 L 101 31 C 98.238281 31 96 28.761719 96 26 Z M 96 15 "/>
<path style="fill:none;stroke-width:1.5;stroke-linecap:butt;stroke-linejoin:miter;stroke:rgb(0%,0%,0%);stroke-opacity:0.1;stroke-miterlimit:10;" d="M 96 16 L 96 10 "/>
<path style="fill:none;stroke-width:1.5;stroke-linecap:butt;stroke-linejoin:miter;stroke:rgb(0%,0%,0%);stroke-opacity:0.1;stroke-miterlimit:10;" d="M 116 16 L 116 10 M 96 31 L 96 31 "/>
<path style="fill:none;stroke-width:1.5;stroke-linecap:butt;stroke-linejoin:miter;stroke:rgb(0%,0%,0%);stroke-opacity:0.1;stroke-miterlimit:10;" d="M 116 31 L 116 31 "/>
<path style="fill:none;stroke-width:1.5;stroke-linecap:butt;stroke-linejoin:miter;stroke:rgb(38.039216%,50.588235%,100%);stroke-opacity:1;stroke-miterlimit:10;" d="M 0 5 C 0 2.238281 2.238281 0 5 0 L 15 0 C 17.761719 0 20 2.238281 20 5 L 20 10 C 20 12.761719 17.761719 15 15 15 L 5 15 C 2.238281 15 0 12.761719 0 10 Z M 0 5 " transform="matrix(1,0,0,1,170,16)"/>
<path style=" stroke:none;fill-rule:nonzero;fill:rgb(38.039216%,50.588235%,100%);fill-opacity:0.490196;" d="M 170 21 C 170 18.238281 172.238281 16 175 16 L 185 16 C 187.761719 16 190 18.238281 190 21 L 190 26 C 190 28.761719 187.761719 31 185 31 L 175 31 C 172.238281 31 170 28.761719 170 26 Z M 170 21 "/>
<path style="fill:none;stroke-width:1.5;stroke-linecap:butt;stroke-linejoin:miter;stroke:rgb(38.039216%,50.588235%,100%);stroke-opacity:1;stroke-miterlimit:10;" d="M 0 5 C 0 2.238281 2.238281 0 5 0 L 31 0 C 33.761719 0 36 2.238281 36 5 L 36 17 C 36 19.761719 33.761719 22 31 22 L 5 22 C 2.238281 22 0 19.761719 0 17 Z M 0 5 " transform="matrix(1,0,0,1,170,16)"/>
<path style=" stroke:none;fill-rule:nonzero;fill:rgb(38.039216%,50.588235%,100%);fill-opacity:0.490196;" d="M 170 21 C 170 18.238281 172.238281 16 175 16 L 201 16 C 203.761719 16 206 18.238281 206 21 L 206 33 C 206 35.761719 203.761719 38 201 38 L 175 38 C 172.238281 38 170 35.761719 170 33 Z M 170 21 "/>
<path style="fill:none;stroke-width:1.5;stroke-linecap:butt;stroke-linejoin:miter;stroke:rgb(0%,0%,0%);stroke-opacity:0.1;stroke-miterlimit:10;" d="M 170 16 L 170 16 "/>
<path style="fill:none;stroke-width:1.5;stroke-linecap:butt;stroke-linejoin:miter;stroke:rgb(0%,0%,0%);stroke-opacity:0.1;stroke-miterlimit:10;" d="M 190 16 L 190 16 M 170 31 L 170 38 "/>
<path style="fill:none;stroke-width:1.5;stroke-linecap:butt;stroke-linejoin:miter;stroke:rgb(0%,0%,0%);stroke-opacity:0.1;stroke-miterlimit:10;" d="M 190 31 L 190 38 "/>
<path style="fill:none;stroke-width:1.5;stroke-linecap:butt;stroke-linejoin:miter;stroke:rgb(38.039216%,50.588235%,100%);stroke-opacity:1;stroke-miterlimit:10;" d="M 0 5 C 0 2.238281 2.238281 0 5 0 L 15 0 C 17.761719 0 20 2.238281 20 5 L 20 10 C 20 12.761719 17.761719 15 15 15 L 5 15 C 2.238281 15 0 12.761719 0 10 Z M 0 5 " transform="matrix(1,0,0,1,244,16)"/>
<path style=" stroke:none;fill-rule:nonzero;fill:rgb(38.039216%,50.588235%,100%);fill-opacity:0.490196;" d="M 244 21 C 244 18.238281 246.238281 16 249 16 L 259 16 C 261.761719 16 264 18.238281 264 21 L 264 26 C 264 28.761719 261.761719 31 259 31 L 249 31 C 246.238281 31 244 28.761719 244 26 Z M 244 21 "/>
<path style="fill:none;stroke-width:1.5;stroke-linecap:butt;stroke-linejoin:miter;stroke:rgb(38.039216%,50.588235%,100%);stroke-opacity:1;stroke-miterlimit:10;" d="M 0 5 C 0 2.238281 2.238281 0 5 0 L 27 0 C 29.761719 0 32 2.238281 32 5 L 32 6 C 32 8.761719 29.761719 11 27 11 L 5 11 C 2.238281 11 0 8.761719 0 6 Z M 0 5 " transform="matrix(1,0,0,1,232,16)"/>
<path style=" stroke:none;fill-rule:nonzero;fill:rgb(38.039216%,50.588235%,100%);fill-opacity:0.490196;" d="M 232 21 C 232 18.238281 234.238281 16 237 16 L 259 16 C 261.761719 16 264 18.238281 264 21 L 264 22 C 264 24.761719 261.761719 27 259 27 L 237 27 C 234.238281 27 232 24.761719 232 22 Z M 232 21 "/>
<path style="fill:none;stroke-width:1.5;stroke-linecap:butt;stroke-linejoin:miter;stroke:rgb(0%,0%,0%);stroke-opacity:0.1;stroke-miterlimit:10;" d="M 244 16 L 232 16 "/>
<path style="fill:none;stroke-width:1.5;stroke-linecap:butt;stroke-linejoin:miter;stroke:rgb(0%,0%,0%);stroke-opacity:0.1;stroke-miterlimit:10;" d="M 264 16 L 252 16 M 244 31 L 232 27 "/>
<path style="fill:none;stroke-width:1.5;stroke-linecap:butt;stroke-linejoin:miter;stroke:rgb(0%,0%,0%);stroke-opacity:0.1;stroke-miterlimit:10;" d="M 264 31 L 252 27 "/>
<path style="fill:none;stroke-width:1.5;stroke-linecap:butt;stroke-linejoin:miter;stroke:rgb(38.039216%,50.588235%,100%);stroke-opacity:1;stroke-miterlimit:10;" d="M 0 5 C 0 2.238281 2.238281 0 5 0 L 15 0 C 17.761719 0 20 2.238281 20 5 L 20 10 C 20 12.761719 17.761719 15 15 15 L 5 15 C 2.238281 15 0 12.761719 0 10 Z M 0 5 " transform="matrix(1,0,0,1,22,74)"/>
<path style=" stroke:none;fill-rule:nonzero;fill:rgb(38.039216%,50.588235%,100%);fill-opacity:0.490196;" d="M 22 79 C 22 76.238281 24.238281 74 27 74 L 37 74 C 39.761719 74 42 76.238281 42 79 L 42 84 C 42 86.761719 39.761719 89 37 89 L 27 89 C 24.238281 89 22 86.761719 22 84 Z M 22 79 "/>
<path style="fill:none;stroke-width:1.5;stroke-linecap:butt;stroke-linejoin:miter;stroke:rgb(38.039216%,50.588235%,100%);stroke-opacity:1;stroke-miterlimit:10;" d="M 0 5 C 0 2.238281 2.238281 0 5 0 L 15 0 C 17.761719 0 20 2.238281 20 5 L 20 17 C 20 19.761719 17.761719 22 15 22 L 5 22 C 2.238281 22 0 19.761719 0 17 Z M 0 5 " transform="matrix(1,0,0,1,22,74)"/>
<path style=" stroke:none;fill-rule:nonzero;fill:rgb(38.039216%,50.588235%,100%);fill-opacity:0.490196;" d="M 22 79 C 22 76.238281 24.238281 74 27 74 L 37 74 C 39.761719 74 42 76.238281 42 79 L 42 91 C 42 93.761719 39.761719 96 37 96 L 27 96 C 24.238281 96 22 93.761719 22 91 Z M 22 79 "/>
<path style="fill:none;stroke-width:1.5;stroke-linecap:butt;stroke-linejoin:miter;stroke:rgb(0%,0%,0%);stroke-opacity:0.1;stroke-miterlimit:10;" d="M 22 74 L 22 74 "/>
<path style="fill:none;stroke-width:1.5;stroke-linecap:butt;stroke-linejoin:miter;stroke:rgb(0%,0%,0%);stroke-opacity:0.1;stroke-miterlimit:10;" d="M 42 74 L 42 74 M 22 89 L 22 96 "/>
<path style="fill:none;stroke-width:1.5;stroke-linecap:butt;stroke-linejoin:miter;stroke:rgb(0%,0%,0%);stroke-opacity:0.1;stroke-miterlimit:10;" d="M 42 89 L 42 96 "/>
<path style="fill:none;stroke-width:1.5;stroke-linecap:butt;stroke-linejoin:miter;stroke:rgb(38.039216%,50.588235%,100%);stroke-opacity:1;stroke-miterlimit:10;" d="M 0 5 C 0 2.238281 2.238281 0 5 0 L 15 0 C 17.761719 0 20 2.238281 20 5 L 20 10 C 20 12.761719 17.761719 15 15 15 L 5 15 C 2.238281 15 0 12.761719 0 10 Z M 0 5 " transform="matrix(1,0,0,1,96,74)"/>
<path style=" stroke:none;fill-rule:nonzero;fill:rgb(38.039216%,50.588235%,100%);fill-opacity:0.490196;" d="M 96 79 C 96 76.238281 98.238281 74 101 74 L 111 74 C 113.761719 74 116 76.238281 116 79 L 116 84 C 116 86.761719 113.761719 89 111 89 L 101 89 C 98.238281 89 96 86.761719 96 84 Z M 96 79 "/>
<path style="fill:none;stroke-width:1.5;stroke-linecap:butt;stroke-linejoin:miter;stroke:rgb(38.039216%,50.588235%,100%);stroke-opacity:1;stroke-miterlimit:10;" d="M 0 5 C 0 2.238281 2.238281 0 5 0 L 27 0 C 29.761719 0 32 2.238281 32 5 L 32 17 C 32 19.761719 29.761719 22 27 22 L 5 22 C 2.238281 22 0 19.761719 0 17 Z M 0 5 " transform="matrix(1,0,0,1,84,74)"/>
<path style=" stroke:none;fill-rule:nonzero;fill:rgb(38.039216%,50.588235%,100%);fill-opacity:0.490196;" d="M 84 79 C 84 76.238281 86.238281 74 89 74 L 111 74 C 113.761719 74 116 76.238281 116 79 L 116 91 C 116 93.761719 113.761719 96 111 96 L 89 96 C 86.238281 96 84 93.761719 84 91 Z M 84 79 "/>
<path style="fill:none;stroke-width:1.5;stroke-linecap:butt;stroke-linejoin:miter;stroke:rgb(0%,0%,0%);stroke-opacity:0.1;stroke-miterlimit:10;" d="M 96 74 L 84 74 "/>
<path style="fill:none;stroke-width:1.5;stroke-linecap:butt;stroke-linejoin:miter;stroke:rgb(0%,0%,0%);stroke-opacity:0.1;stroke-miterlimit:10;" d="M 116 74 L 104 74 M 96 89 L 84 96 "/>
<path style="fill:none;stroke-width:1.5;stroke-linecap:butt;stroke-linejoin:miter;stroke:rgb(0%,0%,0%);stroke-opacity:0.1;stroke-miterlimit:10;" d="M 116 89 L 104 96 "/>
<path style="fill:none;stroke-width:1.5;stroke-linecap:butt;stroke-linejoin:miter;stroke:rgb(38.039216%,50.588235%,100%);stroke-opacity:1;stroke-miterlimit:10;" d="M 0 5 C 0 2.238281 2.238281 0 5 0 L 15 0 C 17.761719 0 20 2.238281 20 5 L 20 10 C 20 12.761719 17.761719 15 15 15 L 5 15 C 2.238281 15 0 12.761719 0 10 Z M 0 5 " transform="matrix(1,0,0,1,170,74)"/>
<path style=" stroke:none;fill-rule:nonzero;fill:rgb(38.039216%,50.588235%,100%);fill-opacity:0.490196;" d="M 170 79 C 170 76.238281 172.238281 74 175 74 L 185 74 C 187.761719 74 190 76.238281 190 79 L 190 84 C 190 86.761719 187.761719 89 185 89 L 175 89 C 172.238281 89 170 86.761719 170 84 Z M 170 79 "/>
<path style="fill:none;stroke-width:1.5;stroke-linecap:butt;stroke-linejoin:miter;stroke:rgb(38.039216%,50.588235%,100%);stroke-opacity:1;stroke-miterlimit:10;" d="M 0 5 C 0 2.238281 2.238281 0 5 0 L 31 0 C 33.761719 0 36 2.238281 36 5 L 36 6 C 36 8.761719 33.761719 11 31 11 L 5 11 C 2.238281 11 0 8.761719 0 6 Z M 0 5 " transform="matrix(1,0,0,1,170,78)"/>
<path style=" stroke:none;fill-rule:nonzero;fill:rgb(38.039216%,50.588235%,100%);fill-opacity:0.490196;" d="M 170 83 C 170 80.238281 172.238281 78 175 78 L 201 78 C 203.761719 78 206 80.238281 206 83 L 206 84 C 206 86.761719 203.761719 89 201 89 L 175 89 C 172.238281 89 170 86.761719 170 84 Z M 170 83 "/>
<path style="fill:none;stroke-width:1.5;stroke-linecap:butt;stroke-linejoin:miter;stroke:rgb(0%,0%,0%);stroke-opacity:0.1;stroke-miterlimit:10;" d="M 170 74 L 170 78 "/>
<path style="fill:none;stroke-width:1.5;stroke-linecap:butt;stroke-linejoin:miter;stroke:rgb(0%,0%,0%);stroke-opacity:0.1;stroke-miterlimit:10;" d="M 190 74 L 190 78 M 170 89 L 170 89 "/>
<path style="fill:none;stroke-width:1.5;stroke-linecap:butt;stroke-linejoin:miter;stroke:rgb(0%,0%,0%);stroke-opacity:0.1;stroke-miterlimit:10;" d="M 190 89 L 190 89 "/>
<path style="fill:none;stroke-width:1.5;stroke-linecap:butt;stroke-linejoin:miter;stroke:rgb(38.039216%,50.588235%,100%);stroke-opacity:1;stroke-miterlimit:10;" d="M 0 5 C 0 2.238281 2.238281 0 5 0 L 15 0 C 17.761719 0 20 2.238281 20 5 L 20 10 C 20 12.761719 17.761719 15 15 15 L 5 15 C 2.238281 15 0 12.761719 0 10 Z M 0 5 " transform="matrix(1,0,0,1,244,74)"/>
<path style=" stroke:none;fill-rule:nonzero;fill:rgb(38.039216%,50.588235%,100%);fill-opacity:0.490196;" d="M 244 79 C 244 76.238281 246.238281 74 249 74 L 259 74 C 261.761719 74 264 76.238281 264 79 L 264 84 C 264 86.761719 261.761719 89 259 89 L 249 89 C 246.238281 89 244 86.761719 244 84 Z M 244 79 "/>
<path style="fill:none;stroke-width:1.5;stroke-linecap:butt;stroke-linejoin:miter;stroke:rgb(38.039216%,50.588235%,100%);stroke-opacity:1;stroke-miterlimit:10;" d="M 0 5 C 0 2.238281 2.238281 0 5 0 L 27 0 C 29.761719 0 32 2.238281 32 5 L 32 16 C 32 18.761719 29.761719 21 27 21 L 5 21 C 2.238281 21 0 18.761719 0 16 Z M 0 5 " transform="matrix(1,0,0,1,232,68)"/>
<path style=" stroke:none;fill-rule:nonzero;fill:rgb(38.039216%,50.588235%,100%);fill-opacity:0.490196;" d="M 232 73 C 232 70.238281 234.238281 68 237 68 L 259 68 C 261.761719 68 264 70.238281 264 73 L 264 84 C 264 86.761719 261.761719 89 259 89 L 237 89 C 234.238281 89 232 86.761719 232 84 Z M 232 73 "/>
<path style="fill:none;stroke-width:1.5;stroke-linecap:butt;stroke-linejoin:miter;stroke:rgb(0%,0%,0%);stroke-opacity:0.1;stroke-miterlimit:10;" d="M 244 74 L 232 68 "/>
<path style="fill:none;stroke-width:1.5;stroke-linecap:butt;stroke-linejoin:miter;stroke:rgb(0%,0%,0%);stroke-opacity:0.1;stroke-miterlimit:10;" d="M 264 74 L 252 68 M 244 89 L 232 89 "/>
<path style="fill:none;stroke-width:1.5;stroke-linecap:butt;stroke-linejoin:miter;stroke:rgb(0%,0%,0%);stroke-opacity:0.1;stroke-miterlimit:10;" d="M 264 89 L 252 89 "/>
<path style="fill:none;stroke-width:1.5;stroke-linecap:butt;stroke-linejoin:miter;stroke:rgb(38.039216%,50.588235%,100%);stroke-opacity:1;stroke-miterlimit:10;" d="M 0 5 C 0 2.238281 2.238281 0 5 0 L 39 0 C 41.761719 0 44 2.238281 44 5 L 44 23 C 44 25.761719 41.761719 28 39 28 L 5 28 C 2.238281 28 0 25.761719 0 23 Z M 0 5 " transform="matrix(1,0,0,1,10,126)"/>
<path style=" stroke:none;fill-rule:nonzero;fill:rgb(38.039216%,50.588235%,100%);fill-opacity:0.490196;" d="M 10 131 C 10 128.238281 12.238281 126 15 126 L 49 126 C 51.761719 126 54 128.238281 54 131 L 54 149 C 54 151.761719 51.761719 154 49 154 L 15 154 C 12.238281 154 10 151.761719 10 149 Z M 10 131 "/>
<path style="fill:none;stroke-width:1.5;stroke-linecap:butt;stroke-linejoin:miter;stroke:rgb(38.039216%,50.588235%,100%);stroke-opacity:1;stroke-miterlimit:10;" d="M 0 5 C 0 2.238281 2.238281 0 5 0 L 39 0 C 41.761719 0 44 2.238281 44 5 L 44 15 C 44 17.761719 41.761719 20 39 20 L 5 20 C 2.238281 20 0 17.761719 0 15 Z M 0 5 " transform="matrix(1,0,0,1,10,134)"/>
<path style=" stroke:none;fill-rule:nonzero;fill:rgb(38.039216%,50.588235%,100%);fill-opacity:0.490196;" d="M 10 139 C 10 136.238281 12.238281 134 15 134 L 49 134 C 51.761719 134 54 136.238281 54 139 L 54 149 C 54 151.761719 51.761719 154 49 154 L 15 154 C 12.238281 154 10 151.761719 10 149 Z M 10 139 "/>
<path style="fill:none;stroke-width:1.5;stroke-linecap:butt;stroke-linejoin:miter;stroke:rgb(0%,0%,0%);stroke-opacity:0.1;stroke-miterlimit:10;" d="M 10 126 L 10 134 "/>
<path style="fill:none;stroke-width:1.5;stroke-linecap:butt;stroke-linejoin:miter;stroke:rgb(0%,0%,0%);stroke-opacity:0.1;stroke-miterlimit:10;" d="M 54 126 L 54 134 M 10 154 L 10 154 "/>
<path style="fill:none;stroke-width:1.5;stroke-linecap:butt;stroke-linejoin:miter;stroke:rgb(0%,0%,0%);stroke-opacity:0.1;stroke-miterlimit:10;" d="M 54 154 L 54 154 "/>
<path style="fill:none;stroke-width:1.5;stroke-linecap:butt;stroke-linejoin:miter;stroke:rgb(38.039216%,50.588235%,100%);stroke-opacity:1;stroke-miterlimit:10;" d="M 0 5 C 0 2.238281 2.238281 0 5 0 L 39 0 C 41.761719 0 44 2.238281 44 5 L 44 23 C 44 25.761719 41.761719 28 39 28 L 5 28 C 2.238281 28 0 25.761719 0 23 Z M 0 5 " transform="matrix(1,0,0,1,84,126)"/>
<path style=" stroke:none;fill-rule:nonzero;fill:rgb(38.039216%,50.588235%,100%);fill-opacity:0.490196;" d="M 84 131 C 84 128.238281 86.238281 126 89 126 L 123 126 C 125.761719 126 128 128.238281 128 131 L 128 149 C 128 151.761719 125.761719 154 123 154 L 89 154 C 86.238281 154 84 151.761719 84 149 Z M 84 131 "/>
<path style="fill:none;stroke-width:1.5;stroke-linecap:butt;stroke-linejoin:miter;stroke:rgb(38.039216%,50.588235%,100%);stroke-opacity:1;stroke-miterlimit:10;" d="M 0 5 C 0 2.238281 2.238281 0 5 0 L 27 0 C 29.761719 0 32 2.238281 32 5 L 32 15 C 32 17.761719 29.761719 20 27 20 L 5 20 C 2.238281 20 0 17.761719 0 15 Z M 0 5 " transform="matrix(1,0,0,1,84,134)"/>
<path style=" stroke:none;fill-rule:nonzero;fill:rgb(38.039216%,50.588235%,100%);fill-opacity:0.490196;" d="M 84 139 C 84 136.238281 86.238281 134 89 134 L 111 134 C 113.761719 134 116 136.238281 116 139 L 116 149 C 116 151.761719 113.761719 154 111 154 L 89 154 C 86.238281 154 84 151.761719 84 149 Z M 84 139 "/>
<path style="fill:none;stroke-width:1.5;stroke-linecap:butt;stroke-linejoin:miter;stroke:rgb(0%,0%,0%);stroke-opacity:0.1;stroke-miterlimit:10;" d="M 84 126 L 84 134 "/>
<path style="fill:none;stroke-width:1.5;stroke-linecap:butt;stroke-linejoin:miter;stroke:rgb(0%,0%,0%);stroke-opacity:0.1;stroke-miterlimit:10;" d="M 128 126 L 128 134 M 84 154 L 84 154 "/>
<path style="fill:none;stroke-width:1.5;stroke-linecap:butt;stroke-linejoin:miter;stroke:rgb(0%,0%,0%);stroke-opacity:0.1;stroke-miterlimit:10;" d="M 128 154 L 128 154 "/>
<path style="fill:none;stroke-width:1.5;stroke-linecap:butt;stroke-linejoin:miter;stroke:rgb(38.039216%,50.588235%,100%);stroke-opacity:1;stroke-miterlimit:10;" d="M 0 5 C 0 2.238281 2.238281 0 5 0 L 39 0 C 41.761719 0 44 2.238281 44 5 L 44 23 C 44 25.761719 41.761719 28 39 28 L 5 28 C 2.238281 28 0 25.761719 0 23 Z M 0 5 " transform="matrix(1,0,0,1,158,126)"/>
<path style=" stroke:none;fill-rule:nonzero;fill:rgb(38.039216%,50.588235%,100%);fill-opacity:0.490196;" d="M 158 131 C 158 128.238281 160.238281 126 163 126 L 197 126 C 199.761719 126 202 128.238281 202 131 L 202 149 C 202 151.761719 199.761719 154 197 154 L 163 154 C 160.238281 154 158 151.761719 158 149 Z M 158 131 "/>
<path style="fill:none;stroke-width:1.5;stroke-linecap:butt;stroke-linejoin:miter;stroke:rgb(38.039216%,50.588235%,100%);stroke-opacity:1;stroke-miterlimit:10;" d="M 0 5 C 0 2.238281 2.238281 0 5 0 L 27 0 C 29.761719 0 32 2.238281 32 5 L 32 17 C 32 19.761719 29.761719 22 27 22 L 5 22 C 2.238281 22 0 19.761719 0 17 Z M 0 5 " transform="matrix(1,0,0,1,158,126)"/>
<path style=" stroke:none;fill-rule:nonzero;fill:rgb(38.039216%,50.588235%,100%);fill-opacity:0.490196;" d="M 158 131 C 158 128.238281 160.238281 126 163 126 L 185 126 C 187.761719 126 190 128.238281 190 131 L 190 143 C 190 145.761719 187.761719 148 185 148 L 163 148 C 160.238281 148 158 145.761719 158 143 Z M 158 131 "/>
<path style="fill:none;stroke-width:1.5;stroke-linecap:butt;stroke-linejoin:miter;stroke:rgb(0%,0%,0%);stroke-opacity:0.1;stroke-miterlimit:10;" d="M 158 126 L 158 126 "/>
<path style="fill:none;stroke-width:1.5;stroke-linecap:butt;stroke-linejoin:miter;stroke:rgb(0%,0%,0%);stroke-opacity:0.1;stroke-miterlimit:10;" d="M 202 126 L 202 126 M 158 154 L 158 148 "/>
<path style="fill:none;stroke-width:1.5;stroke-linecap:butt;stroke-linejoin:miter;stroke:rgb(0%,0%,0%);stroke-opacity:0.1;stroke-miterlimit:10;" d="M 202 154 L 202 148 "/>
<path style="fill:none;stroke-width:1.5;stroke-linecap:butt;stroke-linejoin:miter;stroke:rgb(38.039216%,50.588235%,100%);stroke-opacity:1;stroke-miterlimit:10;" d="M 0 5 C 0 2.238281 2.238281 0 5 0 L 39 0 C 41.761719 0 44 2.238281 44 5 L 44 23 C 44 25.761719 41.761719 28 39 28 L 5 28 C 2.238281 28 0 25.761719 0 23 Z M 0 5 " transform="matrix(1,0,0,1,232,126)"/>
<path style=" stroke:none;fill-rule:nonzero;fill:rgb(38.039216%,50.588235%,100%);fill-opacity:0.490196;" d="M 232 131 C 232 128.238281 234.238281 126 237 126 L 271 126 C 273.761719 126 276 128.238281 276 131 L 276 149 C 276 151.761719 273.761719 154 271 154 L 237 154 C 234.238281 154 232 151.761719 232 149 Z M 232 131 "/>
<path style="fill:none;stroke-width:1.5;stroke-linecap:butt;stroke-linejoin:miter;stroke:rgb(38.039216%,50.588235%,100%);stroke-opacity:1;stroke-miterlimit:10;" d="M 0 5 C 0 2.238281 2.238281 0 5 0 L 17 0 C 19.761719 0 22 2.238281 22 5 L 22 9 C 22 11.761719 19.761719 14 17 14 L 5 14 C 2.238281 14 0 11.761719 0 9 Z M 0 5 " transform="matrix(1,0,0,1,254,140)"/>
<path style=" stroke:none;fill-rule:nonzero;fill:rgb(38.039216%,50.588235%,100%);fill-opacity:0.490196;" d="M 254 145 C 254 142.238281 256.238281 140 259 140 L 271 140 C 273.761719 140 276 142.238281 276 145 L 276 149 C 276 151.761719 273.761719 154 271 154 L 259 154 C 256.238281 154 254 151.761719 254 149 Z M 254 145 "/>
<path style="fill:none;stroke-width:1.5;stroke-linecap:butt;stroke-linejoin:miter;stroke:rgb(0%,0%,0%);stroke-opacity:0.1;stroke-miterlimit:10;" d="M 232 126 L 254 140 "/>
<path style="fill:none;stroke-width:1.5;stroke-linecap:butt;stroke-linejoin:miter;stroke:rgb(0%,0%,0%);stroke-opacity:0.1;stroke-miterlimit:10;" d="M 276 126 L 298 140 M 232 154 L 254 154 "/>
<path style="fill:none;stroke-width:1.5;stroke-linecap:butt;stroke-linejoin:miter;stroke:rgb(0%,0%,0%);stroke-opacity:0.1;stroke-miterlimit:10;" d="M 276 154 L 298 154 "/>
<path style="fill:none;stroke-width:1.5;stroke-linecap:butt;stroke-linejoin:miter;stroke:rgb(38.039216%,50.588235%,100%);stroke-opacity:1;stroke-miterlimit:10;" d="M 0 5 C 0 2.238281 2.238281 0 5 0 L 39 0 C 41.761719 0 44 2.238281 44 5 L 44 23 C 44 25.761719 41.761719 28 39 28 L 5 28 C 2.238281 28 0 25.761719 0 23 Z M 0 5 " transform="matrix(1,0,0,1,10,184)"/>
<path style=" stroke:none;fill-rule:nonzero;fill:rgb(38.039216%,50.588235%,100%);fill-opacity:0.490196;" d="M 10 189 C 10 186.238281 12.238281 184 15 184 L 49 184 C 51.761719 184 54 186.238281 54 189 L 54 207 C 54 209.761719 51.761719 212 49 212 L 15 212 C 12.238281 212 10 209.761719 10 207 Z M 10 189 "/>
<path style="fill:none;stroke-width:1.5;stroke-linecap:butt;stroke-linejoin:miter;stroke:rgb(38.039216%,50.588235%,100%);stroke-opacity:1;stroke-miterlimit:10;" d="M 0 5 C 0 2.238281 2.238281 0 5 0 L 39 0 C 41.761719 0 44 2.238281 44 5 L 44 17 C 44 19.761719 41.761719 22 39 22 L 5 22 C 2.238281 22 0 19.761719 0 17 Z M 0 5 " transform="matrix(1,0,0,1,10,184)"/>
<path style=" stroke:none;fill-rule:nonzero;fill:rgb(38.039216%,50.588235%,100%);fill-opacity:0.490196;" d="M 10 189 C 10 186.238281 12.238281 184 15 184 L 49 184 C 51.761719 184 54 186.238281 54 189 L 54 201 C 54 203.761719 51.761719 206 49 206 L 15 206 C 12.238281 206 10 203.761719 10 201 Z M 10 189 "/>
<path style="fill:none;stroke-width:1.5;stroke-linecap:butt;stroke-linejoin:miter;stroke:rgb(0%,0%,0%);stroke-opacity:0.1;stroke-miterlimit:10;" d="M 10 184 L 10 184 "/>
<path style="fill:none;stroke-width:1.5;stroke-linecap:butt;stroke-linejoin:miter;stroke:rgb(0%,0%,0%);stroke-opacity:0.1;stroke-miterlimit:10;" d="M 54 184 L 54 184 M 10 212 L 10 206 "/>
<path style="fill:none;stroke-width:1.5;stroke-linecap:butt;stroke-linejoin:miter;stroke:rgb(0%,0%,0%);stroke-opacity:0.1;stroke-miterlimit:10;" d="M 54 212 L 54 206 "/>
<path style="fill:none;stroke-width:1.5;stroke-linecap:butt;stroke-linejoin:miter;stroke:rgb(38.039216%,50.588235%,100%);stroke-opacity:1;stroke-miterlimit:10;" d="M 0 5 C 0 2.238281 2.238281 0 5 0 L 39 0 C 41.761719 0 44 2.238281 44 5 L 44 23 C 44 25.761719 41.761719 28 39 28 L 5 28 C 2.238281 28 0 25.761719 0 23 Z M 0 5 " transform="matrix(1,0,0,1,84,184)"/>
<path style=" stroke:none;fill-rule:nonzero;fill:rgb(38.039216%,50.588235%,100%);fill-opacity:0.490196;" d="M 84 189 C 84 186.238281 86.238281 184 89 184 L 123 184 C 125.761719 184 128 186.238281 128 189 L 128 207 C 128 209.761719 125.761719 212 123 212 L 89 212 C 86.238281 212 84 209.761719 84 207 Z M 84 189 "/>
<path style="fill:none;stroke-width:1.5;stroke-linecap:butt;stroke-linejoin:miter;stroke:rgb(38.039216%,50.588235%,100%);stroke-opacity:1;stroke-miterlimit:10;" d="M 0 5 C 0 2.238281 2.238281 0 5 0 L 29 0 C 31.761719 0 34 2.238281 34 5 L 34 17 C 34 19.761719 31.761719 22 29 22 L 5 22 C 2.238281 22 0 19.761719 0 17 Z M 0 5 " transform="matrix(1,0,0,1,94,184)"/>
<path style=" stroke:none;fill-rule:nonzero;fill:rgb(38.039216%,50.588235%,100%);fill-opacity:0.490196;" d="M 94 189 C 94 186.238281 96.238281 184 99 184 L 123 184 C 125.761719 184 128 186.238281 128 189 L 128 201 C 128 203.761719 125.761719 206 123 206 L 99 206 C 96.238281 206 94 203.761719 94 201 Z M 94 189 "/>
<path style="fill:none;stroke-width:1.5;stroke-linecap:butt;stroke-linejoin:miter;stroke:rgb(0%,0%,0%);stroke-opacity:0.1;stroke-miterlimit:10;" d="M 84 184 L 94 184 "/>
<path style="fill:none;stroke-width:1.5;stroke-linecap:butt;stroke-linejoin:miter;stroke:rgb(0%,0%,0%);stroke-opacity:0.1;stroke-miterlimit:10;" d="M 128 184 L 138 184 M 84 212 L 94 206 "/>
<path style="fill:none;stroke-width:1.5;stroke-linecap:butt;stroke-linejoin:miter;stroke:rgb(0%,0%,0%);stroke-opacity:0.1;stroke-miterlimit:10;" d="M 128 212 L 138 206 "/>
<path style="fill:none;stroke-width:1.5;stroke-linecap:butt;stroke-linejoin:miter;stroke:rgb(38.039216%,50.588235%,100%);stroke-opacity:1;stroke-miterlimit:10;" d="M 0 5 C 0 2.238281 2.238281 0 5 0 L 39 0 C 41.761719 0 44 2.238281 44 5 L 44 23 C 44 25.761719 41.761719 28 39 28 L 5 28 C 2.238281 28 0 25.761719 0 23 Z M 0 5 " transform="matrix(1,0,0,1,158,184)"/>
<path style=" stroke:none;fill-rule:nonzero;fill:rgb(38.039216%,50.588235%,100%);fill-opacity:0.490196;" d="M 158 189 C 158 186.238281 160.238281 184 163 184 L 197 184 C 199.761719 184 202 186.238281 202 189 L 202 207 C 202 209.761719 199.761719 212 197 212 L 163 212 C 160.238281 212 158 209.761719 158 207 Z M 158 189 "/>
<path style="fill:none;stroke-width:1.5;stroke-linecap:butt;stroke-linejoin:miter;stroke:rgb(38.039216%,50.588235%,100%);stroke-opacity:1;stroke-miterlimit:10;" d="M 0 5 C 0 2.238281 2.238281 0 5 0 L 27 0 C 29.761719 0 32 2.238281 32 5 L 32 23 C 32 25.761719 29.761719 28 27 28 L 5 28 C 2.238281 28 0 25.761719 0 23 Z M 0 5 " transform="matrix(1,0,0,1,158,184)"/>
<path style=" stroke:none;fill-rule:nonzero;fill:rgb(38.039216%,50.588235%,100%);fill-opacity:0.490196;" d="M 158 189 C 158 186.238281 160.238281 184 163 184 L 185 184 C 187.761719 184 190 186.238281 190 189 L 190 207 C 190 209.761719 187.761719 212 185 212 L 163 212 C 160.238281 212 158 209.761719 158 207 Z M 158 189 "/>
<path style="fill:none;stroke-width:1.5;stroke-linecap:butt;stroke-linejoin:miter;stroke:rgb(0%,0%,0%);stroke-opacity:0.1;stroke-miterlimit:10;" d="M 158 184 L 158 184 "/>
<path style="fill:none;stroke-width:1.5;stroke-linecap:butt;stroke-linejoin:miter;stroke:rgb(0%,0%,0%);stroke-opacity:0.1;stroke-miterlimit:10;" d="M 202 184 L 202 184 M 158 212 L 158 212 "/>
<path style="fill:none;stroke-width:1.5;stroke-linecap:butt;stroke-linejoin:miter;stroke:rgb(0%,0%,0%);stroke-opacity:0.1;stroke-miterlimit:10;" d="M 202 212 L 202 212 "/>
<path style="fill:none;stroke-width:1.5;stroke-linecap:butt;stroke-linejoin:miter;stroke:rgb(38.039216%,50.588235%,100%);stroke-opacity:1;stroke-miterlimit:10;" d="M 0 5 C 0 2.238281 2.238281 0 5 0 L 39 0 C 41.761719 0 44 2.238281 44 5 L 44 23 C 44 25.761719 41.761719 28 39 28 L 5 28 C 2.238281 28 0 25.761719 0 23 Z M 0 5 " transform="matrix(1,0,0,1,232,184)"/>
<path style=" stroke:none;fill-rule:nonzero;fill:rgb(38.039216%,50.588235%,100%);fill-opacity:0.490196;" d="M 232 189 C 232 186.238281 234.238281 184 237 184 L 271 184 C 273.761719 184 276 186.238281 276 189 L 276 207 C 276 209.761719 273.761719 212 271 212 L 237 212 C 234.238281 212 232 209.761719 232 207 Z M 232 189 "/>
<path style="fill:none;stroke-width:1.5;stroke-linecap:butt;stroke-linejoin:miter;stroke:rgb(38.039216%,50.588235%,100%);stroke-opacity:1;stroke-miterlimit:10;" d="M 0 5 C 0 2.238281 2.238281 0 5 0 L 29 0 C 31.761719 0 34 2.238281 34 5 L 34 15 C 34 17.761719 31.761719 20 29 20 L 5 20 C 2.238281 20 0 17.761719 0 15 Z M 0 5 " transform="matrix(1,0,0,1,242,192)"/>
<path style=" stroke:none;fill-rule:nonzero;fill:rgb(38.039216%,50.588235%,100%);fill-opacity:0.490196;" d="M 242 197 C 242 194.238281 244.238281 192 247 192 L 271 192 C 273.761719 192 276 194.238281 276 197 L 276 207 C 276 209.761719 273.761719 212 271 212 L 247 212 C 244.238281 212 242 209.761719 242 207 Z M 242 197 "/>
<path style="fill:none;stroke-width:1.5;stroke-linecap:butt;stroke-linejoin:miter;stroke:rgb(0%,0%,0%);stroke-opacity:0.1;stroke-miterlimit:10;" d="M 232 184 L 242 192 "/>
<path style="fill:none;stroke-width:1.5;stroke-linecap:butt;stroke-linejoin:miter;stroke:rgb(0%,0%,0%);stroke-opacity:0.1;stroke-miterlimit:10;" d="M 276 184 L 286 192 M 232 212 L 242 212 "/>
<path style="fill:none;stroke-width:1.5;stroke-linecap:butt;stroke-linejoin:miter;stroke:rgb(0%,0%,0%);stroke-opacity:0.1;stroke-miterlimit:10;" d="M 276 212 L 286 212 "/>
<path style=" stroke:none;fill-rule:nonzero;fill:rgb(100%,0%,0%);fill-opacity:1;" d="M 32 10 L 32 20 L 35 18 L 38 22 L 40 22 L 37 18 L 41 18 Z M 32 10 "/>
<path style=" stroke:none;fill-rule:nonzero;fill:rgb(100%,0%,0%);fill-opacity:1;" d="M 134 10 L 134 20 L 137 18 L 140 22 L 142 22 L 139 18 L 143 18 Z M 134 10 "/>
<path style=" stroke:none;fill-rule:nonzero;fill:rgb(100%,0%,0%);fill-opacity:1;" d="M 208 40 L 208 50 L 211 48 L 214 52 L 216 52 L 213 48 L 217 48 Z M 208 40 "/>
<path style=" stroke:none;fill-rule:nonzero;fill:rgb(100%,0%,0%);fill-opacity:1;" d="M 232 29 L 232 39 L 235 37 L 238 41 L 240 41 L 237 37 L 241 37 Z M 232 29 "/>
<path style=" stroke:none;fill-rule:nonzero;fill:rgb(100%,0%,0%);fill-opacity:1;" d="M 32 98 L 32 108 L 35 106 L 38 110 L 40 110 L 37 106 L 41 106 Z M 32 98 "/>
<path style=" stroke:none;fill-rule:nonzero;fill:rgb(100%,0%,0%);fill-opacity:1;" d="M 84 98 L 84 108 L 87 106 L 90 110 L 92 110 L 89 106 L 93 106 Z M 84 98 "/>
<path style=" stroke:none;fill-rule:nonzero;fill:rgb(100%,0%,0%);fill-opacity:1;" d="M 208 78 L 208 88 L 211 86 L 214 90 L 216 90 L 213 86 L 217 86 Z M 208 78 "/>
<path style=" stroke:none;fill-rule:nonzero;fill:rgb(100%,0%,0%);fill-opacity:1;" d="M 232 68 L 232 78 L 235 76 L 238 80 L 240 80 L 237 76 L 241 76 Z M 232 68 "/>
<path style=" stroke:none;fill-rule:nonzero;fill:rgb(100%,0%,0%);fill-opacity:1;" d="M 32 134 L 32 144 L 35 142 L 38 146 L 40 146 L 37 142 L 41 142 Z M 32 134 "/>
<path style=" stroke:none;fill-rule:nonzero;fill:rgb(100%,0%,0%);fill-opacity:1;" d="M 118 134 L 118 144 L 121 142 L 124 146 L 126 146 L 123 142 L 127 142 Z M 118 134 "/>
<path style=" stroke:none;fill-rule:nonzero;fill:rgb(100%,0%,0%);fill-opacity:1;" d="M 192 150 L 192 160 L 195 158 L 198 162 L 200 162 L 197 158 L 201 158 Z M 192 150 "/>
<path style=" stroke:none;fill-rule:nonzero;fill:rgb(100%,0%,0%);fill-opacity:1;" d="M 254 140 L 254 150 L 257 148 L 260 152 L 262 152 L 259 148 L 263 148 Z M 254 140 "/>
<path style=" stroke:none;fill-rule:nonzero;fill:rgb(100%,0%,0%);fill-opacity:1;" d="M 32 208 L 32 218 L 35 216 L 38 220 L 40 220 L 37 216 L 41 216 Z M 32 208 "/>
<path style=" stroke:none;fill-rule:nonzero;fill:rgb(100%,0%,0%);fill-opacity:1;" d="M 94 208 L 94 218 L 97 216 L 100 220 L 102 220 L 99 216 L 103 216 Z M 94 208 "/>
<path style=" stroke:none;fill-rule:nonzero;fill:rgb(100%,0%,0%);fill-opacity:1;" d="M 192 198 L 192 208 L 195 206 L 198 210 L 200 210 L 197 206 L 201 206 Z M 192 198 "/>
<path style=" stroke:none;fill-rule:nonzero;fill:rgb(100%,0%,0%);fill-opacity:1;" d="M 242 192 L 242 202 L 245 200 L 248 204 L 250 204 L 247 200 L 251 200 Z M 242 192 "/>
</g>
</svg>
