<?xml version="1.0" encoding="UTF-8"?>
<svg xmlns="http://www.w3.org/2000/svg" xmlns:xlink="http://www.w3.org/1999/xlink" width="128pt" height="96pt" viewBox="0 0 128 96" version="1.1">
<defs>
<clipPath id="clip1">
  <path d="M 46 36 L 86 36 L 86 66 L 46 66 Z M 46 36 "/>
</clipPath>
<clipPath id="clip2">
  <path d="M 46 41 C 46 38.238281 48.238281 36 51 36 L 81 36 C 83.761719 36 86 38.238281 86 41 L 86 61 C 86 63.761719 83.761719 66 81 66 L 51 66 C 48.238281 66 46 63.761719 46 61 Z M 46 41 "/>
</clipPath>
<clipPath id="clip3">
  <path d="M 44 65 L 84 65 L 84 95 L 44 95 Z M 44 65 "/>
</clipPath>
<clipPath id="clip4">
  <path d="M 44 70 C 44 67.238281 46.238281 65 49 65 L 79 65 C 81.761719 65 84 67.238281 84 70 L 84 90 C 84 92.761719 81.761719 95 79 95 L 49 95 C 46.238281 95 44 92.761719 44 90 Z M 44 70 "/>
</clipPath>
</defs>
<g id="surface2">
<path style="fill:none;stroke-width:1.5;stroke-linecap:butt;stroke-linejoin:miter;stroke:rgb(0%,0%,0%);stroke-opacity:0.266667;stroke-dasharray:10,4;stroke-dashoffset:1;stroke-miterlimit:10;" d="M 0.75 0.75 L 127.25 0.75 L 127.25 95.25 L 0.75 95.25 Z M 0.75 0.75 "/>
<path style="fill:none;stroke-width:1.5;stroke-linecap:butt;stroke-linejoin:miter;stroke:rgb(0%,0%,0%);stroke-opacity:0.2;stroke-dasharray:10,4;stroke-dashoffset:1;stroke-miterlimit:10;" d="M 10 10 L 118 10 L 118 86 L 10 86 Z M 10 10 "/>
<path style="fill:none;stroke-width:1.5;stroke-linecap:butt;stroke-linejoin:miter;stroke:rgb(0%,0%,0%);stroke-opacity:0.1;stroke-miterlimit:10;" d="M 45 35 L 43 64 "/>
<path style="fill:none;stroke-width:1.5;stroke-linecap:butt;stroke-linejoin:miter;stroke:rgb(0%,0%,0%);stroke-opacity:0.1;stroke-miterlimit:10;" d="M 85 35 L 83 64 M 45 65 L 43 94 "/>
<path style="fill:none;stroke-width:1.5;stroke-linecap:butt;stroke-linejoin:miter;stroke:rgb(0%,0%,0%);stroke-opacity:0.1;stroke-miterlimit:10;" d="M 85 65 L 83 94 "/>
<g clip-path="url(#clip1)" clip-rule="nonzero">
<g clip-path="url(#clip2)" clip-rule="nonzero">
<rect x="0" y="0" width="128" height="96" style="fill:rgb(38.039216%,50.588235%,100%);fill-opacity:0.490196;stroke:none;"/>
<path style="fill:none;stroke-width:2;stroke-linecap:butt;stroke-linejoin:miter;stroke:rgb(38.039216%,50.588235%,100%);stroke-opacity:1;stroke-miterlimit:10;" d="M 1 6 C 1 3.238281 3.238281 1 6 1 L 36 1 C 38.761719 1 41 3.238281 41 6 L 41 26 C 41 28.761719 38.761719 31 36 31 L 6 31 C 3.238281 31 1 28.761719 1 26 Z M 1 6 " transform="matrix(1,0,0,1,45,35)"/>
</g>
</g>
<g clip-path="url(#clip3)" clip-rule="nonzero">
<g clip-path="url(#clip4)" clip-rule="nonzero">
<rect x="0" y="0" width="128" height="96" style="fill:rgb(38.039216%,50.588235%,100%);fill-opacity:0.490196;stroke:none;"/>
<path style="fill:none;stroke-width:2;stroke-linecap:butt;stroke-linejoin:miter;stroke:rgb(38.039216%,50.588235%,100%);stroke-opacity:1;stroke-miterlimit:10;" d="M 1 6 C 1 3.238281 3.238281 1 6 1 L 36 1 C 38.761719 1 41 3.238281 41 6 L 41 26 C 41 28.761719 38.761719 31 36 31 L 6 31 C 3.238281 31 1 28.761719 1 26 Z M 1 6 " transform="matrix(1,0,0,1,43,64)"/>
</g>
</g>
</g>
</svg>
