<?xml version="1.0" encoding="UTF-8"?>
<svg xmlns="http://www.w3.org/2000/svg" xmlns:xlink="http://www.w3.org/1999/xlink" width="128pt" height="96pt" viewBox="0 0 128 96" version="1.1">
<defs>
<clipPath id="clip1">
  <path d="M 45 35 L 87 35 L 87 67 L 45 67 Z M 45 35 "/>
</clipPath>
<clipPath id="clip2">
  <path d="M 46 36 L 86 36 L 86 66 L 46 66 Z M 46 36 "/>
</clipPath>
<clipPath id="clip3">
  <path d="M 46 41 C 46 38.238281 48.238281 36 51 36 L 81 36 C 83.761719 36 86 38.238281 86 41 L 86 61 C 86 63.761719 83.761719 66 81 66 L 51 66 C 48.238281 66 46 63.761719 46 61 Z M 46 41 "/>
</clipPath>
<clipPath id="clip4">
  <path d="M 43 32 L 85 32 L 85 64 L 43 64 Z M 43 32 "/>
</clipPath>
<clipPath id="clip5">
  <path d="M 44 33 L 84 33 L 84 63 L 44 63 Z M 44 33 "/>
</clipPath>
<clipPath id="clip6">
  <path d="M 44 38 C 44 35.238281 46.238281 33 49 33 L 79 33 C 81.761719 33 84 35.238281 84 38 L 84 58 C 84 60.761719 81.761719 63 79 63 L 49 63 C 46.238281 63 44 60.761719 44 58 Z M 44 38 "/>
</clipPath>
</defs>
<g id="surface2">
<path style="fill:none;stroke-width:1.5;stroke-linecap:butt;stroke-linejoin:miter;stroke:rgb(0%,0%,0%);stroke-opacity:0.266667;stroke-dasharray:10,4;stroke-dashoffset:1;stroke-miterlimit:10;" d="M 0.75 0.75 L 127.25 0.75 L 127.25 95.25 L 0.75 95.25 Z M 0.75 0.75 "/>
<path style="fill:none;stroke-width:1.5;stroke-linecap:butt;stroke-linejoin:miter;stroke:rgb(0%,0%,0%);stroke-opacity:0.2;stroke-dasharray:10,4;stroke-dashoffset:1;stroke-miterlimit:10;" d="M 10 10 L 118 10 L 118 86 L 10 86 Z M 10 10 "/>
<path style="fill:none;stroke-width:0.75;stroke-linecap:butt;stroke-linejoin:miter;stroke:rgb(0%,0%,0%);stroke-opacity:0.1;stroke-miterlimit:10;" d="M 45 35 L 43 32 "/>
<path style="fill:none;stroke-width:0.75;stroke-linecap:butt;stroke-linejoin:miter;stroke:rgb(0%,0%,0%);stroke-opacity:0.1;stroke-miterlimit:10;" d="M 85 35 L 83 32 M 45 65 L 43 62 "/>
<path style="fill:none;stroke-width:0.75;stroke-linecap:butt;stroke-linejoin:miter;stroke:rgb(0%,0%,0%);stroke-opacity:0.1;stroke-miterlimit:10;" d="M 85 65 L 83 62 "/>
<g clip-path="url(#clip1)" clip-rule="nonzero">
<path style="fill:none;stroke-width:1;stroke-linecap:butt;stroke-linejoin:miter;stroke:rgb(38.039216%,50.588235%,100%);stroke-opacity:1;stroke-miterlimit:10;" d="M 0 5 C 0 2.238281 2.238281 0 5 0 L 35 0 C 37.761719 0 40 2.238281 40 5 L 40 25 C 40 27.761719 37.761719 30 35 30 L 5 30 C 2.238281 30 0 27.761719 0 25 Z M 0 5 " transform="matrix(1,0,0,1,46,36)"/>
</g>
<path style=" stroke:none;fill-rule:nonzero;fill:rgb(38.039216%,50.588235%,100%);fill-opacity:0.490196;" d="M 46 41 C 46 38.238281 48.238281 36 51 36 L 81 36 C 83.761719 36 86 38.238281 86 41 L 86 61 C 86 63.761719 83.761719 66 81 66 L 51 66 C 48.238281 66 46 63.761719 46 61 Z M 46 41 "/>
<g clip-path="url(#clip2)" clip-rule="nonzero">
<g clip-path="url(#clip3)" clip-rule="nonzero">
<path style="fill:none;stroke-width:1;stroke-linecap:butt;stroke-linejoin:miter;stroke:rgb(38.039216%,50.588235%,100%);stroke-opacity:1;stroke-miterlimit:10;" d="M 0 5 C 0 2.238281 2.238281 0 5 0 L 35 0 C 37.761719 0 40 2.238281 40 5 L 40 25 C 40 27.761719 37.761719 30 35 30 L 5 30 C 2.238281 30 0 27.761719 0 25 Z M 0 5 " transform="matrix(1,0,0,1,46,36)"/>
</g>
</g>
<g clip-path="url(#clip4)" clip-rule="nonzero">
<path style="fill:none;stroke-width:1;stroke-linecap:butt;stroke-linejoin:miter;stroke:rgb(38.039216%,50.588235%,100%);stroke-opacity:1;stroke-miterlimit:10;" d="M 0 5 C 0 2.238281 2.238281 0 5 0 L 35 0 C 37.761719 0 40 2.238281 40 5 L 40 25 C 40 27.761719 37.761719 30 35 30 L 5 30 C 2.238281 30 0 27.761719 0 25 Z M 0 5 " transform="matrix(1,0,0,1,44,33)"/>
</g>
<path style=" stroke:none;fill-rule:nonzero;fill:rgb(38.039216%,50.588235%,100%);fill-opacity:0.490196;" d="M 44 38 C 44 35.238281 46.238281 33 49 33 L 79 33 C 81.761719 33 84 35.238281 84 38 L 84 58 C 84 60.761719 81.761719 63 79 63 L 49 63 C 46.238281 63 44 60.761719 44 58 Z M 44 38 "/>
<g clip-path="url(#clip5)" clip-rule="nonzero">
<g clip-path="url(#clip6)" clip-rule="nonzero">
<path style="fill:none;stroke-width:1;stroke-linecap:butt;stroke-linejoin:miter;stroke:rgb(38.039216%,50.588235%,100%);stroke-opacity:1;stroke-miterlimit:10;" d="M 0 5 C 0 2.238281 2.238281 0 5 0 L 35 0 C 37.761719 0 40 2.238281 40 5 L 40 25 C 40 27.761719 37.761719 30 35 30 L 5 30 C 2.238281 30 0 27.761719 0 25 Z M 0 5 " transform="matrix(1,0,0,1,44,33)"/>
</g>
</g>
</g>
</svg>
