<?xml version="1.0" encoding="UTF-8"?>
<svg xmlns="http://www.w3.org/2000/svg" xmlns:xlink="http://www.w3.org/1999/xlink" width="110pt" height="110pt" viewBox="0 0 110 110" version="1.1">
<defs>
<clipPath id="clip1">
  <path d="M 0 0 L 110 0 L 110 21 L 0 21 Z M 0 0 "/>
</clipPath>
<clipPath id="clip2">
  <path d="M 1 0 L 110 0 L 110 21 L 1 21 Z M 1 0 "/>
</clipPath>
<clipPath id="clip3">
  <path d="M 0 26 L 110 26 L 110 48 L 0 48 Z M 0 26 "/>
</clipPath>
<clipPath id="clip4">
  <path d="M 2 26 L 110 26 L 110 48 L 2 48 Z M 2 26 "/>
</clipPath>
<clipPath id="clip5">
  <path d="M 0 53 L 110 53 L 110 74 L 0 74 Z M 0 53 "/>
</clipPath>
<clipPath id="clip6">
  <path d="M 3 53 L 110 53 L 110 74 L 3 74 Z M 3 53 "/>
</clipPath>
<clipPath id="clip7">
  <path d="M 0 79 L 110 79 L 110 100 L 0 100 Z M 0 79 "/>
</clipPath>
<clipPath id="clip8">
  <path d="M 10 79 L 110 79 L 110 100 L 10 100 Z M 10 79 "/>
</clipPath>
</defs>
<g id="surface2">
<g clip-path="url(#clip1)" clip-rule="nonzero">
<rect x="0" y="0" width="110" height="110" style="fill:rgb(38.039216%,50.588235%,100%);fill-opacity:0.490196;stroke:none;"/>
</g>
<g clip-path="url(#clip2)" clip-rule="nonzero">
<path style=" stroke:none;fill-rule:nonzero;fill:rgb(66.666667%,0%,100%);fill-opacity:0.490196;" d="M 1 17.878906 C 1 17.601562 1.222656 17.378906 1.5 17.378906 C 1.777344 17.378906 2 17.601562 2 17.878906 L 2 37.878906 C 2 38.15625 1.777344 38.378906 1.5 38.378906 C 1.222656 38.378906 1 38.15625 1 37.878906 Z M 2 21.5 C 2 21.222656 2.222656 21 2.5 21 C 2.777344 21 3 21.222656 3 21.5 L 3 41.5 C 3 41.777344 2.777344 42 2.5 42 C 2.222656 42 2 41.777344 2 41.5 Z M 4 21.5 C 4 21.222656 4.222656 21 4.5 21 C 4.777344 21 5 21.222656 5 21.5 L 5 41.5 C 5 41.777344 4.777344 42 4.5 42 C 4.222656 42 4 41.777344 4 41.5 Z M 6 20.777344 C 6 20.5 6.222656 20.277344 6.5 20.277344 C 6.777344 20.277344 7 20.5 7 20.777344 L 7 40.777344 C 7 41.050781 6.777344 41.277344 6.5 41.277344 C 6.222656 41.277344 6 41.050781 6 40.777344 Z M 8 16.429688 C 8 16.15625 8.222656 15.929688 8.5 15.929688 C 8.777344 15.929688 9 16.15625 9 16.429688 L 9 36.429688 C 9 36.707031 8.777344 36.929688 8.5 36.929688 C 8.222656 36.929688 8 36.707031 8 36.429688 Z M 10 9.191406 C 10 8.914062 10.222656 8.691406 10.5 8.691406 C 10.777344 8.691406 11 8.914062 11 9.191406 L 11 29.191406 C 11 29.464844 10.777344 29.691406 10.5 29.691406 C 10.222656 29.691406 10 29.464844 10 29.191406 Z M 12 5.570312 C 12 5.292969 12.222656 5.070312 12.5 5.070312 C 12.777344 5.070312 13 5.292969 13 5.570312 L 13 25.570312 C 13 25.84375 12.777344 26.070312 12.5 26.070312 C 12.222656 26.070312 12 25.84375 12 25.570312 Z M 14 21.5 C 14 21.222656 14.222656 21 14.5 21 C 14.777344 21 15 21.222656 15 21.5 L 15 41.5 C 15 41.777344 14.777344 42 14.5 42 C 14.222656 42 14 41.777344 14 41.5 Z M 16 21.5 C 16 21.222656 16.222656 21 16.5 21 C 16.777344 21 17 21.222656 17 21.5 L 17 41.5 C 17 41.777344 16.777344 42 16.5 42 C 16.222656 42 16 41.777344 16 41.5 Z M 18 20.777344 C 18 20.5 18.222656 20.277344 18.5 20.277344 C 18.777344 20.277344 19 20.5 19 20.777344 L 19 40.777344 C 19 41.050781 18.777344 41.277344 18.5 41.277344 C 18.222656 41.277344 18 41.050781 18 40.777344 Z M 20 19.328125 C 20 19.050781 20.222656 18.828125 20.5 18.828125 C 20.777344 18.828125 21 19.050781 21 19.328125 L 21 39.328125 C 21 39.605469 20.777344 39.828125 20.5 39.828125 C 20.222656 39.828125 20 39.605469 20 39.328125 Z M 22 21.5 C 22 21.222656 22.222656 21 22.5 21 C 22.777344 21 23 21.222656 23 21.5 L 23 41.5 C 23 41.777344 22.777344 42 22.5 42 C 22.222656 42 22 41.777344 22 41.5 Z M 24 21.5 C 24 21.222656 24.222656 21 24.5 21 C 24.777344 21 25 21.222656 25 21.5 L 25 41.5 C 25 41.777344 24.777344 42 24.5 42 C 24.222656 42 24 41.777344 24 41.5 Z M 26 11.363281 C 26 11.085938 26.222656 10.863281 26.5 10.863281 C 26.777344 10.863281 27 11.085938 27 11.363281 L 27 31.363281 C 27 31.636719 26.777344 31.863281 26.5 31.863281 C 26.222656 31.863281 26 31.636719 26 31.363281 Z M 28 9.191406 C 28 8.914062 28.222656 8.691406 28.5 8.691406 C 28.777344 8.691406 29 8.914062 29 9.191406 L 29 29.191406 C 29 29.464844 28.777344 29.691406 28.5 29.691406 C 28.222656 29.691406 28 29.464844 28 29.191406 Z M 30 9.191406 C 30 8.914062 30.222656 8.691406 30.5 8.691406 C 30.777344 8.691406 31 8.914062 31 9.191406 L 31 29.191406 C 31 29.464844 30.777344 29.691406 30.5 29.691406 C 30.222656 29.691406 30 29.464844 30 29.191406 Z M 32 0.5 C 32 0.222656 32.222656 0 32.5 0 C 32.777344 0 33 0.222656 33 0.5 L 33 20.5 C 33 20.777344 32.777344 21 32.5 21 C 32.222656 21 32 20.777344 32 20.5 Z M 34 7.742188 C 34 7.464844 34.222656 7.242188 34.5 7.242188 C 34.777344 7.242188 35 7.464844 35 7.742188 L 35 27.742188 C 35 28.015625 34.777344 28.242188 34.5 28.242188 C 34.222656 28.242188 34 28.015625 34 27.742188 Z M 36 10.636719 C 36 10.363281 36.222656 10.136719 36.5 10.136719 C 36.777344 10.136719 37 10.363281 37 10.636719 L 37 30.636719 C 37 30.914062 36.777344 31.136719 36.5 31.136719 C 36.222656 31.136719 36 30.914062 36 30.636719 Z M 38 13.535156 C 38 13.257812 38.222656 13.035156 38.5 13.035156 C 38.777344 13.035156 39 13.257812 39 13.535156 L 39 33.535156 C 39 33.8125 38.777344 34.035156 38.5 34.035156 C 38.222656 34.035156 38 33.8125 38 33.535156 Z M 40 18.601562 C 40 18.328125 40.222656 18.101562 40.5 18.101562 C 40.777344 18.101562 41 18.328125 41 18.601562 L 41 38.601562 C 41 38.878906 40.777344 39.101562 40.5 39.101562 C 40.222656 39.101562 40 38.878906 40 38.601562 Z M 42 17.15625 C 42 16.878906 42.222656 16.65625 42.5 16.65625 C 42.777344 16.65625 43 16.878906 43 17.15625 L 43 37.15625 C 43 37.429688 42.777344 37.65625 42.5 37.65625 C 42.222656 37.65625 42 37.429688 42 37.15625 Z M 44 17.878906 C 44 17.601562 44.222656 17.378906 44.5 17.378906 C 44.777344 17.378906 45 17.601562 45 17.878906 L 45 37.878906 C 45 38.15625 44.777344 38.378906 44.5 38.378906 C 44.222656 38.378906 44 38.15625 44 37.878906 Z M 46 19.328125 C 46 19.050781 46.222656 18.828125 46.5 18.828125 C 46.777344 18.828125 47 19.050781 47 19.328125 L 47 39.328125 C 47 39.605469 46.777344 39.828125 46.5 39.828125 C 46.222656 39.828125 46 39.605469 46 39.328125 Z M 48 17.878906 C 48 17.601562 48.222656 17.378906 48.5 17.378906 C 48.777344 17.378906 49 17.601562 49 17.878906 L 49 37.878906 C 49 38.15625 48.777344 38.378906 48.5 38.378906 C 48.222656 38.378906 48 38.15625 48 37.878906 Z M 50 21.5 C 50 21.222656 50.222656 21 50.5 21 C 50.777344 21 51 21.222656 51 21.5 L 51 41.5 C 51 41.777344 50.777344 42 50.5 42 C 50.222656 42 50 41.777344 50 41.5 Z M 52 21.5 C 52 21.222656 52.222656 21 52.5 21 C 52.777344 21 53 21.222656 53 21.5 L 53 41.5 C 53 41.777344 52.777344 42 52.5 42 C 52.222656 42 52 41.777344 52 41.5 Z M 54 20.777344 C 54 20.5 54.222656 20.277344 54.5 20.277344 C 54.777344 20.277344 55 20.5 55 20.777344 L 55 40.777344 C 55 41.050781 54.777344 41.277344 54.5 41.277344 C 54.222656 41.277344 54 41.050781 54 40.777344 Z M 56 16.429688 C 56 16.15625 56.222656 15.929688 56.5 15.929688 C 56.777344 15.929688 57 16.15625 57 16.429688 L 57 36.429688 C 57 36.707031 56.777344 36.929688 56.5 36.929688 C 56.222656 36.929688 56 36.707031 56 36.429688 Z M 58 9.191406 C 58 8.914062 58.222656 8.691406 58.5 8.691406 C 58.777344 8.691406 59 8.914062 59 9.191406 L 59 29.191406 C 59 29.464844 58.777344 29.691406 58.5 29.691406 C 58.222656 29.691406 58 29.464844 58 29.191406 Z M 60 5.570312 C 60 5.292969 60.222656 5.070312 60.5 5.070312 C 60.777344 5.070312 61 5.292969 61 5.570312 L 61 25.570312 C 61 25.84375 60.777344 26.070312 60.5 26.070312 C 60.222656 26.070312 60 25.84375 60 25.570312 Z M 62 21.5 C 62 21.222656 62.222656 21 62.5 21 C 62.777344 21 63 21.222656 63 21.5 L 63 41.5 C 63 41.777344 62.777344 42 62.5 42 C 62.222656 42 62 41.777344 62 41.5 Z M 64 21.5 C 64 21.222656 64.222656 21 64.5 21 C 64.777344 21 65 21.222656 65 21.5 L 65 41.5 C 65 41.777344 64.777344 42 64.5 42 C 64.222656 42 64 41.777344 64 41.5 Z M 66 20.777344 C 66 20.5 66.222656 20.277344 66.5 20.277344 C 66.777344 20.277344 67 20.5 67 20.777344 L 67 40.777344 C 67 41.050781 66.777344 41.277344 66.5 41.277344 C 66.222656 41.277344 66 41.050781 66 40.777344 Z M 68 19.328125 C 68 19.050781 68.222656 18.828125 68.5 18.828125 C 68.777344 18.828125 69 19.050781 69 19.328125 L 69 39.328125 C 69 39.605469 68.777344 39.828125 68.5 39.828125 C 68.222656 39.828125 68 39.605469 68 39.328125 Z M 70 21.5 C 70 21.222656 70.222656 21 70.5 21 C 70.777344 21 71 21.222656 71 21.5 L 71 41.5 C 71 41.777344 70.777344 42 70.5 42 C 70.222656 42 70 41.777344 70 41.5 Z M 72 21.5 C 72 21.222656 72.222656 21 72.5 21 C 72.777344 21 73 21.222656 73 21.5 L 73 41.5 C 73 41.777344 72.777344 42 72.5 42 C 72.222656 42 72 41.777344 72 41.5 Z M 74 11.363281 C 74 11.085938 74.222656 10.863281 74.5 10.863281 C 74.777344 10.863281 75 11.085938 75 11.363281 L 75 31.363281 C 75 31.636719 74.777344 31.863281 74.5 31.863281 C 74.222656 31.863281 74 31.636719 74 31.363281 Z M 76 9.191406 C 76 8.914062 76.222656 8.691406 76.5 8.691406 C 76.777344 8.691406 77 8.914062 77 9.191406 L 77 29.191406 C 77 29.464844 76.777344 29.691406 76.5 29.691406 C 76.222656 29.691406 76 29.464844 76 29.191406 Z M 78 9.191406 C 78 8.914062 78.222656 8.691406 78.5 8.691406 C 78.777344 8.691406 79 8.914062 79 9.191406 L 79 29.191406 C 79 29.464844 78.777344 29.691406 78.5 29.691406 C 78.222656 29.691406 78 29.464844 78 29.191406 Z M 80 0.5 C 80 0.222656 80.222656 0 80.5 0 C 80.777344 0 81 0.222656 81 0.5 L 81 20.5 C 81 20.777344 80.777344 21 80.5 21 C 80.222656 21 80 20.777344 80 20.5 Z M 82 7.742188 C 82 7.464844 82.222656 7.242188 82.5 7.242188 C 82.777344 7.242188 83 7.464844 83 7.742188 L 83 27.742188 C 83 28.015625 82.777344 28.242188 82.5 28.242188 C 82.222656 28.242188 82 28.015625 82 27.742188 Z M 84 10.636719 C 84 10.363281 84.222656 10.136719 84.5 10.136719 C 84.777344 10.136719 85 10.363281 85 10.636719 L 85 30.636719 C 85 30.914062 84.777344 31.136719 84.5 31.136719 C 84.222656 31.136719 84 30.914062 84 30.636719 Z M 86 13.535156 C 86 13.257812 86.222656 13.035156 86.5 13.035156 C 86.777344 13.035156 87 13.257812 87 13.535156 L 87 33.535156 C 87 33.8125 86.777344 34.035156 86.5 34.035156 C 86.222656 34.035156 86 33.8125 86 33.535156 Z M 88 18.601562 C 88 18.328125 88.222656 18.101562 88.5 18.101562 C 88.777344 18.101562 89 18.328125 89 18.601562 L 89 38.601562 C 89 38.878906 88.777344 39.101562 88.5 39.101562 C 88.222656 39.101562 88 38.878906 88 38.601562 Z M 90 17.15625 C 90 16.878906 90.222656 16.65625 90.5 16.65625 C 90.777344 16.65625 91 16.878906 91 17.15625 L 91 37.15625 C 91 37.429688 90.777344 37.65625 90.5 37.65625 C 90.222656 37.65625 90 37.429688 90 37.15625 Z M 92 17.878906 C 92 17.601562 92.222656 17.378906 92.5 17.378906 C 92.777344 17.378906 93 17.601562 93 17.878906 L 93 37.878906 C 93 38.15625 92.777344 38.378906 92.5 38.378906 C 92.222656 38.378906 92 38.15625 92 37.878906 Z M 94 19.328125 C 94 19.050781 94.222656 18.828125 94.5 18.828125 C 94.777344 18.828125 95 19.050781 95 19.328125 L 95 39.328125 C 95 39.605469 94.777344 39.828125 94.5 39.828125 C 94.222656 39.828125 94 39.605469 94 39.328125 Z M 96 17.878906 C 96 17.601562 96.222656 17.378906 96.5 17.378906 C 96.777344 17.378906 97 17.601562 97 17.878906 L 97 37.878906 C 97 38.15625 96.777344 38.378906 96.5 38.378906 C 96.222656 38.378906 96 38.15625 96 37.878906 Z M 98 21.5 C 98 21.222656 98.222656 21 98.5 21 C 98.777344 21 99 21.222656 99 21.5 L 99 41.5 C 99 41.777344 98.777344 42 98.5 42 C 98.222656 42 98 41.777344 98 41.5 Z M 100 21.5 C 100 21.222656 100.222656 21 100.5 21 C 100.777344 21 101 21.222656 101 21.5 L 101 41.5 C 101 41.777344 100.777344 42 100.5 42 C 100.222656 42 100 41.777344 100 41.5 Z M 102 20.777344 C 102 20.5 102.222656 20.277344 102.5 20.277344 C 102.777344 20.277344 103 20.5 103 20.777344 L 103 40.777344 C 103 41.050781 102.777344 41.277344 102.5 41.277344 C 102.222656 41.277344 102 41.050781 102 40.777344 Z M 104 16.429688 C 104 16.15625 104.222656 15.929688 104.5 15.929688 C 104.777344 15.929688 105 16.15625 105 16.429688 L 105 36.429688 C 105 36.707031 104.777344 36.929688 104.5 36.929688 C 104.222656 36.929688 104 36.707031 104 36.429688 Z M 106 9.191406 C 106 8.914062 106.222656 8.691406 106.5 8.691406 C 106.777344 8.691406 107 8.914062 107 9.191406 L 107 29.191406 C 107 29.464844 106.777344 29.691406 106.5 29.691406 C 106.222656 29.691406 106 29.464844 106 29.191406 Z M 108 5.570312 C 108 5.292969 108.222656 5.070312 108.5 5.070312 C 108.777344 5.070312 109 5.292969 109 5.570312 L 109 25.570312 C 109 25.84375 108.777344 26.070312 108.5 26.070312 C 108.222656 26.070312 108 25.84375 108 25.570312 Z M 110 21.5 C 110 21.222656 110.222656 21 110.5 21 C 110.777344 21 111 21.222656 111 21.5 L 111 41.5 C 111 41.777344 110.777344 42 110.5 42 C 110.222656 42 110 41.777344 110 41.5 Z M 112 21.5 C 112 21.222656 112.222656 21 112.5 21 C 112.777344 21 113 21.222656 113 21.5 L 113 41.5 C 113 41.777344 112.777344 42 112.5 42 C 112.222656 42 112 41.777344 112 41.5 Z M 114 20.777344 C 114 20.5 114.222656 20.277344 114.5 20.277344 C 114.777344 20.277344 115 20.5 115 20.777344 L 115 40.777344 C 115 41.050781 114.777344 41.277344 114.5 41.277344 C 114.222656 41.277344 114 41.050781 114 40.777344 Z M 116 19.328125 C 116 19.050781 116.222656 18.828125 116.5 18.828125 C 116.777344 18.828125 117 19.050781 117 19.328125 L 117 39.328125 C 117 39.605469 116.777344 39.828125 116.5 39.828125 C 116.222656 39.828125 116 39.605469 116 39.328125 Z M 118 21.5 C 118 21.222656 118.222656 21 118.5 21 C 118.777344 21 119 21.222656 119 21.5 L 119 41.5 C 119 41.777344 118.777344 42 118.5 42 C 118.222656 42 118 41.777344 118 41.5 Z M 120 21.5 C 120 21.222656 120.222656 21 120.5 21 C 120.777344 21 121 21.222656 121 21.5 L 121 41.5 C 121 41.777344 120.777344 42 120.5 42 C 120.222656 42 120 41.777344 120 41.5 Z M 122 11.363281 C 122 11.085938 122.222656 10.863281 122.5 10.863281 C 122.777344 10.863281 123 11.085938 123 11.363281 L 123 31.363281 C 123 31.636719 122.777344 31.863281 122.5 31.863281 C 122.222656 31.863281 122 31.636719 122 31.363281 Z M 124 9.191406 C 124 8.914062 124.222656 8.691406 124.5 8.691406 C 124.777344 8.691406 125 8.914062 125 9.191406 L 125 29.191406 C 125 29.464844 124.777344 29.691406 124.5 29.691406 C 124.222656 29.691406 124 29.464844 124 29.191406 Z M 126 9.191406 C 126 8.914062 126.222656 8.691406 126.5 8.691406 C 126.777344 8.691406 127 8.914062 127 9.191406 L 127 29.191406 C 127 29.464844 126.777344 29.691406 126.5 29.691406 C 126.222656 29.691406 126 29.464844 126 29.191406 Z M 128 0.5 C 128 0.222656 128.222656 0 128.5 0 C 128.777344 0 129 0.222656 129 0.5 L 129 20.5 C 129 20.777344 128.777344 21 128.5 21 C 128.222656 21 128 20.777344 128 20.5 Z M 130 7.742188 C 130 7.464844 130.222656 7.242188 130.5 7.242188 C 130.777344 7.242188 131 7.464844 131 7.742188 L 131 27.742188 C 131 28.015625 130.777344 28.242188 130.5 28.242188 C 130.222656 28.242188 130 28.015625 130 27.742188 Z M 132 10.636719 C 132 10.363281 132.222656 10.136719 132.5 10.136719 C 132.777344 10.136719 133 10.363281 133 10.636719 L 133 30.636719 C 133 30.914062 132.777344 31.136719 132.5 31.136719 C 132.222656 31.136719 132 30.914062 132 30.636719 Z M 134 13.535156 C 134 13.257812 134.222656 13.035156 134.5 13.035156 C 134.777344 13.035156 135 13.257812 135 13.535156 L 135 33.535156 C 135 33.8125 134.777344 34.035156 134.5 34.035156 C 134.222656 34.035156 134 33.8125 134 33.535156 Z M 136 18.601562 C 136 18.328125 136.222656 18.101562 136.5 18.101562 C 136.777344 18.101562 137 18.328125 137 18.601562 L 137 38.601562 C 137 38.878906 136.777344 39.101562 136.5 39.101562 C 136.222656 39.101562 136 38.878906 136 38.601562 Z M 138 17.15625 C 138 16.878906 138.222656 16.65625 138.5 16.65625 C 138.777344 16.65625 139 16.878906 139 17.15625 L 139 37.15625 C 139 37.429688 138.777344 37.65625 138.5 37.65625 C 138.222656 37.65625 138 37.429688 138 37.15625 Z M 140 17.878906 C 140 17.601562 140.222656 17.378906 140.5 17.378906 C 140.777344 17.378906 141 17.601562 141 17.878906 L 141 37.878906 C 141 38.15625 140.777344 38.378906 140.5 38.378906 C 140.222656 38.378906 140 38.15625 140 37.878906 Z M 142 19.328125 C 142 19.050781 142.222656 18.828125 142.5 18.828125 C 142.777344 18.828125 143 19.050781 143 19.328125 L 143 39.328125 C 143 39.605469 142.777344 39.828125 142.5 39.828125 C 142.222656 39.828125 142 39.605469 142 39.328125 Z M 144 17.878906 C 144 17.601562 144.222656 17.378906 144.5 17.378906 C 144.777344 17.378906 145 17.601562 145 17.878906 L 145 37.878906 C 145 38.15625 144.777344 38.378906 144.5 38.378906 C 144.222656 38.378906 144 38.15625 144 37.878906 Z M 146 21.5 C 146 21.222656 146.222656 21 146.5 21 C 146.777344 21 147 21.222656 147 21.5 L 147 41.5 C 147 41.777344 146.777344 42 146.5 42 C 146.222656 42 146 41.777344 146 41.5 Z M 148 21.5 C 148 21.222656 148.222656 21 148.5 21 C 148.777344 21 149 21.222656 149 21.5 L 149 41.5 C 149 41.777344 148.777344 42 148.5 42 C 148.222656 42 148 41.777344 148 41.5 Z M 150 20.777344 C 150 20.5 150.222656 20.277344 150.5 20.277344 C 150.777344 20.277344 151 20.5 151 20.777344 L 151 40.777344 C 151 41.050781 150.777344 41.277344 150.5 41.277344 C 150.222656 41.277344 150 41.050781 150 40.777344 Z M 152 16.429688 C 152 16.15625 152.222656 15.929688 152.5 15.929688 C 152.777344 15.929688 153 16.15625 153 16.429688 L 153 36.429688 C 153 36.707031 152.777344 36.929688 152.5 36.929688 C 152.222656 36.929688 152 36.707031 152 36.429688 Z M 154 9.191406 C 154 8.914062 154.222656 8.691406 154.5 8.691406 C 154.777344 8.691406 155 8.914062 155 9.191406 L 155 29.191406 C 155 29.464844 154.777344 29.691406 154.5 29.691406 C 154.222656 29.691406 154 29.464844 154 29.191406 Z M 156 5.570312 C 156 5.292969 156.222656 5.070312 156.5 5.070312 C 156.777344 5.070312 157 5.292969 157 5.570312 L 157 25.570312 C 157 25.84375 156.777344 26.070312 156.5 26.070312 C 156.222656 26.070312 156 25.84375 156 25.570312 Z M 158 21.5 C 158 21.222656 158.222656 21 158.5 21 C 158.777344 21 159 21.222656 159 21.5 L 159 41.5 C 159 41.777344 158.777344 42 158.5 42 C 158.222656 42 158 41.777344 158 41.5 Z M 160 21.5 C 160 21.222656 160.222656 21 160.5 21 C 160.777344 21 161 21.222656 161 21.5 L 161 41.5 C 161 41.777344 160.777344 42 160.5 42 C 160.222656 42 160 41.777344 160 41.5 Z M 162 20.777344 C 162 20.5 162.222656 20.277344 162.5 20.277344 C 162.777344 20.277344 163 20.5 163 20.777344 L 163 40.777344 C 163 41.050781 162.777344 41.277344 162.5 41.277344 C 162.222656 41.277344 162 41.050781 162 40.777344 Z M 164 19.328125 C 164 19.050781 164.222656 18.828125 164.5 18.828125 C 164.777344 18.828125 165 19.050781 165 19.328125 L 165 39.328125 C 165 39.605469 164.777344 39.828125 164.5 39.828125 C 164.222656 39.828125 164 39.605469 164 39.328125 Z M 166 21.5 C 166 21.222656 166.222656 21 166.5 21 C 166.777344 21 167 21.222656 167 21.5 L 167 41.5 C 167 41.777344 166.777344 42 166.5 42 C 166.222656 42 166 41.777344 166 41.5 Z M 168 21.5 C 168 21.222656 168.222656 21 168.5 21 C 168.777344 21 169 21.222656 169 21.5 L 169 41.5 C 169 41.777344 168.777344 42 168.5 42 C 168.222656 42 168 41.777344 168 41.5 Z M 170 11.363281 C 170 11.085938 170.222656 10.863281 170.5 10.863281 C 170.777344 10.863281 171 11.085938 171 11.363281 L 171 31.363281 C 171 31.636719 170.777344 31.863281 170.5 31.863281 C 170.222656 31.863281 170 31.636719 170 31.363281 Z M 172 9.191406 C 172 8.914062 172.222656 8.691406 172.5 8.691406 C 172.777344 8.691406 173 8.914062 173 9.191406 L 173 29.191406 C 173 29.464844 172.777344 29.691406 172.5 29.691406 C 172.222656 29.691406 172 29.464844 172 29.191406 Z M 174 9.191406 C 174 8.914062 174.222656 8.691406 174.5 8.691406 C 174.777344 8.691406 175 8.914062 175 9.191406 L 175 29.191406 C 175 29.464844 174.777344 29.691406 174.5 29.691406 C 174.222656 29.691406 174 29.464844 174 29.191406 Z M 176 0.5 C 176 0.222656 176.222656 0 176.5 0 C 176.777344 0 177 0.222656 177 0.5 L 177 20.5 C 177 20.777344 176.777344 21 176.5 21 C 176.222656 21 176 20.777344 176 20.5 Z M 178 7.742188 C 178 7.464844 178.222656 7.242188 178.5 7.242188 C 178.777344 7.242188 179 7.464844 179 7.742188 L 179 27.742188 C 179 28.015625 178.777344 28.242188 178.5 28.242188 C 178.222656 28.242188 178 28.015625 178 27.742188 Z M 180 10.636719 C 180 10.363281 180.222656 10.136719 180.5 10.136719 C 180.777344 10.136719 181 10.363281 181 10.636719 L 181 30.636719 C 181 30.914062 180.777344 31.136719 180.5 31.136719 C 180.222656 31.136719 180 30.914062 180 30.636719 Z M 182 13.535156 C 182 13.257812 182.222656 13.035156 182.5 13.035156 C 182.777344 13.035156 183 13.257812 183 13.535156 L 183 33.535156 C 183 33.8125 182.777344 34.035156 182.5 34.035156 C 182.222656 34.035156 182 33.8125 182 33.535156 Z M 184 18.601562 C 184 18.328125 184.222656 18.101562 184.5 18.101562 C 184.777344 18.101562 185 18.328125 185 18.601562 L 185 38.601562 C 185 38.878906 184.777344 39.101562 184.5 39.101562 C 184.222656 39.101562 184 38.878906 184 38.601562 Z M 186 17.15625 C 186 16.878906 186.222656 16.65625 186.5 16.65625 C 186.777344 16.65625 187 16.878906 187 17.15625 L 187 37.15625 C 187 37.429688 186.777344 37.65625 186.5 37.65625 C 186.222656 37.65625 186 37.429688 186 37.15625 Z M 188 17.878906 C 188 17.601562 188.222656 17.378906 188.5 17.378906 C 188.777344 17.378906 189 17.601562 189 17.878906 L 189 37.878906 C 189 38.15625 188.777344 38.378906 188.5 38.378906 C 188.222656 38.378906 188 38.15625 188 37.878906 Z M 190 19.328125 C 190 19.050781 190.222656 18.828125 190.5 18.828125 C 190.777344 18.828125 191 19.050781 191 19.328125 L 191 39.328125 C 191 39.605469 190.777344 39.828125 190.5 39.828125 C 190.222656 39.828125 190 39.605469 190 39.328125 Z M 192 17.878906 C 192 17.601562 192.222656 17.378906 192.5 17.378906 C 192.777344 17.378906 193 17.601562 193 17.878906 L 193 37.878906 C 193 38.15625 192.777344 38.378906 192.5 38.378906 C 192.222656 38.378906 192 38.15625 192 37.878906 Z M 194 21.5 C 194 21.222656 194.222656 21 194.5 21 C 194.777344 21 195 21.222656 195 21.5 L 195 41.5 C 195 41.777344 194.777344 42 194.5 42 C 194.222656 42 194 41.777344 194 41.5 Z M 196 21.5 C 196 21.222656 196.222656 21 196.5 21 C 196.777344 21 197 21.222656 197 21.5 L 197 41.5 C 197 41.777344 196.777344 42 196.5 42 C 196.222656 42 196 41.777344 196 41.5 Z M 198 20.777344 C 198 20.5 198.222656 20.277344 198.5 20.277344 C 198.777344 20.277344 199 20.5 199 20.777344 L 199 40.777344 C 199 41.050781 198.777344 41.277344 198.5 41.277344 C 198.222656 41.277344 198 41.050781 198 40.777344 Z M 198 20.777344 "/>
</g>
<g clip-path="url(#clip3)" clip-rule="nonzero">
<rect x="0" y="0" width="110" height="110" style="fill:rgb(38.039216%,50.588235%,100%);fill-opacity:0.490196;stroke:none;"/>
</g>
<g clip-path="url(#clip4)" clip-rule="nonzero">
<path style=" stroke:none;fill-rule:nonzero;fill:rgb(66.666667%,0%,100%);fill-opacity:0.490196;" d="M 2 45.207031 C 2 44.65625 2.449219 44.207031 3 44.207031 C 3.550781 44.207031 4 44.65625 4 45.207031 L 4 65.207031 C 4 65.757812 3.550781 66.207031 3 66.207031 C 2.449219 66.207031 2 65.757812 2 65.207031 Z M 4 49 C 4 48.449219 4.449219 48 5 48 C 5.550781 48 6 48.449219 6 49 L 6 69 C 6 69.550781 5.550781 70 5 70 C 4.449219 70 4 69.550781 4 69 Z M 7 49 C 7 48.449219 7.449219 48 8 48 C 8.550781 48 9 48.449219 9 49 L 9 69 C 9 69.550781 8.550781 70 8 70 C 7.449219 70 7 69.550781 7 69 Z M 10 48.242188 C 10 47.6875 10.449219 47.242188 11 47.242188 C 11.550781 47.242188 12 47.6875 12 48.242188 L 12 68.242188 C 12 68.792969 11.550781 69.242188 11 69.242188 C 10.449219 69.242188 10 68.792969 10 68.242188 Z M 13 43.691406 C 13 43.136719 13.449219 42.691406 14 42.691406 C 14.550781 42.691406 15 43.136719 15 43.691406 L 15 63.691406 C 15 64.242188 14.550781 64.691406 14 64.691406 C 13.449219 64.691406 13 64.242188 13 63.691406 Z M 16 36.101562 C 16 35.550781 16.449219 35.101562 17 35.101562 C 17.550781 35.101562 18 35.550781 18 36.101562 L 18 56.101562 C 18 56.65625 17.550781 57.101562 17 57.101562 C 16.449219 57.101562 16 56.65625 16 56.101562 Z M 19 32.308594 C 19 31.757812 19.449219 31.308594 20 31.308594 C 20.550781 31.308594 21 31.757812 21 32.308594 L 21 52.308594 C 21 52.863281 20.550781 53.308594 20 53.308594 C 19.449219 53.308594 19 52.863281 19 52.308594 Z M 22 49 C 22 48.449219 22.449219 48 23 48 C 23.550781 48 24 48.449219 24 49 L 24 69 C 24 69.550781 23.550781 70 23 70 C 22.449219 70 22 69.550781 22 69 Z M 25 49 C 25 48.449219 25.449219 48 26 48 C 26.550781 48 27 48.449219 27 49 L 27 69 C 27 69.550781 26.550781 70 26 70 C 25.449219 70 25 69.550781 25 69 Z M 28 48.242188 C 28 47.6875 28.449219 47.242188 29 47.242188 C 29.550781 47.242188 30 47.6875 30 48.242188 L 30 68.242188 C 30 68.792969 29.550781 69.242188 29 69.242188 C 28.449219 69.242188 28 68.792969 28 68.242188 Z M 31 46.722656 C 31 46.171875 31.449219 45.722656 32 45.722656 C 32.550781 45.722656 33 46.171875 33 46.722656 L 33 66.722656 C 33 67.277344 32.550781 67.722656 32 67.722656 C 31.449219 67.722656 31 67.277344 31 66.722656 Z M 34 49 C 34 48.449219 34.449219 48 35 48 C 35.550781 48 36 48.449219 36 49 L 36 69 C 36 69.550781 35.550781 70 35 70 C 34.449219 70 34 69.550781 34 69 Z M 37 49 C 37 48.449219 37.449219 48 38 48 C 38.550781 48 39 48.449219 39 49 L 39 69 C 39 69.550781 38.550781 70 38 70 C 37.449219 70 37 69.550781 37 69 Z M 40 38.378906 C 40 37.828125 40.449219 37.378906 41 37.378906 C 41.550781 37.378906 42 37.828125 42 38.378906 L 42 58.378906 C 42 58.929688 41.550781 59.378906 41 59.378906 C 40.449219 59.378906 40 58.929688 40 58.378906 Z M 43 36.101562 C 43 35.550781 43.449219 35.101562 44 35.101562 C 44.550781 35.101562 45 35.550781 45 36.101562 L 45 56.101562 C 45 56.65625 44.550781 57.101562 44 57.101562 C 43.449219 57.101562 43 56.65625 43 56.101562 Z M 46 36.101562 C 46 35.550781 46.449219 35.101562 47 35.101562 C 47.550781 35.101562 48 35.550781 48 36.101562 L 48 56.101562 C 48 56.65625 47.550781 57.101562 47 57.101562 C 46.449219 57.101562 46 56.65625 46 56.101562 Z M 49 27 C 49 26.449219 49.449219 26 50 26 C 50.550781 26 51 26.449219 51 27 L 51 47 C 51 47.550781 50.550781 48 50 48 C 49.449219 48 49 47.550781 49 47 Z M 52 34.585938 C 52 34.035156 52.449219 33.585938 53 33.585938 C 53.550781 33.585938 54 34.035156 54 34.585938 L 54 54.585938 C 54 55.136719 53.550781 55.585938 53 55.585938 C 52.449219 55.585938 52 55.136719 52 54.585938 Z M 55 37.621094 C 55 37.070312 55.449219 36.621094 56 36.621094 C 56.550781 36.621094 57 37.070312 57 37.621094 L 57 57.621094 C 57 58.171875 56.550781 58.621094 56 58.621094 C 55.449219 58.621094 55 58.171875 55 57.621094 Z M 58 40.65625 C 58 40.101562 58.449219 39.65625 59 39.65625 C 59.550781 39.65625 60 40.101562 60 40.65625 L 60 60.65625 C 60 61.207031 59.550781 61.65625 59 61.65625 C 58.449219 61.65625 58 61.207031 58 60.65625 Z M 61 45.964844 C 61 45.414062 61.449219 44.964844 62 44.964844 C 62.550781 44.964844 63 45.414062 63 45.964844 L 63 65.964844 C 63 66.519531 62.550781 66.964844 62 66.964844 C 61.449219 66.964844 61 66.519531 61 65.964844 Z M 64 44.449219 C 64 43.894531 64.449219 43.449219 65 43.449219 C 65.550781 43.449219 66 43.894531 66 44.449219 L 66 64.449219 C 66 65 65.550781 65.449219 65 65.449219 C 64.449219 65.449219 64 65 64 64.449219 Z M 67 45.207031 C 67 44.65625 67.449219 44.207031 68 44.207031 C 68.550781 44.207031 69 44.65625 69 45.207031 L 69 65.207031 C 69 65.757812 68.550781 66.207031 68 66.207031 C 67.449219 66.207031 67 65.757812 67 65.207031 Z M 70 46.722656 C 70 46.171875 70.449219 45.722656 71 45.722656 C 71.550781 45.722656 72 46.171875 72 46.722656 L 72 66.722656 C 72 67.277344 71.550781 67.722656 71 67.722656 C 70.449219 67.722656 70 67.277344 70 66.722656 Z M 73 45.207031 C 73 44.65625 73.449219 44.207031 74 44.207031 C 74.550781 44.207031 75 44.65625 75 45.207031 L 75 65.207031 C 75 65.757812 74.550781 66.207031 74 66.207031 C 73.449219 66.207031 73 65.757812 73 65.207031 Z M 76 49 C 76 48.449219 76.449219 48 77 48 C 77.550781 48 78 48.449219 78 49 L 78 69 C 78 69.550781 77.550781 70 77 70 C 76.449219 70 76 69.550781 76 69 Z M 79 49 C 79 48.449219 79.449219 48 80 48 C 80.550781 48 81 48.449219 81 49 L 81 69 C 81 69.550781 80.550781 70 80 70 C 79.449219 70 79 69.550781 79 69 Z M 82 48.242188 C 82 47.6875 82.449219 47.242188 83 47.242188 C 83.550781 47.242188 84 47.6875 84 48.242188 L 84 68.242188 C 84 68.792969 83.550781 69.242188 83 69.242188 C 82.449219 69.242188 82 68.792969 82 68.242188 Z M 85 43.691406 C 85 43.136719 85.449219 42.691406 86 42.691406 C 86.550781 42.691406 87 43.136719 87 43.691406 L 87 63.691406 C 87 64.242188 86.550781 64.691406 86 64.691406 C 85.449219 64.691406 85 64.242188 85 63.691406 Z M 88 36.101562 C 88 35.550781 88.449219 35.101562 89 35.101562 C 89.550781 35.101562 90 35.550781 90 36.101562 L 90 56.101562 C 90 56.65625 89.550781 57.101562 89 57.101562 C 88.449219 57.101562 88 56.65625 88 56.101562 Z M 91 32.308594 C 91 31.757812 91.449219 31.308594 92 31.308594 C 92.550781 31.308594 93 31.757812 93 32.308594 L 93 52.308594 C 93 52.863281 92.550781 53.308594 92 53.308594 C 91.449219 53.308594 91 52.863281 91 52.308594 Z M 94 49 C 94 48.449219 94.449219 48 95 48 C 95.550781 48 96 48.449219 96 49 L 96 69 C 96 69.550781 95.550781 70 95 70 C 94.449219 70 94 69.550781 94 69 Z M 97 49 C 97 48.449219 97.449219 48 98 48 C 98.550781 48 99 48.449219 99 49 L 99 69 C 99 69.550781 98.550781 70 98 70 C 97.449219 70 97 69.550781 97 69 Z M 100 48.242188 C 100 47.6875 100.449219 47.242188 101 47.242188 C 101.550781 47.242188 102 47.6875 102 48.242188 L 102 68.242188 C 102 68.792969 101.550781 69.242188 101 69.242188 C 100.449219 69.242188 100 68.792969 100 68.242188 Z M 103 46.722656 C 103 46.171875 103.449219 45.722656 104 45.722656 C 104.550781 45.722656 105 46.171875 105 46.722656 L 105 66.722656 C 105 67.277344 104.550781 67.722656 104 67.722656 C 103.449219 67.722656 103 67.277344 103 66.722656 Z M 106 49 C 106 48.449219 106.449219 48 107 48 C 107.550781 48 108 48.449219 108 49 L 108 69 C 108 69.550781 107.550781 70 107 70 C 106.449219 70 106 69.550781 106 69 Z M 109 49 C 109 48.449219 109.449219 48 110 48 C 110.550781 48 111 48.449219 111 49 L 111 69 C 111 69.550781 110.550781 70 110 70 C 109.449219 70 109 69.550781 109 69 Z M 112 38.378906 C 112 37.828125 112.449219 37.378906 113 37.378906 C 113.550781 37.378906 114 37.828125 114 38.378906 L 114 58.378906 C 114 58.929688 113.550781 59.378906 113 59.378906 C 112.449219 59.378906 112 58.929688 112 58.378906 Z M 115 36.101562 C 115 35.550781 115.449219 35.101562 116 35.101562 C 116.550781 35.101562 117 35.550781 117 36.101562 L 117 56.101562 C 117 56.65625 116.550781 57.101562 116 57.101562 C 115.449219 57.101562 115 56.65625 115 56.101562 Z M 118 36.101562 C 118 35.550781 118.449219 35.101562 119 35.101562 C 119.550781 35.101562 120 35.550781 120 36.101562 L 120 56.101562 C 120 56.65625 119.550781 57.101562 119 57.101562 C 118.449219 57.101562 118 56.65625 118 56.101562 Z M 121 27 C 121 26.449219 121.449219 26 122 26 C 122.550781 26 123 26.449219 123 27 L 123 47 C 123 47.550781 122.550781 48 122 48 C 121.449219 48 121 47.550781 121 47 Z M 124 34.585938 C 124 34.035156 124.449219 33.585938 125 33.585938 C 125.550781 33.585938 126 34.035156 126 34.585938 L 126 54.585938 C 126 55.136719 125.550781 55.585938 125 55.585938 C 124.449219 55.585938 124 55.136719 124 54.585938 Z M 127 37.621094 C 127 37.070312 127.449219 36.621094 128 36.621094 C 128.550781 36.621094 129 37.070312 129 37.621094 L 129 57.621094 C 129 58.171875 128.550781 58.621094 128 58.621094 C 127.449219 58.621094 127 58.171875 127 57.621094 Z M 130 40.65625 C 130 40.101562 130.449219 39.65625 131 39.65625 C 131.550781 39.65625 132 40.101562 132 40.65625 L 132 60.65625 C 132 61.207031 131.550781 61.65625 131 61.65625 C 130.449219 61.65625 130 61.207031 130 60.65625 Z M 133 45.964844 C 133 45.414062 133.449219 44.964844 134 44.964844 C 134.550781 44.964844 135 45.414062 135 45.964844 L 135 65.964844 C 135 66.519531 134.550781 66.964844 134 66.964844 C 133.449219 66.964844 133 66.519531 133 65.964844 Z M 136 44.449219 C 136 43.894531 136.449219 43.449219 137 43.449219 C 137.550781 43.449219 138 43.894531 138 44.449219 L 138 64.449219 C 138 65 137.550781 65.449219 137 65.449219 C 136.449219 65.449219 136 65 136 64.449219 Z M 139 45.207031 C 139 44.65625 139.449219 44.207031 140 44.207031 C 140.550781 44.207031 141 44.65625 141 45.207031 L 141 65.207031 C 141 65.757812 140.550781 66.207031 140 66.207031 C 139.449219 66.207031 139 65.757812 139 65.207031 Z M 142 46.722656 C 142 46.171875 142.449219 45.722656 143 45.722656 C 143.550781 45.722656 144 46.171875 144 46.722656 L 144 66.722656 C 144 67.277344 143.550781 67.722656 143 67.722656 C 142.449219 67.722656 142 67.277344 142 66.722656 Z M 145 45.207031 C 145 44.65625 145.449219 44.207031 146 44.207031 C 146.550781 44.207031 147 44.65625 147 45.207031 L 147 65.207031 C 147 65.757812 146.550781 66.207031 146 66.207031 C 145.449219 66.207031 145 65.757812 145 65.207031 Z M 148 49 C 148 48.449219 148.449219 48 149 48 C 149.550781 48 150 48.449219 150 49 L 150 69 C 150 69.550781 149.550781 70 149 70 C 148.449219 70 148 69.550781 148 69 Z M 151 49 C 151 48.449219 151.449219 48 152 48 C 152.550781 48 153 48.449219 153 49 L 153 69 C 153 69.550781 152.550781 70 152 70 C 151.449219 70 151 69.550781 151 69 Z M 154 48.242188 C 154 47.6875 154.449219 47.242188 155 47.242188 C 155.550781 47.242188 156 47.6875 156 48.242188 L 156 68.242188 C 156 68.792969 155.550781 69.242188 155 69.242188 C 154.449219 69.242188 154 68.792969 154 68.242188 Z M 157 43.691406 C 157 43.136719 157.449219 42.691406 158 42.691406 C 158.550781 42.691406 159 43.136719 159 43.691406 L 159 63.691406 C 159 64.242188 158.550781 64.691406 158 64.691406 C 157.449219 64.691406 157 64.242188 157 63.691406 Z M 160 36.101562 C 160 35.550781 160.449219 35.101562 161 35.101562 C 161.550781 35.101562 162 35.550781 162 36.101562 L 162 56.101562 C 162 56.65625 161.550781 57.101562 161 57.101562 C 160.449219 57.101562 160 56.65625 160 56.101562 Z M 163 32.308594 C 163 31.757812 163.449219 31.308594 164 31.308594 C 164.550781 31.308594 165 31.757812 165 32.308594 L 165 52.308594 C 165 52.863281 164.550781 53.308594 164 53.308594 C 163.449219 53.308594 163 52.863281 163 52.308594 Z M 166 49 C 166 48.449219 166.449219 48 167 48 C 167.550781 48 168 48.449219 168 49 L 168 69 C 168 69.550781 167.550781 70 167 70 C 166.449219 70 166 69.550781 166 69 Z M 169 49 C 169 48.449219 169.449219 48 170 48 C 170.550781 48 171 48.449219 171 49 L 171 69 C 171 69.550781 170.550781 70 170 70 C 169.449219 70 169 69.550781 169 69 Z M 172 48.242188 C 172 47.6875 172.449219 47.242188 173 47.242188 C 173.550781 47.242188 174 47.6875 174 48.242188 L 174 68.242188 C 174 68.792969 173.550781 69.242188 173 69.242188 C 172.449219 69.242188 172 68.792969 172 68.242188 Z M 175 46.722656 C 175 46.171875 175.449219 45.722656 176 45.722656 C 176.550781 45.722656 177 46.171875 177 46.722656 L 177 66.722656 C 177 67.277344 176.550781 67.722656 176 67.722656 C 175.449219 67.722656 175 67.277344 175 66.722656 Z M 178 49 C 178 48.449219 178.449219 48 179 48 C 179.550781 48 180 48.449219 180 49 L 180 69 C 180 69.550781 179.550781 70 179 70 C 178.449219 70 178 69.550781 178 69 Z M 181 49 C 181 48.449219 181.449219 48 182 48 C 182.550781 48 183 48.449219 183 49 L 183 69 C 183 69.550781 182.550781 70 182 70 C 181.449219 70 181 69.550781 181 69 Z M 184 38.378906 C 184 37.828125 184.449219 37.378906 185 37.378906 C 185.550781 37.378906 186 37.828125 186 38.378906 L 186 58.378906 C 186 58.929688 185.550781 59.378906 185 59.378906 C 184.449219 59.378906 184 58.929688 184 58.378906 Z M 187 36.101562 C 187 35.550781 187.449219 35.101562 188 35.101562 C 188.550781 35.101562 189 35.550781 189 36.101562 L 189 56.101562 C 189 56.65625 188.550781 57.101562 188 57.101562 C 187.449219 57.101562 187 56.65625 187 56.101562 Z M 190 36.101562 C 190 35.550781 190.449219 35.101562 191 35.101562 C 191.550781 35.101562 192 35.550781 192 36.101562 L 192 56.101562 C 192 56.65625 191.550781 57.101562 191 57.101562 C 190.449219 57.101562 190 56.65625 190 56.101562 Z M 193 27 C 193 26.449219 193.449219 26 194 26 C 194.550781 26 195 26.449219 195 27 L 195 47 C 195 47.550781 194.550781 48 194 48 C 193.449219 48 193 47.550781 193 47 Z M 196 34.585938 C 196 34.035156 196.449219 33.585938 197 33.585938 C 197.550781 33.585938 198 34.035156 198 34.585938 L 198 54.585938 C 198 55.136719 197.550781 55.585938 197 55.585938 C 196.449219 55.585938 196 55.136719 196 54.585938 Z M 199 37.621094 C 199 37.070312 199.449219 36.621094 200 36.621094 C 200.550781 36.621094 201 37.070312 201 37.621094 L 201 57.621094 C 201 58.171875 200.550781 58.621094 200 58.621094 C 199.449219 58.621094 199 58.171875 199 57.621094 Z M 202 40.65625 C 202 40.101562 202.449219 39.65625 203 39.65625 C 203.550781 39.65625 204 40.101562 204 40.65625 L 204 60.65625 C 204 61.207031 203.550781 61.65625 203 61.65625 C 202.449219 61.65625 202 61.207031 202 60.65625 Z M 205 45.964844 C 205 45.414062 205.449219 44.964844 206 44.964844 C 206.550781 44.964844 207 45.414062 207 45.964844 L 207 65.964844 C 207 66.519531 206.550781 66.964844 206 66.964844 C 205.449219 66.964844 205 66.519531 205 65.964844 Z M 208 44.449219 C 208 43.894531 208.449219 43.449219 209 43.449219 C 209.550781 43.449219 210 43.894531 210 44.449219 L 210 64.449219 C 210 65 209.550781 65.449219 209 65.449219 C 208.449219 65.449219 208 65 208 64.449219 Z M 211 45.207031 C 211 44.65625 211.449219 44.207031 212 44.207031 C 212.550781 44.207031 213 44.65625 213 45.207031 L 213 65.207031 C 213 65.757812 212.550781 66.207031 212 66.207031 C 211.449219 66.207031 211 65.757812 211 65.207031 Z M 214 46.722656 C 214 46.171875 214.449219 45.722656 215 45.722656 C 215.550781 45.722656 216 46.171875 216 46.722656 L 216 66.722656 C 216 67.277344 215.550781 67.722656 215 67.722656 C 214.449219 67.722656 214 67.277344 214 66.722656 Z M 217 45.207031 C 217 44.65625 217.449219 44.207031 218 44.207031 C 218.550781 44.207031 219 44.65625 219 45.207031 L 219 65.207031 C 219 65.757812 218.550781 66.207031 218 66.207031 C 217.449219 66.207031 217 65.757812 217 65.207031 Z M 220 49 C 220 48.449219 220.449219 48 221 48 C 221.550781 48 222 48.449219 222 49 L 222 69 C 222 69.550781 221.550781 70 221 70 C 220.449219 70 220 69.550781 220 69 Z M 223 49 C 223 48.449219 223.449219 48 224 48 C 224.550781 48 225 48.449219 225 49 L 225 69 C 225 69.550781 224.550781 70 224 70 C 223.449219 70 223 69.550781 223 69 Z M 226 48.242188 C 226 47.6875 226.449219 47.242188 227 47.242188 C 227.550781 47.242188 228 47.6875 228 48.242188 L 228 68.242188 C 228 68.792969 227.550781 69.242188 227 69.242188 C 226.449219 69.242188 226 68.792969 226 68.242188 Z M 229 43.691406 C 229 43.136719 229.449219 42.691406 230 42.691406 C 230.550781 42.691406 231 43.136719 231 43.691406 L 231 63.691406 C 231 64.242188 230.550781 64.691406 230 64.691406 C 229.449219 64.691406 229 64.242188 229 63.691406 Z M 232 36.101562 C 232 35.550781 232.449219 35.101562 233 35.101562 C 233.550781 35.101562 234 35.550781 234 36.101562 L 234 56.101562 C 234 56.65625 233.550781 57.101562 233 57.101562 C 232.449219 57.101562 232 56.65625 232 56.101562 Z M 235 32.308594 C 235 31.757812 235.449219 31.308594 236 31.308594 C 236.550781 31.308594 237 31.757812 237 32.308594 L 237 52.308594 C 237 52.863281 236.550781 53.308594 236 53.308594 C 235.449219 53.308594 235 52.863281 235 52.308594 Z M 238 49 C 238 48.449219 238.449219 48 239 48 C 239.550781 48 240 48.449219 240 49 L 240 69 C 240 69.550781 239.550781 70 239 70 C 238.449219 70 238 69.550781 238 69 Z M 241 49 C 241 48.449219 241.449219 48 242 48 C 242.550781 48 243 48.449219 243 49 L 243 69 C 243 69.550781 242.550781 70 242 70 C 241.449219 70 241 69.550781 241 69 Z M 244 48.242188 C 244 47.6875 244.449219 47.242188 245 47.242188 C 245.550781 47.242188 246 47.6875 246 48.242188 L 246 68.242188 C 246 68.792969 245.550781 69.242188 245 69.242188 C 244.449219 69.242188 244 68.792969 244 68.242188 Z M 247 46.722656 C 247 46.171875 247.449219 45.722656 248 45.722656 C 248.550781 45.722656 249 46.171875 249 46.722656 L 249 66.722656 C 249 67.277344 248.550781 67.722656 248 67.722656 C 247.449219 67.722656 247 67.277344 247 66.722656 Z M 250 49 C 250 48.449219 250.449219 48 251 48 C 251.550781 48 252 48.449219 252 49 L 252 69 C 252 69.550781 251.550781 70 251 70 C 250.449219 70 250 69.550781 250 69 Z M 253 49 C 253 48.449219 253.449219 48 254 48 C 254.550781 48 255 48.449219 255 49 L 255 69 C 255 69.550781 254.550781 70 254 70 C 253.449219 70 253 69.550781 253 69 Z M 256 38.378906 C 256 37.828125 256.449219 37.378906 257 37.378906 C 257.550781 37.378906 258 37.828125 258 38.378906 L 258 58.378906 C 258 58.929688 257.550781 59.378906 257 59.378906 C 256.449219 59.378906 256 58.929688 256 58.378906 Z M 259 36.101562 C 259 35.550781 259.449219 35.101562 260 35.101562 C 260.550781 35.101562 261 35.550781 261 36.101562 L 261 56.101562 C 261 56.65625 260.550781 57.101562 260 57.101562 C 259.449219 57.101562 259 56.65625 259 56.101562 Z M 262 36.101562 C 262 35.550781 262.449219 35.101562 263 35.101562 C 263.550781 35.101562 264 35.550781 264 36.101562 L 264 56.101562 C 264 56.65625 263.550781 57.101562 263 57.101562 C 262.449219 57.101562 262 56.65625 262 56.101562 Z M 265 27 C 265 26.449219 265.449219 26 266 26 C 266.550781 26 267 26.449219 267 27 L 267 47 C 267 47.550781 266.550781 48 266 48 C 265.449219 48 265 47.550781 265 47 Z M 268 34.585938 C 268 34.035156 268.449219 33.585938 269 33.585938 C 269.550781 33.585938 270 34.035156 270 34.585938 L 270 54.585938 C 270 55.136719 269.550781 55.585938 269 55.585938 C 268.449219 55.585938 268 55.136719 268 54.585938 Z M 271 37.621094 C 271 37.070312 271.449219 36.621094 272 36.621094 C 272.550781 36.621094 273 37.070312 273 37.621094 L 273 57.621094 C 273 58.171875 272.550781 58.621094 272 58.621094 C 271.449219 58.621094 271 58.171875 271 57.621094 Z M 274 40.65625 C 274 40.101562 274.449219 39.65625 275 39.65625 C 275.550781 39.65625 276 40.101562 276 40.65625 L 276 60.65625 C 276 61.207031 275.550781 61.65625 275 61.65625 C 274.449219 61.65625 274 61.207031 274 60.65625 Z M 277 45.964844 C 277 45.414062 277.449219 44.964844 278 44.964844 C 278.550781 44.964844 279 45.414062 279 45.964844 L 279 65.964844 C 279 66.519531 278.550781 66.964844 278 66.964844 C 277.449219 66.964844 277 66.519531 277 65.964844 Z M 280 44.449219 C 280 43.894531 280.449219 43.449219 281 43.449219 C 281.550781 43.449219 282 43.894531 282 44.449219 L 282 64.449219 C 282 65 281.550781 65.449219 281 65.449219 C 280.449219 65.449219 280 65 280 64.449219 Z M 283 45.207031 C 283 44.65625 283.449219 44.207031 284 44.207031 C 284.550781 44.207031 285 44.65625 285 45.207031 L 285 65.207031 C 285 65.757812 284.550781 66.207031 284 66.207031 C 283.449219 66.207031 283 65.757812 283 65.207031 Z M 286 46.722656 C 286 46.171875 286.449219 45.722656 287 45.722656 C 287.550781 45.722656 288 46.171875 288 46.722656 L 288 66.722656 C 288 67.277344 287.550781 67.722656 287 67.722656 C 286.449219 67.722656 286 67.277344 286 66.722656 Z M 289 45.207031 C 289 44.65625 289.449219 44.207031 290 44.207031 C 290.550781 44.207031 291 44.65625 291 45.207031 L 291 65.207031 C 291 65.757812 290.550781 66.207031 290 66.207031 C 289.449219 66.207031 289 65.757812 289 65.207031 Z M 292 49 C 292 48.449219 292.449219 48 293 48 C 293.550781 48 294 48.449219 294 49 L 294 69 C 294 69.550781 293.550781 70 293 70 C 292.449219 70 292 69.550781 292 69 Z M 295 49 C 295 48.449219 295.449219 48 296 48 C 296.550781 48 297 48.449219 297 49 L 297 69 C 297 69.550781 296.550781 70 296 70 C 295.449219 70 295 69.550781 295 69 Z M 298 48.242188 C 298 47.6875 298.449219 47.242188 299 47.242188 C 299.550781 47.242188 300 47.6875 300 48.242188 L 300 68.242188 C 300 68.792969 299.550781 69.242188 299 69.242188 C 298.449219 69.242188 298 68.792969 298 68.242188 Z M 298 48.242188 "/>
</g>
<g clip-path="url(#clip5)" clip-rule="nonzero">
<rect x="0" y="0" width="110" height="110" style="fill:rgb(38.039216%,50.588235%,100%);fill-opacity:0.490196;stroke:none;"/>
</g>
<g clip-path="url(#clip6)" clip-rule="nonzero">
<path style=" stroke:none;fill-rule:nonzero;fill:rgb(66.666667%,0%,100%);fill-opacity:0.490196;" d="M 3 71.878906 C 3 71.050781 3.671875 70.378906 4.5 70.378906 C 5.328125 70.378906 6 71.050781 6 71.878906 L 6 89.878906 C 6 90.707031 5.328125 91.378906 4.5 91.378906 C 3.671875 91.378906 3 90.707031 3 89.878906 Z M 6 75.5 C 6 74.671875 6.671875 74 7.5 74 C 8.328125 74 9 74.671875 9 75.5 L 9 93.5 C 9 94.328125 8.328125 95 7.5 95 C 6.671875 95 6 94.328125 6 93.5 Z M 10 75.5 C 10 74.671875 10.671875 74 11.5 74 C 12.328125 74 13 74.671875 13 75.5 L 13 93.5 C 13 94.328125 12.328125 95 11.5 95 C 10.671875 95 10 94.328125 10 93.5 Z M 14 74.777344 C 14 73.949219 14.671875 73.277344 15.5 73.277344 C 16.328125 73.277344 17 73.949219 17 74.777344 L 17 92.777344 C 17 93.605469 16.328125 94.277344 15.5 94.277344 C 14.671875 94.277344 14 93.605469 14 92.777344 Z M 18 70.429688 C 18 69.601562 18.671875 68.929688 19.5 68.929688 C 20.328125 68.929688 21 69.601562 21 70.429688 L 21 88.429688 C 21 89.257812 20.328125 89.929688 19.5 89.929688 C 18.671875 89.929688 18 89.257812 18 88.429688 Z M 22 63.191406 C 22 62.359375 22.671875 61.691406 23.5 61.691406 C 24.328125 61.691406 25 62.359375 25 63.191406 L 25 81.191406 C 25 82.019531 24.328125 82.691406 23.5 82.691406 C 22.671875 82.691406 22 82.019531 22 81.191406 Z M 26 59.570312 C 26 58.742188 26.671875 58.070312 27.5 58.070312 C 28.328125 58.070312 29 58.742188 29 59.570312 L 29 77.570312 C 29 78.398438 28.328125 79.070312 27.5 79.070312 C 26.671875 79.070312 26 78.398438 26 77.570312 Z M 30 75.5 C 30 74.671875 30.671875 74 31.5 74 C 32.328125 74 33 74.671875 33 75.5 L 33 93.5 C 33 94.328125 32.328125 95 31.5 95 C 30.671875 95 30 94.328125 30 93.5 Z M 34 75.5 C 34 74.671875 34.671875 74 35.5 74 C 36.328125 74 37 74.671875 37 75.5 L 37 93.5 C 37 94.328125 36.328125 95 35.5 95 C 34.671875 95 34 94.328125 34 93.5 Z M 38 74.777344 C 38 73.949219 38.671875 73.277344 39.5 73.277344 C 40.328125 73.277344 41 73.949219 41 74.777344 L 41 92.777344 C 41 93.605469 40.328125 94.277344 39.5 94.277344 C 38.671875 94.277344 38 93.605469 38 92.777344 Z M 42 73.328125 C 42 72.5 42.671875 71.828125 43.5 71.828125 C 44.328125 71.828125 45 72.5 45 73.328125 L 45 91.328125 C 45 92.15625 44.328125 92.828125 43.5 92.828125 C 42.671875 92.828125 42 92.15625 42 91.328125 Z M 46 75.5 C 46 74.671875 46.671875 74 47.5 74 C 48.328125 74 49 74.671875 49 75.5 L 49 93.5 C 49 94.328125 48.328125 95 47.5 95 C 46.671875 95 46 94.328125 46 93.5 Z M 50 75.5 C 50 74.671875 50.671875 74 51.5 74 C 52.328125 74 53 74.671875 53 75.5 L 53 93.5 C 53 94.328125 52.328125 95 51.5 95 C 50.671875 95 50 94.328125 50 93.5 Z M 54 65.363281 C 54 64.535156 54.671875 63.863281 55.5 63.863281 C 56.328125 63.863281 57 64.535156 57 65.363281 L 57 83.363281 C 57 84.191406 56.328125 84.863281 55.5 84.863281 C 54.671875 84.863281 54 84.191406 54 83.363281 Z M 58 63.191406 C 58 62.359375 58.671875 61.691406 59.5 61.691406 C 60.328125 61.691406 61 62.359375 61 63.191406 L 61 81.191406 C 61 82.019531 60.328125 82.691406 59.5 82.691406 C 58.671875 82.691406 58 82.019531 58 81.191406 Z M 62 63.191406 C 62 62.359375 62.671875 61.691406 63.5 61.691406 C 64.328125 61.691406 65 62.359375 65 63.191406 L 65 81.191406 C 65 82.019531 64.328125 82.691406 63.5 82.691406 C 62.671875 82.691406 62 82.019531 62 81.191406 Z M 66 54.5 C 66 53.671875 66.671875 53 67.5 53 C 68.328125 53 69 53.671875 69 54.5 L 69 72.5 C 69 73.328125 68.328125 74 67.5 74 C 66.671875 74 66 73.328125 66 72.5 Z M 70 61.742188 C 70 60.914062 70.671875 60.242188 71.5 60.242188 C 72.328125 60.242188 73 60.914062 73 61.742188 L 73 79.742188 C 73 80.570312 72.328125 81.242188 71.5 81.242188 C 70.671875 81.242188 70 80.570312 70 79.742188 Z M 74 64.636719 C 74 63.808594 74.671875 63.136719 75.5 63.136719 C 76.328125 63.136719 77 63.808594 77 64.636719 L 77 82.636719 C 77 83.464844 76.328125 84.136719 75.5 84.136719 C 74.671875 84.136719 74 83.464844 74 82.636719 Z M 78 67.535156 C 78 66.707031 78.671875 66.035156 79.5 66.035156 C 80.328125 66.035156 81 66.707031 81 67.535156 L 81 85.535156 C 81 86.363281 80.328125 87.035156 79.5 87.035156 C 78.671875 87.035156 78 86.363281 78 85.535156 Z M 82 72.601562 C 82 71.773438 82.671875 71.101562 83.5 71.101562 C 84.328125 71.101562 85 71.773438 85 72.601562 L 85 90.601562 C 85 91.433594 84.328125 92.101562 83.5 92.101562 C 82.671875 92.101562 82 91.433594 82 90.601562 Z M 86 71.15625 C 86 70.328125 86.671875 69.65625 87.5 69.65625 C 88.328125 69.65625 89 70.328125 89 71.15625 L 89 89.15625 C 89 89.984375 88.328125 90.65625 87.5 90.65625 C 86.671875 90.65625 86 89.984375 86 89.15625 Z M 90 71.878906 C 90 71.050781 90.671875 70.378906 91.5 70.378906 C 92.328125 70.378906 93 71.050781 93 71.878906 L 93 89.878906 C 93 90.707031 92.328125 91.378906 91.5 91.378906 C 90.671875 91.378906 90 90.707031 90 89.878906 Z M 94 73.328125 C 94 72.5 94.671875 71.828125 95.5 71.828125 C 96.328125 71.828125 97 72.5 97 73.328125 L 97 91.328125 C 97 92.15625 96.328125 92.828125 95.5 92.828125 C 94.671875 92.828125 94 92.15625 94 91.328125 Z M 98 71.878906 C 98 71.050781 98.671875 70.378906 99.5 70.378906 C 100.328125 70.378906 101 71.050781 101 71.878906 L 101 89.878906 C 101 90.707031 100.328125 91.378906 99.5 91.378906 C 98.671875 91.378906 98 90.707031 98 89.878906 Z M 102 75.5 C 102 74.671875 102.671875 74 103.5 74 C 104.328125 74 105 74.671875 105 75.5 L 105 93.5 C 105 94.328125 104.328125 95 103.5 95 C 102.671875 95 102 94.328125 102 93.5 Z M 106 75.5 C 106 74.671875 106.671875 74 107.5 74 C 108.328125 74 109 74.671875 109 75.5 L 109 93.5 C 109 94.328125 108.328125 95 107.5 95 C 106.671875 95 106 94.328125 106 93.5 Z M 110 74.777344 C 110 73.949219 110.671875 73.277344 111.5 73.277344 C 112.328125 73.277344 113 73.949219 113 74.777344 L 113 92.777344 C 113 93.605469 112.328125 94.277344 111.5 94.277344 C 110.671875 94.277344 110 93.605469 110 92.777344 Z M 114 70.429688 C 114 69.601562 114.671875 68.929688 115.5 68.929688 C 116.328125 68.929688 117 69.601562 117 70.429688 L 117 88.429688 C 117 89.257812 116.328125 89.929688 115.5 89.929688 C 114.671875 89.929688 114 89.257812 114 88.429688 Z M 118 63.191406 C 118 62.359375 118.671875 61.691406 119.5 61.691406 C 120.328125 61.691406 121 62.359375 121 63.191406 L 121 81.191406 C 121 82.019531 120.328125 82.691406 119.5 82.691406 C 118.671875 82.691406 118 82.019531 118 81.191406 Z M 122 59.570312 C 122 58.742188 122.671875 58.070312 123.5 58.070312 C 124.328125 58.070312 125 58.742188 125 59.570312 L 125 77.570312 C 125 78.398438 124.328125 79.070312 123.5 79.070312 C 122.671875 79.070312 122 78.398438 122 77.570312 Z M 126 75.5 C 126 74.671875 126.671875 74 127.5 74 C 128.328125 74 129 74.671875 129 75.5 L 129 93.5 C 129 94.328125 128.328125 95 127.5 95 C 126.671875 95 126 94.328125 126 93.5 Z M 130 75.5 C 130 74.671875 130.671875 74 131.5 74 C 132.328125 74 133 74.671875 133 75.5 L 133 93.5 C 133 94.328125 132.328125 95 131.5 95 C 130.671875 95 130 94.328125 130 93.5 Z M 134 74.777344 C 134 73.949219 134.671875 73.277344 135.5 73.277344 C 136.328125 73.277344 137 73.949219 137 74.777344 L 137 92.777344 C 137 93.605469 136.328125 94.277344 135.5 94.277344 C 134.671875 94.277344 134 93.605469 134 92.777344 Z M 138 73.328125 C 138 72.5 138.671875 71.828125 139.5 71.828125 C 140.328125 71.828125 141 72.5 141 73.328125 L 141 91.328125 C 141 92.15625 140.328125 92.828125 139.5 92.828125 C 138.671875 92.828125 138 92.15625 138 91.328125 Z M 142 75.5 C 142 74.671875 142.671875 74 143.5 74 C 144.328125 74 145 74.671875 145 75.5 L 145 93.5 C 145 94.328125 144.328125 95 143.5 95 C 142.671875 95 142 94.328125 142 93.5 Z M 146 75.5 C 146 74.671875 146.671875 74 147.5 74 C 148.328125 74 149 74.671875 149 75.5 L 149 93.5 C 149 94.328125 148.328125 95 147.5 95 C 146.671875 95 146 94.328125 146 93.5 Z M 150 65.363281 C 150 64.535156 150.671875 63.863281 151.5 63.863281 C 152.328125 63.863281 153 64.535156 153 65.363281 L 153 83.363281 C 153 84.191406 152.328125 84.863281 151.5 84.863281 C 150.671875 84.863281 150 84.191406 150 83.363281 Z M 154 63.191406 C 154 62.359375 154.671875 61.691406 155.5 61.691406 C 156.328125 61.691406 157 62.359375 157 63.191406 L 157 81.191406 C 157 82.019531 156.328125 82.691406 155.5 82.691406 C 154.671875 82.691406 154 82.019531 154 81.191406 Z M 158 63.191406 C 158 62.359375 158.671875 61.691406 159.5 61.691406 C 160.328125 61.691406 161 62.359375 161 63.191406 L 161 81.191406 C 161 82.019531 160.328125 82.691406 159.5 82.691406 C 158.671875 82.691406 158 82.019531 158 81.191406 Z M 162 54.5 C 162 53.671875 162.671875 53 163.5 53 C 164.328125 53 165 53.671875 165 54.5 L 165 72.5 C 165 73.328125 164.328125 74 163.5 74 C 162.671875 74 162 73.328125 162 72.5 Z M 166 61.742188 C 166 60.914062 166.671875 60.242188 167.5 60.242188 C 168.328125 60.242188 169 60.914062 169 61.742188 L 169 79.742188 C 169 80.570312 168.328125 81.242188 167.5 81.242188 C 166.671875 81.242188 166 80.570312 166 79.742188 Z M 170 64.636719 C 170 63.808594 170.671875 63.136719 171.5 63.136719 C 172.328125 63.136719 173 63.808594 173 64.636719 L 173 82.636719 C 173 83.464844 172.328125 84.136719 171.5 84.136719 C 170.671875 84.136719 170 83.464844 170 82.636719 Z M 174 67.535156 C 174 66.707031 174.671875 66.035156 175.5 66.035156 C 176.328125 66.035156 177 66.707031 177 67.535156 L 177 85.535156 C 177 86.363281 176.328125 87.035156 175.5 87.035156 C 174.671875 87.035156 174 86.363281 174 85.535156 Z M 178 72.601562 C 178 71.773438 178.671875 71.101562 179.5 71.101562 C 180.328125 71.101562 181 71.773438 181 72.601562 L 181 90.601562 C 181 91.433594 180.328125 92.101562 179.5 92.101562 C 178.671875 92.101562 178 91.433594 178 90.601562 Z M 182 71.15625 C 182 70.328125 182.671875 69.65625 183.5 69.65625 C 184.328125 69.65625 185 70.328125 185 71.15625 L 185 89.15625 C 185 89.984375 184.328125 90.65625 183.5 90.65625 C 182.671875 90.65625 182 89.984375 182 89.15625 Z M 186 71.878906 C 186 71.050781 186.671875 70.378906 187.5 70.378906 C 188.328125 70.378906 189 71.050781 189 71.878906 L 189 89.878906 C 189 90.707031 188.328125 91.378906 187.5 91.378906 C 186.671875 91.378906 186 90.707031 186 89.878906 Z M 190 73.328125 C 190 72.5 190.671875 71.828125 191.5 71.828125 C 192.328125 71.828125 193 72.5 193 73.328125 L 193 91.328125 C 193 92.15625 192.328125 92.828125 191.5 92.828125 C 190.671875 92.828125 190 92.15625 190 91.328125 Z M 194 71.878906 C 194 71.050781 194.671875 70.378906 195.5 70.378906 C 196.328125 70.378906 197 71.050781 197 71.878906 L 197 89.878906 C 197 90.707031 196.328125 91.378906 195.5 91.378906 C 194.671875 91.378906 194 90.707031 194 89.878906 Z M 198 75.5 C 198 74.671875 198.671875 74 199.5 74 C 200.328125 74 201 74.671875 201 75.5 L 201 93.5 C 201 94.328125 200.328125 95 199.5 95 C 198.671875 95 198 94.328125 198 93.5 Z M 202 75.5 C 202 74.671875 202.671875 74 203.5 74 C 204.328125 74 205 74.671875 205 75.5 L 205 93.5 C 205 94.328125 204.328125 95 203.5 95 C 202.671875 95 202 94.328125 202 93.5 Z M 206 74.777344 C 206 73.949219 206.671875 73.277344 207.5 73.277344 C 208.328125 73.277344 209 73.949219 209 74.777344 L 209 92.777344 C 209 93.605469 208.328125 94.277344 207.5 94.277344 C 206.671875 94.277344 206 93.605469 206 92.777344 Z M 210 70.429688 C 210 69.601562 210.671875 68.929688 211.5 68.929688 C 212.328125 68.929688 213 69.601562 213 70.429688 L 213 88.429688 C 213 89.257812 212.328125 89.929688 211.5 89.929688 C 210.671875 89.929688 210 89.257812 210 88.429688 Z M 214 63.191406 C 214 62.359375 214.671875 61.691406 215.5 61.691406 C 216.328125 61.691406 217 62.359375 217 63.191406 L 217 81.191406 C 217 82.019531 216.328125 82.691406 215.5 82.691406 C 214.671875 82.691406 214 82.019531 214 81.191406 Z M 218 59.570312 C 218 58.742188 218.671875 58.070312 219.5 58.070312 C 220.328125 58.070312 221 58.742188 221 59.570312 L 221 77.570312 C 221 78.398438 220.328125 79.070312 219.5 79.070312 C 218.671875 79.070312 218 78.398438 218 77.570312 Z M 222 75.5 C 222 74.671875 222.671875 74 223.5 74 C 224.328125 74 225 74.671875 225 75.5 L 225 93.5 C 225 94.328125 224.328125 95 223.5 95 C 222.671875 95 222 94.328125 222 93.5 Z M 226 75.5 C 226 74.671875 226.671875 74 227.5 74 C 228.328125 74 229 74.671875 229 75.5 L 229 93.5 C 229 94.328125 228.328125 95 227.5 95 C 226.671875 95 226 94.328125 226 93.5 Z M 230 74.777344 C 230 73.949219 230.671875 73.277344 231.5 73.277344 C 232.328125 73.277344 233 73.949219 233 74.777344 L 233 92.777344 C 233 93.605469 232.328125 94.277344 231.5 94.277344 C 230.671875 94.277344 230 93.605469 230 92.777344 Z M 234 73.328125 C 234 72.5 234.671875 71.828125 235.5 71.828125 C 236.328125 71.828125 237 72.5 237 73.328125 L 237 91.328125 C 237 92.15625 236.328125 92.828125 235.5 92.828125 C 234.671875 92.828125 234 92.15625 234 91.328125 Z M 238 75.5 C 238 74.671875 238.671875 74 239.5 74 C 240.328125 74 241 74.671875 241 75.5 L 241 93.5 C 241 94.328125 240.328125 95 239.5 95 C 238.671875 95 238 94.328125 238 93.5 Z M 242 75.5 C 242 74.671875 242.671875 74 243.5 74 C 244.328125 74 245 74.671875 245 75.5 L 245 93.5 C 245 94.328125 244.328125 95 243.5 95 C 242.671875 95 242 94.328125 242 93.5 Z M 246 65.363281 C 246 64.535156 246.671875 63.863281 247.5 63.863281 C 248.328125 63.863281 249 64.535156 249 65.363281 L 249 83.363281 C 249 84.191406 248.328125 84.863281 247.5 84.863281 C 246.671875 84.863281 246 84.191406 246 83.363281 Z M 250 63.191406 C 250 62.359375 250.671875 61.691406 251.5 61.691406 C 252.328125 61.691406 253 62.359375 253 63.191406 L 253 81.191406 C 253 82.019531 252.328125 82.691406 251.5 82.691406 C 250.671875 82.691406 250 82.019531 250 81.191406 Z M 254 63.191406 C 254 62.359375 254.671875 61.691406 255.5 61.691406 C 256.328125 61.691406 257 62.359375 257 63.191406 L 257 81.191406 C 257 82.019531 256.328125 82.691406 255.5 82.691406 C 254.671875 82.691406 254 82.019531 254 81.191406 Z M 258 54.5 C 258 53.671875 258.671875 53 259.5 53 C 260.328125 53 261 53.671875 261 54.5 L 261 72.5 C 261 73.328125 260.328125 74 259.5 74 C 258.671875 74 258 73.328125 258 72.5 Z M 262 61.742188 C 262 60.914062 262.671875 60.242188 263.5 60.242188 C 264.328125 60.242188 265 60.914062 265 61.742188 L 265 79.742188 C 265 80.570312 264.328125 81.242188 263.5 81.242188 C 262.671875 81.242188 262 80.570312 262 79.742188 Z M 266 64.636719 C 266 63.808594 266.671875 63.136719 267.5 63.136719 C 268.328125 63.136719 269 63.808594 269 64.636719 L 269 82.636719 C 269 83.464844 268.328125 84.136719 267.5 84.136719 C 266.671875 84.136719 266 83.464844 266 82.636719 Z M 270 67.535156 C 270 66.707031 270.671875 66.035156 271.5 66.035156 C 272.328125 66.035156 273 66.707031 273 67.535156 L 273 85.535156 C 273 86.363281 272.328125 87.035156 271.5 87.035156 C 270.671875 87.035156 270 86.363281 270 85.535156 Z M 274 72.601562 C 274 71.773438 274.671875 71.101562 275.5 71.101562 C 276.328125 71.101562 277 71.773438 277 72.601562 L 277 90.601562 C 277 91.433594 276.328125 92.101562 275.5 92.101562 C 274.671875 92.101562 274 91.433594 274 90.601562 Z M 278 71.15625 C 278 70.328125 278.671875 69.65625 279.5 69.65625 C 280.328125 69.65625 281 70.328125 281 71.15625 L 281 89.15625 C 281 89.984375 280.328125 90.65625 279.5 90.65625 C 278.671875 90.65625 278 89.984375 278 89.15625 Z M 282 71.878906 C 282 71.050781 282.671875 70.378906 283.5 70.378906 C 284.328125 70.378906 285 71.050781 285 71.878906 L 285 89.878906 C 285 90.707031 284.328125 91.378906 283.5 91.378906 C 282.671875 91.378906 282 90.707031 282 89.878906 Z M 286 73.328125 C 286 72.5 286.671875 71.828125 287.5 71.828125 C 288.328125 71.828125 289 72.5 289 73.328125 L 289 91.328125 C 289 92.15625 288.328125 92.828125 287.5 92.828125 C 286.671875 92.828125 286 92.15625 286 91.328125 Z M 290 71.878906 C 290 71.050781 290.671875 70.378906 291.5 70.378906 C 292.328125 70.378906 293 71.050781 293 71.878906 L 293 89.878906 C 293 90.707031 292.328125 91.378906 291.5 91.378906 C 290.671875 91.378906 290 90.707031 290 89.878906 Z M 294 75.5 C 294 74.671875 294.671875 74 295.5 74 C 296.328125 74 297 74.671875 297 75.5 L 297 93.5 C 297 94.328125 296.328125 95 295.5 95 C 294.671875 95 294 94.328125 294 93.5 Z M 298 75.5 C 298 74.671875 298.671875 74 299.5 74 C 300.328125 74 301 74.671875 301 75.5 L 301 93.5 C 301 94.328125 300.328125 95 299.5 95 C 298.671875 95 298 94.328125 298 93.5 Z M 302 74.777344 C 302 73.949219 302.671875 73.277344 303.5 73.277344 C 304.328125 73.277344 305 73.949219 305 74.777344 L 305 92.777344 C 305 93.605469 304.328125 94.277344 303.5 94.277344 C 302.671875 94.277344 302 93.605469 302 92.777344 Z M 306 70.429688 C 306 69.601562 306.671875 68.929688 307.5 68.929688 C 308.328125 68.929688 309 69.601562 309 70.429688 L 309 88.429688 C 309 89.257812 308.328125 89.929688 307.5 89.929688 C 306.671875 89.929688 306 89.257812 306 88.429688 Z M 310 63.191406 C 310 62.359375 310.671875 61.691406 311.5 61.691406 C 312.328125 61.691406 313 62.359375 313 63.191406 L 313 81.191406 C 313 82.019531 312.328125 82.691406 311.5 82.691406 C 310.671875 82.691406 310 82.019531 310 81.191406 Z M 314 59.570312 C 314 58.742188 314.671875 58.070312 315.5 58.070312 C 316.328125 58.070312 317 58.742188 317 59.570312 L 317 77.570312 C 317 78.398438 316.328125 79.070312 315.5 79.070312 C 314.671875 79.070312 314 78.398438 314 77.570312 Z M 318 75.5 C 318 74.671875 318.671875 74 319.5 74 C 320.328125 74 321 74.671875 321 75.5 L 321 93.5 C 321 94.328125 320.328125 95 319.5 95 C 318.671875 95 318 94.328125 318 93.5 Z M 322 75.5 C 322 74.671875 322.671875 74 323.5 74 C 324.328125 74 325 74.671875 325 75.5 L 325 93.5 C 325 94.328125 324.328125 95 323.5 95 C 322.671875 95 322 94.328125 322 93.5 Z M 326 74.777344 C 326 73.949219 326.671875 73.277344 327.5 73.277344 C 328.328125 73.277344 329 73.949219 329 74.777344 L 329 92.777344 C 329 93.605469 328.328125 94.277344 327.5 94.277344 C 326.671875 94.277344 326 93.605469 326 92.777344 Z M 330 73.328125 C 330 72.5 330.671875 71.828125 331.5 71.828125 C 332.328125 71.828125 333 72.5 333 73.328125 L 333 91.328125 C 333 92.15625 332.328125 92.828125 331.5 92.828125 C 330.671875 92.828125 330 92.15625 330 91.328125 Z M 334 75.5 C 334 74.671875 334.671875 74 335.5 74 C 336.328125 74 337 74.671875 337 75.5 L 337 93.5 C 337 94.328125 336.328125 95 335.5 95 C 334.671875 95 334 94.328125 334 93.5 Z M 338 75.5 C 338 74.671875 338.671875 74 339.5 74 C 340.328125 74 341 74.671875 341 75.5 L 341 93.5 C 341 94.328125 340.328125 95 339.5 95 C 338.671875 95 338 94.328125 338 93.5 Z M 342 65.363281 C 342 64.535156 342.671875 63.863281 343.5 63.863281 C 344.328125 63.863281 345 64.535156 345 65.363281 L 345 83.363281 C 345 84.191406 344.328125 84.863281 343.5 84.863281 C 342.671875 84.863281 342 84.191406 342 83.363281 Z M 346 63.191406 C 346 62.359375 346.671875 61.691406 347.5 61.691406 C 348.328125 61.691406 349 62.359375 349 63.191406 L 349 81.191406 C 349 82.019531 348.328125 82.691406 347.5 82.691406 C 346.671875 82.691406 346 82.019531 346 81.191406 Z M 350 63.191406 C 350 62.359375 350.671875 61.691406 351.5 61.691406 C 352.328125 61.691406 353 62.359375 353 63.191406 L 353 81.191406 C 353 82.019531 352.328125 82.691406 351.5 82.691406 C 350.671875 82.691406 350 82.019531 350 81.191406 Z M 354 54.5 C 354 53.671875 354.671875 53 355.5 53 C 356.328125 53 357 53.671875 357 54.5 L 357 72.5 C 357 73.328125 356.328125 74 355.5 74 C 354.671875 74 354 73.328125 354 72.5 Z M 358 61.742188 C 358 60.914062 358.671875 60.242188 359.5 60.242188 C 360.328125 60.242188 361 60.914062 361 61.742188 L 361 79.742188 C 361 80.570312 360.328125 81.242188 359.5 81.242188 C 358.671875 81.242188 358 80.570312 358 79.742188 Z M 362 64.636719 C 362 63.808594 362.671875 63.136719 363.5 63.136719 C 364.328125 63.136719 365 63.808594 365 64.636719 L 365 82.636719 C 365 83.464844 364.328125 84.136719 363.5 84.136719 C 362.671875 84.136719 362 83.464844 362 82.636719 Z M 366 67.535156 C 366 66.707031 366.671875 66.035156 367.5 66.035156 C 368.328125 66.035156 369 66.707031 369 67.535156 L 369 85.535156 C 369 86.363281 368.328125 87.035156 367.5 87.035156 C 366.671875 87.035156 366 86.363281 366 85.535156 Z M 370 72.601562 C 370 71.773438 370.671875 71.101562 371.5 71.101562 C 372.328125 71.101562 373 71.773438 373 72.601562 L 373 90.601562 C 373 91.433594 372.328125 92.101562 371.5 92.101562 C 370.671875 92.101562 370 91.433594 370 90.601562 Z M 374 71.15625 C 374 70.328125 374.671875 69.65625 375.5 69.65625 C 376.328125 69.65625 377 70.328125 377 71.15625 L 377 89.15625 C 377 89.984375 376.328125 90.65625 375.5 90.65625 C 374.671875 90.65625 374 89.984375 374 89.15625 Z M 378 71.878906 C 378 71.050781 378.671875 70.378906 379.5 70.378906 C 380.328125 70.378906 381 71.050781 381 71.878906 L 381 89.878906 C 381 90.707031 380.328125 91.378906 379.5 91.378906 C 378.671875 91.378906 378 90.707031 378 89.878906 Z M 382 73.328125 C 382 72.5 382.671875 71.828125 383.5 71.828125 C 384.328125 71.828125 385 72.5 385 73.328125 L 385 91.328125 C 385 92.15625 384.328125 92.828125 383.5 92.828125 C 382.671875 92.828125 382 92.15625 382 91.328125 Z M 386 71.878906 C 386 71.050781 386.671875 70.378906 387.5 70.378906 C 388.328125 70.378906 389 71.050781 389 71.878906 L 389 89.878906 C 389 90.707031 388.328125 91.378906 387.5 91.378906 C 386.671875 91.378906 386 90.707031 386 89.878906 Z M 390 75.5 C 390 74.671875 390.671875 74 391.5 74 C 392.328125 74 393 74.671875 393 75.5 L 393 93.5 C 393 94.328125 392.328125 95 391.5 95 C 390.671875 95 390 94.328125 390 93.5 Z M 394 75.5 C 394 74.671875 394.671875 74 395.5 74 C 396.328125 74 397 74.671875 397 75.5 L 397 93.5 C 397 94.328125 396.328125 95 395.5 95 C 394.671875 95 394 94.328125 394 93.5 Z M 398 74.777344 C 398 73.949219 398.671875 73.277344 399.5 73.277344 C 400.328125 73.277344 401 73.949219 401 74.777344 L 401 92.777344 C 401 93.605469 400.328125 94.277344 399.5 94.277344 C 398.671875 94.277344 398 93.605469 398 92.777344 Z M 398 74.777344 "/>
</g>
<g clip-path="url(#clip7)" clip-rule="nonzero">
<rect x="0" y="0" width="110" height="110" style="fill:rgb(38.039216%,50.588235%,100%);fill-opacity:0.490196;stroke:none;"/>
</g>
<g clip-path="url(#clip8)" clip-rule="nonzero">
<path style=" stroke:none;fill-rule:nonzero;fill:rgb(66.666667%,0%,100%);fill-opacity:0.490196;" d="M 10 98.378906 C 10 97.273438 10.894531 96.378906 12 96.378906 L 18 96.378906 C 19.105469 96.378906 20 97.273438 20 98.378906 L 20 115.378906 C 20 116.484375 19.105469 117.378906 18 117.378906 L 12 117.378906 C 10.894531 117.378906 10 116.484375 10 115.378906 Z M 20 102 C 20 100.894531 20.894531 100 22 100 L 28 100 C 29.105469 100 30 100.894531 30 102 L 30 119 C 30 120.105469 29.105469 121 28 121 L 22 121 C 20.894531 121 20 120.105469 20 119 Z M 31 102 C 31 100.894531 31.894531 100 33 100 L 39 100 C 40.105469 100 41 100.894531 41 102 L 41 119 C 41 120.105469 40.105469 121 39 121 L 33 121 C 31.894531 121 31 120.105469 31 119 Z M 42 101.277344 C 42 100.171875 42.894531 99.277344 44 99.277344 L 50 99.277344 C 51.105469 99.277344 52 100.171875 52 101.277344 L 52 118.277344 C 52 119.378906 51.105469 120.277344 50 120.277344 L 44 120.277344 C 42.894531 120.277344 42 119.378906 42 118.277344 Z M 53 96.929688 C 53 95.828125 53.894531 94.929688 55 94.929688 L 61 94.929688 C 62.105469 94.929688 63 95.828125 63 96.929688 L 63 113.929688 C 63 115.035156 62.105469 115.929688 61 115.929688 L 55 115.929688 C 53.894531 115.929688 53 115.035156 53 113.929688 Z M 64 89.691406 C 64 88.585938 64.894531 87.691406 66 87.691406 L 72 87.691406 C 73.105469 87.691406 74 88.585938 74 89.691406 L 74 106.691406 C 74 107.792969 73.105469 108.691406 72 108.691406 L 66 108.691406 C 64.894531 108.691406 64 107.792969 64 106.691406 Z M 75 86.070312 C 75 84.964844 75.894531 84.070312 77 84.070312 L 83 84.070312 C 84.105469 84.070312 85 84.964844 85 86.070312 L 85 103.070312 C 85 104.171875 84.105469 105.070312 83 105.070312 L 77 105.070312 C 75.894531 105.070312 75 104.171875 75 103.070312 Z M 86 102 C 86 100.894531 86.894531 100 88 100 L 94 100 C 95.105469 100 96 100.894531 96 102 L 96 119 C 96 120.105469 95.105469 121 94 121 L 88 121 C 86.894531 121 86 120.105469 86 119 Z M 97 102 C 97 100.894531 97.894531 100 99 100 L 105 100 C 106.105469 100 107 100.894531 107 102 L 107 119 C 107 120.105469 106.105469 121 105 121 L 99 121 C 97.894531 121 97 120.105469 97 119 Z M 108 101.277344 C 108 100.171875 108.894531 99.277344 110 99.277344 L 116 99.277344 C 117.105469 99.277344 118 100.171875 118 101.277344 L 118 118.277344 C 118 119.378906 117.105469 120.277344 116 120.277344 L 110 120.277344 C 108.894531 120.277344 108 119.378906 108 118.277344 Z M 119 99.828125 C 119 98.722656 119.894531 97.828125 121 97.828125 L 127 97.828125 C 128.105469 97.828125 129 98.722656 129 99.828125 L 129 116.828125 C 129 117.933594 128.105469 118.828125 127 118.828125 L 121 118.828125 C 119.894531 118.828125 119 117.933594 119 116.828125 Z M 130 102 C 130 100.894531 130.894531 100 132 100 L 138 100 C 139.105469 100 140 100.894531 140 102 L 140 119 C 140 120.105469 139.105469 121 138 121 L 132 121 C 130.894531 121 130 120.105469 130 119 Z M 141 102 C 141 100.894531 141.894531 100 143 100 L 149 100 C 150.105469 100 151 100.894531 151 102 L 151 119 C 151 120.105469 150.105469 121 149 121 L 143 121 C 141.894531 121 141 120.105469 141 119 Z M 152 91.863281 C 152 90.757812 152.894531 89.863281 154 89.863281 L 160 89.863281 C 161.105469 89.863281 162 90.757812 162 91.863281 L 162 108.863281 C 162 109.964844 161.105469 110.863281 160 110.863281 L 154 110.863281 C 152.894531 110.863281 152 109.964844 152 108.863281 Z M 163 89.691406 C 163 88.585938 163.894531 87.691406 165 87.691406 L 171 87.691406 C 172.105469 87.691406 173 88.585938 173 89.691406 L 173 106.691406 C 173 107.792969 172.105469 108.691406 171 108.691406 L 165 108.691406 C 163.894531 108.691406 163 107.792969 163 106.691406 Z M 174 89.691406 C 174 88.585938 174.894531 87.691406 176 87.691406 L 182 87.691406 C 183.105469 87.691406 184 88.585938 184 89.691406 L 184 106.691406 C 184 107.792969 183.105469 108.691406 182 108.691406 L 176 108.691406 C 174.894531 108.691406 174 107.792969 174 106.691406 Z M 185 81 C 185 79.894531 185.894531 79 187 79 L 193 79 C 194.105469 79 195 79.894531 195 81 L 195 98 C 195 99.105469 194.105469 100 193 100 L 187 100 C 185.894531 100 185 99.105469 185 98 Z M 196 88.242188 C 196 87.136719 196.894531 86.242188 198 86.242188 L 204 86.242188 C 205.105469 86.242188 206 87.136719 206 88.242188 L 206 105.242188 C 206 106.347656 205.105469 107.242188 204 107.242188 L 198 107.242188 C 196.894531 107.242188 196 106.347656 196 105.242188 Z M 207 91.136719 C 207 90.035156 207.894531 89.136719 209 89.136719 L 215 89.136719 C 216.105469 89.136719 217 90.035156 217 91.136719 L 217 108.136719 C 217 109.242188 216.105469 110.136719 215 110.136719 L 209 110.136719 C 207.894531 110.136719 207 109.242188 207 108.136719 Z M 218 94.035156 C 218 92.929688 218.894531 92.035156 220 92.035156 L 226 92.035156 C 227.105469 92.035156 228 92.929688 228 94.035156 L 228 111.035156 C 228 112.140625 227.105469 113.035156 226 113.035156 L 220 113.035156 C 218.894531 113.035156 218 112.140625 218 111.035156 Z M 229 99.101562 C 229 98 229.894531 97.101562 231 97.101562 L 237 97.101562 C 238.105469 97.101562 239 98 239 99.101562 L 239 116.101562 C 239 117.207031 238.105469 118.101562 237 118.101562 L 231 118.101562 C 229.894531 118.101562 229 117.207031 229 116.101562 Z M 240 97.65625 C 240 96.550781 240.894531 95.65625 242 95.65625 L 248 95.65625 C 249.105469 95.65625 250 96.550781 250 97.65625 L 250 114.65625 C 250 115.757812 249.105469 116.65625 248 116.65625 L 242 116.65625 C 240.894531 116.65625 240 115.757812 240 114.65625 Z M 251 98.378906 C 251 97.273438 251.894531 96.378906 253 96.378906 L 259 96.378906 C 260.105469 96.378906 261 97.273438 261 98.378906 L 261 115.378906 C 261 116.484375 260.105469 117.378906 259 117.378906 L 253 117.378906 C 251.894531 117.378906 251 116.484375 251 115.378906 Z M 262 99.828125 C 262 98.722656 262.894531 97.828125 264 97.828125 L 270 97.828125 C 271.105469 97.828125 272 98.722656 272 99.828125 L 272 116.828125 C 272 117.933594 271.105469 118.828125 270 118.828125 L 264 118.828125 C 262.894531 118.828125 262 117.933594 262 116.828125 Z M 273 98.378906 C 273 97.273438 273.894531 96.378906 275 96.378906 L 281 96.378906 C 282.105469 96.378906 283 97.273438 283 98.378906 L 283 115.378906 C 283 116.484375 282.105469 117.378906 281 117.378906 L 275 117.378906 C 273.894531 117.378906 273 116.484375 273 115.378906 Z M 284 102 C 284 100.894531 284.894531 100 286 100 L 292 100 C 293.105469 100 294 100.894531 294 102 L 294 119 C 294 120.105469 293.105469 121 292 121 L 286 121 C 284.894531 121 284 120.105469 284 119 Z M 295 102 C 295 100.894531 295.894531 100 297 100 L 303 100 C 304.105469 100 305 100.894531 305 102 L 305 119 C 305 120.105469 304.105469 121 303 121 L 297 121 C 295.894531 121 295 120.105469 295 119 Z M 306 101.277344 C 306 100.171875 306.894531 99.277344 308 99.277344 L 314 99.277344 C 315.105469 99.277344 316 100.171875 316 101.277344 L 316 118.277344 C 316 119.378906 315.105469 120.277344 314 120.277344 L 308 120.277344 C 306.894531 120.277344 306 119.378906 306 118.277344 Z M 317 96.929688 C 317 95.828125 317.894531 94.929688 319 94.929688 L 325 94.929688 C 326.105469 94.929688 327 95.828125 327 96.929688 L 327 113.929688 C 327 115.035156 326.105469 115.929688 325 115.929688 L 319 115.929688 C 317.894531 115.929688 317 115.035156 317 113.929688 Z M 328 89.691406 C 328 88.585938 328.894531 87.691406 330 87.691406 L 336 87.691406 C 337.105469 87.691406 338 88.585938 338 89.691406 L 338 106.691406 C 338 107.792969 337.105469 108.691406 336 108.691406 L 330 108.691406 C 328.894531 108.691406 328 107.792969 328 106.691406 Z M 339 86.070312 C 339 84.964844 339.894531 84.070312 341 84.070312 L 347 84.070312 C 348.105469 84.070312 349 84.964844 349 86.070312 L 349 103.070312 C 349 104.171875 348.105469 105.070312 347 105.070312 L 341 105.070312 C 339.894531 105.070312 339 104.171875 339 103.070312 Z M 350 102 C 350 100.894531 350.894531 100 352 100 L 358 100 C 359.105469 100 360 100.894531 360 102 L 360 119 C 360 120.105469 359.105469 121 358 121 L 352 121 C 350.894531 121 350 120.105469 350 119 Z M 361 102 C 361 100.894531 361.894531 100 363 100 L 369 100 C 370.105469 100 371 100.894531 371 102 L 371 119 C 371 120.105469 370.105469 121 369 121 L 363 121 C 361.894531 121 361 120.105469 361 119 Z M 372 101.277344 C 372 100.171875 372.894531 99.277344 374 99.277344 L 380 99.277344 C 381.105469 99.277344 382 100.171875 382 101.277344 L 382 118.277344 C 382 119.378906 381.105469 120.277344 380 120.277344 L 374 120.277344 C 372.894531 120.277344 372 119.378906 372 118.277344 Z M 383 99.828125 C 383 98.722656 383.894531 97.828125 385 97.828125 L 391 97.828125 C 392.105469 97.828125 393 98.722656 393 99.828125 L 393 116.828125 C 393 117.933594 392.105469 118.828125 391 118.828125 L 385 118.828125 C 383.894531 118.828125 383 117.933594 383 116.828125 Z M 394 102 C 394 100.894531 394.894531 100 396 100 L 402 100 C 403.105469 100 404 100.894531 404 102 L 404 119 C 404 120.105469 403.105469 121 402 121 L 396 121 C 394.894531 121 394 120.105469 394 119 Z M 405 102 C 405 100.894531 405.894531 100 407 100 L 413 100 C 414.105469 100 415 100.894531 415 102 L 415 119 C 415 120.105469 414.105469 121 413 121 L 407 121 C 405.894531 121 405 120.105469 405 119 Z M 416 91.863281 C 416 90.757812 416.894531 89.863281 418 89.863281 L 424 89.863281 C 425.105469 89.863281 426 90.757812 426 91.863281 L 426 108.863281 C 426 109.964844 425.105469 110.863281 424 110.863281 L 418 110.863281 C 416.894531 110.863281 416 109.964844 416 108.863281 Z M 427 89.691406 C 427 88.585938 427.894531 87.691406 429 87.691406 L 435 87.691406 C 436.105469 87.691406 437 88.585938 437 89.691406 L 437 106.691406 C 437 107.792969 436.105469 108.691406 435 108.691406 L 429 108.691406 C 427.894531 108.691406 427 107.792969 427 106.691406 Z M 438 89.691406 C 438 88.585938 438.894531 87.691406 440 87.691406 L 446 87.691406 C 447.105469 87.691406 448 88.585938 448 89.691406 L 448 106.691406 C 448 107.792969 447.105469 108.691406 446 108.691406 L 440 108.691406 C 438.894531 108.691406 438 107.792969 438 106.691406 Z M 449 81 C 449 79.894531 449.894531 79 451 79 L 457 79 C 458.105469 79 459 79.894531 459 81 L 459 98 C 459 99.105469 458.105469 100 457 100 L 451 100 C 449.894531 100 449 99.105469 449 98 Z M 460 88.242188 C 460 87.136719 460.894531 86.242188 462 86.242188 L 468 86.242188 C 469.105469 86.242188 470 87.136719 470 88.242188 L 470 105.242188 C 470 106.347656 469.105469 107.242188 468 107.242188 L 462 107.242188 C 460.894531 107.242188 460 106.347656 460 105.242188 Z M 471 91.136719 C 471 90.035156 471.894531 89.136719 473 89.136719 L 479 89.136719 C 480.105469 89.136719 481 90.035156 481 91.136719 L 481 108.136719 C 481 109.242188 480.105469 110.136719 479 110.136719 L 473 110.136719 C 471.894531 110.136719 471 109.242188 471 108.136719 Z M 482 94.035156 C 482 92.929688 482.894531 92.035156 484 92.035156 L 490 92.035156 C 491.105469 92.035156 492 92.929688 492 94.035156 L 492 111.035156 C 492 112.140625 491.105469 113.035156 490 113.035156 L 484 113.035156 C 482.894531 113.035156 482 112.140625 482 111.035156 Z M 493 99.101562 C 493 98 493.894531 97.101562 495 97.101562 L 501 97.101562 C 502.105469 97.101562 503 98 503 99.101562 L 503 116.101562 C 503 117.207031 502.105469 118.101562 501 118.101562 L 495 118.101562 C 493.894531 118.101562 493 117.207031 493 116.101562 Z M 504 97.65625 C 504 96.550781 504.894531 95.65625 506 95.65625 L 512 95.65625 C 513.105469 95.65625 514 96.550781 514 97.65625 L 514 114.65625 C 514 115.757812 513.105469 116.65625 512 116.65625 L 506 116.65625 C 504.894531 116.65625 504 115.757812 504 114.65625 Z M 515 98.378906 C 515 97.273438 515.894531 96.378906 517 96.378906 L 523 96.378906 C 524.105469 96.378906 525 97.273438 525 98.378906 L 525 115.378906 C 525 116.484375 524.105469 117.378906 523 117.378906 L 517 117.378906 C 515.894531 117.378906 515 116.484375 515 115.378906 Z M 526 99.828125 C 526 98.722656 526.894531 97.828125 528 97.828125 L 534 97.828125 C 535.105469 97.828125 536 98.722656 536 99.828125 L 536 116.828125 C 536 117.933594 535.105469 118.828125 534 118.828125 L 528 118.828125 C 526.894531 118.828125 526 117.933594 526 116.828125 Z M 537 98.378906 C 537 97.273438 537.894531 96.378906 539 96.378906 L 545 96.378906 C 546.105469 96.378906 547 97.273438 547 98.378906 L 547 115.378906 C 547 116.484375 546.105469 117.378906 545 117.378906 L 539 117.378906 C 537.894531 117.378906 537 116.484375 537 115.378906 Z M 548 102 C 548 100.894531 548.894531 100 550 100 L 556 100 C 557.105469 100 558 100.894531 558 102 L 558 119 C 558 120.105469 557.105469 121 556 121 L 550 121 C 548.894531 121 548 120.105469 548 119 Z M 559 102 C 559 100.894531 559.894531 100 561 100 L 567 100 C 568.105469 100 569 100.894531 569 102 L 569 119 C 569 120.105469 568.105469 121 567 121 L 561 121 C 559.894531 121 559 120.105469 559 119 Z M 570 101.277344 C 570 100.171875 570.894531 99.277344 572 99.277344 L 578 99.277344 C 579.105469 99.277344 580 100.171875 580 101.277344 L 580 118.277344 C 580 119.378906 579.105469 120.277344 578 120.277344 L 572 120.277344 C 570.894531 120.277344 570 119.378906 570 118.277344 Z M 581 96.929688 C 581 95.828125 581.894531 94.929688 583 94.929688 L 589 94.929688 C 590.105469 94.929688 591 95.828125 591 96.929688 L 591 113.929688 C 591 115.035156 590.105469 115.929688 589 115.929688 L 583 115.929688 C 581.894531 115.929688 581 115.035156 581 113.929688 Z M 592 89.691406 C 592 88.585938 592.894531 87.691406 594 87.691406 L 600 87.691406 C 601.105469 87.691406 602 88.585938 602 89.691406 L 602 106.691406 C 602 107.792969 601.105469 108.691406 600 108.691406 L 594 108.691406 C 592.894531 108.691406 592 107.792969 592 106.691406 Z M 603 86.070312 C 603 84.964844 603.894531 84.070312 605 84.070312 L 611 84.070312 C 612.105469 84.070312 613 84.964844 613 86.070312 L 613 103.070312 C 613 104.171875 612.105469 105.070312 611 105.070312 L 605 105.070312 C 603.894531 105.070312 603 104.171875 603 103.070312 Z M 614 102 C 614 100.894531 614.894531 100 616 100 L 622 100 C 623.105469 100 624 100.894531 624 102 L 624 119 C 624 120.105469 623.105469 121 622 121 L 616 121 C 614.894531 121 614 120.105469 614 119 Z M 625 102 C 625 100.894531 625.894531 100 627 100 L 633 100 C 634.105469 100 635 100.894531 635 102 L 635 119 C 635 120.105469 634.105469 121 633 121 L 627 121 C 625.894531 121 625 120.105469 625 119 Z M 636 101.277344 C 636 100.171875 636.894531 99.277344 638 99.277344 L 644 99.277344 C 645.105469 99.277344 646 100.171875 646 101.277344 L 646 118.277344 C 646 119.378906 645.105469 120.277344 644 120.277344 L 638 120.277344 C 636.894531 120.277344 636 119.378906 636 118.277344 Z M 647 99.828125 C 647 98.722656 647.894531 97.828125 649 97.828125 L 655 97.828125 C 656.105469 97.828125 657 98.722656 657 99.828125 L 657 116.828125 C 657 117.933594 656.105469 118.828125 655 118.828125 L 649 118.828125 C 647.894531 118.828125 647 117.933594 647 116.828125 Z M 658 102 C 658 100.894531 658.894531 100 660 100 L 666 100 C 667.105469 100 668 100.894531 668 102 L 668 119 C 668 120.105469 667.105469 121 666 121 L 660 121 C 658.894531 121 658 120.105469 658 119 Z M 669 102 C 669 100.894531 669.894531 100 671 100 L 677 100 C 678.105469 100 679 100.894531 679 102 L 679 119 C 679 120.105469 678.105469 121 677 121 L 671 121 C 669.894531 121 669 120.105469 669 119 Z M 680 91.863281 C 680 90.757812 680.894531 89.863281 682 89.863281 L 688 89.863281 C 689.105469 89.863281 690 90.757812 690 91.863281 L 690 108.863281 C 690 109.964844 689.105469 110.863281 688 110.863281 L 682 110.863281 C 680.894531 110.863281 680 109.964844 680 108.863281 Z M 691 89.691406 C 691 88.585938 691.894531 87.691406 693 87.691406 L 699 87.691406 C 700.105469 87.691406 701 88.585938 701 89.691406 L 701 106.691406 C 701 107.792969 700.105469 108.691406 699 108.691406 L 693 108.691406 C 691.894531 108.691406 691 107.792969 691 106.691406 Z M 702 89.691406 C 702 88.585938 702.894531 87.691406 704 87.691406 L 710 87.691406 C 711.105469 87.691406 712 88.585938 712 89.691406 L 712 106.691406 C 712 107.792969 711.105469 108.691406 710 108.691406 L 704 108.691406 C 702.894531 108.691406 702 107.792969 702 106.691406 Z M 713 81 C 713 79.894531 713.894531 79 715 79 L 721 79 C 722.105469 79 723 79.894531 723 81 L 723 98 C 723 99.105469 722.105469 100 721 100 L 715 100 C 713.894531 100 713 99.105469 713 98 Z M 724 88.242188 C 724 87.136719 724.894531 86.242188 726 86.242188 L 732 86.242188 C 733.105469 86.242188 734 87.136719 734 88.242188 L 734 105.242188 C 734 106.347656 733.105469 107.242188 732 107.242188 L 726 107.242188 C 724.894531 107.242188 724 106.347656 724 105.242188 Z M 735 91.136719 C 735 90.035156 735.894531 89.136719 737 89.136719 L 743 89.136719 C 744.105469 89.136719 745 90.035156 745 91.136719 L 745 108.136719 C 745 109.242188 744.105469 110.136719 743 110.136719 L 737 110.136719 C 735.894531 110.136719 735 109.242188 735 108.136719 Z M 746 94.035156 C 746 92.929688 746.894531 92.035156 748 92.035156 L 754 92.035156 C 755.105469 92.035156 756 92.929688 756 94.035156 L 756 111.035156 C 756 112.140625 755.105469 113.035156 754 113.035156 L 748 113.035156 C 746.894531 113.035156 746 112.140625 746 111.035156 Z M 757 99.101562 C 757 98 757.894531 97.101562 759 97.101562 L 765 97.101562 C 766.105469 97.101562 767 98 767 99.101562 L 767 116.101562 C 767 117.207031 766.105469 118.101562 765 118.101562 L 759 118.101562 C 757.894531 118.101562 757 117.207031 757 116.101562 Z M 768 97.65625 C 768 96.550781 768.894531 95.65625 770 95.65625 L 776 95.65625 C 777.105469 95.65625 778 96.550781 778 97.65625 L 778 114.65625 C 778 115.757812 777.105469 116.65625 776 116.65625 L 770 116.65625 C 768.894531 116.65625 768 115.757812 768 114.65625 Z M 779 98.378906 C 779 97.273438 779.894531 96.378906 781 96.378906 L 787 96.378906 C 788.105469 96.378906 789 97.273438 789 98.378906 L 789 115.378906 C 789 116.484375 788.105469 117.378906 787 117.378906 L 781 117.378906 C 779.894531 117.378906 779 116.484375 779 115.378906 Z M 790 99.828125 C 790 98.722656 790.894531 97.828125 792 97.828125 L 798 97.828125 C 799.105469 97.828125 800 98.722656 800 99.828125 L 800 116.828125 C 800 117.933594 799.105469 118.828125 798 118.828125 L 792 118.828125 C 790.894531 118.828125 790 117.933594 790 116.828125 Z M 801 98.378906 C 801 97.273438 801.894531 96.378906 803 96.378906 L 809 96.378906 C 810.105469 96.378906 811 97.273438 811 98.378906 L 811 115.378906 C 811 116.484375 810.105469 117.378906 809 117.378906 L 803 117.378906 C 801.894531 117.378906 801 116.484375 801 115.378906 Z M 812 102 C 812 100.894531 812.894531 100 814 100 L 820 100 C 821.105469 100 822 100.894531 822 102 L 822 119 C 822 120.105469 821.105469 121 820 121 L 814 121 C 812.894531 121 812 120.105469 812 119 Z M 823 102 C 823 100.894531 823.894531 100 825 100 L 831 100 C 832.105469 100 833 100.894531 833 102 L 833 119 C 833 120.105469 832.105469 121 831 121 L 825 121 C 823.894531 121 823 120.105469 823 119 Z M 834 101.277344 C 834 100.171875 834.894531 99.277344 836 99.277344 L 842 99.277344 C 843.105469 99.277344 844 100.171875 844 101.277344 L 844 118.277344 C 844 119.378906 843.105469 120.277344 842 120.277344 L 836 120.277344 C 834.894531 120.277344 834 119.378906 834 118.277344 Z M 845 96.929688 C 845 95.828125 845.894531 94.929688 847 94.929688 L 853 94.929688 C 854.105469 94.929688 855 95.828125 855 96.929688 L 855 113.929688 C 855 115.035156 854.105469 115.929688 853 115.929688 L 847 115.929688 C 845.894531 115.929688 845 115.035156 845 113.929688 Z M 856 89.691406 C 856 88.585938 856.894531 87.691406 858 87.691406 L 864 87.691406 C 865.105469 87.691406 866 88.585938 866 89.691406 L 866 106.691406 C 866 107.792969 865.105469 108.691406 864 108.691406 L 858 108.691406 C 856.894531 108.691406 856 107.792969 856 106.691406 Z M 867 86.070312 C 867 84.964844 867.894531 84.070312 869 84.070312 L 875 84.070312 C 876.105469 84.070312 877 84.964844 877 86.070312 L 877 103.070312 C 877 104.171875 876.105469 105.070312 875 105.070312 L 869 105.070312 C 867.894531 105.070312 867 104.171875 867 103.070312 Z M 878 102 C 878 100.894531 878.894531 100 880 100 L 886 100 C 887.105469 100 888 100.894531 888 102 L 888 119 C 888 120.105469 887.105469 121 886 121 L 880 121 C 878.894531 121 878 120.105469 878 119 Z M 889 102 C 889 100.894531 889.894531 100 891 100 L 897 100 C 898.105469 100 899 100.894531 899 102 L 899 119 C 899 120.105469 898.105469 121 897 121 L 891 121 C 889.894531 121 889 120.105469 889 119 Z M 900 101.277344 C 900 100.171875 900.894531 99.277344 902 99.277344 L 908 99.277344 C 909.105469 99.277344 910 100.171875 910 101.277344 L 910 118.277344 C 910 119.378906 909.105469 120.277344 908 120.277344 L 902 120.277344 C 900.894531 120.277344 900 119.378906 900 118.277344 Z M 911 99.828125 C 911 98.722656 911.894531 97.828125 913 97.828125 L 919 97.828125 C 920.105469 97.828125 921 98.722656 921 99.828125 L 921 116.828125 C 921 117.933594 920.105469 118.828125 919 118.828125 L 913 118.828125 C 911.894531 118.828125 911 117.933594 911 116.828125 Z M 922 102 C 922 100.894531 922.894531 100 924 100 L 930 100 C 931.105469 100 932 100.894531 932 102 L 932 119 C 932 120.105469 931.105469 121 930 121 L 924 121 C 922.894531 121 922 120.105469 922 119 Z M 933 102 C 933 100.894531 933.894531 100 935 100 L 941 100 C 942.105469 100 943 100.894531 943 102 L 943 119 C 943 120.105469 942.105469 121 941 121 L 935 121 C 933.894531 121 933 120.105469 933 119 Z M 944 91.863281 C 944 90.757812 944.894531 89.863281 946 89.863281 L 952 89.863281 C 953.105469 89.863281 954 90.757812 954 91.863281 L 954 108.863281 C 954 109.964844 953.105469 110.863281 952 110.863281 L 946 110.863281 C 944.894531 110.863281 944 109.964844 944 108.863281 Z M 955 89.691406 C 955 88.585938 955.894531 87.691406 957 87.691406 L 963 87.691406 C 964.105469 87.691406 965 88.585938 965 89.691406 L 965 106.691406 C 965 107.792969 964.105469 108.691406 963 108.691406 L 957 108.691406 C 955.894531 108.691406 955 107.792969 955 106.691406 Z M 966 89.691406 C 966 88.585938 966.894531 87.691406 968 87.691406 L 974 87.691406 C 975.105469 87.691406 976 88.585938 976 89.691406 L 976 106.691406 C 976 107.792969 975.105469 108.691406 974 108.691406 L 968 108.691406 C 966.894531 108.691406 966 107.792969 966 106.691406 Z M 977 81 C 977 79.894531 977.894531 79 979 79 L 985 79 C 986.105469 79 987 79.894531 987 81 L 987 98 C 987 99.105469 986.105469 100 985 100 L 979 100 C 977.894531 100 977 99.105469 977 98 Z M 988 88.242188 C 988 87.136719 988.894531 86.242188 990 86.242188 L 996 86.242188 C 997.105469 86.242188 998 87.136719 998 88.242188 L 998 105.242188 C 998 106.347656 997.105469 107.242188 996 107.242188 L 990 107.242188 C 988.894531 107.242188 988 106.347656 988 105.242188 Z M 999 91.136719 C 999 90.035156 999.894531 89.136719 1001 89.136719 L 1007 89.136719 C 1008.105469 89.136719 1009 90.035156 1009 91.136719 L 1009 108.136719 C 1009 109.242188 1008.105469 110.136719 1007 110.136719 L 1001 110.136719 C 999.894531 110.136719 999 109.242188 999 108.136719 Z M 1010 94.035156 C 1010 92.929688 1010.894531 92.035156 1012 92.035156 L 1018 92.035156 C 1019.105469 92.035156 1020 92.929688 1020 94.035156 L 1020 111.035156 C 1020 112.140625 1019.105469 113.035156 1018 113.035156 L 1012 113.035156 C 1010.894531 113.035156 1010 112.140625 1010 111.035156 Z M 1021 99.101562 C 1021 98 1021.894531 97.101562 1023 97.101562 L 1029 97.101562 C 1030.105469 97.101562 1031 98 1031 99.101562 L 1031 116.101562 C 1031 117.207031 1030.105469 118.101562 1029 118.101562 L 1023 118.101562 C 1021.894531 118.101562 1021 117.207031 1021 116.101562 Z M 1032 97.65625 C 1032 96.550781 1032.894531 95.65625 1034 95.65625 L 1040 95.65625 C 1041.105469 95.65625 1042 96.550781 1042 97.65625 L 1042 114.65625 C 1042 115.757812 1041.105469 116.65625 1040 116.65625 L 1034 116.65625 C 1032.894531 116.65625 1032 115.757812 1032 114.65625 Z M 1043 98.378906 C 1043 97.273438 1043.894531 96.378906 1045 96.378906 L 1051 96.378906 C 1052.105469 96.378906 1053 97.273438 1053 98.378906 L 1053 115.378906 C 1053 116.484375 1052.105469 117.378906 1051 117.378906 L 1045 117.378906 C 1043.894531 117.378906 1043 116.484375 1043 115.378906 Z M 1054 99.828125 C 1054 98.722656 1054.894531 97.828125 1056 97.828125 L 1062 97.828125 C 1063.105469 97.828125 1064 98.722656 1064 99.828125 L 1064 116.828125 C 1064 117.933594 1063.105469 118.828125 1062 118.828125 L 1056 118.828125 C 1054.894531 118.828125 1054 117.933594 1054 116.828125 Z M 1065 98.378906 C 1065 97.273438 1065.894531 96.378906 1067 96.378906 L 1073 96.378906 C 1074.105469 96.378906 1075 97.273438 1075 98.378906 L 1075 115.378906 C 1075 116.484375 1074.105469 117.378906 1073 117.378906 L 1067 117.378906 C 1065.894531 117.378906 1065 116.484375 1065 115.378906 Z M 1076 102 C 1076 100.894531 1076.894531 100 1078 100 L 1084 100 C 1085.105469 100 1086 100.894531 1086 102 L 1086 119 C 1086 120.105469 1085.105469 121 1084 121 L 1078 121 C 1076.894531 121 1076 120.105469 1076 119 Z M 1087 102 C 1087 100.894531 1087.894531 100 1089 100 L 1095 100 C 1096.105469 100 1097 100.894531 1097 102 L 1097 119 C 1097 120.105469 1096.105469 121 1095 121 L 1089 121 C 1087.894531 121 1087 120.105469 1087 119 Z M 1098 101.277344 C 1098 100.171875 1098.894531 99.277344 1100 99.277344 L 1106 99.277344 C 1107.105469 99.277344 1108 100.171875 1108 101.277344 L 1108 118.277344 C 1108 119.378906 1107.105469 120.277344 1106 120.277344 L 1100 120.277344 C 1098.894531 120.277344 1098 119.378906 1098 118.277344 Z M 1098 101.277344 "/>
</g>
</g>
</svg>
