<?xml version="1.0" encoding="UTF-8"?>
<svg xmlns="http://www.w3.org/2000/svg" xmlns:xlink="http://www.w3.org/1999/xlink" width="286pt" height="222pt" viewBox="0 0 286 222" version="1.1">
<defs>
<clipPath id="clip1">
  <path d="M 22 16 L 56 16 L 56 39 L 22 39 Z M 22 16 "/>
</clipPath>
<clipPath id="clip2">
  <path d="M 23 17 L 55 17 L 55 38 L 23 38 Z M 23 17 "/>
</clipPath>
<clipPath id="clip3">
  <path d="M 23 22 C 23 19.238281 25.238281 17 28 17 L 50 17 C 52.761719 17 55 19.238281 55 22 L 55 33 C 55 35.761719 52.761719 38 50 38 L 28 38 C 25.238281 38 23 35.761719 23 33 Z M 23 22 "/>
</clipPath>
<clipPath id="clip4">
  <path d="M 10 10 L 44 10 L 44 33 L 10 33 Z M 10 10 "/>
</clipPath>
<clipPath id="clip5">
  <path d="M 11 11 L 43 11 L 43 32 L 11 32 Z M 11 11 "/>
</clipPath>
<clipPath id="clip6">
  <path d="M 11 16 C 11 13.238281 13.238281 11 16 11 L 38 11 C 40.761719 11 43 13.238281 43 16 L 43 27 C 43 29.761719 40.761719 32 38 32 L 16 32 C 13.238281 32 11 29.761719 11 27 Z M 11 16 "/>
</clipPath>
<clipPath id="clip7">
  <path d="M 96 16 L 118 16 L 118 39 L 96 39 Z M 96 16 "/>
</clipPath>
<clipPath id="clip8">
  <path d="M 97 17 L 117 17 L 117 38 L 97 38 Z M 97 17 "/>
</clipPath>
<clipPath id="clip9">
  <path d="M 97 22 C 97 19.238281 99.238281 17 102 17 L 112 17 C 114.761719 17 117 19.238281 117 22 L 117 33 C 117 35.761719 114.761719 38 112 38 L 102 38 C 99.238281 38 97 35.761719 97 33 Z M 97 22 "/>
</clipPath>
<clipPath id="clip10">
  <path d="M 96 10 L 118 10 L 118 33 L 96 33 Z M 96 10 "/>
</clipPath>
<clipPath id="clip11">
  <path d="M 97 11 L 117 11 L 117 32 L 97 32 Z M 97 11 "/>
</clipPath>
<clipPath id="clip12">
  <path d="M 97 16 C 97 13.238281 99.238281 11 102 11 L 112 11 C 114.761719 11 117 13.238281 117 16 L 117 27 C 117 29.761719 114.761719 32 112 32 L 102 32 C 99.238281 32 97 29.761719 97 27 Z M 97 16 "/>
</clipPath>
<clipPath id="clip13">
  <path d="M 170 16 L 208 16 L 208 39 L 170 39 Z M 170 16 "/>
</clipPath>
<clipPath id="clip14">
  <path d="M 171 17 L 207 17 L 207 38 L 171 38 Z M 171 17 "/>
</clipPath>
<clipPath id="clip15">
  <path d="M 171 22 C 171 19.238281 173.238281 17 176 17 L 202 17 C 204.761719 17 207 19.238281 207 22 L 207 33 C 207 35.761719 204.761719 38 202 38 L 176 38 C 173.238281 38 171 35.761719 171 33 Z M 171 22 "/>
</clipPath>
<clipPath id="clip16">
  <path d="M 170 10 L 208 10 L 208 33 L 170 33 Z M 170 10 "/>
</clipPath>
<clipPath id="clip17">
  <path d="M 171 11 L 207 11 L 207 32 L 171 32 Z M 171 11 "/>
</clipPath>
<clipPath id="clip18">
  <path d="M 171 16 C 171 13.238281 173.238281 11 176 11 L 202 11 C 204.761719 11 207 13.238281 207 16 L 207 27 C 207 29.761719 204.761719 32 202 32 L 176 32 C 173.238281 32 171 29.761719 171 27 Z M 171 16 "/>
</clipPath>
<clipPath id="clip19">
  <path d="M 244 16 L 282 16 L 282 29 L 244 29 Z M 244 16 "/>
</clipPath>
<clipPath id="clip20">
  <path d="M 245 17 L 281 17 L 281 28 L 245 28 Z M 245 17 "/>
</clipPath>
<clipPath id="clip21">
  <path d="M 245 22 C 245 19.238281 247.238281 17 250 17 L 276 17 C 278.761719 17 281 19.238281 281 22 L 281 23 C 281 25.761719 278.761719 28 276 28 L 250 28 C 247.238281 28 245 25.761719 245 23 Z M 245 22 "/>
</clipPath>
<clipPath id="clip22">
  <path d="M 244 20 L 282 20 L 282 33 L 244 33 Z M 244 20 "/>
</clipPath>
<clipPath id="clip23">
  <path d="M 245 21 L 281 21 L 281 32 L 245 32 Z M 245 21 "/>
</clipPath>
<clipPath id="clip24">
  <path d="M 245 26 C 245 23.238281 247.238281 21 250 21 L 276 21 C 278.761719 21 281 23.238281 281 26 L 281 27 C 281 29.761719 278.761719 32 276 32 L 250 32 C 247.238281 32 245 29.761719 245 27 Z M 245 26 "/>
</clipPath>
<clipPath id="clip25">
  <path d="M 22 74 L 60 74 L 60 98 L 22 98 Z M 22 74 "/>
</clipPath>
<clipPath id="clip26">
  <path d="M 23 75 L 59 75 L 59 97 L 23 97 Z M 23 75 "/>
</clipPath>
<clipPath id="clip27">
  <path d="M 23 80 C 23 77.238281 25.238281 75 28 75 L 54 75 C 56.761719 75 59 77.238281 59 80 L 59 92 C 59 94.761719 56.761719 97 54 97 L 28 97 C 25.238281 97 23 94.761719 23 92 Z M 23 80 "/>
</clipPath>
<clipPath id="clip28">
  <path d="M 22 74 L 60 74 L 60 98 L 22 98 Z M 22 74 "/>
</clipPath>
<clipPath id="clip29">
  <path d="M 23 75 L 59 75 L 59 97 L 23 97 Z M 23 75 "/>
</clipPath>
<clipPath id="clip30">
  <path d="M 23 80 C 23 77.238281 25.238281 75 28 75 L 54 75 C 56.761719 75 59 77.238281 59 80 L 59 92 C 59 94.761719 56.761719 97 54 97 L 28 97 C 25.238281 97 23 94.761719 23 92 Z M 23 80 "/>
</clipPath>
<clipPath id="clip31">
  <path d="M 96 74 L 118 74 L 118 98 L 96 98 Z M 96 74 "/>
</clipPath>
<clipPath id="clip32">
  <path d="M 97 75 L 117 75 L 117 97 L 97 97 Z M 97 75 "/>
</clipPath>
<clipPath id="clip33">
  <path d="M 97 80 C 97 77.238281 99.238281 75 102 75 L 112 75 C 114.761719 75 117 77.238281 117 80 L 117 92 C 117 94.761719 114.761719 97 112 97 L 102 97 C 99.238281 97 97 94.761719 97 92 Z M 97 80 "/>
</clipPath>
<clipPath id="clip34">
  <path d="M 96 74 L 118 74 L 118 98 L 96 98 Z M 96 74 "/>
</clipPath>
<clipPath id="clip35">
  <path d="M 97 75 L 117 75 L 117 97 L 97 97 Z M 97 75 "/>
</clipPath>
<clipPath id="clip36">
  <path d="M 97 80 C 97 77.238281 99.238281 75 102 75 L 112 75 C 114.761719 75 117 77.238281 117 80 L 117 92 C 117 94.761719 114.761719 97 112 97 L 102 97 C 99.238281 97 97 94.761719 97 92 Z M 97 80 "/>
</clipPath>
<clipPath id="clip37">
  <path d="M 170 74 L 204 74 L 204 98 L 170 98 Z M 170 74 "/>
</clipPath>
<clipPath id="clip38">
  <path d="M 171 75 L 203 75 L 203 97 L 171 97 Z M 171 75 "/>
</clipPath>
<clipPath id="clip39">
  <path d="M 171 80 C 171 77.238281 173.238281 75 176 75 L 198 75 C 200.761719 75 203 77.238281 203 80 L 203 92 C 203 94.761719 200.761719 97 198 97 L 176 97 C 173.238281 97 171 94.761719 171 92 Z M 171 80 "/>
</clipPath>
<clipPath id="clip40">
  <path d="M 158 74 L 192 74 L 192 98 L 158 98 Z M 158 74 "/>
</clipPath>
<clipPath id="clip41">
  <path d="M 159 75 L 191 75 L 191 97 L 159 97 Z M 159 75 "/>
</clipPath>
<clipPath id="clip42">
  <path d="M 159 80 C 159 77.238281 161.238281 75 164 75 L 186 75 C 188.761719 75 191 77.238281 191 80 L 191 92 C 191 94.761719 188.761719 97 186 97 L 164 97 C 161.238281 97 159 94.761719 159 92 Z M 159 80 "/>
</clipPath>
<clipPath id="clip43">
  <path d="M 244 74 L 278 74 L 278 87 L 244 87 Z M 244 74 "/>
</clipPath>
<clipPath id="clip44">
  <path d="M 245 75 L 277 75 L 277 86 L 245 86 Z M 245 75 "/>
</clipPath>
<clipPath id="clip45">
  <path d="M 245 80 C 245 77.238281 247.238281 75 250 75 L 272 75 C 274.761719 75 277 77.238281 277 80 L 277 81 C 277 83.761719 274.761719 86 272 86 L 250 86 C 247.238281 86 245 83.761719 245 81 Z M 245 80 "/>
</clipPath>
<clipPath id="clip46">
  <path d="M 232 74 L 266 74 L 266 87 L 232 87 Z M 232 74 "/>
</clipPath>
<clipPath id="clip47">
  <path d="M 233 75 L 265 75 L 265 86 L 233 86 Z M 233 75 "/>
</clipPath>
<clipPath id="clip48">
  <path d="M 233 80 C 233 77.238281 235.238281 75 238 75 L 260 75 C 262.761719 75 265 77.238281 265 80 L 265 81 C 265 83.761719 262.761719 86 260 86 L 238 86 C 235.238281 86 233 83.761719 233 81 Z M 233 80 "/>
</clipPath>
<clipPath id="clip49">
  <path d="M 10 126 L 46 126 L 46 148 L 10 148 Z M 10 126 "/>
</clipPath>
<clipPath id="clip50">
  <path d="M 11 127 L 45 127 L 45 147 L 11 147 Z M 11 127 "/>
</clipPath>
<clipPath id="clip51">
  <path d="M 11 132 C 11 129.238281 13.238281 127 16 127 L 40 127 C 42.761719 127 45 129.238281 45 132 L 45 142 C 45 144.761719 42.761719 147 40 147 L 16 147 C 13.238281 147 11 144.761719 11 142 Z M 11 132 "/>
</clipPath>
<clipPath id="clip52">
  <path d="M 20 134 L 56 134 L 56 156 L 20 156 Z M 20 134 "/>
</clipPath>
<clipPath id="clip53">
  <path d="M 21 135 L 55 135 L 55 155 L 21 155 Z M 21 135 "/>
</clipPath>
<clipPath id="clip54">
  <path d="M 21 140 C 21 137.238281 23.238281 135 26 135 L 50 135 C 52.761719 135 55 137.238281 55 140 L 55 150 C 55 152.761719 52.761719 155 50 155 L 26 155 C 23.238281 155 21 152.761719 21 150 Z M 21 140 "/>
</clipPath>
<clipPath id="clip55">
  <path d="M 84 126 L 130 126 L 130 148 L 84 148 Z M 84 126 "/>
</clipPath>
<clipPath id="clip56">
  <path d="M 85 127 L 129 127 L 129 147 L 85 147 Z M 85 127 "/>
</clipPath>
<clipPath id="clip57">
  <path d="M 85 132 C 85 129.238281 87.238281 127 90 127 L 124 127 C 126.761719 127 129 129.238281 129 132 L 129 142 C 129 144.761719 126.761719 147 124 147 L 90 147 C 87.238281 147 85 144.761719 85 142 Z M 85 132 "/>
</clipPath>
<clipPath id="clip58">
  <path d="M 84 134 L 130 134 L 130 156 L 84 156 Z M 84 134 "/>
</clipPath>
<clipPath id="clip59">
  <path d="M 85 135 L 129 135 L 129 155 L 85 155 Z M 85 135 "/>
</clipPath>
<clipPath id="clip60">
  <path d="M 85 140 C 85 137.238281 87.238281 135 90 135 L 124 135 C 126.761719 135 129 137.238281 129 140 L 129 150 C 129 152.761719 126.761719 155 124 155 L 90 155 C 87.238281 155 85 152.761719 85 150 Z M 85 140 "/>
</clipPath>
<clipPath id="clip61">
  <path d="M 158 126 L 192 126 L 192 148 L 158 148 Z M 158 126 "/>
</clipPath>
<clipPath id="clip62">
  <path d="M 159 127 L 191 127 L 191 147 L 159 147 Z M 159 127 "/>
</clipPath>
<clipPath id="clip63">
  <path d="M 159 132 C 159 129.238281 161.238281 127 164 127 L 186 127 C 188.761719 127 191 129.238281 191 132 L 191 142 C 191 144.761719 188.761719 147 186 147 L 164 147 C 161.238281 147 159 144.761719 159 142 Z M 159 132 "/>
</clipPath>
<clipPath id="clip64">
  <path d="M 158 134 L 192 134 L 192 156 L 158 156 Z M 158 134 "/>
</clipPath>
<clipPath id="clip65">
  <path d="M 159 135 L 191 135 L 191 155 L 159 155 Z M 159 135 "/>
</clipPath>
<clipPath id="clip66">
  <path d="M 159 140 C 159 137.238281 161.238281 135 164 135 L 186 135 C 188.761719 135 191 137.238281 191 140 L 191 150 C 191 152.761719 188.761719 155 186 155 L 164 155 C 161.238281 155 159 152.761719 159 150 Z M 159 140 "/>
</clipPath>
<clipPath id="clip67">
  <path d="M 232 126 L 266 126 L 266 156 L 232 156 Z M 232 126 "/>
</clipPath>
<clipPath id="clip68">
  <path d="M 233 127 L 265 127 L 265 155 L 233 155 Z M 233 127 "/>
</clipPath>
<clipPath id="clip69">
  <path d="M 233 132 C 233 129.238281 235.238281 127 238 127 L 260 127 C 262.761719 127 265 129.238281 265 132 L 265 150 C 265 152.761719 262.761719 155 260 155 L 238 155 C 235.238281 155 233 152.761719 233 150 Z M 233 132 "/>
</clipPath>
<clipPath id="clip70">
  <path d="M 232 126 L 266 126 L 266 156 L 232 156 Z M 232 126 "/>
</clipPath>
<clipPath id="clip71">
  <path d="M 233 127 L 265 127 L 265 155 L 233 155 Z M 233 127 "/>
</clipPath>
<clipPath id="clip72">
  <path d="M 233 132 C 233 129.238281 235.238281 127 238 127 L 260 127 C 262.761719 127 265 129.238281 265 132 L 265 150 C 265 152.761719 262.761719 155 260 155 L 238 155 C 235.238281 155 233 152.761719 233 150 Z M 233 132 "/>
</clipPath>
<clipPath id="clip73">
  <path d="M 10 184 L 44 184 L 44 208 L 10 208 Z M 10 184 "/>
</clipPath>
<clipPath id="clip74">
  <path d="M 11 185 L 43 185 L 43 207 L 11 207 Z M 11 185 "/>
</clipPath>
<clipPath id="clip75">
  <path d="M 11 190 C 11 187.238281 13.238281 185 16 185 L 38 185 C 40.761719 185 43 187.238281 43 190 L 43 202 C 43 204.761719 40.761719 207 38 207 L 16 207 C 13.238281 207 11 204.761719 11 202 Z M 11 190 "/>
</clipPath>
<clipPath id="clip76">
  <path d="M 10 184 L 44 184 L 44 208 L 10 208 Z M 10 184 "/>
</clipPath>
<clipPath id="clip77">
  <path d="M 11 185 L 43 185 L 43 207 L 11 207 Z M 11 185 "/>
</clipPath>
<clipPath id="clip78">
  <path d="M 11 190 C 11 187.238281 13.238281 185 16 185 L 38 185 C 40.761719 185 43 187.238281 43 190 L 43 202 C 43 204.761719 40.761719 207 38 207 L 16 207 C 13.238281 207 11 204.761719 11 202 Z M 11 190 "/>
</clipPath>
<clipPath id="clip79">
  <path d="M 84 184 L 130 184 L 130 208 L 84 208 Z M 84 184 "/>
</clipPath>
<clipPath id="clip80">
  <path d="M 85 185 L 129 185 L 129 207 L 85 207 Z M 85 185 "/>
</clipPath>
<clipPath id="clip81">
  <path d="M 85 190 C 85 187.238281 87.238281 185 90 185 L 124 185 C 126.761719 185 129 187.238281 129 190 L 129 202 C 129 204.761719 126.761719 207 124 207 L 90 207 C 87.238281 207 85 204.761719 85 202 Z M 85 190 "/>
</clipPath>
<clipPath id="clip82">
  <path d="M 84 184 L 130 184 L 130 208 L 84 208 Z M 84 184 "/>
</clipPath>
<clipPath id="clip83">
  <path d="M 85 185 L 129 185 L 129 207 L 85 207 Z M 85 185 "/>
</clipPath>
<clipPath id="clip84">
  <path d="M 85 190 C 85 187.238281 87.238281 185 90 185 L 124 185 C 126.761719 185 129 187.238281 129 190 L 129 202 C 129 204.761719 126.761719 207 124 207 L 90 207 C 87.238281 207 85 204.761719 85 202 Z M 85 190 "/>
</clipPath>
<clipPath id="clip85">
  <path d="M 158 184 L 194 184 L 194 208 L 158 208 Z M 158 184 "/>
</clipPath>
<clipPath id="clip86">
  <path d="M 159 185 L 193 185 L 193 207 L 159 207 Z M 159 185 "/>
</clipPath>
<clipPath id="clip87">
  <path d="M 159 190 C 159 187.238281 161.238281 185 164 185 L 188 185 C 190.761719 185 193 187.238281 193 190 L 193 202 C 193 204.761719 190.761719 207 188 207 L 164 207 C 161.238281 207 159 204.761719 159 202 Z M 159 190 "/>
</clipPath>
<clipPath id="clip88">
  <path d="M 168 184 L 204 184 L 204 208 L 168 208 Z M 168 184 "/>
</clipPath>
<clipPath id="clip89">
  <path d="M 169 185 L 203 185 L 203 207 L 169 207 Z M 169 185 "/>
</clipPath>
<clipPath id="clip90">
  <path d="M 169 190 C 169 187.238281 171.238281 185 174 185 L 198 185 C 200.761719 185 203 187.238281 203 190 L 203 202 C 203 204.761719 200.761719 207 198 207 L 174 207 C 171.238281 207 169 204.761719 169 202 Z M 169 190 "/>
</clipPath>
<clipPath id="clip91">
  <path d="M 232 184 L 256 184 L 256 200 L 232 200 Z M 232 184 "/>
</clipPath>
<clipPath id="clip92">
  <path d="M 233 185 L 255 185 L 255 199 L 233 199 Z M 233 185 "/>
</clipPath>
<clipPath id="clip93">
  <path d="M 233 190 C 233 187.238281 235.238281 185 238 185 L 250 185 C 252.761719 185 255 187.238281 255 190 L 255 194 C 255 196.761719 252.761719 199 250 199 L 238 199 C 235.238281 199 233 196.761719 233 194 Z M 233 190 "/>
</clipPath>
<clipPath id="clip94">
  <path d="M 254 198 L 278 198 L 278 214 L 254 214 Z M 254 198 "/>
</clipPath>
<clipPath id="clip95">
  <path d="M 255 199 L 277 199 L 277 213 L 255 213 Z M 255 199 "/>
</clipPath>
<clipPath id="clip96">
  <path d="M 255 204 C 255 201.238281 257.238281 199 260 199 L 272 199 C 274.761719 199 277 201.238281 277 204 L 277 208 C 277 210.761719 274.761719 213 272 213 L 260 213 C 257.238281 213 255 210.761719 255 208 Z M 255 204 "/>
</clipPath>
</defs>
<g id="surface2">
<path style="fill:none;stroke-width:1.5;stroke-linecap:butt;stroke-linejoin:miter;stroke:rgb(0%,0%,0%);stroke-opacity:0.266667;stroke-dasharray:10,4;stroke-dashoffset:1;stroke-miterlimit:10;" d="M 0.75 0.75 L 63.25 0.75 L 63.25 47.25 L 0.75 47.25 Z M 0.75 0.75 "/>
<path style="fill:none;stroke-width:1.5;stroke-linecap:butt;stroke-linejoin:miter;stroke:rgb(0%,0%,0%);stroke-opacity:0.2;stroke-dasharray:10,4;stroke-dashoffset:1;stroke-miterlimit:10;" d="M 0 0 L 64 0 L 64 48 L 0 48 Z M 0 0 "/>
<path style="fill:none;stroke-width:1.5;stroke-linecap:butt;stroke-linejoin:miter;stroke:rgb(0%,0%,0%);stroke-opacity:0.266667;stroke-dasharray:10,4;stroke-dashoffset:1;stroke-miterlimit:10;" d="M 74.75 0.75 L 137.25 0.75 L 137.25 47.25 L 74.75 47.25 Z M 74.75 0.75 "/>
<path style="fill:none;stroke-width:1.5;stroke-linecap:butt;stroke-linejoin:miter;stroke:rgb(0%,0%,0%);stroke-opacity:0.2;stroke-dasharray:10,4;stroke-dashoffset:1;stroke-miterlimit:10;" d="M 74 0 L 138 0 L 138 48 L 74 48 Z M 74 0 "/>
<path style="fill:none;stroke-width:1.5;stroke-linecap:butt;stroke-linejoin:miter;stroke:rgb(0%,0%,0%);stroke-opacity:0.266667;stroke-dasharray:10,4;stroke-dashoffset:1;stroke-miterlimit:10;" d="M 148.75 0.75 L 211.25 0.75 L 211.25 47.25 L 148.75 47.25 Z M 148.75 0.75 "/>
<path style="fill:none;stroke-width:1.5;stroke-linecap:butt;stroke-linejoin:miter;stroke:rgb(0%,0%,0%);stroke-opacity:0.2;stroke-dasharray:10,4;stroke-dashoffset:1;stroke-miterlimit:10;" d="M 148 0 L 212 0 L 212 48 L 148 48 Z M 148 0 "/>
<path style="fill:none;stroke-width:1.5;stroke-linecap:butt;stroke-linejoin:miter;stroke:rgb(0%,0%,0%);stroke-opacity:0.266667;stroke-dasharray:10,4;stroke-dashoffset:1;stroke-miterlimit:10;" d="M 222.75 0.75 L 285.25 0.75 L 285.25 47.25 L 222.75 47.25 Z M 222.75 0.75 "/>
<path style="fill:none;stroke-width:1.5;stroke-linecap:butt;stroke-linejoin:miter;stroke:rgb(0%,0%,0%);stroke-opacity:0.2;stroke-dasharray:10,4;stroke-dashoffset:1;stroke-miterlimit:10;" d="M 222 0 L 286 0 L 286 48 L 222 48 Z M 222 0 "/>
<path style="fill:none;stroke-width:1.5;stroke-linecap:butt;stroke-linejoin:miter;stroke:rgb(0%,0%,0%);stroke-opacity:0.266667;stroke-dasharray:10,4;stroke-dashoffset:1;stroke-miterlimit:10;" d="M 0.75 58.75 L 63.25 58.75 L 63.25 105.25 L 0.75 105.25 Z M 0.75 58.75 "/>
<path style="fill:none;stroke-width:1.5;stroke-linecap:butt;stroke-linejoin:miter;stroke:rgb(0%,0%,0%);stroke-opacity:0.2;stroke-dasharray:10,4;stroke-dashoffset:1;stroke-miterlimit:10;" d="M 0 58 L 64 58 L 64 106 L 0 106 Z M 0 58 "/>
<path style="fill:none;stroke-width:1.5;stroke-linecap:butt;stroke-linejoin:miter;stroke:rgb(0%,0%,0%);stroke-opacity:0.266667;stroke-dasharray:10,4;stroke-dashoffset:1;stroke-miterlimit:10;" d="M 74.75 58.75 L 137.25 58.75 L 137.25 105.25 L 74.75 105.25 Z M 74.75 58.75 "/>
<path style="fill:none;stroke-width:1.5;stroke-linecap:butt;stroke-linejoin:miter;stroke:rgb(0%,0%,0%);stroke-opacity:0.2;stroke-dasharray:10,4;stroke-dashoffset:1;stroke-miterlimit:10;" d="M 74 58 L 138 58 L 138 106 L 74 106 Z M 74 58 "/>
<path style="fill:none;stroke-width:1.5;stroke-linecap:butt;stroke-linejoin:miter;stroke:rgb(0%,0%,0%);stroke-opacity:0.266667;stroke-dasharray:10,4;stroke-dashoffset:1;stroke-miterlimit:10;" d="M 148.75 58.75 L 211.25 58.75 L 211.25 105.25 L 148.75 105.25 Z M 148.75 58.75 "/>
<path style="fill:none;stroke-width:1.5;stroke-linecap:butt;stroke-linejoin:miter;stroke:rgb(0%,0%,0%);stroke-opacity:0.2;stroke-dasharray:10,4;stroke-dashoffset:1;stroke-miterlimit:10;" d="M 148 58 L 212 58 L 212 106 L 148 106 Z M 148 58 "/>
<path style="fill:none;stroke-width:1.5;stroke-linecap:butt;stroke-linejoin:miter;stroke:rgb(0%,0%,0%);stroke-opacity:0.266667;stroke-dasharray:10,4;stroke-dashoffset:1;stroke-miterlimit:10;" d="M 222.75 58.75 L 285.25 58.75 L 285.25 105.25 L 222.75 105.25 Z M 222.75 58.75 "/>
<path style="fill:none;stroke-width:1.5;stroke-linecap:butt;stroke-linejoin:miter;stroke:rgb(0%,0%,0%);stroke-opacity:0.2;stroke-dasharray:10,4;stroke-dashoffset:1;stroke-miterlimit:10;" d="M 222 58 L 286 58 L 286 106 L 222 106 Z M 222 58 "/>
<path style="fill:none;stroke-width:1.5;stroke-linecap:butt;stroke-linejoin:miter;stroke:rgb(0%,0%,0%);stroke-opacity:0.266667;stroke-dasharray:10,4;stroke-dashoffset:1;stroke-miterlimit:10;" d="M 0.75 116.75 L 63.25 116.75 L 63.25 163.25 L 0.75 163.25 Z M 0.75 116.75 "/>
<path style="fill:none;stroke-width:1.5;stroke-linecap:butt;stroke-linejoin:miter;stroke:rgb(0%,0%,0%);stroke-opacity:0.2;stroke-dasharray:10,4;stroke-dashoffset:1;stroke-miterlimit:10;" d="M 0 116 L 64 116 L 64 164 L 0 164 Z M 0 116 "/>
<path style="fill:none;stroke-width:1.5;stroke-linecap:butt;stroke-linejoin:miter;stroke:rgb(0%,0%,0%);stroke-opacity:0.266667;stroke-dasharray:10,4;stroke-dashoffset:1;stroke-miterlimit:10;" d="M 74.75 116.75 L 137.25 116.75 L 137.25 163.25 L 74.75 163.25 Z M 74.75 116.75 "/>
<path style="fill:none;stroke-width:1.5;stroke-linecap:butt;stroke-linejoin:miter;stroke:rgb(0%,0%,0%);stroke-opacity:0.2;stroke-dasharray:10,4;stroke-dashoffset:1;stroke-miterlimit:10;" d="M 74 116 L 138 116 L 138 164 L 74 164 Z M 74 116 "/>
<path style="fill:none;stroke-width:1.5;stroke-linecap:butt;stroke-linejoin:miter;stroke:rgb(0%,0%,0%);stroke-opacity:0.266667;stroke-dasharray:10,4;stroke-dashoffset:1;stroke-miterlimit:10;" d="M 148.75 116.75 L 211.25 116.75 L 211.25 163.25 L 148.75 163.25 Z M 148.75 116.75 "/>
<path style="fill:none;stroke-width:1.5;stroke-linecap:butt;stroke-linejoin:miter;stroke:rgb(0%,0%,0%);stroke-opacity:0.2;stroke-dasharray:10,4;stroke-dashoffset:1;stroke-miterlimit:10;" d="M 148 116 L 212 116 L 212 164 L 148 164 Z M 148 116 "/>
<path style="fill:none;stroke-width:1.5;stroke-linecap:butt;stroke-linejoin:miter;stroke:rgb(0%,0%,0%);stroke-opacity:0.266667;stroke-dasharray:10,4;stroke-dashoffset:1;stroke-miterlimit:10;" d="M 222.75 116.75 L 285.25 116.75 L 285.25 163.25 L 222.75 163.25 Z M 222.75 116.75 "/>
<path style="fill:none;stroke-width:1.5;stroke-linecap:butt;stroke-linejoin:miter;stroke:rgb(0%,0%,0%);stroke-opacity:0.2;stroke-dasharray:10,4;stroke-dashoffset:1;stroke-miterlimit:10;" d="M 222 116 L 286 116 L 286 164 L 222 164 Z M 222 116 "/>
<path style="fill:none;stroke-width:1.5;stroke-linecap:butt;stroke-linejoin:miter;stroke:rgb(0%,0%,0%);stroke-opacity:0.266667;stroke-dasharray:10,4;stroke-dashoffset:1;stroke-miterlimit:10;" d="M 0.75 174.75 L 63.25 174.75 L 63.25 221.25 L 0.75 221.25 Z M 0.75 174.75 "/>
<path style="fill:none;stroke-width:1.5;stroke-linecap:butt;stroke-linejoin:miter;stroke:rgb(0%,0%,0%);stroke-opacity:0.2;stroke-dasharray:10,4;stroke-dashoffset:1;stroke-miterlimit:10;" d="M 0 174 L 64 174 L 64 222 L 0 222 Z M 0 174 "/>
<path style="fill:none;stroke-width:1.5;stroke-linecap:butt;stroke-linejoin:miter;stroke:rgb(0%,0%,0%);stroke-opacity:0.266667;stroke-dasharray:10,4;stroke-dashoffset:1;stroke-miterlimit:10;" d="M 74.75 174.75 L 137.25 174.75 L 137.25 221.25 L 74.75 221.25 Z M 74.75 174.75 "/>
<path style="fill:none;stroke-width:1.5;stroke-linecap:butt;stroke-linejoin:miter;stroke:rgb(0%,0%,0%);stroke-opacity:0.2;stroke-dasharray:10,4;stroke-dashoffset:1;stroke-miterlimit:10;" d="M 74 174 L 138 174 L 138 222 L 74 222 Z M 74 174 "/>
<path style="fill:none;stroke-width:1.5;stroke-linecap:butt;stroke-linejoin:miter;stroke:rgb(0%,0%,0%);stroke-opacity:0.266667;stroke-dasharray:10,4;stroke-dashoffset:1;stroke-miterlimit:10;" d="M 148.75 174.75 L 211.25 174.75 L 211.25 221.25 L 148.75 221.25 Z M 148.75 174.75 "/>
<path style="fill:none;stroke-width:1.5;stroke-linecap:butt;stroke-linejoin:miter;stroke:rgb(0%,0%,0%);stroke-opacity:0.2;stroke-dasharray:10,4;stroke-dashoffset:1;stroke-miterlimit:10;" d="M 148 174 L 212 174 L 212 222 L 148 222 Z M 148 174 "/>
<path style="fill:none;stroke-width:1.5;stroke-linecap:butt;stroke-linejoin:miter;stroke:rgb(0%,0%,0%);stroke-opacity:0.266667;stroke-dasharray:10,4;stroke-dashoffset:1;stroke-miterlimit:10;" d="M 222.75 174.75 L 285.25 174.75 L 285.25 221.25 L 222.75 221.25 Z M 222.75 174.75 "/>
<path style="fill:none;stroke-width:1.5;stroke-linecap:butt;stroke-linejoin:miter;stroke:rgb(0%,0%,0%);stroke-opacity:0.2;stroke-dasharray:10,4;stroke-dashoffset:1;stroke-miterlimit:10;" d="M 222 174 L 286 174 L 286 222 L 222 222 Z M 222 174 "/>
<path style="fill:none;stroke-width:0.75;stroke-linecap:butt;stroke-linejoin:miter;stroke:rgb(0%,0%,0%);stroke-opacity:0.1;stroke-miterlimit:10;" d="M 22 16 L 10 10 "/>
<path style="fill:none;stroke-width:0.75;stroke-linecap:butt;stroke-linejoin:miter;stroke:rgb(0%,0%,0%);stroke-opacity:0.1;stroke-miterlimit:10;" d="M 42 16 L 30 10 M 22 31 L 10 31 "/>
<path style="fill:none;stroke-width:0.75;stroke-linecap:butt;stroke-linejoin:miter;stroke:rgb(0%,0%,0%);stroke-opacity:0.1;stroke-miterlimit:10;" d="M 42 31 L 30 31 "/>
<path style="fill:none;stroke-width:0.75;stroke-linecap:butt;stroke-linejoin:miter;stroke:rgb(0%,0%,0%);stroke-opacity:0.1;stroke-miterlimit:10;" d="M 96 16 L 96 10 "/>
<path style="fill:none;stroke-width:0.75;stroke-linecap:butt;stroke-linejoin:miter;stroke:rgb(0%,0%,0%);stroke-opacity:0.1;stroke-miterlimit:10;" d="M 116 16 L 116 10 M 96 31 L 96 31 "/>
<path style="fill:none;stroke-width:0.75;stroke-linecap:butt;stroke-linejoin:miter;stroke:rgb(0%,0%,0%);stroke-opacity:0.1;stroke-miterlimit:10;" d="M 116 31 L 116 31 "/>
<path style="fill:none;stroke-width:0.75;stroke-linecap:butt;stroke-linejoin:miter;stroke:rgb(0%,0%,0%);stroke-opacity:0.1;stroke-miterlimit:10;" d="M 170 16 L 170 10 "/>
<path style="fill:none;stroke-width:0.75;stroke-linecap:butt;stroke-linejoin:miter;stroke:rgb(0%,0%,0%);stroke-opacity:0.1;stroke-miterlimit:10;" d="M 190 16 L 190 10 M 170 31 L 170 31 "/>
<path style="fill:none;stroke-width:0.75;stroke-linecap:butt;stroke-linejoin:miter;stroke:rgb(0%,0%,0%);stroke-opacity:0.1;stroke-miterlimit:10;" d="M 190 31 L 190 31 "/>
<path style="fill:none;stroke-width:0.75;stroke-linecap:butt;stroke-linejoin:miter;stroke:rgb(0%,0%,0%);stroke-opacity:0.1;stroke-miterlimit:10;" d="M 244 16 L 244 20 "/>
<path style="fill:none;stroke-width:0.75;stroke-linecap:butt;stroke-linejoin:miter;stroke:rgb(0%,0%,0%);stroke-opacity:0.1;stroke-miterlimit:10;" d="M 264 16 L 264 20 M 244 31 L 244 31 "/>
<path style="fill:none;stroke-width:0.75;stroke-linecap:butt;stroke-linejoin:miter;stroke:rgb(0%,0%,0%);stroke-opacity:0.1;stroke-miterlimit:10;" d="M 264 31 L 264 31 "/>
<path style="fill:none;stroke-width:0.75;stroke-linecap:butt;stroke-linejoin:miter;stroke:rgb(0%,0%,0%);stroke-opacity:0.1;stroke-miterlimit:10;" d="M 22 74 L 22 74 "/>
<path style="fill:none;stroke-width:0.75;stroke-linecap:butt;stroke-linejoin:miter;stroke:rgb(0%,0%,0%);stroke-opacity:0.1;stroke-miterlimit:10;" d="M 42 74 L 42 74 M 22 89 L 22 96 "/>
<path style="fill:none;stroke-width:0.75;stroke-linecap:butt;stroke-linejoin:miter;stroke:rgb(0%,0%,0%);stroke-opacity:0.1;stroke-miterlimit:10;" d="M 42 89 L 42 96 "/>
<path style="fill:none;stroke-width:0.75;stroke-linecap:butt;stroke-linejoin:miter;stroke:rgb(0%,0%,0%);stroke-opacity:0.1;stroke-miterlimit:10;" d="M 96 74 L 96 74 "/>
<path style="fill:none;stroke-width:0.75;stroke-linecap:butt;stroke-linejoin:miter;stroke:rgb(0%,0%,0%);stroke-opacity:0.1;stroke-miterlimit:10;" d="M 116 74 L 116 74 M 96 89 L 96 96 "/>
<path style="fill:none;stroke-width:0.75;stroke-linecap:butt;stroke-linejoin:miter;stroke:rgb(0%,0%,0%);stroke-opacity:0.1;stroke-miterlimit:10;" d="M 116 89 L 116 96 "/>
<path style="fill:none;stroke-width:0.75;stroke-linecap:butt;stroke-linejoin:miter;stroke:rgb(0%,0%,0%);stroke-opacity:0.1;stroke-miterlimit:10;" d="M 170 74 L 158 74 "/>
<path style="fill:none;stroke-width:0.75;stroke-linecap:butt;stroke-linejoin:miter;stroke:rgb(0%,0%,0%);stroke-opacity:0.1;stroke-miterlimit:10;" d="M 190 74 L 178 74 M 170 89 L 158 96 "/>
<path style="fill:none;stroke-width:0.75;stroke-linecap:butt;stroke-linejoin:miter;stroke:rgb(0%,0%,0%);stroke-opacity:0.1;stroke-miterlimit:10;" d="M 190 89 L 178 96 "/>
<path style="fill:none;stroke-width:0.75;stroke-linecap:butt;stroke-linejoin:miter;stroke:rgb(0%,0%,0%);stroke-opacity:0.1;stroke-miterlimit:10;" d="M 244 74 L 232 74 "/>
<path style="fill:none;stroke-width:0.75;stroke-linecap:butt;stroke-linejoin:miter;stroke:rgb(0%,0%,0%);stroke-opacity:0.1;stroke-miterlimit:10;" d="M 264 74 L 252 74 M 244 89 L 232 85 "/>
<path style="fill:none;stroke-width:0.75;stroke-linecap:butt;stroke-linejoin:miter;stroke:rgb(0%,0%,0%);stroke-opacity:0.1;stroke-miterlimit:10;" d="M 264 89 L 252 85 "/>
<path style="fill:none;stroke-width:0.75;stroke-linecap:butt;stroke-linejoin:miter;stroke:rgb(0%,0%,0%);stroke-opacity:0.1;stroke-miterlimit:10;" d="M 10 126 L 20 134 "/>
<path style="fill:none;stroke-width:0.75;stroke-linecap:butt;stroke-linejoin:miter;stroke:rgb(0%,0%,0%);stroke-opacity:0.1;stroke-miterlimit:10;" d="M 54 126 L 64 134 M 10 154 L 20 154 "/>
<path style="fill:none;stroke-width:0.75;stroke-linecap:butt;stroke-linejoin:miter;stroke:rgb(0%,0%,0%);stroke-opacity:0.1;stroke-miterlimit:10;" d="M 54 154 L 64 154 "/>
<path style="fill:none;stroke-width:0.75;stroke-linecap:butt;stroke-linejoin:miter;stroke:rgb(0%,0%,0%);stroke-opacity:0.1;stroke-miterlimit:10;" d="M 84 126 L 84 134 "/>
<path style="fill:none;stroke-width:0.75;stroke-linecap:butt;stroke-linejoin:miter;stroke:rgb(0%,0%,0%);stroke-opacity:0.1;stroke-miterlimit:10;" d="M 128 126 L 128 134 M 84 154 L 84 154 "/>
<path style="fill:none;stroke-width:0.75;stroke-linecap:butt;stroke-linejoin:miter;stroke:rgb(0%,0%,0%);stroke-opacity:0.1;stroke-miterlimit:10;" d="M 128 154 L 128 154 "/>
<path style="fill:none;stroke-width:0.75;stroke-linecap:butt;stroke-linejoin:miter;stroke:rgb(0%,0%,0%);stroke-opacity:0.1;stroke-miterlimit:10;" d="M 158 126 L 158 134 "/>
<path style="fill:none;stroke-width:0.75;stroke-linecap:butt;stroke-linejoin:miter;stroke:rgb(0%,0%,0%);stroke-opacity:0.1;stroke-miterlimit:10;" d="M 202 126 L 202 134 M 158 154 L 158 154 "/>
<path style="fill:none;stroke-width:0.75;stroke-linecap:butt;stroke-linejoin:miter;stroke:rgb(0%,0%,0%);stroke-opacity:0.1;stroke-miterlimit:10;" d="M 202 154 L 202 154 "/>
<path style="fill:none;stroke-width:0.75;stroke-linecap:butt;stroke-linejoin:miter;stroke:rgb(0%,0%,0%);stroke-opacity:0.1;stroke-miterlimit:10;" d="M 232 126 L 232 126 "/>
<path style="fill:none;stroke-width:0.75;stroke-linecap:butt;stroke-linejoin:miter;stroke:rgb(0%,0%,0%);stroke-opacity:0.1;stroke-miterlimit:10;" d="M 276 126 L 276 126 M 232 154 L 232 154 "/>
<path style="fill:none;stroke-width:0.75;stroke-linecap:butt;stroke-linejoin:miter;stroke:rgb(0%,0%,0%);stroke-opacity:0.1;stroke-miterlimit:10;" d="M 276 154 L 276 154 "/>
<path style="fill:none;stroke-width:0.75;stroke-linecap:butt;stroke-linejoin:miter;stroke:rgb(0%,0%,0%);stroke-opacity:0.1;stroke-miterlimit:10;" d="M 10 184 L 10 184 "/>
<path style="fill:none;stroke-width:0.75;stroke-linecap:butt;stroke-linejoin:miter;stroke:rgb(0%,0%,0%);stroke-opacity:0.1;stroke-miterlimit:10;" d="M 54 184 L 54 184 M 10 212 L 10 206 "/>
<path style="fill:none;stroke-width:0.75;stroke-linecap:butt;stroke-linejoin:miter;stroke:rgb(0%,0%,0%);stroke-opacity:0.1;stroke-miterlimit:10;" d="M 54 212 L 54 206 "/>
<path style="fill:none;stroke-width:0.75;stroke-linecap:butt;stroke-linejoin:miter;stroke:rgb(0%,0%,0%);stroke-opacity:0.1;stroke-miterlimit:10;" d="M 84 184 L 84 184 "/>
<path style="fill:none;stroke-width:0.75;stroke-linecap:butt;stroke-linejoin:miter;stroke:rgb(0%,0%,0%);stroke-opacity:0.1;stroke-miterlimit:10;" d="M 128 184 L 128 184 M 84 212 L 84 206 "/>
<path style="fill:none;stroke-width:0.75;stroke-linecap:butt;stroke-linejoin:miter;stroke:rgb(0%,0%,0%);stroke-opacity:0.1;stroke-miterlimit:10;" d="M 128 212 L 128 206 "/>
<path style="fill:none;stroke-width:0.75;stroke-linecap:butt;stroke-linejoin:miter;stroke:rgb(0%,0%,0%);stroke-opacity:0.1;stroke-miterlimit:10;" d="M 158 184 L 168 184 "/>
<path style="fill:none;stroke-width:0.75;stroke-linecap:butt;stroke-linejoin:miter;stroke:rgb(0%,0%,0%);stroke-opacity:0.1;stroke-miterlimit:10;" d="M 202 184 L 212 184 M 158 212 L 168 206 "/>
<path style="fill:none;stroke-width:0.75;stroke-linecap:butt;stroke-linejoin:miter;stroke:rgb(0%,0%,0%);stroke-opacity:0.1;stroke-miterlimit:10;" d="M 202 212 L 212 206 "/>
<path style="fill:none;stroke-width:0.75;stroke-linecap:butt;stroke-linejoin:miter;stroke:rgb(0%,0%,0%);stroke-opacity:0.1;stroke-miterlimit:10;" d="M 232 184 L 254 198 "/>
<path style="fill:none;stroke-width:0.75;stroke-linecap:butt;stroke-linejoin:miter;stroke:rgb(0%,0%,0%);stroke-opacity:0.1;stroke-miterlimit:10;" d="M 276 184 L 298 198 M 232 212 L 254 212 "/>
<path style="fill:none;stroke-width:0.75;stroke-linecap:butt;stroke-linejoin:miter;stroke:rgb(0%,0%,0%);stroke-opacity:0.1;stroke-miterlimit:10;" d="M 276 212 L 298 212 "/>
<g clip-path="url(#clip1)" clip-rule="nonzero">
<path style="fill:none;stroke-width:1;stroke-linecap:butt;stroke-linejoin:miter;stroke:rgb(38.039216%,50.588235%,100%);stroke-opacity:1;stroke-miterlimit:10;" d="M 0 5 C 0 2.238281 2.238281 0 5 0 L 27 0 C 29.761719 0 32 2.238281 32 5 L 32 16 C 32 18.761719 29.761719 21 27 21 L 5 21 C 2.238281 21 0 18.761719 0 16 Z M 0 5 " transform="matrix(1,0,0,1,23,17)"/>
</g>
<path style=" stroke:none;fill-rule:nonzero;fill:rgb(38.039216%,50.588235%,100%);fill-opacity:0.490196;" d="M 23 22 C 23 19.238281 25.238281 17 28 17 L 50 17 C 52.761719 17 55 19.238281 55 22 L 55 33 C 55 35.761719 52.761719 38 50 38 L 28 38 C 25.238281 38 23 35.761719 23 33 Z M 23 22 "/>
<g clip-path="url(#clip2)" clip-rule="nonzero">
<g clip-path="url(#clip3)" clip-rule="nonzero">
<path style="fill:none;stroke-width:1;stroke-linecap:butt;stroke-linejoin:miter;stroke:rgb(38.039216%,50.588235%,100%);stroke-opacity:1;stroke-miterlimit:10;" d="M 0 5 C 0 2.238281 2.238281 0 5 0 L 27 0 C 29.761719 0 32 2.238281 32 5 L 32 16 C 32 18.761719 29.761719 21 27 21 L 5 21 C 2.238281 21 0 18.761719 0 16 Z M 0 5 " transform="matrix(1,0,0,1,23,17)"/>
</g>
</g>
<g clip-path="url(#clip4)" clip-rule="nonzero">
<path style="fill:none;stroke-width:1;stroke-linecap:butt;stroke-linejoin:miter;stroke:rgb(38.039216%,50.588235%,100%);stroke-opacity:1;stroke-miterlimit:10;" d="M 0 5 C 0 2.238281 2.238281 0 5 0 L 27 0 C 29.761719 0 32 2.238281 32 5 L 32 16 C 32 18.761719 29.761719 21 27 21 L 5 21 C 2.238281 21 0 18.761719 0 16 Z M 0 5 " transform="matrix(1,0,0,1,11,11)"/>
</g>
<path style=" stroke:none;fill-rule:nonzero;fill:rgb(38.039216%,50.588235%,100%);fill-opacity:0.490196;" d="M 11 16 C 11 13.238281 13.238281 11 16 11 L 38 11 C 40.761719 11 43 13.238281 43 16 L 43 27 C 43 29.761719 40.761719 32 38 32 L 16 32 C 13.238281 32 11 29.761719 11 27 Z M 11 16 "/>
<g clip-path="url(#clip5)" clip-rule="nonzero">
<g clip-path="url(#clip6)" clip-rule="nonzero">
<path style="fill:none;stroke-width:1;stroke-linecap:butt;stroke-linejoin:miter;stroke:rgb(38.039216%,50.588235%,100%);stroke-opacity:1;stroke-miterlimit:10;" d="M 0 5 C 0 2.238281 2.238281 0 5 0 L 27 0 C 29.761719 0 32 2.238281 32 5 L 32 16 C 32 18.761719 29.761719 21 27 21 L 5 21 C 2.238281 21 0 18.761719 0 16 Z M 0 5 " transform="matrix(1,0,0,1,11,11)"/>
</g>
</g>
<g clip-path="url(#clip7)" clip-rule="nonzero">
<path style="fill:none;stroke-width:1;stroke-linecap:butt;stroke-linejoin:miter;stroke:rgb(38.039216%,50.588235%,100%);stroke-opacity:1;stroke-miterlimit:10;" d="M 0 5 C 0 2.238281 2.238281 0 5 0 L 15 0 C 17.761719 0 20 2.238281 20 5 L 20 16 C 20 18.761719 17.761719 21 15 21 L 5 21 C 2.238281 21 0 18.761719 0 16 Z M 0 5 " transform="matrix(1,0,0,1,97,17)"/>
</g>
<path style=" stroke:none;fill-rule:nonzero;fill:rgb(38.039216%,50.588235%,100%);fill-opacity:0.490196;" d="M 97 22 C 97 19.238281 99.238281 17 102 17 L 112 17 C 114.761719 17 117 19.238281 117 22 L 117 33 C 117 35.761719 114.761719 38 112 38 L 102 38 C 99.238281 38 97 35.761719 97 33 Z M 97 22 "/>
<g clip-path="url(#clip8)" clip-rule="nonzero">
<g clip-path="url(#clip9)" clip-rule="nonzero">
<path style="fill:none;stroke-width:1;stroke-linecap:butt;stroke-linejoin:miter;stroke:rgb(38.039216%,50.588235%,100%);stroke-opacity:1;stroke-miterlimit:10;" d="M 0 5 C 0 2.238281 2.238281 0 5 0 L 15 0 C 17.761719 0 20 2.238281 20 5 L 20 16 C 20 18.761719 17.761719 21 15 21 L 5 21 C 2.238281 21 0 18.761719 0 16 Z M 0 5 " transform="matrix(1,0,0,1,97,17)"/>
</g>
</g>
<g clip-path="url(#clip10)" clip-rule="nonzero">
<path style="fill:none;stroke-width:1;stroke-linecap:butt;stroke-linejoin:miter;stroke:rgb(38.039216%,50.588235%,100%);stroke-opacity:1;stroke-miterlimit:10;" d="M 0 5 C 0 2.238281 2.238281 0 5 0 L 15 0 C 17.761719 0 20 2.238281 20 5 L 20 16 C 20 18.761719 17.761719 21 15 21 L 5 21 C 2.238281 21 0 18.761719 0 16 Z M 0 5 " transform="matrix(1,0,0,1,97,11)"/>
</g>
<path style=" stroke:none;fill-rule:nonzero;fill:rgb(38.039216%,50.588235%,100%);fill-opacity:0.490196;" d="M 97 16 C 97 13.238281 99.238281 11 102 11 L 112 11 C 114.761719 11 117 13.238281 117 16 L 117 27 C 117 29.761719 114.761719 32 112 32 L 102 32 C 99.238281 32 97 29.761719 97 27 Z M 97 16 "/>
<g clip-path="url(#clip11)" clip-rule="nonzero">
<g clip-path="url(#clip12)" clip-rule="nonzero">
<path style="fill:none;stroke-width:1;stroke-linecap:butt;stroke-linejoin:miter;stroke:rgb(38.039216%,50.588235%,100%);stroke-opacity:1;stroke-miterlimit:10;" d="M 0 5 C 0 2.238281 2.238281 0 5 0 L 15 0 C 17.761719 0 20 2.238281 20 5 L 20 16 C 20 18.761719 17.761719 21 15 21 L 5 21 C 2.238281 21 0 18.761719 0 16 Z M 0 5 " transform="matrix(1,0,0,1,97,11)"/>
</g>
</g>
<g clip-path="url(#clip13)" clip-rule="nonzero">
<path style="fill:none;stroke-width:1;stroke-linecap:butt;stroke-linejoin:miter;stroke:rgb(38.039216%,50.588235%,100%);stroke-opacity:1;stroke-miterlimit:10;" d="M 0 5 C 0 2.238281 2.238281 0 5 0 L 31 0 C 33.761719 0 36 2.238281 36 5 L 36 16 C 36 18.761719 33.761719 21 31 21 L 5 21 C 2.238281 21 0 18.761719 0 16 Z M 0 5 " transform="matrix(1,0,0,1,171,17)"/>
</g>
<path style=" stroke:none;fill-rule:nonzero;fill:rgb(38.039216%,50.588235%,100%);fill-opacity:0.490196;" d="M 171 22 C 171 19.238281 173.238281 17 176 17 L 202 17 C 204.761719 17 207 19.238281 207 22 L 207 33 C 207 35.761719 204.761719 38 202 38 L 176 38 C 173.238281 38 171 35.761719 171 33 Z M 171 22 "/>
<g clip-path="url(#clip14)" clip-rule="nonzero">
<g clip-path="url(#clip15)" clip-rule="nonzero">
<path style="fill:none;stroke-width:1;stroke-linecap:butt;stroke-linejoin:miter;stroke:rgb(38.039216%,50.588235%,100%);stroke-opacity:1;stroke-miterlimit:10;" d="M 0 5 C 0 2.238281 2.238281 0 5 0 L 31 0 C 33.761719 0 36 2.238281 36 5 L 36 16 C 36 18.761719 33.761719 21 31 21 L 5 21 C 2.238281 21 0 18.761719 0 16 Z M 0 5 " transform="matrix(1,0,0,1,171,17)"/>
</g>
</g>
<g clip-path="url(#clip16)" clip-rule="nonzero">
<path style="fill:none;stroke-width:1;stroke-linecap:butt;stroke-linejoin:miter;stroke:rgb(38.039216%,50.588235%,100%);stroke-opacity:1;stroke-miterlimit:10;" d="M 0 5 C 0 2.238281 2.238281 0 5 0 L 31 0 C 33.761719 0 36 2.238281 36 5 L 36 16 C 36 18.761719 33.761719 21 31 21 L 5 21 C 2.238281 21 0 18.761719 0 16 Z M 0 5 " transform="matrix(1,0,0,1,171,11)"/>
</g>
<path style=" stroke:none;fill-rule:nonzero;fill:rgb(38.039216%,50.588235%,100%);fill-opacity:0.490196;" d="M 171 16 C 171 13.238281 173.238281 11 176 11 L 202 11 C 204.761719 11 207 13.238281 207 16 L 207 27 C 207 29.761719 204.761719 32 202 32 L 176 32 C 173.238281 32 171 29.761719 171 27 Z M 171 16 "/>
<g clip-path="url(#clip17)" clip-rule="nonzero">
<g clip-path="url(#clip18)" clip-rule="nonzero">
<path style="fill:none;stroke-width:1;stroke-linecap:butt;stroke-linejoin:miter;stroke:rgb(38.039216%,50.588235%,100%);stroke-opacity:1;stroke-miterlimit:10;" d="M 0 5 C 0 2.238281 2.238281 0 5 0 L 31 0 C 33.761719 0 36 2.238281 36 5 L 36 16 C 36 18.761719 33.761719 21 31 21 L 5 21 C 2.238281 21 0 18.761719 0 16 Z M 0 5 " transform="matrix(1,0,0,1,171,11)"/>
</g>
</g>
<g clip-path="url(#clip19)" clip-rule="nonzero">
<path style="fill:none;stroke-width:1;stroke-linecap:butt;stroke-linejoin:miter;stroke:rgb(38.039216%,50.588235%,100%);stroke-opacity:1;stroke-miterlimit:10;" d="M 0 5 C 0 2.238281 2.238281 0 5 0 L 31 0 C 33.761719 0 36 2.238281 36 5 L 36 6 C 36 8.761719 33.761719 11 31 11 L 5 11 C 2.238281 11 0 8.761719 0 6 Z M 0 5 " transform="matrix(1,0,0,1,245,17)"/>
</g>
<path style=" stroke:none;fill-rule:nonzero;fill:rgb(38.039216%,50.588235%,100%);fill-opacity:0.490196;" d="M 245 22 C 245 19.238281 247.238281 17 250 17 L 276 17 C 278.761719 17 281 19.238281 281 22 L 281 23 C 281 25.761719 278.761719 28 276 28 L 250 28 C 247.238281 28 245 25.761719 245 23 Z M 245 22 "/>
<g clip-path="url(#clip20)" clip-rule="nonzero">
<g clip-path="url(#clip21)" clip-rule="nonzero">
<path style="fill:none;stroke-width:1;stroke-linecap:butt;stroke-linejoin:miter;stroke:rgb(38.039216%,50.588235%,100%);stroke-opacity:1;stroke-miterlimit:10;" d="M 0 5 C 0 2.238281 2.238281 0 5 0 L 31 0 C 33.761719 0 36 2.238281 36 5 L 36 6 C 36 8.761719 33.761719 11 31 11 L 5 11 C 2.238281 11 0 8.761719 0 6 Z M 0 5 " transform="matrix(1,0,0,1,245,17)"/>
</g>
</g>
<g clip-path="url(#clip22)" clip-rule="nonzero">
<path style="fill:none;stroke-width:1;stroke-linecap:butt;stroke-linejoin:miter;stroke:rgb(38.039216%,50.588235%,100%);stroke-opacity:1;stroke-miterlimit:10;" d="M 0 5 C 0 2.238281 2.238281 0 5 0 L 31 0 C 33.761719 0 36 2.238281 36 5 L 36 6 C 36 8.761719 33.761719 11 31 11 L 5 11 C 2.238281 11 0 8.761719 0 6 Z M 0 5 " transform="matrix(1,0,0,1,245,21)"/>
</g>
<path style=" stroke:none;fill-rule:nonzero;fill:rgb(38.039216%,50.588235%,100%);fill-opacity:0.490196;" d="M 245 26 C 245 23.238281 247.238281 21 250 21 L 276 21 C 278.761719 21 281 23.238281 281 26 L 281 27 C 281 29.761719 278.761719 32 276 32 L 250 32 C 247.238281 32 245 29.761719 245 27 Z M 245 26 "/>
<g clip-path="url(#clip23)" clip-rule="nonzero">
<g clip-path="url(#clip24)" clip-rule="nonzero">
<path style="fill:none;stroke-width:1;stroke-linecap:butt;stroke-linejoin:miter;stroke:rgb(38.039216%,50.588235%,100%);stroke-opacity:1;stroke-miterlimit:10;" d="M 0 5 C 0 2.238281 2.238281 0 5 0 L 31 0 C 33.761719 0 36 2.238281 36 5 L 36 6 C 36 8.761719 33.761719 11 31 11 L 5 11 C 2.238281 11 0 8.761719 0 6 Z M 0 5 " transform="matrix(1,0,0,1,245,21)"/>
</g>
</g>
<g clip-path="url(#clip25)" clip-rule="nonzero">
<path style="fill:none;stroke-width:1;stroke-linecap:butt;stroke-linejoin:miter;stroke:rgb(38.039216%,50.588235%,100%);stroke-opacity:1;stroke-miterlimit:10;" d="M 0 5 C 0 2.238281 2.238281 0 5 0 L 31 0 C 33.761719 0 36 2.238281 36 5 L 36 17 C 36 19.761719 33.761719 22 31 22 L 5 22 C 2.238281 22 0 19.761719 0 17 Z M 0 5 " transform="matrix(1,0,0,1,23,75)"/>
</g>
<path style=" stroke:none;fill-rule:nonzero;fill:rgb(38.039216%,50.588235%,100%);fill-opacity:0.490196;" d="M 23 80 C 23 77.238281 25.238281 75 28 75 L 54 75 C 56.761719 75 59 77.238281 59 80 L 59 92 C 59 94.761719 56.761719 97 54 97 L 28 97 C 25.238281 97 23 94.761719 23 92 Z M 23 80 "/>
<g clip-path="url(#clip26)" clip-rule="nonzero">
<g clip-path="url(#clip27)" clip-rule="nonzero">
<path style="fill:none;stroke-width:1;stroke-linecap:butt;stroke-linejoin:miter;stroke:rgb(38.039216%,50.588235%,100%);stroke-opacity:1;stroke-miterlimit:10;" d="M 0 5 C 0 2.238281 2.238281 0 5 0 L 31 0 C 33.761719 0 36 2.238281 36 5 L 36 17 C 36 19.761719 33.761719 22 31 22 L 5 22 C 2.238281 22 0 19.761719 0 17 Z M 0 5 " transform="matrix(1,0,0,1,23,75)"/>
</g>
</g>
<g clip-path="url(#clip28)" clip-rule="nonzero">
<path style="fill:none;stroke-width:1;stroke-linecap:butt;stroke-linejoin:miter;stroke:rgb(38.039216%,50.588235%,100%);stroke-opacity:1;stroke-miterlimit:10;" d="M 0 5 C 0 2.238281 2.238281 0 5 0 L 31 0 C 33.761719 0 36 2.238281 36 5 L 36 17 C 36 19.761719 33.761719 22 31 22 L 5 22 C 2.238281 22 0 19.761719 0 17 Z M 0 5 " transform="matrix(1,0,0,1,23,75)"/>
</g>
<path style=" stroke:none;fill-rule:nonzero;fill:rgb(38.039216%,50.588235%,100%);fill-opacity:0.490196;" d="M 23 80 C 23 77.238281 25.238281 75 28 75 L 54 75 C 56.761719 75 59 77.238281 59 80 L 59 92 C 59 94.761719 56.761719 97 54 97 L 28 97 C 25.238281 97 23 94.761719 23 92 Z M 23 80 "/>
<g clip-path="url(#clip29)" clip-rule="nonzero">
<g clip-path="url(#clip30)" clip-rule="nonzero">
<path style="fill:none;stroke-width:1;stroke-linecap:butt;stroke-linejoin:miter;stroke:rgb(38.039216%,50.588235%,100%);stroke-opacity:1;stroke-miterlimit:10;" d="M 0 5 C 0 2.238281 2.238281 0 5 0 L 31 0 C 33.761719 0 36 2.238281 36 5 L 36 17 C 36 19.761719 33.761719 22 31 22 L 5 22 C 2.238281 22 0 19.761719 0 17 Z M 0 5 " transform="matrix(1,0,0,1,23,75)"/>
</g>
</g>
<g clip-path="url(#clip31)" clip-rule="nonzero">
<path style="fill:none;stroke-width:1;stroke-linecap:butt;stroke-linejoin:miter;stroke:rgb(38.039216%,50.588235%,100%);stroke-opacity:1;stroke-miterlimit:10;" d="M 0 5 C 0 2.238281 2.238281 0 5 0 L 15 0 C 17.761719 0 20 2.238281 20 5 L 20 17 C 20 19.761719 17.761719 22 15 22 L 5 22 C 2.238281 22 0 19.761719 0 17 Z M 0 5 " transform="matrix(1,0,0,1,97,75)"/>
</g>
<path style=" stroke:none;fill-rule:nonzero;fill:rgb(38.039216%,50.588235%,100%);fill-opacity:0.490196;" d="M 97 80 C 97 77.238281 99.238281 75 102 75 L 112 75 C 114.761719 75 117 77.238281 117 80 L 117 92 C 117 94.761719 114.761719 97 112 97 L 102 97 C 99.238281 97 97 94.761719 97 92 Z M 97 80 "/>
<g clip-path="url(#clip32)" clip-rule="nonzero">
<g clip-path="url(#clip33)" clip-rule="nonzero">
<path style="fill:none;stroke-width:1;stroke-linecap:butt;stroke-linejoin:miter;stroke:rgb(38.039216%,50.588235%,100%);stroke-opacity:1;stroke-miterlimit:10;" d="M 0 5 C 0 2.238281 2.238281 0 5 0 L 15 0 C 17.761719 0 20 2.238281 20 5 L 20 17 C 20 19.761719 17.761719 22 15 22 L 5 22 C 2.238281 22 0 19.761719 0 17 Z M 0 5 " transform="matrix(1,0,0,1,97,75)"/>
</g>
</g>
<g clip-path="url(#clip34)" clip-rule="nonzero">
<path style="fill:none;stroke-width:1;stroke-linecap:butt;stroke-linejoin:miter;stroke:rgb(38.039216%,50.588235%,100%);stroke-opacity:1;stroke-miterlimit:10;" d="M 0 5 C 0 2.238281 2.238281 0 5 0 L 15 0 C 17.761719 0 20 2.238281 20 5 L 20 17 C 20 19.761719 17.761719 22 15 22 L 5 22 C 2.238281 22 0 19.761719 0 17 Z M 0 5 " transform="matrix(1,0,0,1,97,75)"/>
</g>
<path style=" stroke:none;fill-rule:nonzero;fill:rgb(38.039216%,50.588235%,100%);fill-opacity:0.490196;" d="M 97 80 C 97 77.238281 99.238281 75 102 75 L 112 75 C 114.761719 75 117 77.238281 117 80 L 117 92 C 117 94.761719 114.761719 97 112 97 L 102 97 C 99.238281 97 97 94.761719 97 92 Z M 97 80 "/>
<g clip-path="url(#clip35)" clip-rule="nonzero">
<g clip-path="url(#clip36)" clip-rule="nonzero">
<path style="fill:none;stroke-width:1;stroke-linecap:butt;stroke-linejoin:miter;stroke:rgb(38.039216%,50.588235%,100%);stroke-opacity:1;stroke-miterlimit:10;" d="M 0 5 C 0 2.238281 2.238281 0 5 0 L 15 0 C 17.761719 0 20 2.238281 20 5 L 20 17 C 20 19.761719 17.761719 22 15 22 L 5 22 C 2.238281 22 0 19.761719 0 17 Z M 0 5 " transform="matrix(1,0,0,1,97,75)"/>
</g>
</g>
<g clip-path="url(#clip37)" clip-rule="nonzero">
<path style="fill:none;stroke-width:1;stroke-linecap:butt;stroke-linejoin:miter;stroke:rgb(38.039216%,50.588235%,100%);stroke-opacity:1;stroke-miterlimit:10;" d="M 0 5 C 0 2.238281 2.238281 0 5 0 L 27 0 C 29.761719 0 32 2.238281 32 5 L 32 17 C 32 19.761719 29.761719 22 27 22 L 5 22 C 2.238281 22 0 19.761719 0 17 Z M 0 5 " transform="matrix(1,0,0,1,171,75)"/>
</g>
<path style=" stroke:none;fill-rule:nonzero;fill:rgb(38.039216%,50.588235%,100%);fill-opacity:0.490196;" d="M 171 80 C 171 77.238281 173.238281 75 176 75 L 198 75 C 200.761719 75 203 77.238281 203 80 L 203 92 C 203 94.761719 200.761719 97 198 97 L 176 97 C 173.238281 97 171 94.761719 171 92 Z M 171 80 "/>
<g clip-path="url(#clip38)" clip-rule="nonzero">
<g clip-path="url(#clip39)" clip-rule="nonzero">
<path style="fill:none;stroke-width:1;stroke-linecap:butt;stroke-linejoin:miter;stroke:rgb(38.039216%,50.588235%,100%);stroke-opacity:1;stroke-miterlimit:10;" d="M 0 5 C 0 2.238281 2.238281 0 5 0 L 27 0 C 29.761719 0 32 2.238281 32 5 L 32 17 C 32 19.761719 29.761719 22 27 22 L 5 22 C 2.238281 22 0 19.761719 0 17 Z M 0 5 " transform="matrix(1,0,0,1,171,75)"/>
</g>
</g>
<g clip-path="url(#clip40)" clip-rule="nonzero">
<path style="fill:none;stroke-width:1;stroke-linecap:butt;stroke-linejoin:miter;stroke:rgb(38.039216%,50.588235%,100%);stroke-opacity:1;stroke-miterlimit:10;" d="M 0 5 C 0 2.238281 2.238281 0 5 0 L 27 0 C 29.761719 0 32 2.238281 32 5 L 32 17 C 32 19.761719 29.761719 22 27 22 L 5 22 C 2.238281 22 0 19.761719 0 17 Z M 0 5 " transform="matrix(1,0,0,1,159,75)"/>
</g>
<path style=" stroke:none;fill-rule:nonzero;fill:rgb(38.039216%,50.588235%,100%);fill-opacity:0.490196;" d="M 159 80 C 159 77.238281 161.238281 75 164 75 L 186 75 C 188.761719 75 191 77.238281 191 80 L 191 92 C 191 94.761719 188.761719 97 186 97 L 164 97 C 161.238281 97 159 94.761719 159 92 Z M 159 80 "/>
<g clip-path="url(#clip41)" clip-rule="nonzero">
<g clip-path="url(#clip42)" clip-rule="nonzero">
<path style="fill:none;stroke-width:1;stroke-linecap:butt;stroke-linejoin:miter;stroke:rgb(38.039216%,50.588235%,100%);stroke-opacity:1;stroke-miterlimit:10;" d="M 0 5 C 0 2.238281 2.238281 0 5 0 L 27 0 C 29.761719 0 32 2.238281 32 5 L 32 17 C 32 19.761719 29.761719 22 27 22 L 5 22 C 2.238281 22 0 19.761719 0 17 Z M 0 5 " transform="matrix(1,0,0,1,159,75)"/>
</g>
</g>
<g clip-path="url(#clip43)" clip-rule="nonzero">
<path style="fill:none;stroke-width:1;stroke-linecap:butt;stroke-linejoin:miter;stroke:rgb(38.039216%,50.588235%,100%);stroke-opacity:1;stroke-miterlimit:10;" d="M 0 5 C 0 2.238281 2.238281 0 5 0 L 27 0 C 29.761719 0 32 2.238281 32 5 L 32 6 C 32 8.761719 29.761719 11 27 11 L 5 11 C 2.238281 11 0 8.761719 0 6 Z M 0 5 " transform="matrix(1,0,0,1,245,75)"/>
</g>
<path style=" stroke:none;fill-rule:nonzero;fill:rgb(38.039216%,50.588235%,100%);fill-opacity:0.490196;" d="M 245 80 C 245 77.238281 247.238281 75 250 75 L 272 75 C 274.761719 75 277 77.238281 277 80 L 277 81 C 277 83.761719 274.761719 86 272 86 L 250 86 C 247.238281 86 245 83.761719 245 81 Z M 245 80 "/>
<g clip-path="url(#clip44)" clip-rule="nonzero">
<g clip-path="url(#clip45)" clip-rule="nonzero">
<path style="fill:none;stroke-width:1;stroke-linecap:butt;stroke-linejoin:miter;stroke:rgb(38.039216%,50.588235%,100%);stroke-opacity:1;stroke-miterlimit:10;" d="M 0 5 C 0 2.238281 2.238281 0 5 0 L 27 0 C 29.761719 0 32 2.238281 32 5 L 32 6 C 32 8.761719 29.761719 11 27 11 L 5 11 C 2.238281 11 0 8.761719 0 6 Z M 0 5 " transform="matrix(1,0,0,1,245,75)"/>
</g>
</g>
<g clip-path="url(#clip46)" clip-rule="nonzero">
<path style="fill:none;stroke-width:1;stroke-linecap:butt;stroke-linejoin:miter;stroke:rgb(38.039216%,50.588235%,100%);stroke-opacity:1;stroke-miterlimit:10;" d="M 0 5 C 0 2.238281 2.238281 0 5 0 L 27 0 C 29.761719 0 32 2.238281 32 5 L 32 6 C 32 8.761719 29.761719 11 27 11 L 5 11 C 2.238281 11 0 8.761719 0 6 Z M 0 5 " transform="matrix(1,0,0,1,233,75)"/>
</g>
<path style=" stroke:none;fill-rule:nonzero;fill:rgb(38.039216%,50.588235%,100%);fill-opacity:0.490196;" d="M 233 80 C 233 77.238281 235.238281 75 238 75 L 260 75 C 262.761719 75 265 77.238281 265 80 L 265 81 C 265 83.761719 262.761719 86 260 86 L 238 86 C 235.238281 86 233 83.761719 233 81 Z M 233 80 "/>
<g clip-path="url(#clip47)" clip-rule="nonzero">
<g clip-path="url(#clip48)" clip-rule="nonzero">
<path style="fill:none;stroke-width:1;stroke-linecap:butt;stroke-linejoin:miter;stroke:rgb(38.039216%,50.588235%,100%);stroke-opacity:1;stroke-miterlimit:10;" d="M 0 5 C 0 2.238281 2.238281 0 5 0 L 27 0 C 29.761719 0 32 2.238281 32 5 L 32 6 C 32 8.761719 29.761719 11 27 11 L 5 11 C 2.238281 11 0 8.761719 0 6 Z M 0 5 " transform="matrix(1,0,0,1,233,75)"/>
</g>
</g>
<g clip-path="url(#clip49)" clip-rule="nonzero">
<path style="fill:none;stroke-width:1;stroke-linecap:butt;stroke-linejoin:miter;stroke:rgb(38.039216%,50.588235%,100%);stroke-opacity:1;stroke-miterlimit:10;" d="M 0 5 C 0 2.238281 2.238281 0 5 0 L 29 0 C 31.761719 0 34 2.238281 34 5 L 34 15 C 34 17.761719 31.761719 20 29 20 L 5 20 C 2.238281 20 0 17.761719 0 15 Z M 0 5 " transform="matrix(1,0,0,1,11,127)"/>
</g>
<path style=" stroke:none;fill-rule:nonzero;fill:rgb(38.039216%,50.588235%,100%);fill-opacity:0.490196;" d="M 11 132 C 11 129.238281 13.238281 127 16 127 L 40 127 C 42.761719 127 45 129.238281 45 132 L 45 142 C 45 144.761719 42.761719 147 40 147 L 16 147 C 13.238281 147 11 144.761719 11 142 Z M 11 132 "/>
<g clip-path="url(#clip50)" clip-rule="nonzero">
<g clip-path="url(#clip51)" clip-rule="nonzero">
<path style="fill:none;stroke-width:1;stroke-linecap:butt;stroke-linejoin:miter;stroke:rgb(38.039216%,50.588235%,100%);stroke-opacity:1;stroke-miterlimit:10;" d="M 0 5 C 0 2.238281 2.238281 0 5 0 L 29 0 C 31.761719 0 34 2.238281 34 5 L 34 15 C 34 17.761719 31.761719 20 29 20 L 5 20 C 2.238281 20 0 17.761719 0 15 Z M 0 5 " transform="matrix(1,0,0,1,11,127)"/>
</g>
</g>
<g clip-path="url(#clip52)" clip-rule="nonzero">
<path style="fill:none;stroke-width:1;stroke-linecap:butt;stroke-linejoin:miter;stroke:rgb(38.039216%,50.588235%,100%);stroke-opacity:1;stroke-miterlimit:10;" d="M 0 5 C 0 2.238281 2.238281 0 5 0 L 29 0 C 31.761719 0 34 2.238281 34 5 L 34 15 C 34 17.761719 31.761719 20 29 20 L 5 20 C 2.238281 20 0 17.761719 0 15 Z M 0 5 " transform="matrix(1,0,0,1,21,135)"/>
</g>
<path style=" stroke:none;fill-rule:nonzero;fill:rgb(38.039216%,50.588235%,100%);fill-opacity:0.490196;" d="M 21 140 C 21 137.238281 23.238281 135 26 135 L 50 135 C 52.761719 135 55 137.238281 55 140 L 55 150 C 55 152.761719 52.761719 155 50 155 L 26 155 C 23.238281 155 21 152.761719 21 150 Z M 21 140 "/>
<g clip-path="url(#clip53)" clip-rule="nonzero">
<g clip-path="url(#clip54)" clip-rule="nonzero">
<path style="fill:none;stroke-width:1;stroke-linecap:butt;stroke-linejoin:miter;stroke:rgb(38.039216%,50.588235%,100%);stroke-opacity:1;stroke-miterlimit:10;" d="M 0 5 C 0 2.238281 2.238281 0 5 0 L 29 0 C 31.761719 0 34 2.238281 34 5 L 34 15 C 34 17.761719 31.761719 20 29 20 L 5 20 C 2.238281 20 0 17.761719 0 15 Z M 0 5 " transform="matrix(1,0,0,1,21,135)"/>
</g>
</g>
<g clip-path="url(#clip55)" clip-rule="nonzero">
<path style="fill:none;stroke-width:1;stroke-linecap:butt;stroke-linejoin:miter;stroke:rgb(38.039216%,50.588235%,100%);stroke-opacity:1;stroke-miterlimit:10;" d="M 0 5 C 0 2.238281 2.238281 0 5 0 L 39 0 C 41.761719 0 44 2.238281 44 5 L 44 15 C 44 17.761719 41.761719 20 39 20 L 5 20 C 2.238281 20 0 17.761719 0 15 Z M 0 5 " transform="matrix(1,0,0,1,85,127)"/>
</g>
<path style=" stroke:none;fill-rule:nonzero;fill:rgb(38.039216%,50.588235%,100%);fill-opacity:0.490196;" d="M 85 132 C 85 129.238281 87.238281 127 90 127 L 124 127 C 126.761719 127 129 129.238281 129 132 L 129 142 C 129 144.761719 126.761719 147 124 147 L 90 147 C 87.238281 147 85 144.761719 85 142 Z M 85 132 "/>
<g clip-path="url(#clip56)" clip-rule="nonzero">
<g clip-path="url(#clip57)" clip-rule="nonzero">
<path style="fill:none;stroke-width:1;stroke-linecap:butt;stroke-linejoin:miter;stroke:rgb(38.039216%,50.588235%,100%);stroke-opacity:1;stroke-miterlimit:10;" d="M 0 5 C 0 2.238281 2.238281 0 5 0 L 39 0 C 41.761719 0 44 2.238281 44 5 L 44 15 C 44 17.761719 41.761719 20 39 20 L 5 20 C 2.238281 20 0 17.761719 0 15 Z M 0 5 " transform="matrix(1,0,0,1,85,127)"/>
</g>
</g>
<g clip-path="url(#clip58)" clip-rule="nonzero">
<path style="fill:none;stroke-width:1;stroke-linecap:butt;stroke-linejoin:miter;stroke:rgb(38.039216%,50.588235%,100%);stroke-opacity:1;stroke-miterlimit:10;" d="M 0 5 C 0 2.238281 2.238281 0 5 0 L 39 0 C 41.761719 0 44 2.238281 44 5 L 44 15 C 44 17.761719 41.761719 20 39 20 L 5 20 C 2.238281 20 0 17.761719 0 15 Z M 0 5 " transform="matrix(1,0,0,1,85,135)"/>
</g>
<path style=" stroke:none;fill-rule:nonzero;fill:rgb(38.039216%,50.588235%,100%);fill-opacity:0.490196;" d="M 85 140 C 85 137.238281 87.238281 135 90 135 L 124 135 C 126.761719 135 129 137.238281 129 140 L 129 150 C 129 152.761719 126.761719 155 124 155 L 90 155 C 87.238281 155 85 152.761719 85 150 Z M 85 140 "/>
<g clip-path="url(#clip59)" clip-rule="nonzero">
<g clip-path="url(#clip60)" clip-rule="nonzero">
<path style="fill:none;stroke-width:1;stroke-linecap:butt;stroke-linejoin:miter;stroke:rgb(38.039216%,50.588235%,100%);stroke-opacity:1;stroke-miterlimit:10;" d="M 0 5 C 0 2.238281 2.238281 0 5 0 L 39 0 C 41.761719 0 44 2.238281 44 5 L 44 15 C 44 17.761719 41.761719 20 39 20 L 5 20 C 2.238281 20 0 17.761719 0 15 Z M 0 5 " transform="matrix(1,0,0,1,85,135)"/>
</g>
</g>
<g clip-path="url(#clip61)" clip-rule="nonzero">
<path style="fill:none;stroke-width:1;stroke-linecap:butt;stroke-linejoin:miter;stroke:rgb(38.039216%,50.588235%,100%);stroke-opacity:1;stroke-miterlimit:10;" d="M 0 5 C 0 2.238281 2.238281 0 5 0 L 27 0 C 29.761719 0 32 2.238281 32 5 L 32 15 C 32 17.761719 29.761719 20 27 20 L 5 20 C 2.238281 20 0 17.761719 0 15 Z M 0 5 " transform="matrix(1,0,0,1,159,127)"/>
</g>
<path style=" stroke:none;fill-rule:nonzero;fill:rgb(38.039216%,50.588235%,100%);fill-opacity:0.490196;" d="M 159 132 C 159 129.238281 161.238281 127 164 127 L 186 127 C 188.761719 127 191 129.238281 191 132 L 191 142 C 191 144.761719 188.761719 147 186 147 L 164 147 C 161.238281 147 159 144.761719 159 142 Z M 159 132 "/>
<g clip-path="url(#clip62)" clip-rule="nonzero">
<g clip-path="url(#clip63)" clip-rule="nonzero">
<path style="fill:none;stroke-width:1;stroke-linecap:butt;stroke-linejoin:miter;stroke:rgb(38.039216%,50.588235%,100%);stroke-opacity:1;stroke-miterlimit:10;" d="M 0 5 C 0 2.238281 2.238281 0 5 0 L 27 0 C 29.761719 0 32 2.238281 32 5 L 32 15 C 32 17.761719 29.761719 20 27 20 L 5 20 C 2.238281 20 0 17.761719 0 15 Z M 0 5 " transform="matrix(1,0,0,1,159,127)"/>
</g>
</g>
<g clip-path="url(#clip64)" clip-rule="nonzero">
<path style="fill:none;stroke-width:1;stroke-linecap:butt;stroke-linejoin:miter;stroke:rgb(38.039216%,50.588235%,100%);stroke-opacity:1;stroke-miterlimit:10;" d="M 0 5 C 0 2.238281 2.238281 0 5 0 L 27 0 C 29.761719 0 32 2.238281 32 5 L 32 15 C 32 17.761719 29.761719 20 27 20 L 5 20 C 2.238281 20 0 17.761719 0 15 Z M 0 5 " transform="matrix(1,0,0,1,159,135)"/>
</g>
<path style=" stroke:none;fill-rule:nonzero;fill:rgb(38.039216%,50.588235%,100%);fill-opacity:0.490196;" d="M 159 140 C 159 137.238281 161.238281 135 164 135 L 186 135 C 188.761719 135 191 137.238281 191 140 L 191 150 C 191 152.761719 188.761719 155 186 155 L 164 155 C 161.238281 155 159 152.761719 159 150 Z M 159 140 "/>
<g clip-path="url(#clip65)" clip-rule="nonzero">
<g clip-path="url(#clip66)" clip-rule="nonzero">
<path style="fill:none;stroke-width:1;stroke-linecap:butt;stroke-linejoin:miter;stroke:rgb(38.039216%,50.588235%,100%);stroke-opacity:1;stroke-miterlimit:10;" d="M 0 5 C 0 2.238281 2.238281 0 5 0 L 27 0 C 29.761719 0 32 2.238281 32 5 L 32 15 C 32 17.761719 29.761719 20 27 20 L 5 20 C 2.238281 20 0 17.761719 0 15 Z M 0 5 " transform="matrix(1,0,0,1,159,135)"/>
</g>
</g>
<g clip-path="url(#clip67)" clip-rule="nonzero">
<path style="fill:none;stroke-width:1;stroke-linecap:butt;stroke-linejoin:miter;stroke:rgb(38.039216%,50.588235%,100%);stroke-opacity:1;stroke-miterlimit:10;" d="M 0 5 C 0 2.238281 2.238281 0 5 0 L 27 0 C 29.761719 0 32 2.238281 32 5 L 32 23 C 32 25.761719 29.761719 28 27 28 L 5 28 C 2.238281 28 0 25.761719 0 23 Z M 0 5 " transform="matrix(1,0,0,1,233,127)"/>
</g>
<path style=" stroke:none;fill-rule:nonzero;fill:rgb(38.039216%,50.588235%,100%);fill-opacity:0.490196;" d="M 233 132 C 233 129.238281 235.238281 127 238 127 L 260 127 C 262.761719 127 265 129.238281 265 132 L 265 150 C 265 152.761719 262.761719 155 260 155 L 238 155 C 235.238281 155 233 152.761719 233 150 Z M 233 132 "/>
<g clip-path="url(#clip68)" clip-rule="nonzero">
<g clip-path="url(#clip69)" clip-rule="nonzero">
<path style="fill:none;stroke-width:1;stroke-linecap:butt;stroke-linejoin:miter;stroke:rgb(38.039216%,50.588235%,100%);stroke-opacity:1;stroke-miterlimit:10;" d="M 0 5 C 0 2.238281 2.238281 0 5 0 L 27 0 C 29.761719 0 32 2.238281 32 5 L 32 23 C 32 25.761719 29.761719 28 27 28 L 5 28 C 2.238281 28 0 25.761719 0 23 Z M 0 5 " transform="matrix(1,0,0,1,233,127)"/>
</g>
</g>
<g clip-path="url(#clip70)" clip-rule="nonzero">
<path style="fill:none;stroke-width:1;stroke-linecap:butt;stroke-linejoin:miter;stroke:rgb(38.039216%,50.588235%,100%);stroke-opacity:1;stroke-miterlimit:10;" d="M 0 5 C 0 2.238281 2.238281 0 5 0 L 27 0 C 29.761719 0 32 2.238281 32 5 L 32 23 C 32 25.761719 29.761719 28 27 28 L 5 28 C 2.238281 28 0 25.761719 0 23 Z M 0 5 " transform="matrix(1,0,0,1,233,127)"/>
</g>
<path style=" stroke:none;fill-rule:nonzero;fill:rgb(38.039216%,50.588235%,100%);fill-opacity:0.490196;" d="M 233 132 C 233 129.238281 235.238281 127 238 127 L 260 127 C 262.761719 127 265 129.238281 265 132 L 265 150 C 265 152.761719 262.761719 155 260 155 L 238 155 C 235.238281 155 233 152.761719 233 150 Z M 233 132 "/>
<g clip-path="url(#clip71)" clip-rule="nonzero">
<g clip-path="url(#clip72)" clip-rule="nonzero">
<path style="fill:none;stroke-width:1;stroke-linecap:butt;stroke-linejoin:miter;stroke:rgb(38.039216%,50.588235%,100%);stroke-opacity:1;stroke-miterlimit:10;" d="M 0 5 C 0 2.238281 2.238281 0 5 0 L 27 0 C 29.761719 0 32 2.238281 32 5 L 32 23 C 32 25.761719 29.761719 28 27 28 L 5 28 C 2.238281 28 0 25.761719 0 23 Z M 0 5 " transform="matrix(1,0,0,1,233,127)"/>
</g>
</g>
<g clip-path="url(#clip73)" clip-rule="nonzero">
<path style="fill:none;stroke-width:1;stroke-linecap:butt;stroke-linejoin:miter;stroke:rgb(38.039216%,50.588235%,100%);stroke-opacity:1;stroke-miterlimit:10;" d="M 0 5 C 0 2.238281 2.238281 0 5 0 L 27 0 C 29.761719 0 32 2.238281 32 5 L 32 17 C 32 19.761719 29.761719 22 27 22 L 5 22 C 2.238281 22 0 19.761719 0 17 Z M 0 5 " transform="matrix(1,0,0,1,11,185)"/>
</g>
<path style=" stroke:none;fill-rule:nonzero;fill:rgb(38.039216%,50.588235%,100%);fill-opacity:0.490196;" d="M 11 190 C 11 187.238281 13.238281 185 16 185 L 38 185 C 40.761719 185 43 187.238281 43 190 L 43 202 C 43 204.761719 40.761719 207 38 207 L 16 207 C 13.238281 207 11 204.761719 11 202 Z M 11 190 "/>
<g clip-path="url(#clip74)" clip-rule="nonzero">
<g clip-path="url(#clip75)" clip-rule="nonzero">
<path style="fill:none;stroke-width:1;stroke-linecap:butt;stroke-linejoin:miter;stroke:rgb(38.039216%,50.588235%,100%);stroke-opacity:1;stroke-miterlimit:10;" d="M 0 5 C 0 2.238281 2.238281 0 5 0 L 27 0 C 29.761719 0 32 2.238281 32 5 L 32 17 C 32 19.761719 29.761719 22 27 22 L 5 22 C 2.238281 22 0 19.761719 0 17 Z M 0 5 " transform="matrix(1,0,0,1,11,185)"/>
</g>
</g>
<g clip-path="url(#clip76)" clip-rule="nonzero">
<path style="fill:none;stroke-width:1;stroke-linecap:butt;stroke-linejoin:miter;stroke:rgb(38.039216%,50.588235%,100%);stroke-opacity:1;stroke-miterlimit:10;" d="M 0 5 C 0 2.238281 2.238281 0 5 0 L 27 0 C 29.761719 0 32 2.238281 32 5 L 32 17 C 32 19.761719 29.761719 22 27 22 L 5 22 C 2.238281 22 0 19.761719 0 17 Z M 0 5 " transform="matrix(1,0,0,1,11,185)"/>
</g>
<path style=" stroke:none;fill-rule:nonzero;fill:rgb(38.039216%,50.588235%,100%);fill-opacity:0.490196;" d="M 11 190 C 11 187.238281 13.238281 185 16 185 L 38 185 C 40.761719 185 43 187.238281 43 190 L 43 202 C 43 204.761719 40.761719 207 38 207 L 16 207 C 13.238281 207 11 204.761719 11 202 Z M 11 190 "/>
<g clip-path="url(#clip77)" clip-rule="nonzero">
<g clip-path="url(#clip78)" clip-rule="nonzero">
<path style="fill:none;stroke-width:1;stroke-linecap:butt;stroke-linejoin:miter;stroke:rgb(38.039216%,50.588235%,100%);stroke-opacity:1;stroke-miterlimit:10;" d="M 0 5 C 0 2.238281 2.238281 0 5 0 L 27 0 C 29.761719 0 32 2.238281 32 5 L 32 17 C 32 19.761719 29.761719 22 27 22 L 5 22 C 2.238281 22 0 19.761719 0 17 Z M 0 5 " transform="matrix(1,0,0,1,11,185)"/>
</g>
</g>
<g clip-path="url(#clip79)" clip-rule="nonzero">
<path style="fill:none;stroke-width:1;stroke-linecap:butt;stroke-linejoin:miter;stroke:rgb(38.039216%,50.588235%,100%);stroke-opacity:1;stroke-miterlimit:10;" d="M 0 5 C 0 2.238281 2.238281 0 5 0 L 39 0 C 41.761719 0 44 2.238281 44 5 L 44 17 C 44 19.761719 41.761719 22 39 22 L 5 22 C 2.238281 22 0 19.761719 0 17 Z M 0 5 " transform="matrix(1,0,0,1,85,185)"/>
</g>
<path style=" stroke:none;fill-rule:nonzero;fill:rgb(38.039216%,50.588235%,100%);fill-opacity:0.490196;" d="M 85 190 C 85 187.238281 87.238281 185 90 185 L 124 185 C 126.761719 185 129 187.238281 129 190 L 129 202 C 129 204.761719 126.761719 207 124 207 L 90 207 C 87.238281 207 85 204.761719 85 202 Z M 85 190 "/>
<g clip-path="url(#clip80)" clip-rule="nonzero">
<g clip-path="url(#clip81)" clip-rule="nonzero">
<path style="fill:none;stroke-width:1;stroke-linecap:butt;stroke-linejoin:miter;stroke:rgb(38.039216%,50.588235%,100%);stroke-opacity:1;stroke-miterlimit:10;" d="M 0 5 C 0 2.238281 2.238281 0 5 0 L 39 0 C 41.761719 0 44 2.238281 44 5 L 44 17 C 44 19.761719 41.761719 22 39 22 L 5 22 C 2.238281 22 0 19.761719 0 17 Z M 0 5 " transform="matrix(1,0,0,1,85,185)"/>
</g>
</g>
<g clip-path="url(#clip82)" clip-rule="nonzero">
<path style="fill:none;stroke-width:1;stroke-linecap:butt;stroke-linejoin:miter;stroke:rgb(38.039216%,50.588235%,100%);stroke-opacity:1;stroke-miterlimit:10;" d="M 0 5 C 0 2.238281 2.238281 0 5 0 L 39 0 C 41.761719 0 44 2.238281 44 5 L 44 17 C 44 19.761719 41.761719 22 39 22 L 5 22 C 2.238281 22 0 19.761719 0 17 Z M 0 5 " transform="matrix(1,0,0,1,85,185)"/>
</g>
<path style=" stroke:none;fill-rule:nonzero;fill:rgb(38.039216%,50.588235%,100%);fill-opacity:0.490196;" d="M 85 190 C 85 187.238281 87.238281 185 90 185 L 124 185 C 126.761719 185 129 187.238281 129 190 L 129 202 C 129 204.761719 126.761719 207 124 207 L 90 207 C 87.238281 207 85 204.761719 85 202 Z M 85 190 "/>
<g clip-path="url(#clip83)" clip-rule="nonzero">
<g clip-path="url(#clip84)" clip-rule="nonzero">
<path style="fill:none;stroke-width:1;stroke-linecap:butt;stroke-linejoin:miter;stroke:rgb(38.039216%,50.588235%,100%);stroke-opacity:1;stroke-miterlimit:10;" d="M 0 5 C 0 2.238281 2.238281 0 5 0 L 39 0 C 41.761719 0 44 2.238281 44 5 L 44 17 C 44 19.761719 41.761719 22 39 22 L 5 22 C 2.238281 22 0 19.761719 0 17 Z M 0 5 " transform="matrix(1,0,0,1,85,185)"/>
</g>
</g>
<g clip-path="url(#clip85)" clip-rule="nonzero">
<path style="fill:none;stroke-width:1;stroke-linecap:butt;stroke-linejoin:miter;stroke:rgb(38.039216%,50.588235%,100%);stroke-opacity:1;stroke-miterlimit:10;" d="M 0 5 C 0 2.238281 2.238281 0 5 0 L 29 0 C 31.761719 0 34 2.238281 34 5 L 34 17 C 34 19.761719 31.761719 22 29 22 L 5 22 C 2.238281 22 0 19.761719 0 17 Z M 0 5 " transform="matrix(1,0,0,1,159,185)"/>
</g>
<path style=" stroke:none;fill-rule:nonzero;fill:rgb(38.039216%,50.588235%,100%);fill-opacity:0.490196;" d="M 159 190 C 159 187.238281 161.238281 185 164 185 L 188 185 C 190.761719 185 193 187.238281 193 190 L 193 202 C 193 204.761719 190.761719 207 188 207 L 164 207 C 161.238281 207 159 204.761719 159 202 Z M 159 190 "/>
<g clip-path="url(#clip86)" clip-rule="nonzero">
<g clip-path="url(#clip87)" clip-rule="nonzero">
<path style="fill:none;stroke-width:1;stroke-linecap:butt;stroke-linejoin:miter;stroke:rgb(38.039216%,50.588235%,100%);stroke-opacity:1;stroke-miterlimit:10;" d="M 0 5 C 0 2.238281 2.238281 0 5 0 L 29 0 C 31.761719 0 34 2.238281 34 5 L 34 17 C 34 19.761719 31.761719 22 29 22 L 5 22 C 2.238281 22 0 19.761719 0 17 Z M 0 5 " transform="matrix(1,0,0,1,159,185)"/>
</g>
</g>
<g clip-path="url(#clip88)" clip-rule="nonzero">
<path style="fill:none;stroke-width:1;stroke-linecap:butt;stroke-linejoin:miter;stroke:rgb(38.039216%,50.588235%,100%);stroke-opacity:1;stroke-miterlimit:10;" d="M 0 5 C 0 2.238281 2.238281 0 5 0 L 29 0 C 31.761719 0 34 2.238281 34 5 L 34 17 C 34 19.761719 31.761719 22 29 22 L 5 22 C 2.238281 22 0 19.761719 0 17 Z M 0 5 " transform="matrix(1,0,0,1,169,185)"/>
</g>
<path style=" stroke:none;fill-rule:nonzero;fill:rgb(38.039216%,50.588235%,100%);fill-opacity:0.490196;" d="M 169 190 C 169 187.238281 171.238281 185 174 185 L 198 185 C 200.761719 185 203 187.238281 203 190 L 203 202 C 203 204.761719 200.761719 207 198 207 L 174 207 C 171.238281 207 169 204.761719 169 202 Z M 169 190 "/>
<g clip-path="url(#clip89)" clip-rule="nonzero">
<g clip-path="url(#clip90)" clip-rule="nonzero">
<path style="fill:none;stroke-width:1;stroke-linecap:butt;stroke-linejoin:miter;stroke:rgb(38.039216%,50.588235%,100%);stroke-opacity:1;stroke-miterlimit:10;" d="M 0 5 C 0 2.238281 2.238281 0 5 0 L 29 0 C 31.761719 0 34 2.238281 34 5 L 34 17 C 34 19.761719 31.761719 22 29 22 L 5 22 C 2.238281 22 0 19.761719 0 17 Z M 0 5 " transform="matrix(1,0,0,1,169,185)"/>
</g>
</g>
<g clip-path="url(#clip91)" clip-rule="nonzero">
<path style="fill:none;stroke-width:1;stroke-linecap:butt;stroke-linejoin:miter;stroke:rgb(38.039216%,50.588235%,100%);stroke-opacity:1;stroke-miterlimit:10;" d="M 0 5 C 0 2.238281 2.238281 0 5 0 L 17 0 C 19.761719 0 22 2.238281 22 5 L 22 9 C 22 11.761719 19.761719 14 17 14 L 5 14 C 2.238281 14 0 11.761719 0 9 Z M 0 5 " transform="matrix(1,0,0,1,233,185)"/>
</g>
<path style=" stroke:none;fill-rule:nonzero;fill:rgb(38.039216%,50.588235%,100%);fill-opacity:0.490196;" d="M 233 190 C 233 187.238281 235.238281 185 238 185 L 250 185 C 252.761719 185 255 187.238281 255 190 L 255 194 C 255 196.761719 252.761719 199 250 199 L 238 199 C 235.238281 199 233 196.761719 233 194 Z M 233 190 "/>
<g clip-path="url(#clip92)" clip-rule="nonzero">
<g clip-path="url(#clip93)" clip-rule="nonzero">
<path style="fill:none;stroke-width:1;stroke-linecap:butt;stroke-linejoin:miter;stroke:rgb(38.039216%,50.588235%,100%);stroke-opacity:1;stroke-miterlimit:10;" d="M 0 5 C 0 2.238281 2.238281 0 5 0 L 17 0 C 19.761719 0 22 2.238281 22 5 L 22 9 C 22 11.761719 19.761719 14 17 14 L 5 14 C 2.238281 14 0 11.761719 0 9 Z M 0 5 " transform="matrix(1,0,0,1,233,185)"/>
</g>
</g>
<g clip-path="url(#clip94)" clip-rule="nonzero">
<path style="fill:none;stroke-width:1;stroke-linecap:butt;stroke-linejoin:miter;stroke:rgb(38.039216%,50.588235%,100%);stroke-opacity:1;stroke-miterlimit:10;" d="M 0 5 C 0 2.238281 2.238281 0 5 0 L 17 0 C 19.761719 0 22 2.238281 22 5 L 22 9 C 22 11.761719 19.761719 14 17 14 L 5 14 C 2.238281 14 0 11.761719 0 9 Z M 0 5 " transform="matrix(1,0,0,1,255,199)"/>
</g>
<path style=" stroke:none;fill-rule:nonzero;fill:rgb(38.039216%,50.588235%,100%);fill-opacity:0.490196;" d="M 255 204 C 255 201.238281 257.238281 199 260 199 L 272 199 C 274.761719 199 277 201.238281 277 204 L 277 208 C 277 210.761719 274.761719 213 272 213 L 260 213 C 257.238281 213 255 210.761719 255 208 Z M 255 204 "/>
<g clip-path="url(#clip95)" clip-rule="nonzero">
<g clip-path="url(#clip96)" clip-rule="nonzero">
<path style="fill:none;stroke-width:1;stroke-linecap:butt;stroke-linejoin:miter;stroke:rgb(38.039216%,50.588235%,100%);stroke-opacity:1;stroke-miterlimit:10;" d="M 0 5 C 0 2.238281 2.238281 0 5 0 L 17 0 C 19.761719 0 22 2.238281 22 5 L 22 9 C 22 11.761719 19.761719 14 17 14 L 5 14 C 2.238281 14 0 11.761719 0 9 Z M 0 5 " transform="matrix(1,0,0,1,255,199)"/>
</g>
</g>
<path style=" stroke:none;fill-rule:nonzero;fill:rgb(100%,0%,0%);fill-opacity:1;" d="M 10 10 L 10 20 L 13 18 L 16 22 L 18 22 L 15 18 L 19 18 Z M 10 10 "/>
<path style=" stroke:none;fill-rule:nonzero;fill:rgb(100%,0%,0%);fill-opacity:1;" d="M 106 10 L 106 20 L 109 18 L 112 22 L 114 22 L 111 18 L 115 18 Z M 106 10 "/>
<path style=" stroke:none;fill-rule:nonzero;fill:rgb(100%,0%,0%);fill-opacity:1;" d="M 208 10 L 208 20 L 211 18 L 214 22 L 216 22 L 213 18 L 217 18 Z M 208 10 "/>
<path style=" stroke:none;fill-rule:nonzero;fill:rgb(100%,0%,0%);fill-opacity:1;" d="M 282 20 L 282 30 L 285 28 L 288 32 L 290 32 L 287 28 L 291 28 Z M 282 20 "/>
<path style=" stroke:none;fill-rule:nonzero;fill:rgb(100%,0%,0%);fill-opacity:1;" d="M 60 98 L 60 108 L 63 106 L 66 110 L 68 110 L 65 106 L 69 106 Z M 60 98 "/>
<path style=" stroke:none;fill-rule:nonzero;fill:rgb(100%,0%,0%);fill-opacity:1;" d="M 106 98 L 106 108 L 109 106 L 112 110 L 114 110 L 111 106 L 115 106 Z M 106 98 "/>
<path style=" stroke:none;fill-rule:nonzero;fill:rgb(100%,0%,0%);fill-opacity:1;" d="M 158 98 L 158 108 L 161 106 L 164 110 L 166 110 L 163 106 L 167 106 Z M 158 98 "/>
<path style=" stroke:none;fill-rule:nonzero;fill:rgb(100%,0%,0%);fill-opacity:1;" d="M 232 87 L 232 97 L 235 95 L 238 99 L 240 99 L 237 95 L 241 95 Z M 232 87 "/>
<path style=" stroke:none;fill-rule:nonzero;fill:rgb(100%,0%,0%);fill-opacity:1;" d="M 20 134 L 20 144 L 23 142 L 26 146 L 28 146 L 25 142 L 29 142 Z M 20 134 "/>
<path style=" stroke:none;fill-rule:nonzero;fill:rgb(100%,0%,0%);fill-opacity:1;" d="M 106 134 L 106 144 L 109 142 L 112 146 L 114 146 L 111 142 L 115 142 Z M 106 134 "/>
<path style=" stroke:none;fill-rule:nonzero;fill:rgb(100%,0%,0%);fill-opacity:1;" d="M 192 134 L 192 144 L 195 142 L 198 146 L 200 146 L 197 142 L 201 142 Z M 192 134 "/>
<path style=" stroke:none;fill-rule:nonzero;fill:rgb(100%,0%,0%);fill-opacity:1;" d="M 266 140 L 266 150 L 269 148 L 272 152 L 274 152 L 271 148 L 275 148 Z M 266 140 "/>
<path style=" stroke:none;fill-rule:nonzero;fill:rgb(100%,0%,0%);fill-opacity:1;" d="M 44 208 L 44 218 L 47 216 L 50 220 L 52 220 L 49 216 L 53 216 Z M 44 208 "/>
<path style=" stroke:none;fill-rule:nonzero;fill:rgb(100%,0%,0%);fill-opacity:1;" d="M 106 208 L 106 218 L 109 216 L 112 220 L 114 220 L 111 216 L 115 216 Z M 106 208 "/>
<path style=" stroke:none;fill-rule:nonzero;fill:rgb(100%,0%,0%);fill-opacity:1;" d="M 168 208 L 168 218 L 171 216 L 174 220 L 176 220 L 173 216 L 177 216 Z M 168 208 "/>
<path style=" stroke:none;fill-rule:nonzero;fill:rgb(100%,0%,0%);fill-opacity:1;" d="M 254 198 L 254 208 L 257 206 L 260 210 L 262 210 L 259 206 L 263 206 Z M 254 198 "/>
</g>
</svg>
