<?xml version="1.0" encoding="UTF-8"?>
<svg xmlns="http://www.w3.org/2000/svg" xmlns:xlink="http://www.w3.org/1999/xlink" width="268pt" height="206pt" viewBox="0 0 268 206" version="1.1">
<defs>
<clipPath id="clip1">
  <path d="M 20 20 L 97 20 L 97 94 L 20 94 Z M 20 20 "/>
</clipPath>
<clipPath id="clip2">
  <path d="M 21 21 L 96 21 L 96 93 L 21 93 Z M 21 21 "/>
</clipPath>
<clipPath id="clip3">
  <path d="M 21 26 C 21 23.238281 23.238281 21 26 21 L 91 21 C 93.761719 21 96 23.238281 96 26 L 96 88 C 96 90.761719 93.761719 93 91 93 L 26 93 C 23.238281 93 21 90.761719 21 88 Z M 21 26 "/>
</clipPath>
<clipPath id="clip4">
  <path d="M 20 0 L 97 0 L 97 74 L 20 74 Z M 20 0 "/>
</clipPath>
<clipPath id="clip5">
  <path d="M 21 1 L 96 1 L 96 73 L 21 73 Z M 21 1 "/>
</clipPath>
<clipPath id="clip6">
  <path d="M 21 6 C 21 3.238281 23.238281 1 26 1 L 91 1 C 93.761719 1 96 3.238281 96 6 L 96 68 C 96 70.761719 93.761719 73 91 73 L 26 73 C 23.238281 73 21 70.761719 21 68 Z M 21 6 "/>
</clipPath>
<clipPath id="clip7">
  <path d="M 160 20 L 237 20 L 237 96 L 160 96 Z M 160 20 "/>
</clipPath>
<clipPath id="clip8">
  <path d="M 161 21 L 236 21 L 236 95 L 161 95 Z M 161 21 "/>
</clipPath>
<clipPath id="clip9">
  <path d="M 161 26 C 161 23.238281 163.238281 21 166 21 L 231 21 C 233.761719 21 236 23.238281 236 26 L 236 90 C 236 92.761719 233.761719 95 231 95 L 166 95 C 163.238281 95 161 92.761719 161 90 Z M 161 26 "/>
</clipPath>
<clipPath id="clip10">
  <path d="M 160 20 L 237 20 L 237 96 L 160 96 Z M 160 20 "/>
</clipPath>
<clipPath id="clip11">
  <path d="M 161 21 L 236 21 L 236 95 L 161 95 Z M 161 21 "/>
</clipPath>
<clipPath id="clip12">
  <path d="M 161 26 C 161 23.238281 163.238281 21 166 21 L 231 21 C 233.761719 21 236 23.238281 236 26 L 236 90 C 236 92.761719 233.761719 95 231 95 L 166 95 C 163.238281 95 161 92.761719 161 90 Z M 161 26 "/>
</clipPath>
<clipPath id="clip13">
  <path d="M 20 130 L 119 130 L 119 182 L 20 182 Z M 20 130 "/>
</clipPath>
<clipPath id="clip14">
  <path d="M 21 131 L 118 131 L 118 181 L 21 181 Z M 21 131 "/>
</clipPath>
<clipPath id="clip15">
  <path d="M 21 136 C 21 133.238281 23.238281 131 26 131 L 113 131 C 115.761719 131 118 133.238281 118 136 L 118 176 C 118 178.761719 115.761719 181 113 181 L 26 181 C 23.238281 181 21 178.761719 21 176 Z M 21 136 "/>
</clipPath>
<clipPath id="clip16">
  <path d="M 0 130 L 99 130 L 99 182 L 0 182 Z M 0 130 "/>
</clipPath>
<clipPath id="clip17">
  <path d="M 1 131 L 98 131 L 98 181 L 1 181 Z M 1 131 "/>
</clipPath>
<clipPath id="clip18">
  <path d="M 1 136 C 1 133.238281 3.238281 131 6 131 L 93 131 C 95.761719 131 98 133.238281 98 136 L 98 176 C 98 178.761719 95.761719 181 93 181 L 6 181 C 3.238281 181 1 178.761719 1 176 Z M 1 136 "/>
</clipPath>
<clipPath id="clip19">
  <path d="M 160 130 L 163 130 L 163 182 L 160 182 Z M 160 130 "/>
</clipPath>
<clipPath id="clip20">
  <path d="M 161 131 L 162 131 L 162 181 L 161 181 Z M 161 131 "/>
</clipPath>
<clipPath id="clip21">
  <path d="M 161 131.5 C 161 131.222656 161.222656 131 161.5 131 C 161.777344 131 162 131.222656 162 131.5 L 162 180.5 C 162 180.777344 161.777344 181 161.5 181 C 161.222656 181 161 180.777344 161 180.5 Z M 161 131.5 "/>
</clipPath>
<clipPath id="clip22">
  <path d="M 160 130 L 163 130 L 163 182 L 160 182 Z M 160 130 "/>
</clipPath>
<clipPath id="clip23">
  <path d="M 161 131 L 162 131 L 162 181 L 161 181 Z M 161 131 "/>
</clipPath>
<clipPath id="clip24">
  <path d="M 161 131.5 C 161 131.222656 161.222656 131 161.5 131 C 161.777344 131 162 131.222656 162 131.5 L 162 180.5 C 162 180.777344 161.777344 181 161.5 181 C 161.222656 181 161 180.777344 161 180.5 Z M 161 131.5 "/>
</clipPath>
</defs>
<g id="surface2">
<path style="fill:none;stroke-width:1.5;stroke-linecap:butt;stroke-linejoin:miter;stroke:rgb(0%,0%,0%);stroke-opacity:0.266667;stroke-dasharray:10,4;stroke-dashoffset:1;stroke-miterlimit:10;" d="M 0.75 0.75 L 127.25 0.75 L 127.25 95.25 L 0.75 95.25 Z M 0.75 0.75 "/>
<path style="fill:none;stroke-width:1.5;stroke-linecap:butt;stroke-linejoin:miter;stroke:rgb(0%,0%,0%);stroke-opacity:0.2;stroke-dasharray:10,4;stroke-dashoffset:1;stroke-miterlimit:10;" d="M 10 10 L 118 10 L 118 86 L 10 86 Z M 10 10 "/>
<path style="fill:none;stroke-width:1.5;stroke-linecap:butt;stroke-linejoin:miter;stroke:rgb(0%,0%,0%);stroke-opacity:0.266667;stroke-dasharray:10,4;stroke-dashoffset:1;stroke-miterlimit:10;" d="M 140.75 0.75 L 267.25 0.75 L 267.25 95.25 L 140.75 95.25 Z M 140.75 0.75 "/>
<path style="fill:none;stroke-width:1.5;stroke-linecap:butt;stroke-linejoin:miter;stroke:rgb(0%,0%,0%);stroke-opacity:0.2;stroke-dasharray:10,4;stroke-dashoffset:1;stroke-miterlimit:10;" d="M 150 10 L 258 10 L 258 86 L 150 86 Z M 150 10 "/>
<path style="fill:none;stroke-width:1.5;stroke-linecap:butt;stroke-linejoin:miter;stroke:rgb(0%,0%,0%);stroke-opacity:0.266667;stroke-dasharray:10,4;stroke-dashoffset:1;stroke-miterlimit:10;" d="M 0.75 110.75 L 127.25 110.75 L 127.25 205.25 L 0.75 205.25 Z M 0.75 110.75 "/>
<path style="fill:none;stroke-width:1.5;stroke-linecap:butt;stroke-linejoin:miter;stroke:rgb(0%,0%,0%);stroke-opacity:0.2;stroke-dasharray:10,4;stroke-dashoffset:1;stroke-miterlimit:10;" d="M 10 120 L 118 120 L 118 196 L 10 196 Z M 10 120 "/>
<path style="fill:none;stroke-width:1.5;stroke-linecap:butt;stroke-linejoin:miter;stroke:rgb(0%,0%,0%);stroke-opacity:0.266667;stroke-dasharray:10,4;stroke-dashoffset:1;stroke-miterlimit:10;" d="M 140.75 110.75 L 267.25 110.75 L 267.25 205.25 L 140.75 205.25 Z M 140.75 110.75 "/>
<path style="fill:none;stroke-width:1.5;stroke-linecap:butt;stroke-linejoin:miter;stroke:rgb(0%,0%,0%);stroke-opacity:0.2;stroke-dasharray:10,4;stroke-dashoffset:1;stroke-miterlimit:10;" d="M 150 120 L 258 120 L 258 196 L 150 196 Z M 150 120 "/>
<path style="fill:none;stroke-width:0.75;stroke-linecap:butt;stroke-linejoin:miter;stroke:rgb(0%,0%,0%);stroke-opacity:0.1;stroke-miterlimit:10;" d="M 20 20 L 20 0 "/>
<path style="fill:none;stroke-width:0.75;stroke-linecap:butt;stroke-linejoin:miter;stroke:rgb(0%,0%,0%);stroke-opacity:0.1;stroke-miterlimit:10;" d="M 95 20 L 95 0 M 20 70 L 20 72 "/>
<path style="fill:none;stroke-width:0.75;stroke-linecap:butt;stroke-linejoin:miter;stroke:rgb(0%,0%,0%);stroke-opacity:0.1;stroke-miterlimit:10;" d="M 95 70 L 95 72 "/>
<path style="fill:none;stroke-width:0.75;stroke-linecap:butt;stroke-linejoin:miter;stroke:rgb(0%,0%,0%);stroke-opacity:0.1;stroke-miterlimit:10;" d="M 160 20 L 160 20 "/>
<path style="fill:none;stroke-width:0.75;stroke-linecap:butt;stroke-linejoin:miter;stroke:rgb(0%,0%,0%);stroke-opacity:0.1;stroke-miterlimit:10;" d="M 235 20 L 235 20 M 160 70 L 160 94 "/>
<path style="fill:none;stroke-width:0.75;stroke-linecap:butt;stroke-linejoin:miter;stroke:rgb(0%,0%,0%);stroke-opacity:0.1;stroke-miterlimit:10;" d="M 235 70 L 235 94 "/>
<path style="fill:none;stroke-width:0.75;stroke-linecap:butt;stroke-linejoin:miter;stroke:rgb(0%,0%,0%);stroke-opacity:0.1;stroke-miterlimit:10;" d="M 20 130 L 0 130 "/>
<path style="fill:none;stroke-width:0.75;stroke-linecap:butt;stroke-linejoin:miter;stroke:rgb(0%,0%,0%);stroke-opacity:0.1;stroke-miterlimit:10;" d="M 95 130 L 75 130 M 20 180 L 0 180 "/>
<path style="fill:none;stroke-width:0.75;stroke-linecap:butt;stroke-linejoin:miter;stroke:rgb(0%,0%,0%);stroke-opacity:0.1;stroke-miterlimit:10;" d="M 95 180 L 75 180 "/>
<path style="fill:none;stroke-width:0.75;stroke-linecap:butt;stroke-linejoin:miter;stroke:rgb(0%,0%,0%);stroke-opacity:0.1;stroke-miterlimit:10;" d="M 160 130 L 160 130 "/>
<path style="fill:none;stroke-width:0.75;stroke-linecap:butt;stroke-linejoin:miter;stroke:rgb(0%,0%,0%);stroke-opacity:0.1;stroke-miterlimit:10;" d="M 235 130 L 235 130 M 160 180 L 160 180 "/>
<path style="fill:none;stroke-width:0.75;stroke-linecap:butt;stroke-linejoin:miter;stroke:rgb(0%,0%,0%);stroke-opacity:0.1;stroke-miterlimit:10;" d="M 235 180 L 235 180 "/>
<g clip-path="url(#clip1)" clip-rule="nonzero">
<path style="fill:none;stroke-width:1;stroke-linecap:butt;stroke-linejoin:miter;stroke:rgb(38.039216%,50.588235%,100%);stroke-opacity:1;stroke-miterlimit:10;" d="M 0 5 C 0 2.238281 2.238281 0 5 0 L 70 0 C 72.761719 0 75 2.238281 75 5 L 75 67 C 75 69.761719 72.761719 72 70 72 L 5 72 C 2.238281 72 0 69.761719 0 67 Z M 0 5 " transform="matrix(1,0,0,1,21,21)"/>
</g>
<path style=" stroke:none;fill-rule:nonzero;fill:rgb(38.039216%,50.588235%,100%);fill-opacity:0.490196;" d="M 21 26 C 21 23.238281 23.238281 21 26 21 L 91 21 C 93.761719 21 96 23.238281 96 26 L 96 88 C 96 90.761719 93.761719 93 91 93 L 26 93 C 23.238281 93 21 90.761719 21 88 Z M 21 26 "/>
<g clip-path="url(#clip2)" clip-rule="nonzero">
<g clip-path="url(#clip3)" clip-rule="nonzero">
<path style="fill:none;stroke-width:1;stroke-linecap:butt;stroke-linejoin:miter;stroke:rgb(38.039216%,50.588235%,100%);stroke-opacity:1;stroke-miterlimit:10;" d="M 0 5 C 0 2.238281 2.238281 0 5 0 L 70 0 C 72.761719 0 75 2.238281 75 5 L 75 67 C 75 69.761719 72.761719 72 70 72 L 5 72 C 2.238281 72 0 69.761719 0 67 Z M 0 5 " transform="matrix(1,0,0,1,21,21)"/>
</g>
</g>
<g clip-path="url(#clip4)" clip-rule="nonzero">
<path style="fill:none;stroke-width:1;stroke-linecap:butt;stroke-linejoin:miter;stroke:rgb(38.039216%,50.588235%,100%);stroke-opacity:1;stroke-miterlimit:10;" d="M 0 5 C 0 2.238281 2.238281 0 5 0 L 70 0 C 72.761719 0 75 2.238281 75 5 L 75 67 C 75 69.761719 72.761719 72 70 72 L 5 72 C 2.238281 72 0 69.761719 0 67 Z M 0 5 " transform="matrix(1,0,0,1,21,1)"/>
</g>
<path style=" stroke:none;fill-rule:nonzero;fill:rgb(38.039216%,50.588235%,100%);fill-opacity:0.490196;" d="M 21 6 C 21 3.238281 23.238281 1 26 1 L 91 1 C 93.761719 1 96 3.238281 96 6 L 96 68 C 96 70.761719 93.761719 73 91 73 L 26 73 C 23.238281 73 21 70.761719 21 68 Z M 21 6 "/>
<g clip-path="url(#clip5)" clip-rule="nonzero">
<g clip-path="url(#clip6)" clip-rule="nonzero">
<path style="fill:none;stroke-width:1;stroke-linecap:butt;stroke-linejoin:miter;stroke:rgb(38.039216%,50.588235%,100%);stroke-opacity:1;stroke-miterlimit:10;" d="M 0 5 C 0 2.238281 2.238281 0 5 0 L 70 0 C 72.761719 0 75 2.238281 75 5 L 75 67 C 75 69.761719 72.761719 72 70 72 L 5 72 C 2.238281 72 0 69.761719 0 67 Z M 0 5 " transform="matrix(1,0,0,1,21,1)"/>
</g>
</g>
<g clip-path="url(#clip7)" clip-rule="nonzero">
<path style="fill:none;stroke-width:1;stroke-linecap:butt;stroke-linejoin:miter;stroke:rgb(38.039216%,50.588235%,100%);stroke-opacity:1;stroke-miterlimit:10;" d="M 0 5 C 0 2.238281 2.238281 0 5 0 L 70 0 C 72.761719 0 75 2.238281 75 5 L 75 69 C 75 71.761719 72.761719 74 70 74 L 5 74 C 2.238281 74 0 71.761719 0 69 Z M 0 5 " transform="matrix(1,0,0,1,161,21)"/>
</g>
<path style=" stroke:none;fill-rule:nonzero;fill:rgb(38.039216%,50.588235%,100%);fill-opacity:0.490196;" d="M 161 26 C 161 23.238281 163.238281 21 166 21 L 231 21 C 233.761719 21 236 23.238281 236 26 L 236 90 C 236 92.761719 233.761719 95 231 95 L 166 95 C 163.238281 95 161 92.761719 161 90 Z M 161 26 "/>
<g clip-path="url(#clip8)" clip-rule="nonzero">
<g clip-path="url(#clip9)" clip-rule="nonzero">
<path style="fill:none;stroke-width:1;stroke-linecap:butt;stroke-linejoin:miter;stroke:rgb(38.039216%,50.588235%,100%);stroke-opacity:1;stroke-miterlimit:10;" d="M 0 5 C 0 2.238281 2.238281 0 5 0 L 70 0 C 72.761719 0 75 2.238281 75 5 L 75 69 C 75 71.761719 72.761719 74 70 74 L 5 74 C 2.238281 74 0 71.761719 0 69 Z M 0 5 " transform="matrix(1,0,0,1,161,21)"/>
</g>
</g>
<g clip-path="url(#clip10)" clip-rule="nonzero">
<path style="fill:none;stroke-width:1;stroke-linecap:butt;stroke-linejoin:miter;stroke:rgb(38.039216%,50.588235%,100%);stroke-opacity:1;stroke-miterlimit:10;" d="M 0 5 C 0 2.238281 2.238281 0 5 0 L 70 0 C 72.761719 0 75 2.238281 75 5 L 75 69 C 75 71.761719 72.761719 74 70 74 L 5 74 C 2.238281 74 0 71.761719 0 69 Z M 0 5 " transform="matrix(1,0,0,1,161,21)"/>
</g>
<path style=" stroke:none;fill-rule:nonzero;fill:rgb(38.039216%,50.588235%,100%);fill-opacity:0.490196;" d="M 161 26 C 161 23.238281 163.238281 21 166 21 L 231 21 C 233.761719 21 236 23.238281 236 26 L 236 90 C 236 92.761719 233.761719 95 231 95 L 166 95 C 163.238281 95 161 92.761719 161 90 Z M 161 26 "/>
<g clip-path="url(#clip11)" clip-rule="nonzero">
<g clip-path="url(#clip12)" clip-rule="nonzero">
<path style="fill:none;stroke-width:1;stroke-linecap:butt;stroke-linejoin:miter;stroke:rgb(38.039216%,50.588235%,100%);stroke-opacity:1;stroke-miterlimit:10;" d="M 0 5 C 0 2.238281 2.238281 0 5 0 L 70 0 C 72.761719 0 75 2.238281 75 5 L 75 69 C 75 71.761719 72.761719 74 70 74 L 5 74 C 2.238281 74 0 71.761719 0 69 Z M 0 5 " transform="matrix(1,0,0,1,161,21)"/>
</g>
</g>
<g clip-path="url(#clip13)" clip-rule="nonzero">
<path style="fill:none;stroke-width:1;stroke-linecap:butt;stroke-linejoin:miter;stroke:rgb(38.039216%,50.588235%,100%);stroke-opacity:1;stroke-miterlimit:10;" d="M 0 5 C 0 2.238281 2.238281 0 5 0 L 92 0 C 94.761719 0 97 2.238281 97 5 L 97 45 C 97 47.761719 94.761719 50 92 50 L 5 50 C 2.238281 50 0 47.761719 0 45 Z M 0 5 " transform="matrix(1,0,0,1,21,131)"/>
</g>
<path style=" stroke:none;fill-rule:nonzero;fill:rgb(38.039216%,50.588235%,100%);fill-opacity:0.490196;" d="M 21 136 C 21 133.238281 23.238281 131 26 131 L 113 131 C 115.761719 131 118 133.238281 118 136 L 118 176 C 118 178.761719 115.761719 181 113 181 L 26 181 C 23.238281 181 21 178.761719 21 176 Z M 21 136 "/>
<g clip-path="url(#clip14)" clip-rule="nonzero">
<g clip-path="url(#clip15)" clip-rule="nonzero">
<path style="fill:none;stroke-width:1;stroke-linecap:butt;stroke-linejoin:miter;stroke:rgb(38.039216%,50.588235%,100%);stroke-opacity:1;stroke-miterlimit:10;" d="M 0 5 C 0 2.238281 2.238281 0 5 0 L 92 0 C 94.761719 0 97 2.238281 97 5 L 97 45 C 97 47.761719 94.761719 50 92 50 L 5 50 C 2.238281 50 0 47.761719 0 45 Z M 0 5 " transform="matrix(1,0,0,1,21,131)"/>
</g>
</g>
<g clip-path="url(#clip16)" clip-rule="nonzero">
<path style="fill:none;stroke-width:1;stroke-linecap:butt;stroke-linejoin:miter;stroke:rgb(38.039216%,50.588235%,100%);stroke-opacity:1;stroke-miterlimit:10;" d="M 0 5 C 0 2.238281 2.238281 0 5 0 L 92 0 C 94.761719 0 97 2.238281 97 5 L 97 45 C 97 47.761719 94.761719 50 92 50 L 5 50 C 2.238281 50 0 47.761719 0 45 Z M 0 5 " transform="matrix(1,0,0,1,1,131)"/>
</g>
<path style=" stroke:none;fill-rule:nonzero;fill:rgb(38.039216%,50.588235%,100%);fill-opacity:0.490196;" d="M 1 136 C 1 133.238281 3.238281 131 6 131 L 93 131 C 95.761719 131 98 133.238281 98 136 L 98 176 C 98 178.761719 95.761719 181 93 181 L 6 181 C 3.238281 181 1 178.761719 1 176 Z M 1 136 "/>
<g clip-path="url(#clip17)" clip-rule="nonzero">
<g clip-path="url(#clip18)" clip-rule="nonzero">
<path style="fill:none;stroke-width:1;stroke-linecap:butt;stroke-linejoin:miter;stroke:rgb(38.039216%,50.588235%,100%);stroke-opacity:1;stroke-miterlimit:10;" d="M 0 5 C 0 2.238281 2.238281 0 5 0 L 92 0 C 94.761719 0 97 2.238281 97 5 L 97 45 C 97 47.761719 94.761719 50 92 50 L 5 50 C 2.238281 50 0 47.761719 0 45 Z M 0 5 " transform="matrix(1,0,0,1,1,131)"/>
</g>
</g>
<g clip-path="url(#clip19)" clip-rule="nonzero">
<path style="fill:none;stroke-width:1;stroke-linecap:butt;stroke-linejoin:miter;stroke:rgb(38.039216%,50.588235%,100%);stroke-opacity:1;stroke-miterlimit:10;" d="M 0 0.5 C 0 0.222656 0.222656 0 0.5 0 C 0.777344 0 1 0.222656 1 0.5 L 1 49.5 C 1 49.777344 0.777344 50 0.5 50 C 0.222656 50 0 49.777344 0 49.5 Z M 0 0.5 " transform="matrix(1,0,0,1,161,131)"/>
</g>
<path style=" stroke:none;fill-rule:nonzero;fill:rgb(38.039216%,50.588235%,100%);fill-opacity:0.490196;" d="M 161 131.5 C 161 131.222656 161.222656 131 161.5 131 C 161.777344 131 162 131.222656 162 131.5 L 162 180.5 C 162 180.777344 161.777344 181 161.5 181 C 161.222656 181 161 180.777344 161 180.5 Z M 161 131.5 "/>
<g clip-path="url(#clip20)" clip-rule="nonzero">
<g clip-path="url(#clip21)" clip-rule="nonzero">
<path style="fill:none;stroke-width:1;stroke-linecap:butt;stroke-linejoin:miter;stroke:rgb(38.039216%,50.588235%,100%);stroke-opacity:1;stroke-miterlimit:10;" d="M 0 0.5 C 0 0.222656 0.222656 0 0.5 0 C 0.777344 0 1 0.222656 1 0.5 L 1 49.5 C 1 49.777344 0.777344 50 0.5 50 C 0.222656 50 0 49.777344 0 49.5 Z M 0 0.5 " transform="matrix(1,0,0,1,161,131)"/>
</g>
</g>
<g clip-path="url(#clip22)" clip-rule="nonzero">
<path style="fill:none;stroke-width:1;stroke-linecap:butt;stroke-linejoin:miter;stroke:rgb(38.039216%,50.588235%,100%);stroke-opacity:1;stroke-miterlimit:10;" d="M 0 0.5 C 0 0.222656 0.222656 0 0.5 0 C 0.777344 0 1 0.222656 1 0.5 L 1 49.5 C 1 49.777344 0.777344 50 0.5 50 C 0.222656 50 0 49.777344 0 49.5 Z M 0 0.5 " transform="matrix(1,0,0,1,161,131)"/>
</g>
<path style=" stroke:none;fill-rule:nonzero;fill:rgb(38.039216%,50.588235%,100%);fill-opacity:0.490196;" d="M 161 131.5 C 161 131.222656 161.222656 131 161.5 131 C 161.777344 131 162 131.222656 162 131.5 L 162 180.5 C 162 180.777344 161.777344 181 161.5 181 C 161.222656 181 161 180.777344 161 180.5 Z M 161 131.5 "/>
<g clip-path="url(#clip23)" clip-rule="nonzero">
<g clip-path="url(#clip24)" clip-rule="nonzero">
<path style="fill:none;stroke-width:1;stroke-linecap:butt;stroke-linejoin:miter;stroke:rgb(38.039216%,50.588235%,100%);stroke-opacity:1;stroke-miterlimit:10;" d="M 0 0.5 C 0 0.222656 0.222656 0 0.5 0 C 0.777344 0 1 0.222656 1 0.5 L 1 49.5 C 1 49.777344 0.777344 50 0.5 50 C 0.222656 50 0 49.777344 0 49.5 Z M 0 0.5 " transform="matrix(1,0,0,1,161,131)"/>
</g>
</g>
</g>
</svg>
