<?xml version="1.0" encoding="UTF-8"?>
<svg xmlns="http://www.w3.org/2000/svg" xmlns:xlink="http://www.w3.org/1999/xlink" width="303pt" height="96pt" viewBox="0 0 303 96" version="1.1">
<defs>
<clipPath id="clip1">
  <path d="M 221 36 L 261 36 L 261 66 L 221 66 Z M 221 36 "/>
</clipPath>
<clipPath id="clip2">
  <path d="M 221 41 C 221 38.238281 223.238281 36 226 36 L 256 36 C 258.761719 36 261 38.238281 261 41 L 261 61 C 261 63.761719 258.761719 66 256 66 L 226 66 C 223.238281 66 221 63.761719 221 61 Z M 221 41 "/>
</clipPath>
<clipPath id="clip3">
  <path d="M 176 33 L 216 33 L 216 63 L 176 63 Z M 176 33 "/>
</clipPath>
<clipPath id="clip4">
  <path d="M 176 38 C 176 35.238281 178.238281 33 181 33 L 211 33 C 213.761719 33 216 35.238281 216 38 L 216 58 C 216 60.761719 213.761719 63 211 63 L 181 63 C 178.238281 63 176 60.761719 176 58 Z M 176 38 "/>
</clipPath>
</defs>
<g id="surface2">
<path style="fill:none;stroke-width:1.5;stroke-linecap:butt;stroke-linejoin:miter;stroke:rgb(0%,0%,0%);stroke-opacity:0.266667;stroke-dasharray:10,4;stroke-dashoffset:1;stroke-miterlimit:10;" d="M 175.75 0.75 L 302.25 0.75 L 302.25 95.25 L 175.75 95.25 Z M 175.75 0.75 "/>
<path style="fill:none;stroke-width:1.5;stroke-linecap:butt;stroke-linejoin:miter;stroke:rgb(0%,0%,0%);stroke-opacity:0.2;stroke-dasharray:10,4;stroke-dashoffset:1;stroke-miterlimit:10;" d="M 185 10 L 293 10 L 293 86 L 185 86 Z M 185 10 "/>
<path style="fill:none;stroke-width:1.5;stroke-linecap:butt;stroke-linejoin:miter;stroke:rgb(0%,0%,0%);stroke-opacity:0.1;stroke-miterlimit:10;" d="M 220 35 L 175 32 "/>
<path style="fill:none;stroke-width:1.5;stroke-linecap:butt;stroke-linejoin:miter;stroke:rgb(0%,0%,0%);stroke-opacity:0.1;stroke-miterlimit:10;" d="M 260 35 L 215 32 M 220 65 L 175 62 "/>
<path style="fill:none;stroke-width:1.5;stroke-linecap:butt;stroke-linejoin:miter;stroke:rgb(0%,0%,0%);stroke-opacity:0.1;stroke-miterlimit:10;" d="M 260 65 L 215 62 "/>
<g clip-path="url(#clip1)" clip-rule="nonzero">
<g clip-path="url(#clip2)" clip-rule="nonzero">
<rect x="0" y="0" width="303" height="96" style="fill:rgb(38.039216%,50.588235%,100%);fill-opacity:0.490196;stroke:none;"/>
<path style="fill:none;stroke-width:2;stroke-linecap:butt;stroke-linejoin:miter;stroke:rgb(38.039216%,50.588235%,100%);stroke-opacity:1;stroke-miterlimit:10;" d="M 1 6 C 1 3.238281 3.238281 1 6 1 L 36 1 C 38.761719 1 41 3.238281 41 6 L 41 26 C 41 28.761719 38.761719 31 36 31 L 6 31 C 3.238281 31 1 28.761719 1 26 Z M 1 6 " transform="matrix(1,0,0,1,220,35)"/>
</g>
</g>
<g clip-path="url(#clip3)" clip-rule="nonzero">
<g clip-path="url(#clip4)" clip-rule="nonzero">
<rect x="0" y="0" width="303" height="96" style="fill:rgb(38.039216%,50.588235%,100%);fill-opacity:0.490196;stroke:none;"/>
<path style="fill:none;stroke-width:2;stroke-linecap:butt;stroke-linejoin:miter;stroke:rgb(38.039216%,50.588235%,100%);stroke-opacity:1;stroke-miterlimit:10;" d="M 1 6 C 1 3.238281 3.238281 1 6 1 L 36 1 C 38.761719 1 41 3.238281 41 6 L 41 26 C 41 28.761719 38.761719 31 36 31 L 6 31 C 3.238281 31 1 28.761719 1 26 Z M 1 6 " transform="matrix(1,0,0,1,175,32)"/>
</g>
</g>
</g>
</svg>
