<?xml version="1.0" encoding="UTF-8"?>
<svg xmlns="http://www.w3.org/2000/svg" xmlns:xlink="http://www.w3.org/1999/xlink" width="320pt" height="240pt" viewBox="0 0 320 240" version="1.1">
<g id="surface1">
<path style="fill:none;stroke-width:1.5;stroke-linecap:butt;stroke-linejoin:miter;stroke:rgb(0%,0%,0%);stroke-opacity:0.266667;stroke-dasharray:10,4;stroke-dashoffset:1;stroke-miterlimit:10;" d="M 0.75 0.75 L 319.25 0.75 L 319.25 239.25 L 0.75 239.25 Z M 0.75 0.75 "/>
<path style="fill:none;stroke-width:1.5;stroke-linecap:butt;stroke-linejoin:miter;stroke:rgb(0%,0%,0%);stroke-opacity:0.2;stroke-dasharray:10,4;stroke-dashoffset:1;stroke-miterlimit:10;" d="M 10 10 L 310 10 L 310 230 L 10 230 Z M 10 10 "/>
<path style="fill:none;stroke-width:1.5;stroke-linecap:butt;stroke-linejoin:miter;stroke:rgb(38.039216%,50.588235%,100%);stroke-opacity:1;stroke-miterlimit:10;" d="M 0 5 C 0 2.238281 2.238281 0 5 0 L 275 0 C 277.761719 0 280 2.238281 280 5 L 280 195 C 280 197.761719 277.761719 200 275 200 L 5 200 C 2.238281 200 0 197.761719 0 195 Z M 0 5 " transform="matrix(1,0,0,1,20,20)"/>
<path style=" stroke:none;fill-rule:nonzero;fill:rgb(38.039216%,50.588235%,100%);fill-opacity:0.490196;" d="M 20 25 C 20 22.238281 22.238281 20 25 20 L 295 20 C 297.761719 20 300 22.238281 300 25 L 300 215 C 300 217.761719 297.761719 220 295 220 L 25 220 C 22.238281 220 20 217.761719 20 215 Z M 20 25 "/>
<path style=" stroke:none;fill-rule:nonzero;fill:rgb(100%,0%,0%);fill-opacity:1;" d="M 100 100 L 100 110 L 103 108 L 106 112 L 108 112 L 105 108 L 109 108 Z M 100 100 "/>
<path style=" stroke:none;fill-rule:nonzero;fill:rgb(100%,0%,0%);fill-opacity:1;" d="M 19 120 L 19 130 L 22 128 L 25 132 L 27 132 L 24 128 L 28 128 Z M 19 120 "/>
<path style="fill:none;stroke-width:1.5;stroke-linecap:butt;stroke-linejoin:miter;stroke:rgb(100%,0%,0%);stroke-opacity:1;stroke-dasharray:1,1;stroke-dashoffset:1;stroke-miterlimit:10;" d="M 100 100 L 19 120 "/>
<path style=" stroke:none;fill-rule:nonzero;fill:rgb(100%,0%,0%);fill-opacity:1;" d="M 60 40 L 60 50 L 63 48 L 66 52 L 68 52 L 65 48 L 69 48 Z M 60 40 "/>
<path style=" stroke:none;fill-rule:nonzero;fill:rgb(100%,0%,0%);fill-opacity:1;" d="M 19 19 L 19 29 L 22 27 L 25 31 L 27 31 L 24 27 L 28 27 Z M 19 19 "/>
<path style="fill:none;stroke-width:1.5;stroke-linecap:butt;stroke-linejoin:miter;stroke:rgb(100%,0%,0%);stroke-opacity:1;stroke-dasharray:1,1;stroke-dashoffset:1;stroke-miterlimit:10;" d="M 60 40 L 19 19 "/>
<path style=" stroke:none;fill-rule:nonzero;fill:rgb(100%,0%,0%);fill-opacity:1;" d="M 230 50 L 230 60 L 233 58 L 236 62 L 238 62 L 235 58 L 239 58 Z M 230 50 "/>
<path style=" stroke:none;fill-rule:nonzero;fill:rgb(100%,0%,0%);fill-opacity:1;" d="M 301 19 L 301 29 L 304 27 L 307 31 L 309 31 L 306 27 L 310 27 Z M 301 19 "/>
<path style="fill:none;stroke-width:1.5;stroke-linecap:butt;stroke-linejoin:miter;stroke:rgb(100%,0%,0%);stroke-opacity:1;stroke-dasharray:1,1;stroke-dashoffset:1;stroke-miterlimit:10;" d="M 230 50 L 301 19 "/>
<path style=" stroke:none;fill-rule:nonzero;fill:rgb(100%,0%,0%);fill-opacity:1;" d="M 240 140 L 240 150 L 243 148 L 246 152 L 248 152 L 245 148 L 249 148 Z M 240 140 "/>
<path style=" stroke:none;fill-rule:nonzero;fill:rgb(100%,0%,0%);fill-opacity:1;" d="M 301 120 L 301 130 L 304 128 L 307 132 L 309 132 L 306 128 L 310 128 Z M 301 120 "/>
<path style="fill:none;stroke-width:1.5;stroke-linecap:butt;stroke-linejoin:miter;stroke:rgb(100%,0%,0%);stroke-opacity:1;stroke-dasharray:1,1;stroke-dashoffset:1;stroke-miterlimit:10;" d="M 240 140 L 301 120 "/>
<path style=" stroke:none;fill-rule:nonzero;fill:rgb(100%,0%,0%);fill-opacity:1;" d="M 210 190 L 210 200 L 213 198 L 216 202 L 218 202 L 215 198 L 219 198 Z M 210 190 "/>
<path style=" stroke:none;fill-rule:nonzero;fill:rgb(100%,0%,0%);fill-opacity:1;" d="M 301 221 L 301 231 L 304 229 L 307 233 L 309 233 L 306 229 L 310 229 Z M 301 221 "/>
<path style="fill:none;stroke-width:1.5;stroke-linecap:butt;stroke-linejoin:miter;stroke:rgb(100%,0%,0%);stroke-opacity:1;stroke-dasharray:1,1;stroke-dashoffset:1;stroke-miterlimit:10;" d="M 210 190 L 301 221 "/>
<path style=" stroke:none;fill-rule:nonzero;fill:rgb(100%,0%,0%);fill-opacity:1;" d="M 130 190 L 130 200 L 133 198 L 136 202 L 138 202 L 135 198 L 139 198 Z M 130 190 "/>
<path style=" stroke:none;fill-rule:nonzero;fill:rgb(100%,0%,0%);fill-opacity:1;" d="M 160 221 L 160 231 L 163 229 L 166 233 L 168 233 L 165 229 L 169 229 Z M 160 221 "/>
<path style="fill:none;stroke-width:1.5;stroke-linecap:butt;stroke-linejoin:miter;stroke:rgb(100%,0%,0%);stroke-opacity:1;stroke-dasharray:1,1;stroke-dashoffset:1;stroke-miterlimit:10;" d="M 130 190 L 160 221 "/>
<path style=" stroke:none;fill-rule:nonzero;fill:rgb(100%,0%,0%);fill-opacity:1;" d="M 130 30 L 130 40 L 133 38 L 136 42 L 138 42 L 135 38 L 139 38 Z M 130 30 "/>
<path style=" stroke:none;fill-rule:nonzero;fill:rgb(100%,0%,0%);fill-opacity:1;" d="M 160 19 L 160 29 L 163 27 L 166 31 L 168 31 L 165 27 L 169 27 Z M 160 19 "/>
<path style="fill:none;stroke-width:1.5;stroke-linecap:butt;stroke-linejoin:miter;stroke:rgb(100%,0%,0%);stroke-opacity:1;stroke-dasharray:1,1;stroke-dashoffset:1;stroke-miterlimit:10;" d="M 130 30 L 160 19 "/>
<path style=" stroke:none;fill-rule:nonzero;fill:rgb(100%,0%,0%);fill-opacity:1;" d="M 0 230 L 0 240 L 3 238 L 6 242 L 8 242 L 5 238 L 9 238 Z M 0 230 "/>
<path style=" stroke:none;fill-rule:nonzero;fill:rgb(100%,0%,0%);fill-opacity:1;" d="M 19 221 L 19 231 L 22 229 L 25 233 L 27 233 L 24 229 L 28 229 Z M 19 221 "/>
<path style="fill:none;stroke-width:1.5;stroke-linecap:butt;stroke-linejoin:miter;stroke:rgb(100%,0%,0%);stroke-opacity:1;stroke-dasharray:1,1;stroke-dashoffset:1;stroke-miterlimit:10;" d="M 0 230 L 19 221 "/>
</g>
</svg>
