<?xml version="1.0" encoding="UTF-8"?>
<svg xmlns="http://www.w3.org/2000/svg" xmlns:xlink="http://www.w3.org/1999/xlink" width="110pt" height="110pt" viewBox="0 0 110 110" version="1.1">
<defs>
<clipPath id="clip1">
  <path d="M 0 0 L 110 0 L 110 21 L 0 21 Z M 0 0 "/>
</clipPath>
<clipPath id="clip2">
  <path d="M 0 0 L 101 0 L 101 21 L 0 21 Z M 0 0 "/>
</clipPath>
<clipPath id="clip3">
  <path d="M 0 26 L 110 26 L 110 48 L 0 48 Z M 0 26 "/>
</clipPath>
<clipPath id="clip4">
  <path d="M 0 26 L 101 26 L 101 48 L 0 48 Z M 0 26 "/>
</clipPath>
<clipPath id="clip5">
  <path d="M 0 53 L 110 53 L 110 74 L 0 74 Z M 0 53 "/>
</clipPath>
<clipPath id="clip6">
  <path d="M 0 53 L 101 53 L 101 74 L 0 74 Z M 0 53 "/>
</clipPath>
<clipPath id="clip7">
  <path d="M 0 79 L 110 79 L 110 100 L 0 100 Z M 0 79 "/>
</clipPath>
<clipPath id="clip8">
  <path d="M 0 79 L 101 79 L 101 100 L 0 100 Z M 0 79 "/>
</clipPath>
</defs>
<g id="surface2">
<g clip-path="url(#clip1)" clip-rule="nonzero">
<rect x="0" y="0" width="110" height="110" style="fill:rgb(100%,0%,0%);fill-opacity:1;stroke:none;"/>
</g>
<g clip-path="url(#clip2)" clip-rule="nonzero">
<path style="fill:none;stroke-width:2;stroke-linecap:butt;stroke-linejoin:miter;stroke:rgb(66.666667%,0%,100%);stroke-opacity:0.490196;stroke-miterlimit:10;" d="M 0.5 17.378906 L 0.5 21 M 1.5 21 L 1.5 21 M 2.5 21 L 2.5 21 M 3.5 20.277344 L 3.5 21 M 4.5 15.929688 L 4.5 21 M 5.5 8.691406 L 5.5 21 M 6.5 5.070312 L 6.5 21 M 7.5 21 L 7.5 21 M 8.5 21 L 8.5 21 M 9.5 20.277344 L 9.5 21 M 10.5 18.828125 L 10.5 21 M 11.5 21 L 11.5 21 M 12.5 21 L 12.5 21 M 13.5 10.863281 L 13.5 21 M 14.5 8.691406 L 14.5 21 M 15.5 8.691406 L 15.5 21 M 16.5 0 L 16.5 21 M 17.5 7.242188 L 17.5 21 M 18.5 10.136719 L 18.5 21 M 19.5 13.035156 L 19.5 21 M 20.5 18.101562 L 20.5 21 M 21.5 16.65625 L 21.5 21 M 22.5 17.378906 L 22.5 21 M 23.5 18.828125 L 23.5 21 M 24.5 17.378906 L 24.5 21 M 25.5 21 L 25.5 21 M 26.5 21 L 26.5 21 M 27.5 20.277344 L 27.5 21 M 28.5 15.929688 L 28.5 21 M 29.5 8.691406 L 29.5 21 M 30.5 5.070312 L 30.5 21 M 31.5 21 L 31.5 21 M 32.5 21 L 32.5 21 M 33.5 20.277344 L 33.5 21 M 34.5 18.828125 L 34.5 21 M 35.5 21 L 35.5 21 M 36.5 21 L 36.5 21 M 37.5 10.863281 L 37.5 21 M 38.5 8.691406 L 38.5 21 M 39.5 8.691406 L 39.5 21 M 40.5 0 L 40.5 21 M 41.5 7.242188 L 41.5 21 M 42.5 10.136719 L 42.5 21 M 43.5 13.035156 L 43.5 21 M 44.5 18.101562 L 44.5 21 M 45.5 16.65625 L 45.5 21 M 46.5 17.378906 L 46.5 21 M 47.5 18.828125 L 47.5 21 M 48.5 17.378906 L 48.5 21 M 49.5 21 L 49.5 21 M 50.5 21 L 50.5 21 M 51.5 20.277344 L 51.5 21 M 52.5 15.929688 L 52.5 21 M 53.5 8.691406 L 53.5 21 M 54.5 5.070312 L 54.5 21 M 55.5 21 L 55.5 21 M 56.5 21 L 56.5 21 M 57.5 20.277344 L 57.5 21 M 58.5 18.828125 L 58.5 21 M 59.5 21 L 59.5 21 M 60.5 21 L 60.5 21 M 61.5 10.863281 L 61.5 21 M 62.5 8.691406 L 62.5 21 M 63.5 8.691406 L 63.5 21 M 64.5 0 L 64.5 21 M 65.5 7.242188 L 65.5 21 M 66.5 10.136719 L 66.5 21 M 67.5 13.035156 L 67.5 21 M 68.5 18.101562 L 68.5 21 M 69.5 16.65625 L 69.5 21 M 70.5 17.378906 L 70.5 21 M 71.5 18.828125 L 71.5 21 M 72.5 17.378906 L 72.5 21 M 73.5 21 L 73.5 21 M 74.5 21 L 74.5 21 M 75.5 20.277344 L 75.5 21 M 76.5 15.929688 L 76.5 21 M 77.5 8.691406 L 77.5 21 M 78.5 5.070312 L 78.5 21 M 79.5 21 L 79.5 21 M 80.5 21 L 80.5 21 M 81.5 20.277344 L 81.5 21 M 82.5 18.828125 L 82.5 21 M 83.5 21 L 83.5 21 M 84.5 21 L 84.5 21 M 85.5 10.863281 L 85.5 21 M 86.5 8.691406 L 86.5 21 M 87.5 8.691406 L 87.5 21 M 88.5 0 L 88.5 21 M 89.5 7.242188 L 89.5 21 M 90.5 10.136719 L 90.5 21 M 91.5 13.035156 L 91.5 21 M 92.5 18.101562 L 92.5 21 M 93.5 16.65625 L 93.5 21 M 94.5 17.378906 L 94.5 21 M 95.5 18.828125 L 95.5 21 M 96.5 17.378906 L 96.5 21 M 97.5 21 L 97.5 21 M 98.5 21 L 98.5 21 M 99.5 20.277344 L 99.5 21 "/>
</g>
<g clip-path="url(#clip3)" clip-rule="nonzero">
<rect x="0" y="0" width="110" height="110" style="fill:rgb(0%,100%,0%);fill-opacity:1;stroke:none;"/>
</g>
<g clip-path="url(#clip4)" clip-rule="nonzero">
<path style="fill:none;stroke-width:2;stroke-linecap:butt;stroke-linejoin:miter;stroke:rgb(66.666667%,0%,100%);stroke-opacity:0.490196;stroke-miterlimit:10;" d="M 0.5 18.207031 L 0.5 22 M 1.5 22 L 1.5 22 M 2.5 22 L 2.5 22 M 3.5 21.242188 L 3.5 22 M 4.5 16.691406 L 4.5 22 M 5.5 9.101562 L 5.5 22 M 6.5 5.308594 L 6.5 22 M 7.5 22 L 7.5 22 M 8.5 22 L 8.5 22 M 9.5 21.242188 L 9.5 22 M 10.5 19.722656 L 10.5 22 M 11.5 22 L 11.5 22 M 12.5 22 L 12.5 22 M 13.5 11.378906 L 13.5 22 M 14.5 9.101562 L 14.5 22 M 15.5 9.101562 L 15.5 22 M 16.5 0 L 16.5 22 M 17.5 7.585938 L 17.5 22 M 18.5 10.621094 L 18.5 22 M 19.5 13.65625 L 19.5 22 M 20.5 18.964844 L 20.5 22 M 21.5 17.449219 L 21.5 22 M 22.5 18.207031 L 22.5 22 M 23.5 19.722656 L 23.5 22 M 24.5 18.207031 L 24.5 22 M 25.5 22 L 25.5 22 M 26.5 22 L 26.5 22 M 27.5 21.242188 L 27.5 22 M 28.5 16.691406 L 28.5 22 M 29.5 9.101562 L 29.5 22 M 30.5 5.308594 L 30.5 22 M 31.5 22 L 31.5 22 M 32.5 22 L 32.5 22 M 33.5 21.242188 L 33.5 22 M 34.5 19.722656 L 34.5 22 M 35.5 22 L 35.5 22 M 36.5 22 L 36.5 22 M 37.5 11.378906 L 37.5 22 M 38.5 9.101562 L 38.5 22 M 39.5 9.101562 L 39.5 22 M 40.5 0 L 40.5 22 M 41.5 7.585938 L 41.5 22 M 42.5 10.621094 L 42.5 22 M 43.5 13.65625 L 43.5 22 M 44.5 18.964844 L 44.5 22 M 45.5 17.449219 L 45.5 22 M 46.5 18.207031 L 46.5 22 M 47.5 19.722656 L 47.5 22 M 48.5 18.207031 L 48.5 22 M 49.5 22 L 49.5 22 M 50.5 22 L 50.5 22 M 51.5 21.242188 L 51.5 22 M 52.5 16.691406 L 52.5 22 M 53.5 9.101562 L 53.5 22 M 54.5 5.308594 L 54.5 22 M 55.5 22 L 55.5 22 M 56.5 22 L 56.5 22 M 57.5 21.242188 L 57.5 22 M 58.5 19.722656 L 58.5 22 M 59.5 22 L 59.5 22 M 60.5 22 L 60.5 22 M 61.5 11.378906 L 61.5 22 M 62.5 9.101562 L 62.5 22 M 63.5 9.101562 L 63.5 22 M 64.5 0 L 64.5 22 M 65.5 7.585938 L 65.5 22 M 66.5 10.621094 L 66.5 22 M 67.5 13.65625 L 67.5 22 M 68.5 18.964844 L 68.5 22 M 69.5 17.449219 L 69.5 22 M 70.5 18.207031 L 70.5 22 M 71.5 19.722656 L 71.5 22 M 72.5 18.207031 L 72.5 22 M 73.5 22 L 73.5 22 M 74.5 22 L 74.5 22 M 75.5 21.242188 L 75.5 22 M 76.5 16.691406 L 76.5 22 M 77.5 9.101562 L 77.5 22 M 78.5 5.308594 L 78.5 22 M 79.5 22 L 79.5 22 M 80.5 22 L 80.5 22 M 81.5 21.242188 L 81.5 22 M 82.5 19.722656 L 82.5 22 M 83.5 22 L 83.5 22 M 84.5 22 L 84.5 22 M 85.5 11.378906 L 85.5 22 M 86.5 9.101562 L 86.5 22 M 87.5 9.101562 L 87.5 22 M 88.5 0 L 88.5 22 M 89.5 7.585938 L 89.5 22 M 90.5 10.621094 L 90.5 22 M 91.5 13.65625 L 91.5 22 M 92.5 18.964844 L 92.5 22 M 93.5 17.449219 L 93.5 22 M 94.5 18.207031 L 94.5 22 M 95.5 19.722656 L 95.5 22 M 96.5 18.207031 L 96.5 22 M 97.5 22 L 97.5 22 M 98.5 22 L 98.5 22 M 99.5 21.242188 L 99.5 22 " transform="matrix(1,0,0,1,0,26)"/>
</g>
<g clip-path="url(#clip5)" clip-rule="nonzero">
<rect x="0" y="0" width="110" height="110" style="fill:rgb(0%,0%,100%);fill-opacity:1;stroke:none;"/>
</g>
<g clip-path="url(#clip6)" clip-rule="nonzero">
<path style="fill:none;stroke-width:2;stroke-linecap:butt;stroke-linejoin:miter;stroke:rgb(66.666667%,0%,100%);stroke-opacity:0.490196;stroke-miterlimit:10;" d="M 0.5 17.378906 L 0.5 21 M 1.5 21 L 1.5 21 M 2.5 21 L 2.5 21 M 3.5 20.277344 L 3.5 21 M 4.5 15.929688 L 4.5 21 M 5.5 8.691406 L 5.5 21 M 6.5 5.070312 L 6.5 21 M 7.5 21 L 7.5 21 M 8.5 21 L 8.5 21 M 9.5 20.277344 L 9.5 21 M 10.5 18.828125 L 10.5 21 M 11.5 21 L 11.5 21 M 12.5 21 L 12.5 21 M 13.5 10.863281 L 13.5 21 M 14.5 8.691406 L 14.5 21 M 15.5 8.691406 L 15.5 21 M 16.5 0 L 16.5 21 M 17.5 7.242188 L 17.5 21 M 18.5 10.136719 L 18.5 21 M 19.5 13.035156 L 19.5 21 M 20.5 18.101562 L 20.5 21 M 21.5 16.65625 L 21.5 21 M 22.5 17.378906 L 22.5 21 M 23.5 18.828125 L 23.5 21 M 24.5 17.378906 L 24.5 21 M 25.5 21 L 25.5 21 M 26.5 21 L 26.5 21 M 27.5 20.277344 L 27.5 21 M 28.5 15.929688 L 28.5 21 M 29.5 8.691406 L 29.5 21 M 30.5 5.070312 L 30.5 21 M 31.5 21 L 31.5 21 M 32.5 21 L 32.5 21 M 33.5 20.277344 L 33.5 21 M 34.5 18.828125 L 34.5 21 M 35.5 21 L 35.5 21 M 36.5 21 L 36.5 21 M 37.5 10.863281 L 37.5 21 M 38.5 8.691406 L 38.5 21 M 39.5 8.691406 L 39.5 21 M 40.5 0 L 40.5 21 M 41.5 7.242188 L 41.5 21 M 42.5 10.136719 L 42.5 21 M 43.5 13.035156 L 43.5 21 M 44.5 18.101562 L 44.5 21 M 45.5 16.65625 L 45.5 21 M 46.5 17.378906 L 46.5 21 M 47.5 18.828125 L 47.5 21 M 48.5 17.378906 L 48.5 21 M 49.5 21 L 49.5 21 M 50.5 21 L 50.5 21 M 51.5 20.277344 L 51.5 21 M 52.5 15.929688 L 52.5 21 M 53.5 8.691406 L 53.5 21 M 54.5 5.070312 L 54.5 21 M 55.5 21 L 55.5 21 M 56.5 21 L 56.5 21 M 57.5 20.277344 L 57.5 21 M 58.5 18.828125 L 58.5 21 M 59.5 21 L 59.5 21 M 60.5 21 L 60.5 21 M 61.5 10.863281 L 61.5 21 M 62.5 8.691406 L 62.5 21 M 63.5 8.691406 L 63.5 21 M 64.5 0 L 64.5 21 M 65.5 7.242188 L 65.5 21 M 66.5 10.136719 L 66.5 21 M 67.5 13.035156 L 67.5 21 M 68.5 18.101562 L 68.5 21 M 69.5 16.65625 L 69.5 21 M 70.5 17.378906 L 70.5 21 M 71.5 18.828125 L 71.5 21 M 72.5 17.378906 L 72.5 21 M 73.5 21 L 73.5 21 M 74.5 21 L 74.5 21 M 75.5 20.277344 L 75.5 21 M 76.5 15.929688 L 76.5 21 M 77.5 8.691406 L 77.5 21 M 78.5 5.070312 L 78.5 21 M 79.5 21 L 79.5 21 M 80.5 21 L 80.5 21 M 81.5 20.277344 L 81.5 21 M 82.5 18.828125 L 82.5 21 M 83.5 21 L 83.5 21 M 84.5 21 L 84.5 21 M 85.5 10.863281 L 85.5 21 M 86.5 8.691406 L 86.5 21 M 87.5 8.691406 L 87.5 21 M 88.5 0 L 88.5 21 M 89.5 7.242188 L 89.5 21 M 90.5 10.136719 L 90.5 21 M 91.5 13.035156 L 91.5 21 M 92.5 18.101562 L 92.5 21 M 93.5 16.65625 L 93.5 21 M 94.5 17.378906 L 94.5 21 M 95.5 18.828125 L 95.5 21 M 96.5 17.378906 L 96.5 21 M 97.5 21 L 97.5 21 M 98.5 21 L 98.5 21 M 99.5 20.277344 L 99.5 21 " transform="matrix(1,0,0,1,0,53)"/>
</g>
<g clip-path="url(#clip7)" clip-rule="nonzero">
<rect x="0" y="0" width="110" height="110" style="fill:rgb(100%,0%,100%);fill-opacity:1;stroke:none;"/>
</g>
<g clip-path="url(#clip8)" clip-rule="nonzero">
<path style="fill:none;stroke-width:2;stroke-linecap:butt;stroke-linejoin:miter;stroke:rgb(66.666667%,0%,100%);stroke-opacity:0.490196;stroke-miterlimit:10;" d="M 0.5 17.378906 L 0.5 21 M 1.5 21 L 1.5 21 M 2.5 21 L 2.5 21 M 3.5 20.277344 L 3.5 21 M 4.5 15.929688 L 4.5 21 M 5.5 8.691406 L 5.5 21 M 6.5 5.070312 L 6.5 21 M 7.5 21 L 7.5 21 M 8.5 21 L 8.5 21 M 9.5 20.277344 L 9.5 21 M 10.5 18.828125 L 10.5 21 M 11.5 21 L 11.5 21 M 12.5 21 L 12.5 21 M 13.5 10.863281 L 13.5 21 M 14.5 8.691406 L 14.5 21 M 15.5 8.691406 L 15.5 21 M 16.5 0 L 16.5 21 M 17.5 7.242188 L 17.5 21 M 18.5 10.136719 L 18.5 21 M 19.5 13.035156 L 19.5 21 M 20.5 18.101562 L 20.5 21 M 21.5 16.65625 L 21.5 21 M 22.5 17.378906 L 22.5 21 M 23.5 18.828125 L 23.5 21 M 24.5 17.378906 L 24.5 21 M 25.5 21 L 25.5 21 M 26.5 21 L 26.5 21 M 27.5 20.277344 L 27.5 21 M 28.5 15.929688 L 28.5 21 M 29.5 8.691406 L 29.5 21 M 30.5 5.070312 L 30.5 21 M 31.5 21 L 31.5 21 M 32.5 21 L 32.5 21 M 33.5 20.277344 L 33.5 21 M 34.5 18.828125 L 34.5 21 M 35.5 21 L 35.5 21 M 36.5 21 L 36.5 21 M 37.5 10.863281 L 37.5 21 M 38.5 8.691406 L 38.5 21 M 39.5 8.691406 L 39.5 21 M 40.5 0 L 40.5 21 M 41.5 7.242188 L 41.5 21 M 42.5 10.136719 L 42.5 21 M 43.5 13.035156 L 43.5 21 M 44.5 18.101562 L 44.5 21 M 45.5 16.65625 L 45.5 21 M 46.5 17.378906 L 46.5 21 M 47.5 18.828125 L 47.5 21 M 48.5 17.378906 L 48.5 21 M 49.5 21 L 49.5 21 M 50.5 21 L 50.5 21 M 51.5 20.277344 L 51.5 21 M 52.5 15.929688 L 52.5 21 M 53.5 8.691406 L 53.5 21 M 54.5 5.070312 L 54.5 21 M 55.5 21 L 55.5 21 M 56.5 21 L 56.5 21 M 57.5 20.277344 L 57.5 21 M 58.5 18.828125 L 58.5 21 M 59.5 21 L 59.5 21 M 60.5 21 L 60.5 21 M 61.5 10.863281 L 61.5 21 M 62.5 8.691406 L 62.5 21 M 63.5 8.691406 L 63.5 21 M 64.5 0 L 64.5 21 M 65.5 7.242188 L 65.5 21 M 66.5 10.136719 L 66.5 21 M 67.5 13.035156 L 67.5 21 M 68.5 18.101562 L 68.5 21 M 69.5 16.65625 L 69.5 21 M 70.5 17.378906 L 70.5 21 M 71.5 18.828125 L 71.5 21 M 72.5 17.378906 L 72.5 21 M 73.5 21 L 73.5 21 M 74.5 21 L 74.5 21 M 75.5 20.277344 L 75.5 21 M 76.5 15.929688 L 76.5 21 M 77.5 8.691406 L 77.5 21 M 78.5 5.070312 L 78.5 21 M 79.5 21 L 79.5 21 M 80.5 21 L 80.5 21 M 81.5 20.277344 L 81.5 21 M 82.5 18.828125 L 82.5 21 M 83.5 21 L 83.5 21 M 84.5 21 L 84.5 21 M 85.5 10.863281 L 85.5 21 M 86.5 8.691406 L 86.5 21 M 87.5 8.691406 L 87.5 21 M 88.5 0 L 88.5 21 M 89.5 7.242188 L 89.5 21 M 90.5 10.136719 L 90.5 21 M 91.5 13.035156 L 91.5 21 M 92.5 18.101562 L 92.5 21 M 93.5 16.65625 L 93.5 21 M 94.5 17.378906 L 94.5 21 M 95.5 18.828125 L 95.5 21 M 96.5 17.378906 L 96.5 21 M 97.5 21 L 97.5 21 M 98.5 21 L 98.5 21 M 99.5 20.277344 L 99.5 21 " transform="matrix(1,0,0,1,0,79)"/>
</g>
</g>
</svg>
