<?xml version="1.0" encoding="UTF-8"?>
<?xml-stylesheet href="../ldoc.css" type="text/css"?>
<svg xmlns="http://www.w3.org/2000/svg" xmlns:xlink="http://www.w3.org/1999/xlink" width="268" height="206" viewBox="0 0 268 206">
<defs>
<filter id="filter-remove-color" x="0%" y="0%" width="100%" height="100%">
<feColorMatrix color-interpolation-filters="sRGB" values="0 0 0 0 1 0 0 0 0 1 0 0 0 0 1 0 0 0 1 0" />
</filter>
<filter id="filter-remove-color-and-invert-alpha" x="0%" y="0%" width="100%" height="100%">
<feColorMatrix color-interpolation-filters="sRGB" values="0 0 0 0 1 0 0 0 0 1 0 0 0 0 1 0 0 0 -1 1"/>
</filter>
<filter id="filter-0" x="0%" y="0%" width="100%" height="100%">
<feImage xlink:href="#compositing-group-1" result="source" x="0" y="0" width="385.92" height="296.64"/>
<feImage xlink:href="#compositing-group-2" result="destination" x="0" y="0" width="385.92" height="296.64"/>
<feComposite in="source" in2="destination" operator="arithmetic" k1="0" k2="1" k3="1" k4="0" color-interpolation-filters="sRGB"/>
</filter>
<filter id="filter-1" x="0%" y="0%" width="100%" height="100%">
<feImage xlink:href="#compositing-group-4" result="source" x="0" y="0" width="385.92" height="296.64"/>
<feImage xlink:href="#compositing-group-5" result="destination" x="0" y="0" width="385.92" height="296.64"/>
<feComposite in="source" in2="destination" operator="arithmetic" k1="0" k2="1" k3="1" k4="0" color-interpolation-filters="sRGB"/>
</filter>
<filter id="filter-2" x="0%" y="0%" width="100%" height="100%">
<feImage xlink:href="#compositing-group-7" result="source" x="0" y="0" width="385.92" height="296.64"/>
<feImage xlink:href="#compositing-group-8" result="destination" x="0" y="0" width="385.92" height="296.64"/>
<feComposite in="source" in2="destination" operator="arithmetic" k1="0" k2="1" k3="1" k4="0" color-interpolation-filters="sRGB"/>
</filter>
<filter id="filter-3" x="0%" y="0%" width="100%" height="100%">
<feImage xlink:href="#compositing-group-10" result="source" x="0" y="0" width="385.92" height="296.64"/>
<feImage xlink:href="#compositing-group-11" result="destination" x="0" y="0" width="385.92" height="296.64"/>
<feComposite in="source" in2="destination" operator="arithmetic" k1="0" k2="1" k3="1" k4="0" color-interpolation-filters="sRGB"/>
</filter>
<filter id="filter-4" x="0%" y="0%" width="100%" height="100%">
<feImage xlink:href="#compositing-group-13" result="source" x="0" y="0" width="385.92" height="296.64"/>
<feImage xlink:href="#compositing-group-14" result="destination" x="0" y="0" width="385.92" height="296.64"/>
<feComposite in="source" in2="destination" operator="arithmetic" k1="0" k2="1" k3="1" k4="0" color-interpolation-filters="sRGB"/>
</filter>
<filter id="filter-5" x="0%" y="0%" width="100%" height="100%">
<feImage xlink:href="#compositing-group-16" result="source" x="0" y="0" width="385.92" height="296.64"/>
<feImage xlink:href="#compositing-group-17" result="destination" x="0" y="0" width="385.92" height="296.64"/>
<feComposite in="source" in2="destination" operator="arithmetic" k1="0" k2="1" k3="1" k4="0" color-interpolation-filters="sRGB"/>
</filter>
<filter id="filter-6" x="0%" y="0%" width="100%" height="100%">
<feImage xlink:href="#compositing-group-19" result="source" x="0" y="0" width="385.92" height="296.64"/>
<feImage xlink:href="#compositing-group-20" result="destination" x="0" y="0" width="385.92" height="296.64"/>
<feComposite in="source" in2="destination" operator="arithmetic" k1="0" k2="1" k3="1" k4="0" color-interpolation-filters="sRGB"/>
</filter>
<filter id="filter-7" x="0%" y="0%" width="100%" height="100%">
<feImage xlink:href="#compositing-group-22" result="source" x="0" y="0" width="385.92" height="296.64"/>
<feImage xlink:href="#compositing-group-23" result="destination" x="0" y="0" width="385.92" height="296.64"/>
<feComposite in="source" in2="destination" operator="arithmetic" k1="0" k2="1" k3="1" k4="0" color-interpolation-filters="sRGB"/>
</filter>
<filter id="filter-8" x="0%" y="0%" width="100%" height="100%">
<feImage xlink:href="#compositing-group-25" result="source" x="0" y="0" width="385.92" height="296.64"/>
<feImage xlink:href="#compositing-group-26" result="destination" x="0" y="0" width="385.92" height="296.64"/>
<feComposite in="source" in2="destination" operator="arithmetic" k1="0" k2="1" k3="1" k4="0" color-interpolation-filters="sRGB"/>
</filter>
<filter id="filter-9" x="0%" y="0%" width="100%" height="100%">
<feImage xlink:href="#compositing-group-28" result="source" x="0" y="0" width="385.92" height="296.64"/>
<feImage xlink:href="#compositing-group-29" result="destination" x="0" y="0" width="385.92" height="296.64"/>
<feComposite in="source" in2="destination" operator="arithmetic" k1="0" k2="1" k3="1" k4="0" color-interpolation-filters="sRGB"/>
</filter>
<filter id="filter-10" x="0%" y="0%" width="100%" height="100%">
<feImage xlink:href="#compositing-group-31" result="source" x="0" y="0" width="385.92" height="296.64"/>
<feImage xlink:href="#compositing-group-32" result="destination" x="0" y="0" width="385.92" height="296.64"/>
<feComposite in="source" in2="destination" operator="arithmetic" k1="0" k2="1" k3="1" k4="0" color-interpolation-filters="sRGB"/>
</filter>
<filter id="filter-11" x="0%" y="0%" width="100%" height="100%">
<feImage xlink:href="#compositing-group-34" result="source" x="0" y="0" width="385.92" height="296.64"/>
<feImage xlink:href="#compositing-group-35" result="destination" x="0" y="0" width="385.92" height="296.64"/>
<feComposite in="source" in2="destination" operator="arithmetic" k1="0" k2="1" k3="1" k4="0" color-interpolation-filters="sRGB"/>
</filter>
<filter id="filter-12" x="0%" y="0%" width="100%" height="100%">
<feImage xlink:href="#compositing-group-37" result="source" x="0" y="0" width="385.92" height="296.64"/>
<feImage xlink:href="#compositing-group-38" result="destination" x="0" y="0" width="385.92" height="296.64"/>
<feComposite in="source" in2="destination" operator="arithmetic" k1="0" k2="1" k3="1" k4="0" color-interpolation-filters="sRGB"/>
</filter>
<filter id="filter-13" x="0%" y="0%" width="100%" height="100%">
<feImage xlink:href="#compositing-group-40" result="source" x="0" y="0" width="385.92" height="296.64"/>
<feImage xlink:href="#compositing-group-41" result="destination" x="0" y="0" width="385.92" height="296.64"/>
<feComposite in="source" in2="destination" operator="arithmetic" k1="0" k2="1" k3="1" k4="0" color-interpolation-filters="sRGB"/>
</filter>
<filter id="filter-14" x="0%" y="0%" width="100%" height="100%">
<feImage xlink:href="#compositing-group-43" result="source" x="0" y="0" width="385.92" height="296.64"/>
<feImage xlink:href="#compositing-group-44" result="destination" x="0" y="0" width="385.92" height="296.64"/>
<feComposite in="source" in2="destination" operator="arithmetic" k1="0" k2="1" k3="1" k4="0" color-interpolation-filters="sRGB"/>
</filter>
<filter id="filter-15" x="0%" y="0%" width="100%" height="100%">
<feImage xlink:href="#compositing-group-46" result="source" x="0" y="0" width="385.92" height="296.64"/>
<feImage xlink:href="#compositing-group-47" result="destination" x="0" y="0" width="385.92" height="296.64"/>
<feComposite in="source" in2="destination" operator="arithmetic" k1="0" k2="1" k3="1" k4="0" color-interpolation-filters="sRGB"/>
</filter>
<g id="compositing-group-0" transform="translate(78.96, 65.32)">
<rect x="-78.96" y="-65.32" width="385.92" height="296.64" fill="rgb(0%, 0%, 0%)" fill-opacity="0"/>
<clipPath id="clip-0">
<path clip-rule="nonzero" d="M 0 0 L 97 0 L 97 94 L 0 94 Z M 0 0 "/>
</clipPath>
<g clip-path="url(#clip-0)">
<path fill="none" stroke-width="2" stroke-linecap="butt" stroke-linejoin="miter" stroke="rgb(100%, 100%, 100%)" stroke-opacity="1" stroke-miterlimit="10" d="M 0 5 C 0 2.238281 2.238281 0 5 0 L 70 0 C 72.761719 0 75 2.238281 75 5 L 75 67 C 75 69.761719 72.761719 72 70 72 L 5 72 C 2.238281 72 0 69.761719 0 67 Z M 0 5 " transform="matrix(1, 0, 0, 1, 21, 21)"/>
</g>
</g>
<mask id="mask-1">
<use xlink:href="#compositing-group-0"/>
</mask>
<mask id="mask-2">
<use xlink:href="#compositing-group-0" filter="url(#filter-remove-color-and-invert-alpha)"/>
</mask>
<g id="compositing-group-1" mask="url(#mask-1)">
<g transform="translate(78.96, 65.32)">
<rect x="-78.96" y="-65.32" width="385.92" height="296.64" fill="rgb(100%, 0%, 0%)" fill-opacity="1"/>
</g>
</g>
<g id="compositing-group-2" mask="url(#mask-2)">
<g transform="translate(78.96, 65.32)">
</g>
</g>
<g id="compositing-group-3" transform="translate(78.96, 65.32)">
<rect x="-78.96" y="-65.32" width="385.92" height="296.64" fill="rgb(0%, 0%, 0%)" fill-opacity="0"/>
<path fill-rule="nonzero" fill="rgb(100%, 100%, 100%)" fill-opacity="1" d="M 21 26 C 21 23.238281 23.238281 21 26 21 L 91 21 C 93.761719 21 96 23.238281 96 26 L 96 88 C 96 90.761719 93.761719 93 91 93 L 26 93 C 23.238281 93 21 90.761719 21 88 Z M 21 26 "/>
</g>
<mask id="mask-3">
<use xlink:href="#compositing-group-3"/>
</mask>
<mask id="mask-4">
<use xlink:href="#compositing-group-3" filter="url(#filter-remove-color-and-invert-alpha)"/>
</mask>
<g id="compositing-group-4" mask="url(#mask-3)">
<g transform="translate(78.96, 65.32)">
</g>
</g>
<g id="compositing-group-5" mask="url(#mask-4)">
<g transform="translate(78.96, 65.32)">
<g filter="url(#filter-0)" transform="translate(-78.96, -65.32)">
<rect x="0" y="0" width="385.92" height="296.64" fill="rgb(0%, 0%, 0%)" fill-opacity="1"/>
</g>
</g>
</g>
<clipPath id="clip-1">
<rect x="0" y="0" width="97" height="94"/>
</clipPath>
<g id="source-6" clip-path="url(#clip-1)">
<g filter="url(#filter-1)" transform="translate(-78.96, -65.32)">
<rect x="0" y="0" width="385.92" height="296.64" fill="rgb(0%, 0%, 0%)" fill-opacity="1"/>
</g>
</g>
<mask id="mask-0">
<g filter="url(#filter-remove-color)">
<use xlink:href="#source-6" transform="matrix(1, 0, 0, 1, 20, 20)"/>
</g>
</mask>
<g id="compositing-group-6" transform="translate(78.96, 45.32)">
<rect x="-78.96" y="-45.32" width="385.92" height="296.64" fill="rgb(0%, 0%, 0%)" fill-opacity="0"/>
<clipPath id="clip-2">
<path clip-rule="nonzero" d="M 0 0 L 97 0 L 97 74 L 0 74 Z M 0 0 "/>
</clipPath>
<g clip-path="url(#clip-2)">
<path fill="none" stroke-width="2" stroke-linecap="butt" stroke-linejoin="miter" stroke="rgb(100%, 100%, 100%)" stroke-opacity="1" stroke-miterlimit="10" d="M 0 5 C 0 2.238281 2.238281 0 5 0 L 70 0 C 72.761719 0 75 2.238281 75 5 L 75 67 C 75 69.761719 72.761719 72 70 72 L 5 72 C 2.238281 72 0 69.761719 0 67 Z M 0 5 " transform="matrix(1, 0, 0, 1, 21, 1)"/>
</g>
</g>
<mask id="mask-6">
<use xlink:href="#compositing-group-6"/>
</mask>
<mask id="mask-7">
<use xlink:href="#compositing-group-6" filter="url(#filter-remove-color-and-invert-alpha)"/>
</mask>
<g id="compositing-group-7" mask="url(#mask-6)">
<g transform="translate(78.96, 45.32)">
<rect x="-78.96" y="-45.32" width="385.92" height="296.64" fill="rgb(100%, 0%, 0%)" fill-opacity="1"/>
</g>
</g>
<g id="compositing-group-8" mask="url(#mask-7)">
<g transform="translate(78.96, 45.32)">
</g>
</g>
<g id="compositing-group-9" transform="translate(78.96, 45.32)">
<rect x="-78.96" y="-45.32" width="385.92" height="296.64" fill="rgb(0%, 0%, 0%)" fill-opacity="0"/>
<path fill-rule="nonzero" fill="rgb(100%, 100%, 100%)" fill-opacity="1" d="M 21 6 C 21 3.238281 23.238281 1 26 1 L 91 1 C 93.761719 1 96 3.238281 96 6 L 96 68 C 96 70.761719 93.761719 73 91 73 L 26 73 C 23.238281 73 21 70.761719 21 68 Z M 21 6 "/>
</g>
<mask id="mask-8">
<use xlink:href="#compositing-group-9"/>
</mask>
<mask id="mask-9">
<use xlink:href="#compositing-group-9" filter="url(#filter-remove-color-and-invert-alpha)"/>
</mask>
<g id="compositing-group-10" mask="url(#mask-8)">
<g transform="translate(78.96, 45.32)">
</g>
</g>
<g id="compositing-group-11" mask="url(#mask-9)">
<g transform="translate(78.96, 45.32)">
<g filter="url(#filter-2)" transform="translate(-78.96, -45.32)">
<rect x="0" y="0" width="385.92" height="296.64" fill="rgb(0%, 0%, 0%)" fill-opacity="1"/>
</g>
</g>
</g>
<clipPath id="clip-3">
<rect x="0" y="0" width="97" height="74"/>
</clipPath>
<g id="source-8" clip-path="url(#clip-3)">
<g filter="url(#filter-3)" transform="translate(-78.96, -45.32)">
<rect x="0" y="0" width="385.92" height="296.64" fill="rgb(0%, 0%, 0%)" fill-opacity="1"/>
</g>
</g>
<mask id="mask-5">
<g filter="url(#filter-remove-color)">
<use xlink:href="#source-8" transform="matrix(1, 0, 0, 1, 20, 0)"/>
</g>
</mask>
<g id="compositing-group-12" transform="translate(218.96, 65.32)">
<rect x="-218.96" y="-65.32" width="385.92" height="296.64" fill="rgb(0%, 0%, 0%)" fill-opacity="0"/>
<clipPath id="clip-4">
<path clip-rule="nonzero" d="M 132 0 L 237 0 L 237 96 L 132 96 Z M 132 0 "/>
</clipPath>
<g clip-path="url(#clip-4)">
<path fill="none" stroke-width="2" stroke-linecap="butt" stroke-linejoin="miter" stroke="rgb(100%, 100%, 100%)" stroke-opacity="1" stroke-miterlimit="10" d="M 0 5 C 0 2.238281 2.238281 0 5 0 L 70 0 C 72.761719 0 75 2.238281 75 5 L 75 69 C 75 71.761719 72.761719 74 70 74 L 5 74 C 2.238281 74 0 71.761719 0 69 Z M 0 5 " transform="matrix(1, 0, 0, 1, 161, 21)"/>
</g>
</g>
<mask id="mask-11">
<use xlink:href="#compositing-group-12"/>
</mask>
<mask id="mask-12">
<use xlink:href="#compositing-group-12" filter="url(#filter-remove-color-and-invert-alpha)"/>
</mask>
<g id="compositing-group-13" mask="url(#mask-11)">
<g transform="translate(218.96, 65.32)">
<rect x="-218.96" y="-65.32" width="385.92" height="296.64" fill="rgb(100%, 0%, 0%)" fill-opacity="1"/>
</g>
</g>
<g id="compositing-group-14" mask="url(#mask-12)">
<g transform="translate(218.96, 65.32)">
</g>
</g>
<g id="compositing-group-15" transform="translate(218.96, 65.32)">
<rect x="-218.96" y="-65.32" width="385.92" height="296.64" fill="rgb(0%, 0%, 0%)" fill-opacity="0"/>
<path fill-rule="nonzero" fill="rgb(100%, 100%, 100%)" fill-opacity="1" d="M 161 26 C 161 23.238281 163.238281 21 166 21 L 231 21 C 233.761719 21 236 23.238281 236 26 L 236 90 C 236 92.761719 233.761719 95 231 95 L 166 95 C 163.238281 95 161 92.761719 161 90 Z M 161 26 "/>
</g>
<mask id="mask-13">
<use xlink:href="#compositing-group-15"/>
</mask>
<mask id="mask-14">
<use xlink:href="#compositing-group-15" filter="url(#filter-remove-color-and-invert-alpha)"/>
</mask>
<g id="compositing-group-16" mask="url(#mask-13)">
<g transform="translate(218.96, 65.32)">
</g>
</g>
<g id="compositing-group-17" mask="url(#mask-14)">
<g transform="translate(218.96, 65.32)">
<g filter="url(#filter-4)" transform="translate(-218.96, -65.32)">
<rect x="0" y="0" width="385.92" height="296.64" fill="rgb(0%, 0%, 0%)" fill-opacity="1"/>
</g>
</g>
</g>
<clipPath id="clip-5">
<rect x="0" y="0" width="237" height="96"/>
</clipPath>
<g id="source-10" clip-path="url(#clip-5)">
<g filter="url(#filter-5)" transform="translate(-218.96, -65.32)">
<rect x="0" y="0" width="385.92" height="296.64" fill="rgb(0%, 0%, 0%)" fill-opacity="1"/>
</g>
</g>
<mask id="mask-10">
<g filter="url(#filter-remove-color)">
<use xlink:href="#source-10" transform="matrix(1, 0, 0, 1, 160, 20)"/>
</g>
</mask>
<g id="compositing-group-18" transform="translate(218.96, 65.32)">
<rect x="-218.96" y="-65.32" width="385.92" height="296.64" fill="rgb(0%, 0%, 0%)" fill-opacity="0"/>
<clipPath id="clip-6">
<path clip-rule="nonzero" d="M 132 0 L 237 0 L 237 96 L 132 96 Z M 132 0 "/>
</clipPath>
<g clip-path="url(#clip-6)">
<path fill="none" stroke-width="2" stroke-linecap="butt" stroke-linejoin="miter" stroke="rgb(100%, 100%, 100%)" stroke-opacity="1" stroke-miterlimit="10" d="M 0 5 C 0 2.238281 2.238281 0 5 0 L 70 0 C 72.761719 0 75 2.238281 75 5 L 75 69 C 75 71.761719 72.761719 74 70 74 L 5 74 C 2.238281 74 0 71.761719 0 69 Z M 0 5 " transform="matrix(1, 0, 0, 1, 161, 21)"/>
</g>
</g>
<mask id="mask-16">
<use xlink:href="#compositing-group-18"/>
</mask>
<mask id="mask-17">
<use xlink:href="#compositing-group-18" filter="url(#filter-remove-color-and-invert-alpha)"/>
</mask>
<g id="compositing-group-19" mask="url(#mask-16)">
<g transform="translate(218.96, 65.32)">
<rect x="-218.96" y="-65.32" width="385.92" height="296.64" fill="rgb(100%, 0%, 0%)" fill-opacity="1"/>
</g>
</g>
<g id="compositing-group-20" mask="url(#mask-17)">
<g transform="translate(218.96, 65.32)">
</g>
</g>
<g id="compositing-group-21" transform="translate(218.96, 65.32)">
<rect x="-218.96" y="-65.32" width="385.92" height="296.64" fill="rgb(0%, 0%, 0%)" fill-opacity="0"/>
<path fill-rule="nonzero" fill="rgb(100%, 100%, 100%)" fill-opacity="1" d="M 161 26 C 161 23.238281 163.238281 21 166 21 L 231 21 C 233.761719 21 236 23.238281 236 26 L 236 90 C 236 92.761719 233.761719 95 231 95 L 166 95 C 163.238281 95 161 92.761719 161 90 Z M 161 26 "/>
</g>
<mask id="mask-18">
<use xlink:href="#compositing-group-21"/>
</mask>
<mask id="mask-19">
<use xlink:href="#compositing-group-21" filter="url(#filter-remove-color-and-invert-alpha)"/>
</mask>
<g id="compositing-group-22" mask="url(#mask-18)">
<g transform="translate(218.96, 65.32)">
</g>
</g>
<g id="compositing-group-23" mask="url(#mask-19)">
<g transform="translate(218.96, 65.32)">
<g filter="url(#filter-6)" transform="translate(-218.96, -65.32)">
<rect x="0" y="0" width="385.92" height="296.64" fill="rgb(0%, 0%, 0%)" fill-opacity="1"/>
</g>
</g>
</g>
<clipPath id="clip-7">
<rect x="0" y="0" width="237" height="96"/>
</clipPath>
<g id="source-12" clip-path="url(#clip-7)">
<g filter="url(#filter-7)" transform="translate(-218.96, -65.32)">
<rect x="0" y="0" width="385.92" height="296.64" fill="rgb(0%, 0%, 0%)" fill-opacity="1"/>
</g>
</g>
<mask id="mask-15">
<g filter="url(#filter-remove-color)">
<use xlink:href="#source-12" transform="matrix(1, 0, 0, 1, 160, 20)"/>
</g>
</mask>
<g id="compositing-group-24" transform="translate(78.96, 175.32)">
<rect x="-78.96" y="-175.32" width="385.92" height="296.64" fill="rgb(0%, 0%, 0%)" fill-opacity="0"/>
<clipPath id="clip-8">
<path clip-rule="nonzero" d="M 0 102 L 119 102 L 119 182 L 0 182 Z M 0 102 "/>
</clipPath>
<g clip-path="url(#clip-8)">
<path fill="none" stroke-width="2" stroke-linecap="butt" stroke-linejoin="miter" stroke="rgb(100%, 100%, 100%)" stroke-opacity="1" stroke-miterlimit="10" d="M 0 5 C 0 2.238281 2.238281 0 5 0 L 92 0 C 94.761719 0 97 2.238281 97 5 L 97 45 C 97 47.761719 94.761719 50 92 50 L 5 50 C 2.238281 50 0 47.761719 0 45 Z M 0 5 " transform="matrix(1, 0, 0, 1, 21, 131)"/>
</g>
</g>
<mask id="mask-21">
<use xlink:href="#compositing-group-24"/>
</mask>
<mask id="mask-22">
<use xlink:href="#compositing-group-24" filter="url(#filter-remove-color-and-invert-alpha)"/>
</mask>
<g id="compositing-group-25" mask="url(#mask-21)">
<g transform="translate(78.96, 175.32)">
<rect x="-78.96" y="-175.32" width="385.92" height="296.64" fill="rgb(100%, 0%, 0%)" fill-opacity="1"/>
</g>
</g>
<g id="compositing-group-26" mask="url(#mask-22)">
<g transform="translate(78.96, 175.32)">
</g>
</g>
<g id="compositing-group-27" transform="translate(78.96, 175.32)">
<rect x="-78.96" y="-175.32" width="385.92" height="296.64" fill="rgb(0%, 0%, 0%)" fill-opacity="0"/>
<path fill-rule="nonzero" fill="rgb(100%, 100%, 100%)" fill-opacity="1" d="M 21 136 C 21 133.238281 23.238281 131 26 131 L 113 131 C 115.761719 131 118 133.238281 118 136 L 118 176 C 118 178.761719 115.761719 181 113 181 L 26 181 C 23.238281 181 21 178.761719 21 176 Z M 21 136 "/>
</g>
<mask id="mask-23">
<use xlink:href="#compositing-group-27"/>
</mask>
<mask id="mask-24">
<use xlink:href="#compositing-group-27" filter="url(#filter-remove-color-and-invert-alpha)"/>
</mask>
<g id="compositing-group-28" mask="url(#mask-23)">
<g transform="translate(78.96, 175.32)">
</g>
</g>
<g id="compositing-group-29" mask="url(#mask-24)">
<g transform="translate(78.96, 175.32)">
<g filter="url(#filter-8)" transform="translate(-78.96, -175.32)">
<rect x="0" y="0" width="385.92" height="296.64" fill="rgb(0%, 0%, 0%)" fill-opacity="1"/>
</g>
</g>
</g>
<clipPath id="clip-9">
<rect x="0" y="0" width="119" height="182"/>
</clipPath>
<g id="source-14" clip-path="url(#clip-9)">
<g filter="url(#filter-9)" transform="translate(-78.96, -175.32)">
<rect x="0" y="0" width="385.92" height="296.64" fill="rgb(0%, 0%, 0%)" fill-opacity="1"/>
</g>
</g>
<mask id="mask-20">
<g filter="url(#filter-remove-color)">
<use xlink:href="#source-14" transform="matrix(1, 0, 0, 1, 20, 130)"/>
</g>
</mask>
<g id="compositing-group-30" transform="translate(58.96, 175.32)">
<rect x="-58.96" y="-175.32" width="385.92" height="296.64" fill="rgb(0%, 0%, 0%)" fill-opacity="0"/>
<clipPath id="clip-10">
<path clip-rule="nonzero" d="M 0 102 L 99 102 L 99 182 L 0 182 Z M 0 102 "/>
</clipPath>
<g clip-path="url(#clip-10)">
<path fill="none" stroke-width="2" stroke-linecap="butt" stroke-linejoin="miter" stroke="rgb(100%, 100%, 100%)" stroke-opacity="1" stroke-miterlimit="10" d="M 0 5 C 0 2.238281 2.238281 0 5 0 L 92 0 C 94.761719 0 97 2.238281 97 5 L 97 45 C 97 47.761719 94.761719 50 92 50 L 5 50 C 2.238281 50 0 47.761719 0 45 Z M 0 5 " transform="matrix(1, 0, 0, 1, 1, 131)"/>
</g>
</g>
<mask id="mask-26">
<use xlink:href="#compositing-group-30"/>
</mask>
<mask id="mask-27">
<use xlink:href="#compositing-group-30" filter="url(#filter-remove-color-and-invert-alpha)"/>
</mask>
<g id="compositing-group-31" mask="url(#mask-26)">
<g transform="translate(58.96, 175.32)">
<rect x="-58.96" y="-175.32" width="385.92" height="296.64" fill="rgb(100%, 0%, 0%)" fill-opacity="1"/>
</g>
</g>
<g id="compositing-group-32" mask="url(#mask-27)">
<g transform="translate(58.96, 175.32)">
</g>
</g>
<g id="compositing-group-33" transform="translate(58.96, 175.32)">
<rect x="-58.96" y="-175.32" width="385.92" height="296.64" fill="rgb(0%, 0%, 0%)" fill-opacity="0"/>
<path fill-rule="nonzero" fill="rgb(100%, 100%, 100%)" fill-opacity="1" d="M 1 136 C 1 133.238281 3.238281 131 6 131 L 93 131 C 95.761719 131 98 133.238281 98 136 L 98 176 C 98 178.761719 95.761719 181 93 181 L 6 181 C 3.238281 181 1 178.761719 1 176 Z M 1 136 "/>
</g>
<mask id="mask-28">
<use xlink:href="#compositing-group-33"/>
</mask>
<mask id="mask-29">
<use xlink:href="#compositing-group-33" filter="url(#filter-remove-color-and-invert-alpha)"/>
</mask>
<g id="compositing-group-34" mask="url(#mask-28)">
<g transform="translate(58.96, 175.32)">
</g>
</g>
<g id="compositing-group-35" mask="url(#mask-29)">
<g transform="translate(58.96, 175.32)">
<g filter="url(#filter-10)" transform="translate(-58.96, -175.32)">
<rect x="0" y="0" width="385.92" height="296.64" fill="rgb(0%, 0%, 0%)" fill-opacity="1"/>
</g>
</g>
</g>
<clipPath id="clip-11">
<rect x="0" y="0" width="99" height="182"/>
</clipPath>
<g id="source-16" clip-path="url(#clip-11)">
<g filter="url(#filter-11)" transform="translate(-58.96, -175.32)">
<rect x="0" y="0" width="385.92" height="296.64" fill="rgb(0%, 0%, 0%)" fill-opacity="1"/>
</g>
</g>
<mask id="mask-25">
<g filter="url(#filter-remove-color)">
<use xlink:href="#source-16" transform="matrix(1, 0, 0, 1, 0, 130)"/>
</g>
</mask>
<g id="compositing-group-36" transform="translate(218.96, 175.32)">
<rect x="-218.96" y="-175.32" width="385.92" height="296.64" fill="rgb(0%, 0%, 0%)" fill-opacity="0"/>
<clipPath id="clip-12">
<path clip-rule="nonzero" d="M 132 102 L 163 102 L 163 182 L 132 182 Z M 132 102 "/>
</clipPath>
<g clip-path="url(#clip-12)">
<path fill="none" stroke-width="2" stroke-linecap="butt" stroke-linejoin="miter" stroke="rgb(100%, 100%, 100%)" stroke-opacity="1" stroke-miterlimit="10" d="M 0 0.5 C 0 0.222656 0.222656 0 0.5 0 C 0.777344 0 1 0.222656 1 0.5 L 1 49.5 C 1 49.777344 0.777344 50 0.5 50 C 0.222656 50 0 49.777344 0 49.5 Z M 0 0.5 " transform="matrix(1, 0, 0, 1, 161, 131)"/>
</g>
</g>
<mask id="mask-31">
<use xlink:href="#compositing-group-36"/>
</mask>
<mask id="mask-32">
<use xlink:href="#compositing-group-36" filter="url(#filter-remove-color-and-invert-alpha)"/>
</mask>
<g id="compositing-group-37" mask="url(#mask-31)">
<g transform="translate(218.96, 175.32)">
<rect x="-218.96" y="-175.32" width="385.92" height="296.64" fill="rgb(100%, 0%, 0%)" fill-opacity="1"/>
</g>
</g>
<g id="compositing-group-38" mask="url(#mask-32)">
<g transform="translate(218.96, 175.32)">
</g>
</g>
<g id="compositing-group-39" transform="translate(218.96, 175.32)">
<rect x="-218.96" y="-175.32" width="385.92" height="296.64" fill="rgb(0%, 0%, 0%)" fill-opacity="0"/>
<path fill-rule="nonzero" fill="rgb(100%, 100%, 100%)" fill-opacity="1" d="M 161 131.5 C 161 131.222656 161.222656 131 161.5 131 C 161.777344 131 162 131.222656 162 131.5 L 162 180.5 C 162 180.777344 161.777344 181 161.5 181 C 161.222656 181 161 180.777344 161 180.5 Z M 161 131.5 "/>
</g>
<mask id="mask-33">
<use xlink:href="#compositing-group-39"/>
</mask>
<mask id="mask-34">
<use xlink:href="#compositing-group-39" filter="url(#filter-remove-color-and-invert-alpha)"/>
</mask>
<g id="compositing-group-40" mask="url(#mask-33)">
<g transform="translate(218.96, 175.32)">
</g>
</g>
<g id="compositing-group-41" mask="url(#mask-34)">
<g transform="translate(218.96, 175.32)">
<g filter="url(#filter-12)" transform="translate(-218.96, -175.32)">
<rect x="0" y="0" width="385.92" height="296.64" fill="rgb(0%, 0%, 0%)" fill-opacity="1"/>
</g>
</g>
</g>
<clipPath id="clip-13">
<rect x="0" y="0" width="163" height="182"/>
</clipPath>
<g id="source-19" clip-path="url(#clip-13)">
<g filter="url(#filter-13)" transform="translate(-218.96, -175.32)">
<rect x="0" y="0" width="385.92" height="296.64" fill="rgb(0%, 0%, 0%)" fill-opacity="1"/>
</g>
</g>
<mask id="mask-30">
<g filter="url(#filter-remove-color)">
<use xlink:href="#source-19" transform="matrix(1, 0, 0, 1, 160, 130)"/>
</g>
</mask>
<g id="compositing-group-42" transform="translate(218.96, 175.32)">
<rect x="-218.96" y="-175.32" width="385.92" height="296.64" fill="rgb(0%, 0%, 0%)" fill-opacity="0"/>
<clipPath id="clip-14">
<path clip-rule="nonzero" d="M 132 102 L 163 102 L 163 182 L 132 182 Z M 132 102 "/>
</clipPath>
<g clip-path="url(#clip-14)">
<path fill="none" stroke-width="2" stroke-linecap="butt" stroke-linejoin="miter" stroke="rgb(100%, 100%, 100%)" stroke-opacity="1" stroke-miterlimit="10" d="M 0 0.5 C 0 0.222656 0.222656 0 0.5 0 C 0.777344 0 1 0.222656 1 0.5 L 1 49.5 C 1 49.777344 0.777344 50 0.5 50 C 0.222656 50 0 49.777344 0 49.5 Z M 0 0.5 " transform="matrix(1, 0, 0, 1, 161, 131)"/>
</g>
</g>
<mask id="mask-36">
<use xlink:href="#compositing-group-42"/>
</mask>
<mask id="mask-37">
<use xlink:href="#compositing-group-42" filter="url(#filter-remove-color-and-invert-alpha)"/>
</mask>
<g id="compositing-group-43" mask="url(#mask-36)">
<g transform="translate(218.96, 175.32)">
<rect x="-218.96" y="-175.32" width="385.92" height="296.64" fill="rgb(100%, 0%, 0%)" fill-opacity="1"/>
</g>
</g>
<g id="compositing-group-44" mask="url(#mask-37)">
<g transform="translate(218.96, 175.32)">
</g>
</g>
<g id="compositing-group-45" transform="translate(218.96, 175.32)">
<rect x="-218.96" y="-175.32" width="385.92" height="296.64" fill="rgb(0%, 0%, 0%)" fill-opacity="0"/>
<path fill-rule="nonzero" fill="rgb(100%, 100%, 100%)" fill-opacity="1" d="M 161 131.5 C 161 131.222656 161.222656 131 161.5 131 C 161.777344 131 162 131.222656 162 131.5 L 162 180.5 C 162 180.777344 161.777344 181 161.5 181 C 161.222656 181 161 180.777344 161 180.5 Z M 161 131.5 "/>
</g>
<mask id="mask-38">
<use xlink:href="#compositing-group-45"/>
</mask>
<mask id="mask-39">
<use xlink:href="#compositing-group-45" filter="url(#filter-remove-color-and-invert-alpha)"/>
</mask>
<g id="compositing-group-46" mask="url(#mask-38)">
<g transform="translate(218.96, 175.32)">
</g>
</g>
<g id="compositing-group-47" mask="url(#mask-39)">
<g transform="translate(218.96, 175.32)">
<g filter="url(#filter-14)" transform="translate(-218.96, -175.32)">
<rect x="0" y="0" width="385.92" height="296.64" fill="rgb(0%, 0%, 0%)" fill-opacity="1"/>
</g>
</g>
</g>
<clipPath id="clip-15">
<rect x="0" y="0" width="163" height="182"/>
</clipPath>
<g id="source-21" clip-path="url(#clip-15)">
<g filter="url(#filter-15)" transform="translate(-218.96, -175.32)">
<rect x="0" y="0" width="385.92" height="296.64" fill="rgb(0%, 0%, 0%)" fill-opacity="1"/>
</g>
</g>
<mask id="mask-35">
<g filter="url(#filter-remove-color)">
<use xlink:href="#source-21" transform="matrix(1, 0, 0, 1, 160, 130)"/>
</g>
</mask>
</defs>
<path fill="none" stroke-width="1.5" stroke-linecap="butt" stroke-linejoin="miter" stroke="rgb(0%, 0%, 0%)" stroke-opacity="0.266667" stroke-dasharray="10 4" stroke-dashoffset="1" stroke-miterlimit="10" d="M 0.75 0.75 L 127.25 0.75 L 127.25 95.25 L 0.75 95.25 Z M 0.75 0.75 "/>
<path fill="none" stroke-width="1.5" stroke-linecap="butt" stroke-linejoin="miter" stroke="rgb(0%, 0%, 0%)" stroke-opacity="0.2" stroke-dasharray="10 4" stroke-dashoffset="1" stroke-miterlimit="10" d="M 10 10 L 118 10 L 118 86 L 10 86 Z M 10 10 "/>
<path fill="none" stroke-width="1.5" stroke-linecap="butt" stroke-linejoin="miter" stroke="rgb(0%, 0%, 0%)" stroke-opacity="0.266667" stroke-dasharray="10 4" stroke-dashoffset="1" stroke-miterlimit="10" d="M 140.75 0.75 L 267.25 0.75 L 267.25 95.25 L 140.75 95.25 Z M 140.75 0.75 "/>
<path fill="none" stroke-width="1.5" stroke-linecap="butt" stroke-linejoin="miter" stroke="rgb(0%, 0%, 0%)" stroke-opacity="0.2" stroke-dasharray="10 4" stroke-dashoffset="1" stroke-miterlimit="10" d="M 150 10 L 258 10 L 258 86 L 150 86 Z M 150 10 "/>
<path fill="none" stroke-width="1.5" stroke-linecap="butt" stroke-linejoin="miter" stroke="rgb(0%, 0%, 0%)" stroke-opacity="0.266667" stroke-dasharray="10 4" stroke-dashoffset="1" stroke-miterlimit="10" d="M 0.75 110.75 L 127.25 110.75 L 127.25 205.25 L 0.75 205.25 Z M 0.75 110.75 "/>
<path fill="none" stroke-width="1.5" stroke-linecap="butt" stroke-linejoin="miter" stroke="rgb(0%, 0%, 0%)" stroke-opacity="0.2" stroke-dasharray="10 4" stroke-dashoffset="1" stroke-miterlimit="10" d="M 10 120 L 118 120 L 118 196 L 10 196 Z M 10 120 "/>
<path fill="none" stroke-width="1.5" stroke-linecap="butt" stroke-linejoin="miter" stroke="rgb(0%, 0%, 0%)" stroke-opacity="0.266667" stroke-dasharray="10 4" stroke-dashoffset="1" stroke-miterlimit="10" d="M 140.75 110.75 L 267.25 110.75 L 267.25 205.25 L 140.75 205.25 Z M 140.75 110.75 "/>
<path fill="none" stroke-width="1.5" stroke-linecap="butt" stroke-linejoin="miter" stroke="rgb(0%, 0%, 0%)" stroke-opacity="0.2" stroke-dasharray="10 4" stroke-dashoffset="1" stroke-miterlimit="10" d="M 150 120 L 258 120 L 258 196 L 150 196 Z M 150 120 "/>
<path fill="none" stroke-width="0.75" stroke-linecap="butt" stroke-linejoin="miter" stroke="rgb(0%, 0%, 0%)" stroke-opacity="0.1" stroke-miterlimit="10" d="M 20 20 L 20 0 "/>
<path fill="none" stroke-width="0.75" stroke-linecap="butt" stroke-linejoin="miter" stroke="rgb(0%, 0%, 0%)" stroke-opacity="0.1" stroke-miterlimit="10" d="M 95 20 L 95 0 M 20 70 L 20 72 "/>
<path fill="none" stroke-width="0.75" stroke-linecap="butt" stroke-linejoin="miter" stroke="rgb(0%, 0%, 0%)" stroke-opacity="0.1" stroke-miterlimit="10" d="M 95 70 L 95 72 "/>
<path fill="none" stroke-width="0.75" stroke-linecap="butt" stroke-linejoin="miter" stroke="rgb(0%, 0%, 0%)" stroke-opacity="0.1" stroke-miterlimit="10" d="M 160 20 L 160 20 "/>
<path fill="none" stroke-width="0.75" stroke-linecap="butt" stroke-linejoin="miter" stroke="rgb(0%, 0%, 0%)" stroke-opacity="0.1" stroke-miterlimit="10" d="M 235 20 L 235 20 M 160 70 L 160 94 "/>
<path fill="none" stroke-width="0.75" stroke-linecap="butt" stroke-linejoin="miter" stroke="rgb(0%, 0%, 0%)" stroke-opacity="0.1" stroke-miterlimit="10" d="M 235 70 L 235 94 "/>
<path fill="none" stroke-width="0.75" stroke-linecap="butt" stroke-linejoin="miter" stroke="rgb(0%, 0%, 0%)" stroke-opacity="0.1" stroke-miterlimit="10" d="M 20 130 L 0 130 "/>
<path fill="none" stroke-width="0.75" stroke-linecap="butt" stroke-linejoin="miter" stroke="rgb(0%, 0%, 0%)" stroke-opacity="0.1" stroke-miterlimit="10" d="M 95 130 L 75 130 M 20 180 L 0 180 "/>
<path fill="none" stroke-width="0.75" stroke-linecap="butt" stroke-linejoin="miter" stroke="rgb(0%, 0%, 0%)" stroke-opacity="0.1" stroke-miterlimit="10" d="M 95 180 L 75 180 "/>
<path fill="none" stroke-width="0.75" stroke-linecap="butt" stroke-linejoin="miter" stroke="rgb(0%, 0%, 0%)" stroke-opacity="0.1" stroke-miterlimit="10" d="M 160 130 L 160 130 "/>
<path fill="none" stroke-width="0.75" stroke-linecap="butt" stroke-linejoin="miter" stroke="rgb(0%, 0%, 0%)" stroke-opacity="0.1" stroke-miterlimit="10" d="M 235 130 L 235 130 M 160 180 L 160 180 "/>
<path fill="none" stroke-width="0.75" stroke-linecap="butt" stroke-linejoin="miter" stroke="rgb(0%, 0%, 0%)" stroke-opacity="0.1" stroke-miterlimit="10" d="M 235 180 L 235 180 "/>
<path fill-rule="nonzero" fill="rgb(38.039216%, 50.588235%, 100%)" fill-opacity="0.490196" d="M 21 26 C 21 23.238281 23.238281 21 26 21 L 91 21 C 93.761719 21 96 23.238281 96 26 L 96 88 C 96 90.761719 93.761719 93 91 93 L 26 93 C 23.238281 93 21 90.761719 21 88 Z M 21 26 "/>
<g mask="url(#mask-0)">
<rect x="-26.8" y="-20.6" width="321.6" height="247.2" fill="rgb(38.039216%, 50.588235%, 100%)" fill-opacity="1"/>
</g>
<path fill-rule="nonzero" fill="rgb(38.039216%, 50.588235%, 100%)" fill-opacity="0.490196" d="M 21 6 C 21 3.238281 23.238281 1 26 1 L 91 1 C 93.761719 1 96 3.238281 96 6 L 96 68 C 96 70.761719 93.761719 73 91 73 L 26 73 C 23.238281 73 21 70.761719 21 68 Z M 21 6 "/>
<g mask="url(#mask-5)">
<rect x="-26.8" y="-20.6" width="321.6" height="247.2" fill="rgb(38.039216%, 50.588235%, 100%)" fill-opacity="1"/>
</g>
<path fill-rule="nonzero" fill="rgb(38.039216%, 50.588235%, 100%)" fill-opacity="0.490196" d="M 161 26 C 161 23.238281 163.238281 21 166 21 L 231 21 C 233.761719 21 236 23.238281 236 26 L 236 90 C 236 92.761719 233.761719 95 231 95 L 166 95 C 163.238281 95 161 92.761719 161 90 Z M 161 26 "/>
<g mask="url(#mask-10)">
<rect x="-26.8" y="-20.6" width="321.6" height="247.2" fill="rgb(38.039216%, 50.588235%, 100%)" fill-opacity="1"/>
</g>
<path fill-rule="nonzero" fill="rgb(38.039216%, 50.588235%, 100%)" fill-opacity="0.490196" d="M 161 26 C 161 23.238281 163.238281 21 166 21 L 231 21 C 233.761719 21 236 23.238281 236 26 L 236 90 C 236 92.761719 233.761719 95 231 95 L 166 95 C 163.238281 95 161 92.761719 161 90 Z M 161 26 "/>
<g mask="url(#mask-15)">
<rect x="-26.8" y="-20.6" width="321.6" height="247.2" fill="rgb(38.039216%, 50.588235%, 100%)" fill-opacity="1"/>
</g>
<path fill-rule="nonzero" fill="rgb(38.039216%, 50.588235%, 100%)" fill-opacity="0.490196" d="M 21 136 C 21 133.238281 23.238281 131 26 131 L 113 131 C 115.761719 131 118 133.238281 118 136 L 118 176 C 118 178.761719 115.761719 181 113 181 L 26 181 C 23.238281 181 21 178.761719 21 176 Z M 21 136 "/>
<g mask="url(#mask-20)">
<rect x="-26.8" y="-20.6" width="321.6" height="247.2" fill="rgb(38.039216%, 50.588235%, 100%)" fill-opacity="1"/>
</g>
<path fill-rule="nonzero" fill="rgb(38.039216%, 50.588235%, 100%)" fill-opacity="0.490196" d="M 1 136 C 1 133.238281 3.238281 131 6 131 L 93 131 C 95.761719 131 98 133.238281 98 136 L 98 176 C 98 178.761719 95.761719 181 93 181 L 6 181 C 3.238281 181 1 178.761719 1 176 Z M 1 136 "/>
<g mask="url(#mask-25)">
<rect x="-26.8" y="-20.6" width="321.6" height="247.2" fill="rgb(38.039216%, 50.588235%, 100%)" fill-opacity="1"/>
</g>
<path fill-rule="nonzero" fill="rgb(38.039216%, 50.588235%, 100%)" fill-opacity="0.490196" d="M 161 131.5 C 161 131.222656 161.222656 131 161.5 131 C 161.777344 131 162 131.222656 162 131.5 L 162 180.5 C 162 180.777344 161.777344 181 161.5 181 C 161.222656 181 161 180.777344 161 180.5 Z M 161 131.5 "/>
<g mask="url(#mask-30)">
<rect x="-26.8" y="-20.6" width="321.6" height="247.2" fill="rgb(38.039216%, 50.588235%, 100%)" fill-opacity="1"/>
</g>
<path fill-rule="nonzero" fill="rgb(38.039216%, 50.588235%, 100%)" fill-opacity="0.490196" d="M 161 131.5 C 161 131.222656 161.222656 131 161.5 131 C 161.777344 131 162 131.222656 162 131.5 L 162 180.5 C 162 180.777344 161.777344 181 161.5 181 C 161.222656 181 161 180.777344 161 180.5 Z M 161 131.5 "/>
<g mask="url(#mask-35)">
<rect x="-26.8" y="-20.6" width="321.6" height="247.2" fill="rgb(38.039216%, 50.588235%, 100%)" fill-opacity="1"/>
</g>
</svg>
