<?xml version="1.0" encoding="UTF-8"?>
<svg xmlns="http://www.w3.org/2000/svg" xmlns:xlink="http://www.w3.org/1999/xlink" width="408pt" height="96pt" viewBox="0 0 408 96" version="1.1">
<defs>
<clipPath id="clip1">
  <path d="M 40 40 L 168 40 L 168 96 L 40 96 Z M 40 40 "/>
</clipPath>
<clipPath id="clip2">
  <path d="M 41 41 L 167 41 L 167 96 L 41 96 Z M 41 41 "/>
</clipPath>
<clipPath id="clip3">
  <path d="M 41 46 C 41 43.238281 43.238281 41 46 41 L 162 41 C 164.761719 41 167 43.238281 167 46 L 167 130 C 167 132.761719 164.761719 135 162 135 L 46 135 C 43.238281 135 41 132.761719 41 130 Z M 41 46 "/>
</clipPath>
<clipPath id="clip4">
  <path d="M 0 0 L 128 0 L 128 96 L 0 96 Z M 0 0 "/>
</clipPath>
<clipPath id="clip5">
  <path d="M 1 1 L 127 1 L 127 95 L 1 95 Z M 1 1 "/>
</clipPath>
<clipPath id="clip6">
  <path d="M 1 6 C 1 3.238281 3.238281 1 6 1 L 122 1 C 124.761719 1 127 3.238281 127 6 L 127 90 C 127 92.761719 124.761719 95 122 95 L 6 95 C 3.238281 95 1 92.761719 1 90 Z M 1 6 "/>
</clipPath>
<clipPath id="clip7">
  <path d="M 180 40 L 257 40 L 257 96 L 180 96 Z M 180 40 "/>
</clipPath>
<clipPath id="clip8">
  <path d="M 181 41 L 256 41 L 256 96 L 181 96 Z M 181 41 "/>
</clipPath>
<clipPath id="clip9">
  <path d="M 181 46 C 181 43.238281 183.238281 41 186 41 L 251 41 C 253.761719 41 256 43.238281 256 46 L 256 130 C 256 132.761719 253.761719 135 251 135 L 186 135 C 183.238281 135 181 132.761719 181 130 Z M 181 46 "/>
</clipPath>
<clipPath id="clip10">
  <path d="M 180 0 L 257 0 L 257 96 L 180 96 Z M 180 0 "/>
</clipPath>
<clipPath id="clip11">
  <path d="M 181 1 L 256 1 L 256 95 L 181 95 Z M 181 1 "/>
</clipPath>
<clipPath id="clip12">
  <path d="M 181 6 C 181 3.238281 183.238281 1 186 1 L 251 1 C 253.761719 1 256 3.238281 256 6 L 256 90 C 256 92.761719 253.761719 95 251 95 L 186 95 C 183.238281 95 181 92.761719 181 90 Z M 181 6 "/>
</clipPath>
<clipPath id="clip13">
  <path d="M 320 40 L 408 40 L 408 92 L 320 92 Z M 320 40 "/>
</clipPath>
<clipPath id="clip14">
  <path d="M 321 41 L 408 41 L 408 91 L 321 91 Z M 321 41 "/>
</clipPath>
<clipPath id="clip15">
  <path d="M 321 46 C 321 43.238281 323.238281 41 326 41 L 442 41 C 444.761719 41 447 43.238281 447 46 L 447 86 C 447 88.761719 444.761719 91 442 91 L 326 91 C 323.238281 91 321 88.761719 321 86 Z M 321 46 "/>
</clipPath>
<clipPath id="clip16">
  <path d="M 280 40 L 408 40 L 408 92 L 280 92 Z M 280 40 "/>
</clipPath>
<clipPath id="clip17">
  <path d="M 281 41 L 407 41 L 407 91 L 281 91 Z M 281 41 "/>
</clipPath>
<clipPath id="clip18">
  <path d="M 281 46 C 281 43.238281 283.238281 41 286 41 L 402 41 C 404.761719 41 407 43.238281 407 46 L 407 86 C 407 88.761719 404.761719 91 402 91 L 286 91 C 283.238281 91 281 88.761719 281 86 Z M 281 46 "/>
</clipPath>
</defs>
<g id="surface2">
<path style="fill:none;stroke-width:1.5;stroke-linecap:butt;stroke-linejoin:miter;stroke:rgb(0%,0%,0%);stroke-opacity:0.266667;stroke-dasharray:10,4;stroke-dashoffset:1;stroke-miterlimit:10;" d="M 0.75 0.75 L 127.25 0.75 L 127.25 95.25 L 0.75 95.25 Z M 0.75 0.75 "/>
<path style="fill:none;stroke-width:1.5;stroke-linecap:butt;stroke-linejoin:miter;stroke:rgb(0%,0%,0%);stroke-opacity:0.2;stroke-dasharray:10,4;stroke-dashoffset:1;stroke-miterlimit:10;" d="M 10 10 L 118 10 L 118 86 L 10 86 Z M 10 10 "/>
<path style="fill:none;stroke-width:1.5;stroke-linecap:butt;stroke-linejoin:miter;stroke:rgb(0%,0%,0%);stroke-opacity:0.266667;stroke-dasharray:10,4;stroke-dashoffset:1;stroke-miterlimit:10;" d="M 140.75 0.75 L 267.25 0.75 L 267.25 95.25 L 140.75 95.25 Z M 140.75 0.75 "/>
<path style="fill:none;stroke-width:1.5;stroke-linecap:butt;stroke-linejoin:miter;stroke:rgb(0%,0%,0%);stroke-opacity:0.2;stroke-dasharray:10,4;stroke-dashoffset:1;stroke-miterlimit:10;" d="M 150 10 L 258 10 L 258 86 L 150 86 Z M 150 10 "/>
<path style="fill:none;stroke-width:1.5;stroke-linecap:butt;stroke-linejoin:miter;stroke:rgb(0%,0%,0%);stroke-opacity:0.266667;stroke-dasharray:10,4;stroke-dashoffset:1;stroke-miterlimit:10;" d="M 280.75 0.75 L 407.25 0.75 L 407.25 95.25 L 280.75 95.25 Z M 280.75 0.75 "/>
<path style="fill:none;stroke-width:1.5;stroke-linecap:butt;stroke-linejoin:miter;stroke:rgb(0%,0%,0%);stroke-opacity:0.2;stroke-dasharray:10,4;stroke-dashoffset:1;stroke-miterlimit:10;" d="M 290 10 L 398 10 L 398 86 L 290 86 Z M 290 10 "/>
<path style="fill:none;stroke-width:0.75;stroke-linecap:butt;stroke-linejoin:miter;stroke:rgb(0%,0%,0%);stroke-opacity:0.1;stroke-miterlimit:10;" d="M 40 40 L 0 0 "/>
<path style="fill:none;stroke-width:0.75;stroke-linecap:butt;stroke-linejoin:miter;stroke:rgb(0%,0%,0%);stroke-opacity:0.1;stroke-miterlimit:10;" d="M 115 40 L 75 0 M 40 90 L 0 94 "/>
<path style="fill:none;stroke-width:0.75;stroke-linecap:butt;stroke-linejoin:miter;stroke:rgb(0%,0%,0%);stroke-opacity:0.1;stroke-miterlimit:10;" d="M 115 90 L 75 94 "/>
<path style="fill:none;stroke-width:0.75;stroke-linecap:butt;stroke-linejoin:miter;stroke:rgb(0%,0%,0%);stroke-opacity:0.1;stroke-miterlimit:10;" d="M 180 40 L 180 0 "/>
<path style="fill:none;stroke-width:0.75;stroke-linecap:butt;stroke-linejoin:miter;stroke:rgb(0%,0%,0%);stroke-opacity:0.1;stroke-miterlimit:10;" d="M 255 40 L 255 0 M 180 90 L 180 94 "/>
<path style="fill:none;stroke-width:0.75;stroke-linecap:butt;stroke-linejoin:miter;stroke:rgb(0%,0%,0%);stroke-opacity:0.1;stroke-miterlimit:10;" d="M 255 90 L 255 94 "/>
<path style="fill:none;stroke-width:0.75;stroke-linecap:butt;stroke-linejoin:miter;stroke:rgb(0%,0%,0%);stroke-opacity:0.1;stroke-miterlimit:10;" d="M 320 40 L 280 40 "/>
<path style="fill:none;stroke-width:0.75;stroke-linecap:butt;stroke-linejoin:miter;stroke:rgb(0%,0%,0%);stroke-opacity:0.1;stroke-miterlimit:10;" d="M 395 40 L 355 40 M 320 90 L 280 90 "/>
<path style="fill:none;stroke-width:0.75;stroke-linecap:butt;stroke-linejoin:miter;stroke:rgb(0%,0%,0%);stroke-opacity:0.1;stroke-miterlimit:10;" d="M 395 90 L 355 90 "/>
<g clip-path="url(#clip1)" clip-rule="nonzero">
<path style="fill:none;stroke-width:1;stroke-linecap:butt;stroke-linejoin:miter;stroke:rgb(38.039216%,50.588235%,100%);stroke-opacity:1;stroke-miterlimit:10;" d="M 0 5 C 0 2.238281 2.238281 0 5 0 L 121 0 C 123.761719 0 126 2.238281 126 5 L 126 89 C 126 91.761719 123.761719 94 121 94 L 5 94 C 2.238281 94 0 91.761719 0 89 Z M 0 5 " transform="matrix(1,0,0,1,41,41)"/>
</g>
<path style=" stroke:none;fill-rule:nonzero;fill:rgb(38.039216%,50.588235%,100%);fill-opacity:0.490196;" d="M 41 46 C 41 43.238281 43.238281 41 46 41 L 162 41 C 164.761719 41 167 43.238281 167 46 L 167 130 C 167 132.761719 164.761719 135 162 135 L 46 135 C 43.238281 135 41 132.761719 41 130 Z M 41 46 "/>
<g clip-path="url(#clip2)" clip-rule="nonzero">
<g clip-path="url(#clip3)" clip-rule="nonzero">
<path style="fill:none;stroke-width:1;stroke-linecap:butt;stroke-linejoin:miter;stroke:rgb(38.039216%,50.588235%,100%);stroke-opacity:1;stroke-miterlimit:10;" d="M 0 5 C 0 2.238281 2.238281 0 5 0 L 121 0 C 123.761719 0 126 2.238281 126 5 L 126 89 C 126 91.761719 123.761719 94 121 94 L 5 94 C 2.238281 94 0 91.761719 0 89 Z M 0 5 " transform="matrix(1,0,0,1,41,41)"/>
</g>
</g>
<g clip-path="url(#clip4)" clip-rule="nonzero">
<path style="fill:none;stroke-width:1;stroke-linecap:butt;stroke-linejoin:miter;stroke:rgb(38.039216%,50.588235%,100%);stroke-opacity:1;stroke-miterlimit:10;" d="M 0 5 C 0 2.238281 2.238281 0 5 0 L 121 0 C 123.761719 0 126 2.238281 126 5 L 126 89 C 126 91.761719 123.761719 94 121 94 L 5 94 C 2.238281 94 0 91.761719 0 89 Z M 0 5 " transform="matrix(1,0,0,1,1,1)"/>
</g>
<path style=" stroke:none;fill-rule:nonzero;fill:rgb(38.039216%,50.588235%,100%);fill-opacity:0.490196;" d="M 1 6 C 1 3.238281 3.238281 1 6 1 L 122 1 C 124.761719 1 127 3.238281 127 6 L 127 90 C 127 92.761719 124.761719 95 122 95 L 6 95 C 3.238281 95 1 92.761719 1 90 Z M 1 6 "/>
<g clip-path="url(#clip5)" clip-rule="nonzero">
<g clip-path="url(#clip6)" clip-rule="nonzero">
<path style="fill:none;stroke-width:1;stroke-linecap:butt;stroke-linejoin:miter;stroke:rgb(38.039216%,50.588235%,100%);stroke-opacity:1;stroke-miterlimit:10;" d="M 0 5 C 0 2.238281 2.238281 0 5 0 L 121 0 C 123.761719 0 126 2.238281 126 5 L 126 89 C 126 91.761719 123.761719 94 121 94 L 5 94 C 2.238281 94 0 91.761719 0 89 Z M 0 5 " transform="matrix(1,0,0,1,1,1)"/>
</g>
</g>
<g clip-path="url(#clip7)" clip-rule="nonzero">
<path style="fill:none;stroke-width:1;stroke-linecap:butt;stroke-linejoin:miter;stroke:rgb(38.039216%,50.588235%,100%);stroke-opacity:1;stroke-miterlimit:10;" d="M 0 5 C 0 2.238281 2.238281 0 5 0 L 70 0 C 72.761719 0 75 2.238281 75 5 L 75 89 C 75 91.761719 72.761719 94 70 94 L 5 94 C 2.238281 94 0 91.761719 0 89 Z M 0 5 " transform="matrix(1,0,0,1,181,41)"/>
</g>
<path style=" stroke:none;fill-rule:nonzero;fill:rgb(38.039216%,50.588235%,100%);fill-opacity:0.490196;" d="M 181 46 C 181 43.238281 183.238281 41 186 41 L 251 41 C 253.761719 41 256 43.238281 256 46 L 256 130 C 256 132.761719 253.761719 135 251 135 L 186 135 C 183.238281 135 181 132.761719 181 130 Z M 181 46 "/>
<g clip-path="url(#clip8)" clip-rule="nonzero">
<g clip-path="url(#clip9)" clip-rule="nonzero">
<path style="fill:none;stroke-width:1;stroke-linecap:butt;stroke-linejoin:miter;stroke:rgb(38.039216%,50.588235%,100%);stroke-opacity:1;stroke-miterlimit:10;" d="M 0 5 C 0 2.238281 2.238281 0 5 0 L 70 0 C 72.761719 0 75 2.238281 75 5 L 75 89 C 75 91.761719 72.761719 94 70 94 L 5 94 C 2.238281 94 0 91.761719 0 89 Z M 0 5 " transform="matrix(1,0,0,1,181,41)"/>
</g>
</g>
<g clip-path="url(#clip10)" clip-rule="nonzero">
<path style="fill:none;stroke-width:1;stroke-linecap:butt;stroke-linejoin:miter;stroke:rgb(38.039216%,50.588235%,100%);stroke-opacity:1;stroke-miterlimit:10;" d="M 0 5 C 0 2.238281 2.238281 0 5 0 L 70 0 C 72.761719 0 75 2.238281 75 5 L 75 89 C 75 91.761719 72.761719 94 70 94 L 5 94 C 2.238281 94 0 91.761719 0 89 Z M 0 5 " transform="matrix(1,0,0,1,181,1)"/>
</g>
<path style=" stroke:none;fill-rule:nonzero;fill:rgb(38.039216%,50.588235%,100%);fill-opacity:0.490196;" d="M 181 6 C 181 3.238281 183.238281 1 186 1 L 251 1 C 253.761719 1 256 3.238281 256 6 L 256 90 C 256 92.761719 253.761719 95 251 95 L 186 95 C 183.238281 95 181 92.761719 181 90 Z M 181 6 "/>
<g clip-path="url(#clip11)" clip-rule="nonzero">
<g clip-path="url(#clip12)" clip-rule="nonzero">
<path style="fill:none;stroke-width:1;stroke-linecap:butt;stroke-linejoin:miter;stroke:rgb(38.039216%,50.588235%,100%);stroke-opacity:1;stroke-miterlimit:10;" d="M 0 5 C 0 2.238281 2.238281 0 5 0 L 70 0 C 72.761719 0 75 2.238281 75 5 L 75 89 C 75 91.761719 72.761719 94 70 94 L 5 94 C 2.238281 94 0 91.761719 0 89 Z M 0 5 " transform="matrix(1,0,0,1,181,1)"/>
</g>
</g>
<g clip-path="url(#clip13)" clip-rule="nonzero">
<path style="fill:none;stroke-width:1;stroke-linecap:butt;stroke-linejoin:miter;stroke:rgb(38.039216%,50.588235%,100%);stroke-opacity:1;stroke-miterlimit:10;" d="M 0 5 C 0 2.238281 2.238281 0 5 0 L 121 0 C 123.761719 0 126 2.238281 126 5 L 126 45 C 126 47.761719 123.761719 50 121 50 L 5 50 C 2.238281 50 0 47.761719 0 45 Z M 0 5 " transform="matrix(1,0,0,1,321,41)"/>
</g>
<path style=" stroke:none;fill-rule:nonzero;fill:rgb(38.039216%,50.588235%,100%);fill-opacity:0.490196;" d="M 321 46 C 321 43.238281 323.238281 41 326 41 L 442 41 C 444.761719 41 447 43.238281 447 46 L 447 86 C 447 88.761719 444.761719 91 442 91 L 326 91 C 323.238281 91 321 88.761719 321 86 Z M 321 46 "/>
<g clip-path="url(#clip14)" clip-rule="nonzero">
<g clip-path="url(#clip15)" clip-rule="nonzero">
<path style="fill:none;stroke-width:1;stroke-linecap:butt;stroke-linejoin:miter;stroke:rgb(38.039216%,50.588235%,100%);stroke-opacity:1;stroke-miterlimit:10;" d="M 0 5 C 0 2.238281 2.238281 0 5 0 L 121 0 C 123.761719 0 126 2.238281 126 5 L 126 45 C 126 47.761719 123.761719 50 121 50 L 5 50 C 2.238281 50 0 47.761719 0 45 Z M 0 5 " transform="matrix(1,0,0,1,321,41)"/>
</g>
</g>
<g clip-path="url(#clip16)" clip-rule="nonzero">
<path style="fill:none;stroke-width:1;stroke-linecap:butt;stroke-linejoin:miter;stroke:rgb(38.039216%,50.588235%,100%);stroke-opacity:1;stroke-miterlimit:10;" d="M 0 5 C 0 2.238281 2.238281 0 5 0 L 121 0 C 123.761719 0 126 2.238281 126 5 L 126 45 C 126 47.761719 123.761719 50 121 50 L 5 50 C 2.238281 50 0 47.761719 0 45 Z M 0 5 " transform="matrix(1,0,0,1,281,41)"/>
</g>
<path style=" stroke:none;fill-rule:nonzero;fill:rgb(38.039216%,50.588235%,100%);fill-opacity:0.490196;" d="M 281 46 C 281 43.238281 283.238281 41 286 41 L 402 41 C 404.761719 41 407 43.238281 407 46 L 407 86 C 407 88.761719 404.761719 91 402 91 L 286 91 C 283.238281 91 281 88.761719 281 86 Z M 281 46 "/>
<g clip-path="url(#clip17)" clip-rule="nonzero">
<g clip-path="url(#clip18)" clip-rule="nonzero">
<path style="fill:none;stroke-width:1;stroke-linecap:butt;stroke-linejoin:miter;stroke:rgb(38.039216%,50.588235%,100%);stroke-opacity:1;stroke-miterlimit:10;" d="M 0 5 C 0 2.238281 2.238281 0 5 0 L 121 0 C 123.761719 0 126 2.238281 126 5 L 126 45 C 126 47.761719 123.761719 50 121 50 L 5 50 C 2.238281 50 0 47.761719 0 45 Z M 0 5 " transform="matrix(1,0,0,1,281,41)"/>
</g>
</g>
</g>
</svg>
