<?xml version="1.0" encoding="UTF-8"?>
<svg xmlns="http://www.w3.org/2000/svg" xmlns:xlink="http://www.w3.org/1999/xlink" width="130pt" height="40pt" viewBox="0 0 130 40" version="1.1">
<g id="surface2">
<path style=" stroke:none;fill-rule:nonzero;fill:rgb(0%,0%,0%);fill-opacity:1;" d="M 14 0 L 28 15 L 14 30 L 0 15 Z M 14 0 "/>
<path style=" stroke:none;fill-rule:nonzero;fill:rgb(0%,0%,0%);fill-opacity:1;" d="M 62 15 C 62 22.730469 55.730469 29 48 29 C 40.269531 29 34 22.730469 34 15 C 34 7.269531 40.269531 1 48 1 C 55.730469 1 62 7.269531 62 15 Z M 62 15 "/>
<path style=" stroke:none;fill-rule:nonzero;fill:rgb(0%,0%,0%);fill-opacity:1;" d="M 82 0 L 96 30 L 68 30 Z M 82 0 "/>
<path style=" stroke:none;fill-rule:nonzero;fill:rgb(0%,0%,0%);fill-opacity:1;" d="M 110.332031 0 L 119.667969 0 L 119.667969 10.332031 L 129 10.332031 L 129 19.667969 L 119.667969 19.667969 L 119.667969 30 L 110.332031 30 L 110.332031 19.667969 L 101 19.667969 L 101 10.332031 L 110.332031 10.332031 Z M 110.332031 0 "/>
</g>
</svg>
