<?xml version="1.0" encoding="UTF-8"?>
<svg xmlns="http://www.w3.org/2000/svg" xmlns:xlink="http://www.w3.org/1999/xlink" width="128pt" height="96pt" viewBox="0 0 128 96" version="1.1">
<defs>
<clipPath id="clip1">
  <path d="M 10 10 L 52 10 L 52 42 L 10 42 Z M 10 10 "/>
</clipPath>
<clipPath id="clip2">
  <path d="M 11 11 L 51 11 L 51 41 L 11 41 Z M 11 11 "/>
</clipPath>
<clipPath id="clip3">
  <path d="M 11 16 C 11 13.238281 13.238281 11 16 11 L 46 11 C 48.761719 11 51 13.238281 51 16 L 51 36 C 51 38.761719 48.761719 41 46 41 L 16 41 C 13.238281 41 11 38.761719 11 36 Z M 11 16 "/>
</clipPath>
<clipPath id="clip4">
  <path d="M 29 34 L 71 34 L 71 66 L 29 66 Z M 29 34 "/>
</clipPath>
<clipPath id="clip5">
  <path d="M 30 35 L 70 35 L 70 65 L 30 65 Z M 30 35 "/>
</clipPath>
<clipPath id="clip6">
  <path d="M 30 40 C 30 37.238281 32.238281 35 35 35 L 65 35 C 67.761719 35 70 37.238281 70 40 L 70 60 C 70 62.761719 67.761719 65 65 65 L 35 65 C 32.238281 65 30 62.761719 30 60 Z M 30 40 "/>
</clipPath>
</defs>
<g id="surface2">
<path style="fill:none;stroke-width:1.5;stroke-linecap:butt;stroke-linejoin:miter;stroke:rgb(0%,0%,0%);stroke-opacity:0.266667;stroke-dasharray:10,4;stroke-dashoffset:1;stroke-miterlimit:10;" d="M 0.75 0.75 L 127.25 0.75 L 127.25 95.25 L 0.75 95.25 Z M 0.75 0.75 "/>
<path style="fill:none;stroke-width:1.5;stroke-linecap:butt;stroke-linejoin:miter;stroke:rgb(0%,0%,0%);stroke-opacity:0.2;stroke-dasharray:10,4;stroke-dashoffset:1;stroke-miterlimit:10;" d="M 10 10 L 118 10 L 118 86 L 10 86 Z M 10 10 "/>
<path style="fill:none;stroke-width:0.75;stroke-linecap:butt;stroke-linejoin:miter;stroke:rgb(0%,0%,0%);stroke-opacity:0.1;stroke-miterlimit:10;" d="M 10 10 L 29 34 "/>
<path style="fill:none;stroke-width:0.75;stroke-linecap:butt;stroke-linejoin:miter;stroke:rgb(0%,0%,0%);stroke-opacity:0.1;stroke-miterlimit:10;" d="M 50 10 L 69 34 M 10 40 L 29 64 "/>
<path style="fill:none;stroke-width:0.75;stroke-linecap:butt;stroke-linejoin:miter;stroke:rgb(0%,0%,0%);stroke-opacity:0.1;stroke-miterlimit:10;" d="M 50 40 L 69 64 "/>
<g clip-path="url(#clip1)" clip-rule="nonzero">
<path style="fill:none;stroke-width:1;stroke-linecap:butt;stroke-linejoin:miter;stroke:rgb(38.039216%,50.588235%,100%);stroke-opacity:1;stroke-miterlimit:10;" d="M 0 5 C 0 2.238281 2.238281 0 5 0 L 35 0 C 37.761719 0 40 2.238281 40 5 L 40 25 C 40 27.761719 37.761719 30 35 30 L 5 30 C 2.238281 30 0 27.761719 0 25 Z M 0 5 " transform="matrix(1,0,0,1,11,11)"/>
</g>
<path style=" stroke:none;fill-rule:nonzero;fill:rgb(38.039216%,50.588235%,100%);fill-opacity:0.490196;" d="M 11 16 C 11 13.238281 13.238281 11 16 11 L 46 11 C 48.761719 11 51 13.238281 51 16 L 51 36 C 51 38.761719 48.761719 41 46 41 L 16 41 C 13.238281 41 11 38.761719 11 36 Z M 11 16 "/>
<g clip-path="url(#clip2)" clip-rule="nonzero">
<g clip-path="url(#clip3)" clip-rule="nonzero">
<path style="fill:none;stroke-width:1;stroke-linecap:butt;stroke-linejoin:miter;stroke:rgb(38.039216%,50.588235%,100%);stroke-opacity:1;stroke-miterlimit:10;" d="M 0 5 C 0 2.238281 2.238281 0 5 0 L 35 0 C 37.761719 0 40 2.238281 40 5 L 40 25 C 40 27.761719 37.761719 30 35 30 L 5 30 C 2.238281 30 0 27.761719 0 25 Z M 0 5 " transform="matrix(1,0,0,1,11,11)"/>
</g>
</g>
<g clip-path="url(#clip4)" clip-rule="nonzero">
<path style="fill:none;stroke-width:1;stroke-linecap:butt;stroke-linejoin:miter;stroke:rgb(38.039216%,50.588235%,100%);stroke-opacity:1;stroke-miterlimit:10;" d="M 0 5 C 0 2.238281 2.238281 0 5 0 L 35 0 C 37.761719 0 40 2.238281 40 5 L 40 25 C 40 27.761719 37.761719 30 35 30 L 5 30 C 2.238281 30 0 27.761719 0 25 Z M 0 5 " transform="matrix(1,0,0,1,30,35)"/>
</g>
<path style=" stroke:none;fill-rule:nonzero;fill:rgb(38.039216%,50.588235%,100%);fill-opacity:0.490196;" d="M 30 40 C 30 37.238281 32.238281 35 35 35 L 65 35 C 67.761719 35 70 37.238281 70 40 L 70 60 C 70 62.761719 67.761719 65 65 65 L 35 65 C 32.238281 65 30 62.761719 30 60 Z M 30 40 "/>
<g clip-path="url(#clip5)" clip-rule="nonzero">
<g clip-path="url(#clip6)" clip-rule="nonzero">
<path style="fill:none;stroke-width:1;stroke-linecap:butt;stroke-linejoin:miter;stroke:rgb(38.039216%,50.588235%,100%);stroke-opacity:1;stroke-miterlimit:10;" d="M 0 5 C 0 2.238281 2.238281 0 5 0 L 35 0 C 37.761719 0 40 2.238281 40 5 L 40 25 C 40 27.761719 37.761719 30 35 30 L 5 30 C 2.238281 30 0 27.761719 0 25 Z M 0 5 " transform="matrix(1,0,0,1,30,35)"/>
</g>
</g>
<path style=" stroke:none;fill-rule:nonzero;fill:rgb(100%,0%,0%);fill-opacity:1;" d="M 50 50 L 50 60 L 53 58 L 56 62 L 58 62 L 55 58 L 59 58 Z M 50 50 "/>
</g>
</svg>
