<?xml version="1.0" encoding="UTF-8"?>
<svg xmlns="http://www.w3.org/2000/svg" xmlns:xlink="http://www.w3.org/1999/xlink" width="286pt" height="222pt" viewBox="0 0 286 222" version="1.1">
<g id="surface2">
<path style="fill:none;stroke-width:1.5;stroke-linecap:butt;stroke-linejoin:miter;stroke:rgb(0%,0%,0%);stroke-opacity:0.266667;stroke-dasharray:10,4;stroke-dashoffset:1;stroke-miterlimit:10;" d="M 0.75 0.75 L 63.25 0.75 L 63.25 47.25 L 0.75 47.25 Z M 0.75 0.75 "/>
<path style="fill:none;stroke-width:1.5;stroke-linecap:butt;stroke-linejoin:miter;stroke:rgb(0%,0%,0%);stroke-opacity:0.2;stroke-dasharray:10,4;stroke-dashoffset:1;stroke-miterlimit:10;" d="M 0 0 L 64 0 L 64 48 L 0 48 Z M 0 0 "/>
<path style="fill:none;stroke-width:1.5;stroke-linecap:butt;stroke-linejoin:miter;stroke:rgb(0%,0%,0%);stroke-opacity:0.266667;stroke-dasharray:10,4;stroke-dashoffset:1;stroke-miterlimit:10;" d="M 74.75 0.75 L 137.25 0.75 L 137.25 47.25 L 74.75 47.25 Z M 74.75 0.75 "/>
<path style="fill:none;stroke-width:1.5;stroke-linecap:butt;stroke-linejoin:miter;stroke:rgb(0%,0%,0%);stroke-opacity:0.2;stroke-dasharray:10,4;stroke-dashoffset:1;stroke-miterlimit:10;" d="M 74 0 L 138 0 L 138 48 L 74 48 Z M 74 0 "/>
<path style="fill:none;stroke-width:1.5;stroke-linecap:butt;stroke-linejoin:miter;stroke:rgb(0%,0%,0%);stroke-opacity:0.266667;stroke-dasharray:10,4;stroke-dashoffset:1;stroke-miterlimit:10;" d="M 148.75 0.75 L 211.25 0.75 L 211.25 47.25 L 148.75 47.25 Z M 148.75 0.75 "/>
<path style="fill:none;stroke-width:1.5;stroke-linecap:butt;stroke-linejoin:miter;stroke:rgb(0%,0%,0%);stroke-opacity:0.2;stroke-dasharray:10,4;stroke-dashoffset:1;stroke-miterlimit:10;" d="M 148 0 L 212 0 L 212 48 L 148 48 Z M 148 0 "/>
<path style="fill:none;stroke-width:1.5;stroke-linecap:butt;stroke-linejoin:miter;stroke:rgb(0%,0%,0%);stroke-opacity:0.266667;stroke-dasharray:10,4;stroke-dashoffset:1;stroke-miterlimit:10;" d="M 222.75 0.75 L 285.25 0.75 L 285.25 47.25 L 222.75 47.25 Z M 222.75 0.75 "/>
<path style="fill:none;stroke-width:1.5;stroke-linecap:butt;stroke-linejoin:miter;stroke:rgb(0%,0%,0%);stroke-opacity:0.2;stroke-dasharray:10,4;stroke-dashoffset:1;stroke-miterlimit:10;" d="M 222 0 L 286 0 L 286 48 L 222 48 Z M 222 0 "/>
<path style="fill:none;stroke-width:1.5;stroke-linecap:butt;stroke-linejoin:miter;stroke:rgb(0%,0%,0%);stroke-opacity:0.266667;stroke-dasharray:10,4;stroke-dashoffset:1;stroke-miterlimit:10;" d="M 0.75 58.75 L 63.25 58.75 L 63.25 105.25 L 0.75 105.25 Z M 0.75 58.75 "/>
<path style="fill:none;stroke-width:1.5;stroke-linecap:butt;stroke-linejoin:miter;stroke:rgb(0%,0%,0%);stroke-opacity:0.2;stroke-dasharray:10,4;stroke-dashoffset:1;stroke-miterlimit:10;" d="M 0 58 L 64 58 L 64 106 L 0 106 Z M 0 58 "/>
<path style="fill:none;stroke-width:1.5;stroke-linecap:butt;stroke-linejoin:miter;stroke:rgb(0%,0%,0%);stroke-opacity:0.266667;stroke-dasharray:10,4;stroke-dashoffset:1;stroke-miterlimit:10;" d="M 74.75 58.75 L 137.25 58.75 L 137.25 105.25 L 74.75 105.25 Z M 74.75 58.75 "/>
<path style="fill:none;stroke-width:1.5;stroke-linecap:butt;stroke-linejoin:miter;stroke:rgb(0%,0%,0%);stroke-opacity:0.2;stroke-dasharray:10,4;stroke-dashoffset:1;stroke-miterlimit:10;" d="M 74 58 L 138 58 L 138 106 L 74 106 Z M 74 58 "/>
<path style="fill:none;stroke-width:1.5;stroke-linecap:butt;stroke-linejoin:miter;stroke:rgb(0%,0%,0%);stroke-opacity:0.266667;stroke-dasharray:10,4;stroke-dashoffset:1;stroke-miterlimit:10;" d="M 148.75 58.75 L 211.25 58.75 L 211.25 105.25 L 148.75 105.25 Z M 148.75 58.75 "/>
<path style="fill:none;stroke-width:1.5;stroke-linecap:butt;stroke-linejoin:miter;stroke:rgb(0%,0%,0%);stroke-opacity:0.2;stroke-dasharray:10,4;stroke-dashoffset:1;stroke-miterlimit:10;" d="M 148 58 L 212 58 L 212 106 L 148 106 Z M 148 58 "/>
<path style="fill:none;stroke-width:1.5;stroke-linecap:butt;stroke-linejoin:miter;stroke:rgb(0%,0%,0%);stroke-opacity:0.266667;stroke-dasharray:10,4;stroke-dashoffset:1;stroke-miterlimit:10;" d="M 222.75 58.75 L 285.25 58.75 L 285.25 105.25 L 222.75 105.25 Z M 222.75 58.75 "/>
<path style="fill:none;stroke-width:1.5;stroke-linecap:butt;stroke-linejoin:miter;stroke:rgb(0%,0%,0%);stroke-opacity:0.2;stroke-dasharray:10,4;stroke-dashoffset:1;stroke-miterlimit:10;" d="M 222 58 L 286 58 L 286 106 L 222 106 Z M 222 58 "/>
<path style="fill:none;stroke-width:1.5;stroke-linecap:butt;stroke-linejoin:miter;stroke:rgb(0%,0%,0%);stroke-opacity:0.266667;stroke-dasharray:10,4;stroke-dashoffset:1;stroke-miterlimit:10;" d="M 0.75 116.75 L 63.25 116.75 L 63.25 163.25 L 0.75 163.25 Z M 0.75 116.75 "/>
<path style="fill:none;stroke-width:1.5;stroke-linecap:butt;stroke-linejoin:miter;stroke:rgb(0%,0%,0%);stroke-opacity:0.2;stroke-dasharray:10,4;stroke-dashoffset:1;stroke-miterlimit:10;" d="M 0 116 L 64 116 L 64 164 L 0 164 Z M 0 116 "/>
<path style="fill:none;stroke-width:1.5;stroke-linecap:butt;stroke-linejoin:miter;stroke:rgb(0%,0%,0%);stroke-opacity:0.266667;stroke-dasharray:10,4;stroke-dashoffset:1;stroke-miterlimit:10;" d="M 74.75 116.75 L 137.25 116.75 L 137.25 163.25 L 74.75 163.25 Z M 74.75 116.75 "/>
<path style="fill:none;stroke-width:1.5;stroke-linecap:butt;stroke-linejoin:miter;stroke:rgb(0%,0%,0%);stroke-opacity:0.2;stroke-dasharray:10,4;stroke-dashoffset:1;stroke-miterlimit:10;" d="M 74 116 L 138 116 L 138 164 L 74 164 Z M 74 116 "/>
<path style="fill:none;stroke-width:1.5;stroke-linecap:butt;stroke-linejoin:miter;stroke:rgb(0%,0%,0%);stroke-opacity:0.266667;stroke-dasharray:10,4;stroke-dashoffset:1;stroke-miterlimit:10;" d="M 148.75 116.75 L 211.25 116.75 L 211.25 163.25 L 148.75 163.25 Z M 148.75 116.75 "/>
<path style="fill:none;stroke-width:1.5;stroke-linecap:butt;stroke-linejoin:miter;stroke:rgb(0%,0%,0%);stroke-opacity:0.2;stroke-dasharray:10,4;stroke-dashoffset:1;stroke-miterlimit:10;" d="M 148 116 L 212 116 L 212 164 L 148 164 Z M 148 116 "/>
<path style="fill:none;stroke-width:1.5;stroke-linecap:butt;stroke-linejoin:miter;stroke:rgb(0%,0%,0%);stroke-opacity:0.266667;stroke-dasharray:10,4;stroke-dashoffset:1;stroke-miterlimit:10;" d="M 222.75 116.75 L 285.25 116.75 L 285.25 163.25 L 222.75 163.25 Z M 222.75 116.75 "/>
<path style="fill:none;stroke-width:1.5;stroke-linecap:butt;stroke-linejoin:miter;stroke:rgb(0%,0%,0%);stroke-opacity:0.2;stroke-dasharray:10,4;stroke-dashoffset:1;stroke-miterlimit:10;" d="M 222 116 L 286 116 L 286 164 L 222 164 Z M 222 116 "/>
<path style="fill:none;stroke-width:1.5;stroke-linecap:butt;stroke-linejoin:miter;stroke:rgb(0%,0%,0%);stroke-opacity:0.266667;stroke-dasharray:10,4;stroke-dashoffset:1;stroke-miterlimit:10;" d="M 0.75 174.75 L 63.25 174.75 L 63.25 221.25 L 0.75 221.25 Z M 0.75 174.75 "/>
<path style="fill:none;stroke-width:1.5;stroke-linecap:butt;stroke-linejoin:miter;stroke:rgb(0%,0%,0%);stroke-opacity:0.2;stroke-dasharray:10,4;stroke-dashoffset:1;stroke-miterlimit:10;" d="M 0 174 L 64 174 L 64 222 L 0 222 Z M 0 174 "/>
<path style="fill:none;stroke-width:1.5;stroke-linecap:butt;stroke-linejoin:miter;stroke:rgb(0%,0%,0%);stroke-opacity:0.266667;stroke-dasharray:10,4;stroke-dashoffset:1;stroke-miterlimit:10;" d="M 74.75 174.75 L 137.25 174.75 L 137.25 221.25 L 74.75 221.25 Z M 74.75 174.75 "/>
<path style="fill:none;stroke-width:1.5;stroke-linecap:butt;stroke-linejoin:miter;stroke:rgb(0%,0%,0%);stroke-opacity:0.2;stroke-dasharray:10,4;stroke-dashoffset:1;stroke-miterlimit:10;" d="M 74 174 L 138 174 L 138 222 L 74 222 Z M 74 174 "/>
<path style="fill:none;stroke-width:1.5;stroke-linecap:butt;stroke-linejoin:miter;stroke:rgb(0%,0%,0%);stroke-opacity:0.266667;stroke-dasharray:10,4;stroke-dashoffset:1;stroke-miterlimit:10;" d="M 148.75 174.75 L 211.25 174.75 L 211.25 221.25 L 148.75 221.25 Z M 148.75 174.75 "/>
<path style="fill:none;stroke-width:1.5;stroke-linecap:butt;stroke-linejoin:miter;stroke:rgb(0%,0%,0%);stroke-opacity:0.2;stroke-dasharray:10,4;stroke-dashoffset:1;stroke-miterlimit:10;" d="M 148 174 L 212 174 L 212 222 L 148 222 Z M 148 174 "/>
<path style="fill:none;stroke-width:1.5;stroke-linecap:butt;stroke-linejoin:miter;stroke:rgb(0%,0%,0%);stroke-opacity:0.266667;stroke-dasharray:10,4;stroke-dashoffset:1;stroke-miterlimit:10;" d="M 222.75 174.75 L 285.25 174.75 L 285.25 221.25 L 222.75 221.25 Z M 222.75 174.75 "/>
<path style="fill:none;stroke-width:1.5;stroke-linecap:butt;stroke-linejoin:miter;stroke:rgb(0%,0%,0%);stroke-opacity:0.2;stroke-dasharray:10,4;stroke-dashoffset:1;stroke-miterlimit:10;" d="M 222 174 L 286 174 L 286 222 L 222 222 Z M 222 174 "/>
<path style="fill:none;stroke-width:1.5;stroke-linecap:butt;stroke-linejoin:miter;stroke:rgb(38.039216%,50.588235%,100%);stroke-opacity:1;stroke-miterlimit:10;" d="M 0 5 C 0 2.238281 2.238281 0 5 0 L 15 0 C 17.761719 0 20 2.238281 20 5 L 20 10 C 20 12.761719 17.761719 15 15 15 L 5 15 C 2.238281 15 0 12.761719 0 10 Z M 0 5 " transform="matrix(1,0,0,1,22,16)"/>
<path style=" stroke:none;fill-rule:nonzero;fill:rgb(38.039216%,50.588235%,100%);fill-opacity:0.490196;" d="M 22 21 C 22 18.238281 24.238281 16 27 16 L 37 16 C 39.761719 16 42 18.238281 42 21 L 42 26 C 42 28.761719 39.761719 31 37 31 L 27 31 C 24.238281 31 22 28.761719 22 26 Z M 22 21 "/>
<path style="fill:none;stroke-width:1.5;stroke-linecap:butt;stroke-linejoin:miter;stroke:rgb(38.039216%,50.588235%,100%);stroke-opacity:1;stroke-miterlimit:10;" d="M 0 5 C 0 2.238281 2.238281 0 5 0 L 27 0 C 29.761719 0 32 2.238281 32 5 L 32 17 C 32 19.761719 29.761719 22 27 22 L 5 22 C 2.238281 22 0 19.761719 0 17 Z M 0 5 " transform="matrix(1,0,0,1,10,16)"/>
<path style=" stroke:none;fill-rule:nonzero;fill:rgb(38.039216%,50.588235%,100%);fill-opacity:0.490196;" d="M 10 21 C 10 18.238281 12.238281 16 15 16 L 37 16 C 39.761719 16 42 18.238281 42 21 L 42 33 C 42 35.761719 39.761719 38 37 38 L 15 38 C 12.238281 38 10 35.761719 10 33 Z M 10 21 "/>
<path style="fill:none;stroke-width:1.5;stroke-linecap:butt;stroke-linejoin:miter;stroke:rgb(0%,0%,0%);stroke-opacity:0.1;stroke-miterlimit:10;" d="M 22 16 L 10 16 "/>
<path style="fill:none;stroke-width:1.5;stroke-linecap:butt;stroke-linejoin:miter;stroke:rgb(0%,0%,0%);stroke-opacity:0.1;stroke-miterlimit:10;" d="M 42 16 L 30 16 M 22 31 L 10 38 "/>
<path style="fill:none;stroke-width:1.5;stroke-linecap:butt;stroke-linejoin:miter;stroke:rgb(0%,0%,0%);stroke-opacity:0.1;stroke-miterlimit:10;" d="M 42 31 L 30 38 "/>
<path style="fill:none;stroke-width:1.5;stroke-linecap:butt;stroke-linejoin:miter;stroke:rgb(38.039216%,50.588235%,100%);stroke-opacity:1;stroke-miterlimit:10;" d="M 0 5 C 0 2.238281 2.238281 0 5 0 L 15 0 C 17.761719 0 20 2.238281 20 5 L 20 10 C 20 12.761719 17.761719 15 15 15 L 5 15 C 2.238281 15 0 12.761719 0 10 Z M 0 5 " transform="matrix(1,0,0,1,96,16)"/>
<path style=" stroke:none;fill-rule:nonzero;fill:rgb(38.039216%,50.588235%,100%);fill-opacity:0.490196;" d="M 96 21 C 96 18.238281 98.238281 16 101 16 L 111 16 C 113.761719 16 116 18.238281 116 21 L 116 26 C 116 28.761719 113.761719 31 111 31 L 101 31 C 98.238281 31 96 28.761719 96 26 Z M 96 21 "/>
<path style="fill:none;stroke-width:1.5;stroke-linecap:butt;stroke-linejoin:miter;stroke:rgb(38.039216%,50.588235%,100%);stroke-opacity:1;stroke-miterlimit:10;" d="M 0 5 C 0 2.238281 2.238281 0 5 0 L 27 0 C 29.761719 0 32 2.238281 32 5 L 32 16 C 32 18.761719 29.761719 21 27 21 L 5 21 C 2.238281 21 0 18.761719 0 16 Z M 0 5 " transform="matrix(1,0,0,1,84,10)"/>
<path style=" stroke:none;fill-rule:nonzero;fill:rgb(38.039216%,50.588235%,100%);fill-opacity:0.490196;" d="M 84 15 C 84 12.238281 86.238281 10 89 10 L 111 10 C 113.761719 10 116 12.238281 116 15 L 116 26 C 116 28.761719 113.761719 31 111 31 L 89 31 C 86.238281 31 84 28.761719 84 26 Z M 84 15 "/>
<path style="fill:none;stroke-width:1.5;stroke-linecap:butt;stroke-linejoin:miter;stroke:rgb(0%,0%,0%);stroke-opacity:0.1;stroke-miterlimit:10;" d="M 96 16 L 84 10 "/>
<path style="fill:none;stroke-width:1.5;stroke-linecap:butt;stroke-linejoin:miter;stroke:rgb(0%,0%,0%);stroke-opacity:0.1;stroke-miterlimit:10;" d="M 116 16 L 104 10 M 96 31 L 84 31 "/>
<path style="fill:none;stroke-width:1.5;stroke-linecap:butt;stroke-linejoin:miter;stroke:rgb(0%,0%,0%);stroke-opacity:0.1;stroke-miterlimit:10;" d="M 116 31 L 104 31 "/>
<path style="fill:none;stroke-width:1.5;stroke-linecap:butt;stroke-linejoin:miter;stroke:rgb(38.039216%,50.588235%,100%);stroke-opacity:1;stroke-miterlimit:10;" d="M 0 5 C 0 2.238281 2.238281 0 5 0 L 15 0 C 17.761719 0 20 2.238281 20 5 L 20 10 C 20 12.761719 17.761719 15 15 15 L 5 15 C 2.238281 15 0 12.761719 0 10 Z M 0 5 " transform="matrix(1,0,0,1,170,16)"/>
<path style=" stroke:none;fill-rule:nonzero;fill:rgb(38.039216%,50.588235%,100%);fill-opacity:0.490196;" d="M 170 21 C 170 18.238281 172.238281 16 175 16 L 185 16 C 187.761719 16 190 18.238281 190 21 L 190 26 C 190 28.761719 187.761719 31 185 31 L 175 31 C 172.238281 31 170 28.761719 170 26 Z M 170 21 "/>
<path style="fill:none;stroke-width:1.5;stroke-linecap:butt;stroke-linejoin:miter;stroke:rgb(38.039216%,50.588235%,100%);stroke-opacity:1;stroke-miterlimit:10;" d="M 0 5 C 0 2.238281 2.238281 0 5 0 L 31 0 C 33.761719 0 36 2.238281 36 5 L 36 17 C 36 19.761719 33.761719 22 31 22 L 5 22 C 2.238281 22 0 19.761719 0 17 Z M 0 5 " transform="matrix(1,0,0,1,170,16)"/>
<path style=" stroke:none;fill-rule:nonzero;fill:rgb(38.039216%,50.588235%,100%);fill-opacity:0.490196;" d="M 170 21 C 170 18.238281 172.238281 16 175 16 L 201 16 C 203.761719 16 206 18.238281 206 21 L 206 33 C 206 35.761719 203.761719 38 201 38 L 175 38 C 172.238281 38 170 35.761719 170 33 Z M 170 21 "/>
<path style="fill:none;stroke-width:1.5;stroke-linecap:butt;stroke-linejoin:miter;stroke:rgb(0%,0%,0%);stroke-opacity:0.1;stroke-miterlimit:10;" d="M 170 16 L 170 16 "/>
<path style="fill:none;stroke-width:1.5;stroke-linecap:butt;stroke-linejoin:miter;stroke:rgb(0%,0%,0%);stroke-opacity:0.1;stroke-miterlimit:10;" d="M 190 16 L 190 16 M 170 31 L 170 38 "/>
<path style="fill:none;stroke-width:1.5;stroke-linecap:butt;stroke-linejoin:miter;stroke:rgb(0%,0%,0%);stroke-opacity:0.1;stroke-miterlimit:10;" d="M 190 31 L 190 38 "/>
<path style="fill:none;stroke-width:1.5;stroke-linecap:butt;stroke-linejoin:miter;stroke:rgb(38.039216%,50.588235%,100%);stroke-opacity:1;stroke-miterlimit:10;" d="M 0 5 C 0 2.238281 2.238281 0 5 0 L 15 0 C 17.761719 0 20 2.238281 20 5 L 20 10 C 20 12.761719 17.761719 15 15 15 L 5 15 C 2.238281 15 0 12.761719 0 10 Z M 0 5 " transform="matrix(1,0,0,1,244,16)"/>
<path style=" stroke:none;fill-rule:nonzero;fill:rgb(38.039216%,50.588235%,100%);fill-opacity:0.490196;" d="M 244 21 C 244 18.238281 246.238281 16 249 16 L 259 16 C 261.761719 16 264 18.238281 264 21 L 264 26 C 264 28.761719 261.761719 31 259 31 L 249 31 C 246.238281 31 244 28.761719 244 26 Z M 244 21 "/>
<path style="fill:none;stroke-width:1.5;stroke-linecap:butt;stroke-linejoin:miter;stroke:rgb(38.039216%,50.588235%,100%);stroke-opacity:1;stroke-miterlimit:10;" d="M 0 5 C 0 2.238281 2.238281 0 5 0 L 27 0 C 29.761719 0 32 2.238281 32 5 L 32 6 C 32 8.761719 29.761719 11 27 11 L 5 11 C 2.238281 11 0 8.761719 0 6 Z M 0 5 " transform="matrix(1,0,0,1,232,16)"/>
<path style=" stroke:none;fill-rule:nonzero;fill:rgb(38.039216%,50.588235%,100%);fill-opacity:0.490196;" d="M 232 21 C 232 18.238281 234.238281 16 237 16 L 259 16 C 261.761719 16 264 18.238281 264 21 L 264 22 C 264 24.761719 261.761719 27 259 27 L 237 27 C 234.238281 27 232 24.761719 232 22 Z M 232 21 "/>
<path style="fill:none;stroke-width:1.5;stroke-linecap:butt;stroke-linejoin:miter;stroke:rgb(0%,0%,0%);stroke-opacity:0.1;stroke-miterlimit:10;" d="M 244 16 L 232 16 "/>
<path style="fill:none;stroke-width:1.5;stroke-linecap:butt;stroke-linejoin:miter;stroke:rgb(0%,0%,0%);stroke-opacity:0.1;stroke-miterlimit:10;" d="M 264 16 L 252 16 M 244 31 L 232 27 "/>
<path style="fill:none;stroke-width:1.5;stroke-linecap:butt;stroke-linejoin:miter;stroke:rgb(0%,0%,0%);stroke-opacity:0.1;stroke-miterlimit:10;" d="M 264 31 L 252 27 "/>
<path style="fill:none;stroke-width:1.5;stroke-linecap:butt;stroke-linejoin:miter;stroke:rgb(38.039216%,50.588235%,100%);stroke-opacity:1;stroke-miterlimit:10;" d="M 0 5 C 0 2.238281 2.238281 0 5 0 L 15 0 C 17.761719 0 20 2.238281 20 5 L 20 10 C 20 12.761719 17.761719 15 15 15 L 5 15 C 2.238281 15 0 12.761719 0 10 Z M 0 5 " transform="matrix(1,0,0,1,22,74)"/>
<path style=" stroke:none;fill-rule:nonzero;fill:rgb(38.039216%,50.588235%,100%);fill-opacity:0.490196;" d="M 22 79 C 22 76.238281 24.238281 74 27 74 L 37 74 C 39.761719 74 42 76.238281 42 79 L 42 84 C 42 86.761719 39.761719 89 37 89 L 27 89 C 24.238281 89 22 86.761719 22 84 Z M 22 79 "/>
<path style="fill:none;stroke-width:1.5;stroke-linecap:butt;stroke-linejoin:miter;stroke:rgb(38.039216%,50.588235%,100%);stroke-opacity:1;stroke-miterlimit:10;" d="M 0 5 C 0 2.238281 2.238281 0 5 0 L 31 0 C 33.761719 0 36 2.238281 36 5 L 36 6 C 36 8.761719 33.761719 11 31 11 L 5 11 C 2.238281 11 0 8.761719 0 6 Z M 0 5 " transform="matrix(1,0,0,1,22,78)"/>
<path style=" stroke:none;fill-rule:nonzero;fill:rgb(38.039216%,50.588235%,100%);fill-opacity:0.490196;" d="M 22 83 C 22 80.238281 24.238281 78 27 78 L 53 78 C 55.761719 78 58 80.238281 58 83 L 58 84 C 58 86.761719 55.761719 89 53 89 L 27 89 C 24.238281 89 22 86.761719 22 84 Z M 22 83 "/>
<path style="fill:none;stroke-width:1.5;stroke-linecap:butt;stroke-linejoin:miter;stroke:rgb(0%,0%,0%);stroke-opacity:0.1;stroke-miterlimit:10;" d="M 22 74 L 22 78 "/>
<path style="fill:none;stroke-width:1.5;stroke-linecap:butt;stroke-linejoin:miter;stroke:rgb(0%,0%,0%);stroke-opacity:0.1;stroke-miterlimit:10;" d="M 42 74 L 42 78 M 22 89 L 22 89 "/>
<path style="fill:none;stroke-width:1.5;stroke-linecap:butt;stroke-linejoin:miter;stroke:rgb(0%,0%,0%);stroke-opacity:0.1;stroke-miterlimit:10;" d="M 42 89 L 42 89 "/>
<path style="fill:none;stroke-width:1.5;stroke-linecap:butt;stroke-linejoin:miter;stroke:rgb(38.039216%,50.588235%,100%);stroke-opacity:1;stroke-miterlimit:10;" d="M 0 5 C 0 2.238281 2.238281 0 5 0 L 15 0 C 17.761719 0 20 2.238281 20 5 L 20 10 C 20 12.761719 17.761719 15 15 15 L 5 15 C 2.238281 15 0 12.761719 0 10 Z M 0 5 " transform="matrix(1,0,0,1,96,74)"/>
<path style=" stroke:none;fill-rule:nonzero;fill:rgb(38.039216%,50.588235%,100%);fill-opacity:0.490196;" d="M 96 79 C 96 76.238281 98.238281 74 101 74 L 111 74 C 113.761719 74 116 76.238281 116 79 L 116 84 C 116 86.761719 113.761719 89 111 89 L 101 89 C 98.238281 89 96 86.761719 96 84 Z M 96 79 "/>
<path style="fill:none;stroke-width:1.5;stroke-linecap:butt;stroke-linejoin:miter;stroke:rgb(38.039216%,50.588235%,100%);stroke-opacity:1;stroke-miterlimit:10;" d="M 0 5 C 0 2.238281 2.238281 0 5 0 L 31 0 C 33.761719 0 36 2.238281 36 5 L 36 16 C 36 18.761719 33.761719 21 31 21 L 5 21 C 2.238281 21 0 18.761719 0 16 Z M 0 5 " transform="matrix(1,0,0,1,96,68)"/>
<path style=" stroke:none;fill-rule:nonzero;fill:rgb(38.039216%,50.588235%,100%);fill-opacity:0.490196;" d="M 96 73 C 96 70.238281 98.238281 68 101 68 L 127 68 C 129.761719 68 132 70.238281 132 73 L 132 84 C 132 86.761719 129.761719 89 127 89 L 101 89 C 98.238281 89 96 86.761719 96 84 Z M 96 73 "/>
<path style="fill:none;stroke-width:1.5;stroke-linecap:butt;stroke-linejoin:miter;stroke:rgb(0%,0%,0%);stroke-opacity:0.1;stroke-miterlimit:10;" d="M 96 74 L 96 68 "/>
<path style="fill:none;stroke-width:1.5;stroke-linecap:butt;stroke-linejoin:miter;stroke:rgb(0%,0%,0%);stroke-opacity:0.1;stroke-miterlimit:10;" d="M 116 74 L 116 68 M 96 89 L 96 89 "/>
<path style="fill:none;stroke-width:1.5;stroke-linecap:butt;stroke-linejoin:miter;stroke:rgb(0%,0%,0%);stroke-opacity:0.1;stroke-miterlimit:10;" d="M 116 89 L 116 89 "/>
<path style="fill:none;stroke-width:1.5;stroke-linecap:butt;stroke-linejoin:miter;stroke:rgb(38.039216%,50.588235%,100%);stroke-opacity:1;stroke-miterlimit:10;" d="M 0 5 C 0 2.238281 2.238281 0 5 0 L 15 0 C 17.761719 0 20 2.238281 20 5 L 20 10 C 20 12.761719 17.761719 15 15 15 L 5 15 C 2.238281 15 0 12.761719 0 10 Z M 0 5 " transform="matrix(1,0,0,1,170,74)"/>
<path style=" stroke:none;fill-rule:nonzero;fill:rgb(38.039216%,50.588235%,100%);fill-opacity:0.490196;" d="M 170 79 C 170 76.238281 172.238281 74 175 74 L 185 74 C 187.761719 74 190 76.238281 190 79 L 190 84 C 190 86.761719 187.761719 89 185 89 L 175 89 C 172.238281 89 170 86.761719 170 84 Z M 170 79 "/>
<path style="fill:none;stroke-width:1.5;stroke-linecap:butt;stroke-linejoin:miter;stroke:rgb(38.039216%,50.588235%,100%);stroke-opacity:1;stroke-miterlimit:10;" d="M 0 5 C 0 2.238281 2.238281 0 5 0 L 15 0 C 17.761719 0 20 2.238281 20 5 L 20 17 C 20 19.761719 17.761719 22 15 22 L 5 22 C 2.238281 22 0 19.761719 0 17 Z M 0 5 " transform="matrix(1,0,0,1,170,74)"/>
<path style=" stroke:none;fill-rule:nonzero;fill:rgb(38.039216%,50.588235%,100%);fill-opacity:0.490196;" d="M 170 79 C 170 76.238281 172.238281 74 175 74 L 185 74 C 187.761719 74 190 76.238281 190 79 L 190 91 C 190 93.761719 187.761719 96 185 96 L 175 96 C 172.238281 96 170 93.761719 170 91 Z M 170 79 "/>
<path style="fill:none;stroke-width:1.5;stroke-linecap:butt;stroke-linejoin:miter;stroke:rgb(0%,0%,0%);stroke-opacity:0.1;stroke-miterlimit:10;" d="M 170 74 L 170 74 "/>
<path style="fill:none;stroke-width:1.5;stroke-linecap:butt;stroke-linejoin:miter;stroke:rgb(0%,0%,0%);stroke-opacity:0.1;stroke-miterlimit:10;" d="M 190 74 L 190 74 M 170 89 L 170 96 "/>
<path style="fill:none;stroke-width:1.5;stroke-linecap:butt;stroke-linejoin:miter;stroke:rgb(0%,0%,0%);stroke-opacity:0.1;stroke-miterlimit:10;" d="M 190 89 L 190 96 "/>
<path style="fill:none;stroke-width:1.5;stroke-linecap:butt;stroke-linejoin:miter;stroke:rgb(38.039216%,50.588235%,100%);stroke-opacity:1;stroke-miterlimit:10;" d="M 0 5 C 0 2.238281 2.238281 0 5 0 L 15 0 C 17.761719 0 20 2.238281 20 5 L 20 10 C 20 12.761719 17.761719 15 15 15 L 5 15 C 2.238281 15 0 12.761719 0 10 Z M 0 5 " transform="matrix(1,0,0,1,244,74)"/>
<path style=" stroke:none;fill-rule:nonzero;fill:rgb(38.039216%,50.588235%,100%);fill-opacity:0.490196;" d="M 244 79 C 244 76.238281 246.238281 74 249 74 L 259 74 C 261.761719 74 264 76.238281 264 79 L 264 84 C 264 86.761719 261.761719 89 259 89 L 249 89 C 246.238281 89 244 86.761719 244 84 Z M 244 79 "/>
<path style="fill:none;stroke-width:1.5;stroke-linecap:butt;stroke-linejoin:miter;stroke:rgb(38.039216%,50.588235%,100%);stroke-opacity:1;stroke-miterlimit:10;" d="M 0 5 C 0 2.238281 2.238281 0 5 0 L 15 0 C 17.761719 0 20 2.238281 20 5 L 20 16 C 20 18.761719 17.761719 21 15 21 L 5 21 C 2.238281 21 0 18.761719 0 16 Z M 0 5 " transform="matrix(1,0,0,1,244,68)"/>
<path style=" stroke:none;fill-rule:nonzero;fill:rgb(38.039216%,50.588235%,100%);fill-opacity:0.490196;" d="M 244 73 C 244 70.238281 246.238281 68 249 68 L 259 68 C 261.761719 68 264 70.238281 264 73 L 264 84 C 264 86.761719 261.761719 89 259 89 L 249 89 C 246.238281 89 244 86.761719 244 84 Z M 244 73 "/>
<path style="fill:none;stroke-width:1.5;stroke-linecap:butt;stroke-linejoin:miter;stroke:rgb(0%,0%,0%);stroke-opacity:0.1;stroke-miterlimit:10;" d="M 244 74 L 244 68 "/>
<path style="fill:none;stroke-width:1.5;stroke-linecap:butt;stroke-linejoin:miter;stroke:rgb(0%,0%,0%);stroke-opacity:0.1;stroke-miterlimit:10;" d="M 264 74 L 264 68 M 244 89 L 244 89 "/>
<path style="fill:none;stroke-width:1.5;stroke-linecap:butt;stroke-linejoin:miter;stroke:rgb(0%,0%,0%);stroke-opacity:0.1;stroke-miterlimit:10;" d="M 264 89 L 264 89 "/>
<path style="fill:none;stroke-width:1.5;stroke-linecap:butt;stroke-linejoin:miter;stroke:rgb(38.039216%,50.588235%,100%);stroke-opacity:1;stroke-miterlimit:10;" d="M 0 5 C 0 2.238281 2.238281 0 5 0 L 39 0 C 41.761719 0 44 2.238281 44 5 L 44 23 C 44 25.761719 41.761719 28 39 28 L 5 28 C 2.238281 28 0 25.761719 0 23 Z M 0 5 " transform="matrix(1,0,0,1,10,126)"/>
<path style=" stroke:none;fill-rule:nonzero;fill:rgb(38.039216%,50.588235%,100%);fill-opacity:0.490196;" d="M 10 131 C 10 128.238281 12.238281 126 15 126 L 49 126 C 51.761719 126 54 128.238281 54 131 L 54 149 C 54 151.761719 51.761719 154 49 154 L 15 154 C 12.238281 154 10 151.761719 10 149 Z M 10 131 "/>
<path style="fill:none;stroke-width:1.5;stroke-linecap:butt;stroke-linejoin:miter;stroke:rgb(38.039216%,50.588235%,100%);stroke-opacity:1;stroke-miterlimit:10;" d="M 0 5 C 0 2.238281 2.238281 0 5 0 L 29 0 C 31.761719 0 34 2.238281 34 5 L 34 17 C 34 19.761719 31.761719 22 29 22 L 5 22 C 2.238281 22 0 19.761719 0 17 Z M 0 5 " transform="matrix(1,0,0,1,20,126)"/>
<path style=" stroke:none;fill-rule:nonzero;fill:rgb(38.039216%,50.588235%,100%);fill-opacity:0.490196;" d="M 20 131 C 20 128.238281 22.238281 126 25 126 L 49 126 C 51.761719 126 54 128.238281 54 131 L 54 143 C 54 145.761719 51.761719 148 49 148 L 25 148 C 22.238281 148 20 145.761719 20 143 Z M 20 131 "/>
<path style="fill:none;stroke-width:1.5;stroke-linecap:butt;stroke-linejoin:miter;stroke:rgb(0%,0%,0%);stroke-opacity:0.1;stroke-miterlimit:10;" d="M 10 126 L 20 126 "/>
<path style="fill:none;stroke-width:1.5;stroke-linecap:butt;stroke-linejoin:miter;stroke:rgb(0%,0%,0%);stroke-opacity:0.1;stroke-miterlimit:10;" d="M 54 126 L 64 126 M 10 154 L 20 148 "/>
<path style="fill:none;stroke-width:1.5;stroke-linecap:butt;stroke-linejoin:miter;stroke:rgb(0%,0%,0%);stroke-opacity:0.1;stroke-miterlimit:10;" d="M 54 154 L 64 148 "/>
<path style="fill:none;stroke-width:1.5;stroke-linecap:butt;stroke-linejoin:miter;stroke:rgb(38.039216%,50.588235%,100%);stroke-opacity:1;stroke-miterlimit:10;" d="M 0 5 C 0 2.238281 2.238281 0 5 0 L 39 0 C 41.761719 0 44 2.238281 44 5 L 44 23 C 44 25.761719 41.761719 28 39 28 L 5 28 C 2.238281 28 0 25.761719 0 23 Z M 0 5 " transform="matrix(1,0,0,1,84,126)"/>
<path style=" stroke:none;fill-rule:nonzero;fill:rgb(38.039216%,50.588235%,100%);fill-opacity:0.490196;" d="M 84 131 C 84 128.238281 86.238281 126 89 126 L 123 126 C 125.761719 126 128 128.238281 128 131 L 128 149 C 128 151.761719 125.761719 154 123 154 L 89 154 C 86.238281 154 84 151.761719 84 149 Z M 84 131 "/>
<path style="fill:none;stroke-width:1.5;stroke-linecap:butt;stroke-linejoin:miter;stroke:rgb(38.039216%,50.588235%,100%);stroke-opacity:1;stroke-miterlimit:10;" d="M 0 5 C 0 2.238281 2.238281 0 5 0 L 29 0 C 31.761719 0 34 2.238281 34 5 L 34 15 C 34 17.761719 31.761719 20 29 20 L 5 20 C 2.238281 20 0 17.761719 0 15 Z M 0 5 " transform="matrix(1,0,0,1,94,134)"/>
<path style=" stroke:none;fill-rule:nonzero;fill:rgb(38.039216%,50.588235%,100%);fill-opacity:0.490196;" d="M 94 139 C 94 136.238281 96.238281 134 99 134 L 123 134 C 125.761719 134 128 136.238281 128 139 L 128 149 C 128 151.761719 125.761719 154 123 154 L 99 154 C 96.238281 154 94 151.761719 94 149 Z M 94 139 "/>
<path style="fill:none;stroke-width:1.5;stroke-linecap:butt;stroke-linejoin:miter;stroke:rgb(0%,0%,0%);stroke-opacity:0.1;stroke-miterlimit:10;" d="M 84 126 L 94 134 "/>
<path style="fill:none;stroke-width:1.5;stroke-linecap:butt;stroke-linejoin:miter;stroke:rgb(0%,0%,0%);stroke-opacity:0.1;stroke-miterlimit:10;" d="M 128 126 L 138 134 M 84 154 L 94 154 "/>
<path style="fill:none;stroke-width:1.5;stroke-linecap:butt;stroke-linejoin:miter;stroke:rgb(0%,0%,0%);stroke-opacity:0.1;stroke-miterlimit:10;" d="M 128 154 L 138 154 "/>
<path style="fill:none;stroke-width:1.5;stroke-linecap:butt;stroke-linejoin:miter;stroke:rgb(38.039216%,50.588235%,100%);stroke-opacity:1;stroke-miterlimit:10;" d="M 0 5 C 0 2.238281 2.238281 0 5 0 L 39 0 C 41.761719 0 44 2.238281 44 5 L 44 23 C 44 25.761719 41.761719 28 39 28 L 5 28 C 2.238281 28 0 25.761719 0 23 Z M 0 5 " transform="matrix(1,0,0,1,158,126)"/>
<path style=" stroke:none;fill-rule:nonzero;fill:rgb(38.039216%,50.588235%,100%);fill-opacity:0.490196;" d="M 158 131 C 158 128.238281 160.238281 126 163 126 L 197 126 C 199.761719 126 202 128.238281 202 131 L 202 149 C 202 151.761719 199.761719 154 197 154 L 163 154 C 160.238281 154 158 151.761719 158 149 Z M 158 131 "/>
<path style="fill:none;stroke-width:1.5;stroke-linecap:butt;stroke-linejoin:miter;stroke:rgb(38.039216%,50.588235%,100%);stroke-opacity:1;stroke-miterlimit:10;" d="M 0 5 C 0 2.238281 2.238281 0 5 0 L 27 0 C 29.761719 0 32 2.238281 32 5 L 32 17 C 32 19.761719 29.761719 22 27 22 L 5 22 C 2.238281 22 0 19.761719 0 17 Z M 0 5 " transform="matrix(1,0,0,1,158,126)"/>
<path style=" stroke:none;fill-rule:nonzero;fill:rgb(38.039216%,50.588235%,100%);fill-opacity:0.490196;" d="M 158 131 C 158 128.238281 160.238281 126 163 126 L 185 126 C 187.761719 126 190 128.238281 190 131 L 190 143 C 190 145.761719 187.761719 148 185 148 L 163 148 C 160.238281 148 158 145.761719 158 143 Z M 158 131 "/>
<path style="fill:none;stroke-width:1.5;stroke-linecap:butt;stroke-linejoin:miter;stroke:rgb(0%,0%,0%);stroke-opacity:0.1;stroke-miterlimit:10;" d="M 158 126 L 158 126 "/>
<path style="fill:none;stroke-width:1.5;stroke-linecap:butt;stroke-linejoin:miter;stroke:rgb(0%,0%,0%);stroke-opacity:0.1;stroke-miterlimit:10;" d="M 202 126 L 202 126 M 158 154 L 158 148 "/>
<path style="fill:none;stroke-width:1.5;stroke-linecap:butt;stroke-linejoin:miter;stroke:rgb(0%,0%,0%);stroke-opacity:0.1;stroke-miterlimit:10;" d="M 202 154 L 202 148 "/>
<path style="fill:none;stroke-width:1.5;stroke-linecap:butt;stroke-linejoin:miter;stroke:rgb(38.039216%,50.588235%,100%);stroke-opacity:1;stroke-miterlimit:10;" d="M 0 5 C 0 2.238281 2.238281 0 5 0 L 39 0 C 41.761719 0 44 2.238281 44 5 L 44 23 C 44 25.761719 41.761719 28 39 28 L 5 28 C 2.238281 28 0 25.761719 0 23 Z M 0 5 " transform="matrix(1,0,0,1,232,126)"/>
<path style=" stroke:none;fill-rule:nonzero;fill:rgb(38.039216%,50.588235%,100%);fill-opacity:0.490196;" d="M 232 131 C 232 128.238281 234.238281 126 237 126 L 271 126 C 273.761719 126 276 128.238281 276 131 L 276 149 C 276 151.761719 273.761719 154 271 154 L 237 154 C 234.238281 154 232 151.761719 232 149 Z M 232 131 "/>
<path style="fill:none;stroke-width:1.5;stroke-linecap:butt;stroke-linejoin:miter;stroke:rgb(38.039216%,50.588235%,100%);stroke-opacity:1;stroke-miterlimit:10;" d="M 0 5 C 0 2.238281 2.238281 0 5 0 L 17 0 C 19.761719 0 22 2.238281 22 5 L 22 9 C 22 11.761719 19.761719 14 17 14 L 5 14 C 2.238281 14 0 11.761719 0 9 Z M 0 5 " transform="matrix(1,0,0,1,254,140)"/>
<path style=" stroke:none;fill-rule:nonzero;fill:rgb(38.039216%,50.588235%,100%);fill-opacity:0.490196;" d="M 254 145 C 254 142.238281 256.238281 140 259 140 L 271 140 C 273.761719 140 276 142.238281 276 145 L 276 149 C 276 151.761719 273.761719 154 271 154 L 259 154 C 256.238281 154 254 151.761719 254 149 Z M 254 145 "/>
<path style="fill:none;stroke-width:1.5;stroke-linecap:butt;stroke-linejoin:miter;stroke:rgb(0%,0%,0%);stroke-opacity:0.1;stroke-miterlimit:10;" d="M 232 126 L 254 140 "/>
<path style="fill:none;stroke-width:1.5;stroke-linecap:butt;stroke-linejoin:miter;stroke:rgb(0%,0%,0%);stroke-opacity:0.1;stroke-miterlimit:10;" d="M 276 126 L 298 140 M 232 154 L 254 154 "/>
<path style="fill:none;stroke-width:1.5;stroke-linecap:butt;stroke-linejoin:miter;stroke:rgb(0%,0%,0%);stroke-opacity:0.1;stroke-miterlimit:10;" d="M 276 154 L 298 154 "/>
<path style="fill:none;stroke-width:1.5;stroke-linecap:butt;stroke-linejoin:miter;stroke:rgb(38.039216%,50.588235%,100%);stroke-opacity:1;stroke-miterlimit:10;" d="M 0 5 C 0 2.238281 2.238281 0 5 0 L 39 0 C 41.761719 0 44 2.238281 44 5 L 44 23 C 44 25.761719 41.761719 28 39 28 L 5 28 C 2.238281 28 0 25.761719 0 23 Z M 0 5 " transform="matrix(1,0,0,1,10,184)"/>
<path style=" stroke:none;fill-rule:nonzero;fill:rgb(38.039216%,50.588235%,100%);fill-opacity:0.490196;" d="M 10 189 C 10 186.238281 12.238281 184 15 184 L 49 184 C 51.761719 184 54 186.238281 54 189 L 54 207 C 54 209.761719 51.761719 212 49 212 L 15 212 C 12.238281 212 10 209.761719 10 207 Z M 10 189 "/>
<path style="fill:none;stroke-width:1.5;stroke-linecap:butt;stroke-linejoin:miter;stroke:rgb(38.039216%,50.588235%,100%);stroke-opacity:1;stroke-miterlimit:10;" d="M 0 5 C 0 2.238281 2.238281 0 5 0 L 27 0 C 29.761719 0 32 2.238281 32 5 L 32 23 C 32 25.761719 29.761719 28 27 28 L 5 28 C 2.238281 28 0 25.761719 0 23 Z M 0 5 " transform="matrix(1,0,0,1,10,184)"/>
<path style=" stroke:none;fill-rule:nonzero;fill:rgb(38.039216%,50.588235%,100%);fill-opacity:0.490196;" d="M 10 189 C 10 186.238281 12.238281 184 15 184 L 37 184 C 39.761719 184 42 186.238281 42 189 L 42 207 C 42 209.761719 39.761719 212 37 212 L 15 212 C 12.238281 212 10 209.761719 10 207 Z M 10 189 "/>
<path style="fill:none;stroke-width:1.5;stroke-linecap:butt;stroke-linejoin:miter;stroke:rgb(0%,0%,0%);stroke-opacity:0.1;stroke-miterlimit:10;" d="M 10 184 L 10 184 "/>
<path style="fill:none;stroke-width:1.5;stroke-linecap:butt;stroke-linejoin:miter;stroke:rgb(0%,0%,0%);stroke-opacity:0.1;stroke-miterlimit:10;" d="M 54 184 L 54 184 M 10 212 L 10 212 "/>
<path style="fill:none;stroke-width:1.5;stroke-linecap:butt;stroke-linejoin:miter;stroke:rgb(0%,0%,0%);stroke-opacity:0.1;stroke-miterlimit:10;" d="M 54 212 L 54 212 "/>
<path style="fill:none;stroke-width:1.5;stroke-linecap:butt;stroke-linejoin:miter;stroke:rgb(38.039216%,50.588235%,100%);stroke-opacity:1;stroke-miterlimit:10;" d="M 0 5 C 0 2.238281 2.238281 0 5 0 L 39 0 C 41.761719 0 44 2.238281 44 5 L 44 23 C 44 25.761719 41.761719 28 39 28 L 5 28 C 2.238281 28 0 25.761719 0 23 Z M 0 5 " transform="matrix(1,0,0,1,84,184)"/>
<path style=" stroke:none;fill-rule:nonzero;fill:rgb(38.039216%,50.588235%,100%);fill-opacity:0.490196;" d="M 84 189 C 84 186.238281 86.238281 184 89 184 L 123 184 C 125.761719 184 128 186.238281 128 189 L 128 207 C 128 209.761719 125.761719 212 123 212 L 89 212 C 86.238281 212 84 209.761719 84 207 Z M 84 189 "/>
<path style="fill:none;stroke-width:1.5;stroke-linecap:butt;stroke-linejoin:miter;stroke:rgb(38.039216%,50.588235%,100%);stroke-opacity:1;stroke-miterlimit:10;" d="M 0 5 C 0 2.238281 2.238281 0 5 0 L 27 0 C 29.761719 0 32 2.238281 32 5 L 32 15 C 32 17.761719 29.761719 20 27 20 L 5 20 C 2.238281 20 0 17.761719 0 15 Z M 0 5 " transform="matrix(1,0,0,1,84,192)"/>
<path style=" stroke:none;fill-rule:nonzero;fill:rgb(38.039216%,50.588235%,100%);fill-opacity:0.490196;" d="M 84 197 C 84 194.238281 86.238281 192 89 192 L 111 192 C 113.761719 192 116 194.238281 116 197 L 116 207 C 116 209.761719 113.761719 212 111 212 L 89 212 C 86.238281 212 84 209.761719 84 207 Z M 84 197 "/>
<path style="fill:none;stroke-width:1.5;stroke-linecap:butt;stroke-linejoin:miter;stroke:rgb(0%,0%,0%);stroke-opacity:0.1;stroke-miterlimit:10;" d="M 84 184 L 84 192 "/>
<path style="fill:none;stroke-width:1.5;stroke-linecap:butt;stroke-linejoin:miter;stroke:rgb(0%,0%,0%);stroke-opacity:0.1;stroke-miterlimit:10;" d="M 128 184 L 128 192 M 84 212 L 84 212 "/>
<path style="fill:none;stroke-width:1.5;stroke-linecap:butt;stroke-linejoin:miter;stroke:rgb(0%,0%,0%);stroke-opacity:0.1;stroke-miterlimit:10;" d="M 128 212 L 128 212 "/>
<path style="fill:none;stroke-width:1.5;stroke-linecap:butt;stroke-linejoin:miter;stroke:rgb(38.039216%,50.588235%,100%);stroke-opacity:1;stroke-miterlimit:10;" d="M 0 5 C 0 2.238281 2.238281 0 5 0 L 39 0 C 41.761719 0 44 2.238281 44 5 L 44 23 C 44 25.761719 41.761719 28 39 28 L 5 28 C 2.238281 28 0 25.761719 0 23 Z M 0 5 " transform="matrix(1,0,0,1,158,184)"/>
<path style=" stroke:none;fill-rule:nonzero;fill:rgb(38.039216%,50.588235%,100%);fill-opacity:0.490196;" d="M 158 189 C 158 186.238281 160.238281 184 163 184 L 197 184 C 199.761719 184 202 186.238281 202 189 L 202 207 C 202 209.761719 199.761719 212 197 212 L 163 212 C 160.238281 212 158 209.761719 158 207 Z M 158 189 "/>
<path style="fill:none;stroke-width:1.5;stroke-linecap:butt;stroke-linejoin:miter;stroke:rgb(38.039216%,50.588235%,100%);stroke-opacity:1;stroke-miterlimit:10;" d="M 0 5 C 0 2.238281 2.238281 0 5 0 L 39 0 C 41.761719 0 44 2.238281 44 5 L 44 17 C 44 19.761719 41.761719 22 39 22 L 5 22 C 2.238281 22 0 19.761719 0 17 Z M 0 5 " transform="matrix(1,0,0,1,158,184)"/>
<path style=" stroke:none;fill-rule:nonzero;fill:rgb(38.039216%,50.588235%,100%);fill-opacity:0.490196;" d="M 158 189 C 158 186.238281 160.238281 184 163 184 L 197 184 C 199.761719 184 202 186.238281 202 189 L 202 201 C 202 203.761719 199.761719 206 197 206 L 163 206 C 160.238281 206 158 203.761719 158 201 Z M 158 189 "/>
<path style="fill:none;stroke-width:1.5;stroke-linecap:butt;stroke-linejoin:miter;stroke:rgb(0%,0%,0%);stroke-opacity:0.1;stroke-miterlimit:10;" d="M 158 184 L 158 184 "/>
<path style="fill:none;stroke-width:1.5;stroke-linecap:butt;stroke-linejoin:miter;stroke:rgb(0%,0%,0%);stroke-opacity:0.1;stroke-miterlimit:10;" d="M 202 184 L 202 184 M 158 212 L 158 206 "/>
<path style="fill:none;stroke-width:1.5;stroke-linecap:butt;stroke-linejoin:miter;stroke:rgb(0%,0%,0%);stroke-opacity:0.1;stroke-miterlimit:10;" d="M 202 212 L 202 206 "/>
<path style="fill:none;stroke-width:1.5;stroke-linecap:butt;stroke-linejoin:miter;stroke:rgb(38.039216%,50.588235%,100%);stroke-opacity:1;stroke-miterlimit:10;" d="M 0 5 C 0 2.238281 2.238281 0 5 0 L 39 0 C 41.761719 0 44 2.238281 44 5 L 44 23 C 44 25.761719 41.761719 28 39 28 L 5 28 C 2.238281 28 0 25.761719 0 23 Z M 0 5 " transform="matrix(1,0,0,1,232,184)"/>
<path style=" stroke:none;fill-rule:nonzero;fill:rgb(38.039216%,50.588235%,100%);fill-opacity:0.490196;" d="M 232 189 C 232 186.238281 234.238281 184 237 184 L 271 184 C 273.761719 184 276 186.238281 276 189 L 276 207 C 276 209.761719 273.761719 212 271 212 L 237 212 C 234.238281 212 232 209.761719 232 207 Z M 232 189 "/>
<path style="fill:none;stroke-width:1.5;stroke-linecap:butt;stroke-linejoin:miter;stroke:rgb(38.039216%,50.588235%,100%);stroke-opacity:1;stroke-miterlimit:10;" d="M 0 5 C 0 2.238281 2.238281 0 5 0 L 39 0 C 41.761719 0 44 2.238281 44 5 L 44 15 C 44 17.761719 41.761719 20 39 20 L 5 20 C 2.238281 20 0 17.761719 0 15 Z M 0 5 " transform="matrix(1,0,0,1,232,192)"/>
<path style=" stroke:none;fill-rule:nonzero;fill:rgb(38.039216%,50.588235%,100%);fill-opacity:0.490196;" d="M 232 197 C 232 194.238281 234.238281 192 237 192 L 271 192 C 273.761719 192 276 194.238281 276 197 L 276 207 C 276 209.761719 273.761719 212 271 212 L 237 212 C 234.238281 212 232 209.761719 232 207 Z M 232 197 "/>
<path style="fill:none;stroke-width:1.5;stroke-linecap:butt;stroke-linejoin:miter;stroke:rgb(0%,0%,0%);stroke-opacity:0.1;stroke-miterlimit:10;" d="M 232 184 L 232 192 "/>
<path style="fill:none;stroke-width:1.5;stroke-linecap:butt;stroke-linejoin:miter;stroke:rgb(0%,0%,0%);stroke-opacity:0.1;stroke-miterlimit:10;" d="M 276 184 L 276 192 M 232 212 L 232 212 "/>
<path style="fill:none;stroke-width:1.5;stroke-linecap:butt;stroke-linejoin:miter;stroke:rgb(0%,0%,0%);stroke-opacity:0.1;stroke-miterlimit:10;" d="M 276 212 L 276 212 "/>
<path style=" stroke:none;fill-rule:nonzero;fill:rgb(100%,0%,0%);fill-opacity:1;" d="M 10 40 L 10 50 L 13 48 L 16 52 L 18 52 L 15 48 L 19 48 Z M 10 40 "/>
<path style=" stroke:none;fill-rule:nonzero;fill:rgb(100%,0%,0%);fill-opacity:1;" d="M 84 10 L 84 20 L 87 18 L 90 22 L 92 22 L 89 18 L 93 18 Z M 84 10 "/>
<path style=" stroke:none;fill-rule:nonzero;fill:rgb(100%,0%,0%);fill-opacity:1;" d="M 208 40 L 208 50 L 211 48 L 214 52 L 216 52 L 213 48 L 217 48 Z M 208 40 "/>
<path style=" stroke:none;fill-rule:nonzero;fill:rgb(100%,0%,0%);fill-opacity:1;" d="M 232 29 L 232 39 L 235 37 L 238 41 L 240 41 L 237 37 L 241 37 Z M 232 29 "/>
<path style=" stroke:none;fill-rule:nonzero;fill:rgb(100%,0%,0%);fill-opacity:1;" d="M 60 78 L 60 88 L 63 86 L 66 90 L 68 90 L 65 86 L 69 86 Z M 60 78 "/>
<path style=" stroke:none;fill-rule:nonzero;fill:rgb(100%,0%,0%);fill-opacity:1;" d="M 134 68 L 134 78 L 137 76 L 140 80 L 142 80 L 139 76 L 143 76 Z M 134 68 "/>
<path style=" stroke:none;fill-rule:nonzero;fill:rgb(100%,0%,0%);fill-opacity:1;" d="M 180 98 L 180 108 L 183 106 L 186 110 L 188 110 L 185 106 L 189 106 Z M 180 98 "/>
<path style=" stroke:none;fill-rule:nonzero;fill:rgb(100%,0%,0%);fill-opacity:1;" d="M 254 68 L 254 78 L 257 76 L 260 80 L 262 80 L 259 76 L 263 76 Z M 254 68 "/>
<path style=" stroke:none;fill-rule:nonzero;fill:rgb(100%,0%,0%);fill-opacity:1;" d="M 20 150 L 20 160 L 23 158 L 26 162 L 28 162 L 25 158 L 29 158 Z M 20 150 "/>
<path style=" stroke:none;fill-rule:nonzero;fill:rgb(100%,0%,0%);fill-opacity:1;" d="M 94 134 L 94 144 L 97 142 L 100 146 L 102 146 L 99 142 L 103 142 Z M 94 134 "/>
<path style=" stroke:none;fill-rule:nonzero;fill:rgb(100%,0%,0%);fill-opacity:1;" d="M 192 150 L 192 160 L 195 158 L 198 162 L 200 162 L 197 158 L 201 158 Z M 192 150 "/>
<path style=" stroke:none;fill-rule:nonzero;fill:rgb(100%,0%,0%);fill-opacity:1;" d="M 254 140 L 254 150 L 257 148 L 260 152 L 262 152 L 259 148 L 263 148 Z M 254 140 "/>
<path style=" stroke:none;fill-rule:nonzero;fill:rgb(100%,0%,0%);fill-opacity:1;" d="M 44 198 L 44 208 L 47 206 L 50 210 L 52 210 L 49 206 L 53 206 Z M 44 198 "/>
<path style=" stroke:none;fill-rule:nonzero;fill:rgb(100%,0%,0%);fill-opacity:1;" d="M 118 192 L 118 202 L 121 200 L 124 204 L 126 204 L 123 200 L 127 200 Z M 118 192 "/>
<path style=" stroke:none;fill-rule:nonzero;fill:rgb(100%,0%,0%);fill-opacity:1;" d="M 180 208 L 180 218 L 183 216 L 186 220 L 188 220 L 185 216 L 189 216 Z M 180 208 "/>
<path style=" stroke:none;fill-rule:nonzero;fill:rgb(100%,0%,0%);fill-opacity:1;" d="M 254 192 L 254 202 L 257 200 L 260 204 L 262 204 L 259 200 L 263 200 Z M 254 192 "/>
</g>
</svg>
