<?xml version="1.0" encoding="UTF-8"?>
<svg xmlns="http://www.w3.org/2000/svg" xmlns:xlink="http://www.w3.org/1999/xlink" width="110pt" height="110pt" viewBox="0 0 110 110" version="1.1">
<defs>
<clipPath id="clip1">
  <path d="M 0 0 L 110 0 L 110 21 L 0 21 Z M 0 0 "/>
</clipPath>
<clipPath id="clip2">
  <path d="M 0 26 L 110 26 L 110 48 L 0 48 Z M 0 26 "/>
</clipPath>
<clipPath id="clip3">
  <path d="M 0 53 L 110 53 L 110 74 L 0 74 Z M 0 53 "/>
</clipPath>
<clipPath id="clip4">
  <path d="M 0 79 L 110 79 L 110 100 L 0 100 Z M 0 79 "/>
</clipPath>
</defs>
<g id="surface2">
<g clip-path="url(#clip1)" clip-rule="nonzero">
<rect x="0" y="0" width="110" height="110" style="fill:rgb(38.039216%,50.588235%,100%);fill-opacity:0.490196;stroke:none;"/>
</g>
<path style="fill:none;stroke-width:2;stroke-linecap:butt;stroke-linejoin:miter;stroke:rgb(66.666667%,0%,100%);stroke-opacity:0.490196;stroke-miterlimit:10;" d="M 0.5 14.070312 L 0.5 17 M 1.5 17 L 1.5 17 M 2.5 17 L 2.5 17 M 3.5 16.414062 L 3.5 17 M 4.5 12.898438 L 4.5 17 M 5.5 7.035156 L 5.5 17 M 6.5 4.101562 L 6.5 17 M 7.5 17 L 7.5 17 M 8.5 17 L 8.5 17 M 9.5 16.414062 L 9.5 17 M 10.5 15.242188 L 10.5 17 M 11.5 17 L 11.5 17 M 12.5 17 L 12.5 17 M 13.5 8.792969 L 13.5 17 M 14.5 7.035156 L 14.5 17 M 15.5 7.035156 L 15.5 17 M 16.5 0 L 16.5 17 M 17.5 5.863281 L 17.5 17 M 18.5 8.207031 L 18.5 17 M 19.5 10.550781 L 19.5 17 M 20.5 14.65625 L 20.5 17 M 21.5 13.484375 L 21.5 17 M 22.5 14.070312 L 22.5 17 M 23.5 15.242188 L 23.5 17 M 24.5 14.070312 L 24.5 17 M 25.5 17 L 25.5 17 M 26.5 17 L 26.5 17 M 27.5 16.414062 L 27.5 17 M 28.5 12.898438 L 28.5 17 M 29.5 7.035156 L 29.5 17 M 30.5 4.101562 L 30.5 17 M 31.5 17 L 31.5 17 M 32.5 17 L 32.5 17 M 33.5 16.414062 L 33.5 17 M 34.5 15.242188 L 34.5 17 M 35.5 17 L 35.5 17 M 36.5 17 L 36.5 17 M 37.5 8.792969 L 37.5 17 M 38.5 7.035156 L 38.5 17 M 39.5 7.035156 L 39.5 17 M 40.5 0 L 40.5 17 M 41.5 5.863281 L 41.5 17 M 42.5 8.207031 L 42.5 17 M 43.5 10.550781 L 43.5 17 M 44.5 14.65625 L 44.5 17 M 45.5 13.484375 L 45.5 17 M 46.5 14.070312 L 46.5 17 M 47.5 15.242188 L 47.5 17 M 48.5 14.070312 L 48.5 17 M 49.5 17 L 49.5 17 M 50.5 17 L 50.5 17 M 51.5 16.414062 L 51.5 17 M 52.5 12.898438 L 52.5 17 M 53.5 7.035156 L 53.5 17 M 54.5 4.101562 L 54.5 17 M 55.5 17 L 55.5 17 M 56.5 17 L 56.5 17 M 57.5 16.414062 L 57.5 17 M 58.5 15.242188 L 58.5 17 M 59.5 17 L 59.5 17 M 60.5 17 L 60.5 17 M 61.5 8.792969 L 61.5 17 M 62.5 7.035156 L 62.5 17 M 63.5 7.035156 L 63.5 17 M 64.5 0 L 64.5 17 M 65.5 5.863281 L 65.5 17 M 66.5 8.207031 L 66.5 17 M 67.5 10.550781 L 67.5 17 M 68.5 14.65625 L 68.5 17 M 69.5 13.484375 L 69.5 17 M 70.5 14.070312 L 70.5 17 M 71.5 15.242188 L 71.5 17 M 72.5 14.070312 L 72.5 17 M 73.5 17 L 73.5 17 M 74.5 17 L 74.5 17 M 75.5 16.414062 L 75.5 17 M 76.5 12.898438 L 76.5 17 M 77.5 7.035156 L 77.5 17 M 78.5 4.101562 L 78.5 17 M 79.5 17 L 79.5 17 M 80.5 17 L 80.5 17 M 81.5 16.414062 L 81.5 17 M 82.5 15.242188 L 82.5 17 M 83.5 17 L 83.5 17 M 84.5 17 L 84.5 17 M 85.5 8.792969 L 85.5 17 M 86.5 7.035156 L 86.5 17 M 87.5 7.035156 L 87.5 17 M 88.5 0 L 88.5 17 M 89.5 5.863281 L 89.5 17 M 90.5 8.207031 L 90.5 17 M 91.5 10.550781 L 91.5 17 M 92.5 14.65625 L 92.5 17 M 93.5 13.484375 L 93.5 17 M 94.5 14.070312 L 94.5 17 M 95.5 15.242188 L 95.5 17 " transform="matrix(1,0,0,1,2,2)"/>
<path style="fill:none;stroke-width:2;stroke-linecap:butt;stroke-linejoin:miter;stroke:rgb(100%,0%,0%);stroke-opacity:1;stroke-miterlimit:10;" d="M 1 1 L 109 1 L 109 20 L 1 20 Z M 1 1 "/>
<g clip-path="url(#clip2)" clip-rule="nonzero">
<rect x="0" y="0" width="110" height="110" style="fill:rgb(38.039216%,50.588235%,100%);fill-opacity:0.490196;stroke:none;"/>
</g>
<path style="fill:none;stroke-width:2;stroke-linecap:butt;stroke-linejoin:miter;stroke:rgb(66.666667%,0%,100%);stroke-opacity:0.490196;stroke-miterlimit:10;" d="M 0.5 14.898438 L 0.5 18 M 1.5 18 L 1.5 18 M 2.5 18 L 2.5 18 M 3.5 17.378906 L 3.5 18 M 4.5 13.65625 L 4.5 18 M 5.5 7.449219 L 5.5 18 M 6.5 4.34375 L 6.5 18 M 7.5 18 L 7.5 18 M 8.5 18 L 8.5 18 M 9.5 17.378906 L 9.5 18 M 10.5 16.136719 L 10.5 18 M 11.5 18 L 11.5 18 M 12.5 18 L 12.5 18 M 13.5 9.308594 L 13.5 18 M 14.5 7.449219 L 14.5 18 M 15.5 7.449219 L 15.5 18 M 16.5 0 L 16.5 18 M 17.5 6.207031 L 17.5 18 M 18.5 8.691406 L 18.5 18 M 19.5 11.171875 L 19.5 18 M 20.5 15.515625 L 20.5 18 M 21.5 14.277344 L 21.5 18 M 22.5 14.898438 L 22.5 18 M 23.5 16.136719 L 23.5 18 M 24.5 14.898438 L 24.5 18 M 25.5 18 L 25.5 18 M 26.5 18 L 26.5 18 M 27.5 17.378906 L 27.5 18 M 28.5 13.65625 L 28.5 18 M 29.5 7.449219 L 29.5 18 M 30.5 4.34375 L 30.5 18 M 31.5 18 L 31.5 18 M 32.5 18 L 32.5 18 M 33.5 17.378906 L 33.5 18 M 34.5 16.136719 L 34.5 18 M 35.5 18 L 35.5 18 M 36.5 18 L 36.5 18 M 37.5 9.308594 L 37.5 18 M 38.5 7.449219 L 38.5 18 M 39.5 7.449219 L 39.5 18 M 40.5 0 L 40.5 18 M 41.5 6.207031 L 41.5 18 M 42.5 8.691406 L 42.5 18 M 43.5 11.171875 L 43.5 18 M 44.5 15.515625 L 44.5 18 M 45.5 14.277344 L 45.5 18 M 46.5 14.898438 L 46.5 18 M 47.5 16.136719 L 47.5 18 M 48.5 14.898438 L 48.5 18 M 49.5 18 L 49.5 18 M 50.5 18 L 50.5 18 M 51.5 17.378906 L 51.5 18 M 52.5 13.65625 L 52.5 18 M 53.5 7.449219 L 53.5 18 M 54.5 4.34375 L 54.5 18 M 55.5 18 L 55.5 18 M 56.5 18 L 56.5 18 M 57.5 17.378906 L 57.5 18 M 58.5 16.136719 L 58.5 18 M 59.5 18 L 59.5 18 M 60.5 18 L 60.5 18 M 61.5 9.308594 L 61.5 18 M 62.5 7.449219 L 62.5 18 M 63.5 7.449219 L 63.5 18 M 64.5 0 L 64.5 18 M 65.5 6.207031 L 65.5 18 M 66.5 8.691406 L 66.5 18 M 67.5 11.171875 L 67.5 18 M 68.5 15.515625 L 68.5 18 M 69.5 14.277344 L 69.5 18 M 70.5 14.898438 L 70.5 18 M 71.5 16.136719 L 71.5 18 M 72.5 14.898438 L 72.5 18 M 73.5 18 L 73.5 18 M 74.5 18 L 74.5 18 M 75.5 17.378906 L 75.5 18 M 76.5 13.65625 L 76.5 18 M 77.5 7.449219 L 77.5 18 M 78.5 4.34375 L 78.5 18 M 79.5 18 L 79.5 18 M 80.5 18 L 80.5 18 M 81.5 17.378906 L 81.5 18 M 82.5 16.136719 L 82.5 18 M 83.5 18 L 83.5 18 M 84.5 18 L 84.5 18 M 85.5 9.308594 L 85.5 18 M 86.5 7.449219 L 86.5 18 M 87.5 7.449219 L 87.5 18 M 88.5 0 L 88.5 18 M 89.5 6.207031 L 89.5 18 M 90.5 8.691406 L 90.5 18 M 91.5 11.171875 L 91.5 18 M 92.5 15.515625 L 92.5 18 M 93.5 14.277344 L 93.5 18 M 94.5 14.898438 L 94.5 18 M 95.5 16.136719 L 95.5 18 " transform="matrix(1,0,0,1,2,28)"/>
<path style="fill:none;stroke-width:2;stroke-linecap:butt;stroke-linejoin:miter;stroke:rgb(0%,100%,0%);stroke-opacity:1;stroke-miterlimit:10;" d="M 1 1 L 109 1 L 109 21 L 1 21 Z M 1 1 " transform="matrix(1,0,0,1,0,26)"/>
<g clip-path="url(#clip3)" clip-rule="nonzero">
<rect x="0" y="0" width="110" height="110" style="fill:rgb(38.039216%,50.588235%,100%);fill-opacity:0.490196;stroke:none;"/>
</g>
<path style="fill:none;stroke-width:2;stroke-linecap:butt;stroke-linejoin:miter;stroke:rgb(66.666667%,0%,100%);stroke-opacity:0.490196;stroke-miterlimit:10;" d="M 0.5 14.070312 L 0.5 17 M 1.5 17 L 1.5 17 M 2.5 17 L 2.5 17 M 3.5 16.414062 L 3.5 17 M 4.5 12.898438 L 4.5 17 M 5.5 7.035156 L 5.5 17 M 6.5 4.101562 L 6.5 17 M 7.5 17 L 7.5 17 M 8.5 17 L 8.5 17 M 9.5 16.414062 L 9.5 17 M 10.5 15.242188 L 10.5 17 M 11.5 17 L 11.5 17 M 12.5 17 L 12.5 17 M 13.5 8.792969 L 13.5 17 M 14.5 7.035156 L 14.5 17 M 15.5 7.035156 L 15.5 17 M 16.5 0 L 16.5 17 M 17.5 5.863281 L 17.5 17 M 18.5 8.207031 L 18.5 17 M 19.5 10.550781 L 19.5 17 M 20.5 14.65625 L 20.5 17 M 21.5 13.484375 L 21.5 17 M 22.5 14.070312 L 22.5 17 M 23.5 15.242188 L 23.5 17 M 24.5 14.070312 L 24.5 17 M 25.5 17 L 25.5 17 M 26.5 17 L 26.5 17 M 27.5 16.414062 L 27.5 17 M 28.5 12.898438 L 28.5 17 M 29.5 7.035156 L 29.5 17 M 30.5 4.101562 L 30.5 17 M 31.5 17 L 31.5 17 M 32.5 17 L 32.5 17 M 33.5 16.414062 L 33.5 17 M 34.5 15.242188 L 34.5 17 M 35.5 17 L 35.5 17 M 36.5 17 L 36.5 17 M 37.5 8.792969 L 37.5 17 M 38.5 7.035156 L 38.5 17 M 39.5 7.035156 L 39.5 17 M 40.5 0 L 40.5 17 M 41.5 5.863281 L 41.5 17 M 42.5 8.207031 L 42.5 17 M 43.5 10.550781 L 43.5 17 M 44.5 14.65625 L 44.5 17 M 45.5 13.484375 L 45.5 17 M 46.5 14.070312 L 46.5 17 M 47.5 15.242188 L 47.5 17 M 48.5 14.070312 L 48.5 17 M 49.5 17 L 49.5 17 M 50.5 17 L 50.5 17 M 51.5 16.414062 L 51.5 17 M 52.5 12.898438 L 52.5 17 M 53.5 7.035156 L 53.5 17 M 54.5 4.101562 L 54.5 17 M 55.5 17 L 55.5 17 M 56.5 17 L 56.5 17 M 57.5 16.414062 L 57.5 17 M 58.5 15.242188 L 58.5 17 M 59.5 17 L 59.5 17 M 60.5 17 L 60.5 17 M 61.5 8.792969 L 61.5 17 M 62.5 7.035156 L 62.5 17 M 63.5 7.035156 L 63.5 17 M 64.5 0 L 64.5 17 M 65.5 5.863281 L 65.5 17 M 66.5 8.207031 L 66.5 17 M 67.5 10.550781 L 67.5 17 M 68.5 14.65625 L 68.5 17 M 69.5 13.484375 L 69.5 17 M 70.5 14.070312 L 70.5 17 M 71.5 15.242188 L 71.5 17 M 72.5 14.070312 L 72.5 17 M 73.5 17 L 73.5 17 M 74.5 17 L 74.5 17 M 75.5 16.414062 L 75.5 17 M 76.5 12.898438 L 76.5 17 M 77.5 7.035156 L 77.5 17 M 78.5 4.101562 L 78.5 17 M 79.5 17 L 79.5 17 M 80.5 17 L 80.5 17 M 81.5 16.414062 L 81.5 17 M 82.5 15.242188 L 82.5 17 M 83.5 17 L 83.5 17 M 84.5 17 L 84.5 17 M 85.5 8.792969 L 85.5 17 M 86.5 7.035156 L 86.5 17 M 87.5 7.035156 L 87.5 17 M 88.5 0 L 88.5 17 M 89.5 5.863281 L 89.5 17 M 90.5 8.207031 L 90.5 17 M 91.5 10.550781 L 91.5 17 M 92.5 14.65625 L 92.5 17 M 93.5 13.484375 L 93.5 17 M 94.5 14.070312 L 94.5 17 M 95.5 15.242188 L 95.5 17 " transform="matrix(1,0,0,1,2,55)"/>
<path style="fill:none;stroke-width:2;stroke-linecap:butt;stroke-linejoin:miter;stroke:rgb(0%,0%,100%);stroke-opacity:1;stroke-miterlimit:10;" d="M 1 1 L 109 1 L 109 20 L 1 20 Z M 1 1 " transform="matrix(1,0,0,1,0,53)"/>
<g clip-path="url(#clip4)" clip-rule="nonzero">
<rect x="0" y="0" width="110" height="110" style="fill:rgb(38.039216%,50.588235%,100%);fill-opacity:0.490196;stroke:none;"/>
</g>
<path style="fill:none;stroke-width:2;stroke-linecap:butt;stroke-linejoin:miter;stroke:rgb(66.666667%,0%,100%);stroke-opacity:0.490196;stroke-miterlimit:10;" d="M 0.5 14.070312 L 0.5 17 M 1.5 17 L 1.5 17 M 2.5 17 L 2.5 17 M 3.5 16.414062 L 3.5 17 M 4.5 12.898438 L 4.5 17 M 5.5 7.035156 L 5.5 17 M 6.5 4.101562 L 6.5 17 M 7.5 17 L 7.5 17 M 8.5 17 L 8.5 17 M 9.5 16.414062 L 9.5 17 M 10.5 15.242188 L 10.5 17 M 11.5 17 L 11.5 17 M 12.5 17 L 12.5 17 M 13.5 8.792969 L 13.5 17 M 14.5 7.035156 L 14.5 17 M 15.5 7.035156 L 15.5 17 M 16.5 0 L 16.5 17 M 17.5 5.863281 L 17.5 17 M 18.5 8.207031 L 18.5 17 M 19.5 10.550781 L 19.5 17 M 20.5 14.65625 L 20.5 17 M 21.5 13.484375 L 21.5 17 M 22.5 14.070312 L 22.5 17 M 23.5 15.242188 L 23.5 17 M 24.5 14.070312 L 24.5 17 M 25.5 17 L 25.5 17 M 26.5 17 L 26.5 17 M 27.5 16.414062 L 27.5 17 M 28.5 12.898438 L 28.5 17 M 29.5 7.035156 L 29.5 17 M 30.5 4.101562 L 30.5 17 M 31.5 17 L 31.5 17 M 32.5 17 L 32.5 17 M 33.5 16.414062 L 33.5 17 M 34.5 15.242188 L 34.5 17 M 35.5 17 L 35.5 17 M 36.5 17 L 36.5 17 M 37.5 8.792969 L 37.5 17 M 38.5 7.035156 L 38.5 17 M 39.5 7.035156 L 39.5 17 M 40.5 0 L 40.5 17 M 41.5 5.863281 L 41.5 17 M 42.5 8.207031 L 42.5 17 M 43.5 10.550781 L 43.5 17 M 44.5 14.65625 L 44.5 17 M 45.5 13.484375 L 45.5 17 M 46.5 14.070312 L 46.5 17 M 47.5 15.242188 L 47.5 17 M 48.5 14.070312 L 48.5 17 M 49.5 17 L 49.5 17 M 50.5 17 L 50.5 17 M 51.5 16.414062 L 51.5 17 M 52.5 12.898438 L 52.5 17 M 53.5 7.035156 L 53.5 17 M 54.5 4.101562 L 54.5 17 M 55.5 17 L 55.5 17 M 56.5 17 L 56.5 17 M 57.5 16.414062 L 57.5 17 M 58.5 15.242188 L 58.5 17 M 59.5 17 L 59.5 17 M 60.5 17 L 60.5 17 M 61.5 8.792969 L 61.5 17 M 62.5 7.035156 L 62.5 17 M 63.5 7.035156 L 63.5 17 M 64.5 0 L 64.5 17 M 65.5 5.863281 L 65.5 17 M 66.5 8.207031 L 66.5 17 M 67.5 10.550781 L 67.5 17 M 68.5 14.65625 L 68.5 17 M 69.5 13.484375 L 69.5 17 M 70.5 14.070312 L 70.5 17 M 71.5 15.242188 L 71.5 17 M 72.5 14.070312 L 72.5 17 M 73.5 17 L 73.5 17 M 74.5 17 L 74.5 17 M 75.5 16.414062 L 75.5 17 M 76.5 12.898438 L 76.5 17 M 77.5 7.035156 L 77.5 17 M 78.5 4.101562 L 78.5 17 M 79.5 17 L 79.5 17 M 80.5 17 L 80.5 17 M 81.5 16.414062 L 81.5 17 M 82.5 15.242188 L 82.5 17 M 83.5 17 L 83.5 17 M 84.5 17 L 84.5 17 M 85.5 8.792969 L 85.5 17 M 86.5 7.035156 L 86.5 17 M 87.5 7.035156 L 87.5 17 M 88.5 0 L 88.5 17 M 89.5 5.863281 L 89.5 17 M 90.5 8.207031 L 90.5 17 M 91.5 10.550781 L 91.5 17 M 92.5 14.65625 L 92.5 17 M 93.5 13.484375 L 93.5 17 M 94.5 14.070312 L 94.5 17 M 95.5 15.242188 L 95.5 17 " transform="matrix(1,0,0,1,2,81)"/>
<path style="fill:none;stroke-width:2;stroke-linecap:butt;stroke-linejoin:miter;stroke:rgb(100%,0%,100%);stroke-opacity:1;stroke-miterlimit:10;" d="M 1 1 L 109 1 L 109 20 L 1 20 Z M 1 1 " transform="matrix(1,0,0,1,0,79)"/>
</g>
</svg>
