<?xml version="1.0" encoding="UTF-8"?>
<svg xmlns="http://www.w3.org/2000/svg" xmlns:xlink="http://www.w3.org/1999/xlink" width="320pt" height="240pt" viewBox="0 0 320 240" version="1.1">
<g id="surface2">
<path style="fill:none;stroke-width:1.5;stroke-linecap:butt;stroke-linejoin:miter;stroke:rgb(0%,0%,0%);stroke-opacity:0.266667;stroke-dasharray:10,4;stroke-dashoffset:1;stroke-miterlimit:10;" d="M 0.75 0.75 L 319.25 0.75 L 319.25 239.25 L 0.75 239.25 Z M 0.75 0.75 "/>
<path style="fill:none;stroke-width:1.5;stroke-linecap:butt;stroke-linejoin:miter;stroke:rgb(0%,0%,0%);stroke-opacity:0.2;stroke-dasharray:10,4;stroke-dashoffset:1;stroke-miterlimit:10;" d="M 10 10 L 310 10 L 310 230 L 10 230 Z M 10 10 "/>
<path style="fill:none;stroke-width:1.5;stroke-linecap:butt;stroke-linejoin:miter;stroke:rgb(38.039216%,50.588235%,100%);stroke-opacity:1;stroke-miterlimit:10;" d="M 0 5 C 0 2.238281 2.238281 0 5 0 L 95 0 C 97.761719 0 100 2.238281 100 5 L 100 95 C 100 97.761719 97.761719 100 95 100 L 5 100 C 2.238281 100 0 97.761719 0 95 Z M 0 5 " transform="matrix(1,0,0,1,-30,-30)"/>
<path style=" stroke:none;fill-rule:nonzero;fill:rgb(38.039216%,50.588235%,100%);fill-opacity:0.490196;" d="M -30 -25 C -30 -27.761719 -27.761719 -30 -25 -30 L 65 -30 C 67.761719 -30 70 -27.761719 70 -25 L 70 65 C 70 67.761719 67.761719 70 65 70 L -25 70 C -27.761719 70 -30 67.761719 -30 65 Z M -30 -25 "/>
<path style="fill:none;stroke-width:1.5;stroke-linecap:butt;stroke-linejoin:miter;stroke:rgb(38.039216%,50.588235%,100%);stroke-opacity:1;stroke-miterlimit:10;" d="M 0 5 C 0 2.238281 2.238281 0 5 0 L 95 0 C 97.761719 0 100 2.238281 100 5 L 100 95 C 100 97.761719 97.761719 100 95 100 L 5 100 C 2.238281 100 0 97.761719 0 95 Z M 0 5 " transform="matrix(1,0,0,1,10,10)"/>
<path style=" stroke:none;fill-rule:nonzero;fill:rgb(38.039216%,50.588235%,100%);fill-opacity:0.490196;" d="M 10 15 C 10 12.238281 12.238281 10 15 10 L 105 10 C 107.761719 10 110 12.238281 110 15 L 110 105 C 110 107.761719 107.761719 110 105 110 L 15 110 C 12.238281 110 10 107.761719 10 105 Z M 10 15 "/>
<path style="fill:none;stroke-width:1.5;stroke-linecap:butt;stroke-linejoin:miter;stroke:rgb(0%,0%,0%);stroke-opacity:0.1;stroke-miterlimit:10;" d="M -30 -30 L 10 10 "/>
<path style="fill:none;stroke-width:1.5;stroke-linecap:butt;stroke-linejoin:miter;stroke:rgb(0%,0%,0%);stroke-opacity:0.1;stroke-miterlimit:10;" d="M 70 -30 L 110 10 M -30 70 L 10 110 "/>
<path style="fill:none;stroke-width:1.5;stroke-linecap:butt;stroke-linejoin:miter;stroke:rgb(0%,0%,0%);stroke-opacity:0.1;stroke-miterlimit:10;" d="M 70 70 L 110 110 "/>
</g>
</svg>
