<?xml version="1.0" encoding="UTF-8"?>
<svg xmlns="http://www.w3.org/2000/svg" xmlns:xlink="http://www.w3.org/1999/xlink" width="110pt" height="110pt" viewBox="0 0 110 110" version="1.1">
<defs>
<clipPath id="clip1">
  <path d="M 0 0 L 110 0 L 110 21 L 0 21 Z M 0 0 "/>
</clipPath>
<clipPath id="clip2">
  <path d="M 0 26 L 110 26 L 110 48 L 0 48 Z M 0 26 "/>
</clipPath>
<clipPath id="clip3">
  <path d="M 0 53 L 110 53 L 110 74 L 0 74 Z M 0 53 "/>
</clipPath>
<clipPath id="clip4">
  <path d="M 0 79 L 110 79 L 110 100 L 0 100 Z M 0 79 "/>
</clipPath>
</defs>
<g id="surface2">
<g clip-path="url(#clip1)" clip-rule="nonzero">
<rect x="0" y="0" width="110" height="110" style="fill:rgb(38.039216%,50.588235%,100%);fill-opacity:0.490196;stroke:none;"/>
</g>
<path style="fill:none;stroke-width:1;stroke-linecap:butt;stroke-linejoin:miter;stroke:rgb(66.666667%,0%,100%);stroke-opacity:0.490196;stroke-miterlimit:10;" d="M 0.5 15.832031 L 0.5 19 M 1.5 19 L 1.5 19 M 2.5 19 L 2.5 19 M 3.5 18.367188 L 3.5 19 M 4.5 14.566406 L 4.5 19 M 5.5 8.234375 L 5.5 19 M 6.5 5.066406 L 6.5 19 M 7.5 19 L 7.5 19 M 8.5 19 L 8.5 19 M 9.5 18.367188 L 9.5 19 M 10.5 17.101562 L 10.5 19 M 11.5 19 L 11.5 19 M 12.5 19 L 12.5 19 M 13.5 10.132812 L 13.5 19 M 14.5 8.234375 L 14.5 19 M 15.5 8.234375 L 15.5 19 M 16.5 0.632812 L 16.5 19 M 17.5 6.964844 L 17.5 19 M 18.5 9.5 L 18.5 19 M 19.5 12.035156 L 19.5 19 M 20.5 16.464844 L 20.5 19 M 21.5 15.199219 L 21.5 19 M 22.5 15.832031 L 22.5 19 M 23.5 17.101562 L 23.5 19 M 24.5 15.832031 L 24.5 19 M 25.5 19 L 25.5 19 M 26.5 19 L 26.5 19 M 27.5 18.367188 L 27.5 19 M 28.5 14.566406 L 28.5 19 M 29.5 8.234375 L 29.5 19 M 30.5 5.066406 L 30.5 19 M 31.5 19 L 31.5 19 M 32.5 19 L 32.5 19 M 33.5 18.367188 L 33.5 19 M 34.5 17.101562 L 34.5 19 M 35.5 19 L 35.5 19 M 36.5 19 L 36.5 19 M 37.5 10.132812 L 37.5 19 M 38.5 8.234375 L 38.5 19 M 39.5 8.234375 L 39.5 19 M 40.5 0.632812 L 40.5 19 M 41.5 6.964844 L 41.5 19 M 42.5 9.5 L 42.5 19 M 43.5 12.035156 L 43.5 19 M 44.5 16.464844 L 44.5 19 M 45.5 15.199219 L 45.5 19 M 46.5 15.832031 L 46.5 19 M 47.5 17.101562 L 47.5 19 M 48.5 15.832031 L 48.5 19 M 49.5 19 L 49.5 19 M 50.5 19 L 50.5 19 M 51.5 18.367188 L 51.5 19 M 52.5 14.566406 L 52.5 19 M 53.5 8.234375 L 53.5 19 M 54.5 5.066406 L 54.5 19 M 55.5 19 L 55.5 19 M 56.5 19 L 56.5 19 M 57.5 18.367188 L 57.5 19 M 58.5 17.101562 L 58.5 19 M 59.5 19 L 59.5 19 M 60.5 19 L 60.5 19 M 61.5 10.132812 L 61.5 19 M 62.5 8.234375 L 62.5 19 M 63.5 8.234375 L 63.5 19 M 64.5 0.632812 L 64.5 19 M 65.5 6.964844 L 65.5 19 M 66.5 9.5 L 66.5 19 M 67.5 12.035156 L 67.5 19 M 68.5 16.464844 L 68.5 19 M 69.5 15.199219 L 69.5 19 M 70.5 15.832031 L 70.5 19 M 71.5 17.101562 L 71.5 19 M 72.5 15.832031 L 72.5 19 M 73.5 19 L 73.5 19 M 74.5 19 L 74.5 19 M 75.5 18.367188 L 75.5 19 M 76.5 14.566406 L 76.5 19 M 77.5 8.234375 L 77.5 19 M 78.5 5.066406 L 78.5 19 M 79.5 19 L 79.5 19 M 80.5 19 L 80.5 19 M 81.5 18.367188 L 81.5 19 M 82.5 17.101562 L 82.5 19 M 83.5 19 L 83.5 19 M 84.5 19 L 84.5 19 M 85.5 10.132812 L 85.5 19 M 86.5 8.234375 L 86.5 19 M 87.5 8.234375 L 87.5 19 M 88.5 0.632812 L 88.5 19 M 89.5 6.964844 L 89.5 19 M 90.5 9.5 L 90.5 19 M 91.5 12.035156 L 91.5 19 M 92.5 16.464844 L 92.5 19 M 93.5 15.199219 L 93.5 19 M 94.5 15.832031 L 94.5 19 M 95.5 17.101562 L 95.5 19 M 96.5 15.832031 L 96.5 19 M 97.5 19 L 97.5 19 " transform="matrix(1,0,0,1,1,1)"/>
<path style="fill:none;stroke-width:1;stroke-linecap:butt;stroke-linejoin:miter;stroke:rgb(38.039216%,50.588235%,100%);stroke-opacity:1;stroke-miterlimit:10;" d="M 0.5 0.5 L 109.5 0.5 L 109.5 20.5 L 0.5 20.5 Z M 0.5 0.5 "/>
<g clip-path="url(#clip2)" clip-rule="nonzero">
<rect x="0" y="0" width="110" height="110" style="fill:rgb(38.039216%,50.588235%,100%);fill-opacity:0.490196;stroke:none;"/>
</g>
<path style="fill:none;stroke-width:2;stroke-linecap:butt;stroke-linejoin:miter;stroke:rgb(66.666667%,0%,100%);stroke-opacity:0.490196;stroke-miterlimit:10;" d="M 0.5 15 L 0.5 18 M 1.5 18 L 1.5 18 M 2.5 18 L 2.5 18 M 3.5 17.398438 L 3.5 18 M 4.5 13.800781 L 4.5 18 M 5.5 7.800781 L 5.5 18 M 6.5 4.800781 L 6.5 18 M 7.5 18 L 7.5 18 M 8.5 18 L 8.5 18 M 9.5 17.398438 L 9.5 18 M 10.5 16.199219 L 10.5 18 M 11.5 18 L 11.5 18 M 12.5 18 L 12.5 18 M 13.5 9.601562 L 13.5 18 M 14.5 7.800781 L 14.5 18 M 15.5 7.800781 L 15.5 18 M 16.5 0.601562 L 16.5 18 M 17.5 6.601562 L 17.5 18 M 18.5 9 L 18.5 18 M 19.5 11.398438 L 19.5 18 M 20.5 15.601562 L 20.5 18 M 21.5 14.398438 L 21.5 18 M 22.5 15 L 22.5 18 M 23.5 16.199219 L 23.5 18 M 24.5 15 L 24.5 18 M 25.5 18 L 25.5 18 M 26.5 18 L 26.5 18 M 27.5 17.398438 L 27.5 18 M 28.5 13.800781 L 28.5 18 M 29.5 7.800781 L 29.5 18 M 30.5 4.800781 L 30.5 18 M 31.5 18 L 31.5 18 M 32.5 18 L 32.5 18 M 33.5 17.398438 L 33.5 18 M 34.5 16.199219 L 34.5 18 M 35.5 18 L 35.5 18 M 36.5 18 L 36.5 18 M 37.5 9.601562 L 37.5 18 M 38.5 7.800781 L 38.5 18 M 39.5 7.800781 L 39.5 18 M 40.5 0.601562 L 40.5 18 M 41.5 6.601562 L 41.5 18 M 42.5 9 L 42.5 18 M 43.5 11.398438 L 43.5 18 M 44.5 15.601562 L 44.5 18 M 45.5 14.398438 L 45.5 18 M 46.5 15 L 46.5 18 M 47.5 16.199219 L 47.5 18 M 48.5 15 L 48.5 18 M 49.5 18 L 49.5 18 M 50.5 18 L 50.5 18 M 51.5 17.398438 L 51.5 18 M 52.5 13.800781 L 52.5 18 M 53.5 7.800781 L 53.5 18 M 54.5 4.800781 L 54.5 18 M 55.5 18 L 55.5 18 M 56.5 18 L 56.5 18 M 57.5 17.398438 L 57.5 18 M 58.5 16.199219 L 58.5 18 M 59.5 18 L 59.5 18 M 60.5 18 L 60.5 18 M 61.5 9.601562 L 61.5 18 M 62.5 7.800781 L 62.5 18 M 63.5 7.800781 L 63.5 18 M 64.5 0.601562 L 64.5 18 M 65.5 6.601562 L 65.5 18 M 66.5 9 L 66.5 18 M 67.5 11.398438 L 67.5 18 M 68.5 15.601562 L 68.5 18 M 69.5 14.398438 L 69.5 18 M 70.5 15 L 70.5 18 M 71.5 16.199219 L 71.5 18 M 72.5 15 L 72.5 18 M 73.5 18 L 73.5 18 M 74.5 18 L 74.5 18 M 75.5 17.398438 L 75.5 18 M 76.5 13.800781 L 76.5 18 M 77.5 7.800781 L 77.5 18 M 78.5 4.800781 L 78.5 18 M 79.5 18 L 79.5 18 M 80.5 18 L 80.5 18 M 81.5 17.398438 L 81.5 18 M 82.5 16.199219 L 82.5 18 M 83.5 18 L 83.5 18 M 84.5 18 L 84.5 18 M 85.5 9.601562 L 85.5 18 M 86.5 7.800781 L 86.5 18 M 87.5 7.800781 L 87.5 18 M 88.5 0.601562 L 88.5 18 M 89.5 6.601562 L 89.5 18 M 90.5 9 L 90.5 18 M 91.5 11.398438 L 91.5 18 M 92.5 15.601562 L 92.5 18 M 93.5 14.398438 L 93.5 18 M 94.5 15 L 94.5 18 M 95.5 16.199219 L 95.5 18 " transform="matrix(1,0,0,1,2,28)"/>
<path style="fill:none;stroke-width:2;stroke-linecap:butt;stroke-linejoin:miter;stroke:rgb(38.039216%,50.588235%,100%);stroke-opacity:1;stroke-miterlimit:10;" d="M 1 1 L 109 1 L 109 21 L 1 21 Z M 1 1 " transform="matrix(1,0,0,1,0,26)"/>
<g clip-path="url(#clip3)" clip-rule="nonzero">
<rect x="0" y="0" width="110" height="110" style="fill:rgb(38.039216%,50.588235%,100%);fill-opacity:0.490196;stroke:none;"/>
</g>
<path style="fill:none;stroke-width:4;stroke-linecap:butt;stroke-linejoin:miter;stroke:rgb(66.666667%,0%,100%);stroke-opacity:0.490196;stroke-miterlimit:10;" d="M 0.5 10.832031 L 0.5 13 M 1.5 13 L 1.5 13 M 2.5 13 L 2.5 13 M 3.5 12.566406 L 3.5 13 M 4.5 9.964844 L 4.5 13 M 5.5 5.632812 L 5.5 13 M 6.5 3.464844 L 6.5 13 M 7.5 13 L 7.5 13 M 8.5 13 L 8.5 13 M 9.5 12.566406 L 9.5 13 M 10.5 11.699219 L 10.5 13 M 11.5 13 L 11.5 13 M 12.5 13 L 12.5 13 M 13.5 6.933594 L 13.5 13 M 14.5 5.632812 L 14.5 13 M 15.5 5.632812 L 15.5 13 M 16.5 0.433594 L 16.5 13 M 17.5 4.765625 L 17.5 13 M 18.5 6.5 L 18.5 13 M 19.5 8.234375 L 19.5 13 M 20.5 11.265625 L 20.5 13 M 21.5 10.398438 L 21.5 13 M 22.5 10.832031 L 22.5 13 M 23.5 11.699219 L 23.5 13 M 24.5 10.832031 L 24.5 13 M 25.5 13 L 25.5 13 M 26.5 13 L 26.5 13 M 27.5 12.566406 L 27.5 13 M 28.5 9.964844 L 28.5 13 M 29.5 5.632812 L 29.5 13 M 30.5 3.464844 L 30.5 13 M 31.5 13 L 31.5 13 M 32.5 13 L 32.5 13 M 33.5 12.566406 L 33.5 13 M 34.5 11.699219 L 34.5 13 M 35.5 13 L 35.5 13 M 36.5 13 L 36.5 13 M 37.5 6.933594 L 37.5 13 M 38.5 5.632812 L 38.5 13 M 39.5 5.632812 L 39.5 13 M 40.5 0.433594 L 40.5 13 M 41.5 4.765625 L 41.5 13 M 42.5 6.5 L 42.5 13 M 43.5 8.234375 L 43.5 13 M 44.5 11.265625 L 44.5 13 M 45.5 10.398438 L 45.5 13 M 46.5 10.832031 L 46.5 13 M 47.5 11.699219 L 47.5 13 M 48.5 10.832031 L 48.5 13 M 49.5 13 L 49.5 13 M 50.5 13 L 50.5 13 M 51.5 12.566406 L 51.5 13 M 52.5 9.964844 L 52.5 13 M 53.5 5.632812 L 53.5 13 M 54.5 3.464844 L 54.5 13 M 55.5 13 L 55.5 13 M 56.5 13 L 56.5 13 M 57.5 12.566406 L 57.5 13 M 58.5 11.699219 L 58.5 13 M 59.5 13 L 59.5 13 M 60.5 13 L 60.5 13 M 61.5 6.933594 L 61.5 13 M 62.5 5.632812 L 62.5 13 M 63.5 5.632812 L 63.5 13 M 64.5 0.433594 L 64.5 13 M 65.5 4.765625 L 65.5 13 M 66.5 6.5 L 66.5 13 M 67.5 8.234375 L 67.5 13 M 68.5 11.265625 L 68.5 13 M 69.5 10.398438 L 69.5 13 M 70.5 10.832031 L 70.5 13 M 71.5 11.699219 L 71.5 13 M 72.5 10.832031 L 72.5 13 M 73.5 13 L 73.5 13 M 74.5 13 L 74.5 13 M 75.5 12.566406 L 75.5 13 M 76.5 9.964844 L 76.5 13 M 77.5 5.632812 L 77.5 13 M 78.5 3.464844 L 78.5 13 M 79.5 13 L 79.5 13 M 80.5 13 L 80.5 13 M 81.5 12.566406 L 81.5 13 M 82.5 11.699219 L 82.5 13 M 83.5 13 L 83.5 13 M 84.5 13 L 84.5 13 M 85.5 6.933594 L 85.5 13 M 86.5 5.632812 L 86.5 13 M 87.5 5.632812 L 87.5 13 M 88.5 0.433594 L 88.5 13 M 89.5 4.765625 L 89.5 13 M 90.5 6.5 L 90.5 13 M 91.5 8.234375 L 91.5 13 " transform="matrix(1,0,0,1,4,57)"/>
<path style="fill:none;stroke-width:4;stroke-linecap:butt;stroke-linejoin:miter;stroke:rgb(38.039216%,50.588235%,100%);stroke-opacity:1;stroke-miterlimit:10;" d="M 2 2 L 108 2 L 108 19 L 2 19 Z M 2 2 " transform="matrix(1,0,0,1,0,53)"/>
<g clip-path="url(#clip4)" clip-rule="nonzero">
<rect x="0" y="0" width="110" height="110" style="fill:rgb(38.039216%,50.588235%,100%);fill-opacity:0.490196;stroke:none;"/>
</g>
<path style="fill:none;stroke-width:10;stroke-linecap:butt;stroke-linejoin:miter;stroke:rgb(66.666667%,0%,100%);stroke-opacity:0.490196;stroke-miterlimit:10;" d="M 0.5 0.832031 L 0.5 1 M 1.5 1 L 1.5 1 M 2.5 1 L 2.5 1 M 3.5 0.964844 L 3.5 1 M 4.5 0.765625 L 4.5 1 M 5.5 0.433594 L 5.5 1 M 6.5 0.265625 L 6.5 1 M 7.5 1 L 7.5 1 M 8.5 1 L 8.5 1 M 9.5 0.964844 L 9.5 1 M 10.5 0.898438 L 10.5 1 M 11.5 1 L 11.5 1 M 12.5 1 L 12.5 1 M 13.5 0.535156 L 13.5 1 M 14.5 0.433594 L 14.5 1 M 15.5 0.433594 L 15.5 1 M 16.5 0.0351562 L 16.5 1 M 17.5 0.367188 L 17.5 1 M 18.5 0.5 L 18.5 1 M 19.5 0.632812 L 19.5 1 M 20.5 0.867188 L 20.5 1 M 21.5 0.800781 L 21.5 1 M 22.5 0.832031 L 22.5 1 M 23.5 0.898438 L 23.5 1 M 24.5 0.832031 L 24.5 1 M 25.5 1 L 25.5 1 M 26.5 1 L 26.5 1 M 27.5 0.964844 L 27.5 1 M 28.5 0.765625 L 28.5 1 M 29.5 0.433594 L 29.5 1 M 30.5 0.265625 L 30.5 1 M 31.5 1 L 31.5 1 M 32.5 1 L 32.5 1 M 33.5 0.964844 L 33.5 1 M 34.5 0.898438 L 34.5 1 M 35.5 1 L 35.5 1 M 36.5 1 L 36.5 1 M 37.5 0.535156 L 37.5 1 M 38.5 0.433594 L 38.5 1 M 39.5 0.433594 L 39.5 1 M 40.5 0.0351562 L 40.5 1 M 41.5 0.367188 L 41.5 1 M 42.5 0.5 L 42.5 1 M 43.5 0.632812 L 43.5 1 M 44.5 0.867188 L 44.5 1 M 45.5 0.800781 L 45.5 1 M 46.5 0.832031 L 46.5 1 M 47.5 0.898438 L 47.5 1 M 48.5 0.832031 L 48.5 1 M 49.5 1 L 49.5 1 M 50.5 1 L 50.5 1 M 51.5 0.964844 L 51.5 1 M 52.5 0.765625 L 52.5 1 M 53.5 0.433594 L 53.5 1 M 54.5 0.265625 L 54.5 1 M 55.5 1 L 55.5 1 M 56.5 1 L 56.5 1 M 57.5 0.964844 L 57.5 1 M 58.5 0.898438 L 58.5 1 M 59.5 1 L 59.5 1 M 60.5 1 L 60.5 1 M 61.5 0.535156 L 61.5 1 M 62.5 0.433594 L 62.5 1 M 63.5 0.433594 L 63.5 1 M 64.5 0.0351562 L 64.5 1 M 65.5 0.367188 L 65.5 1 M 66.5 0.5 L 66.5 1 M 67.5 0.632812 L 67.5 1 M 68.5 0.867188 L 68.5 1 M 69.5 0.800781 L 69.5 1 M 70.5 0.832031 L 70.5 1 M 71.5 0.898438 L 71.5 1 M 72.5 0.832031 L 72.5 1 M 73.5 1 L 73.5 1 M 74.5 1 L 74.5 1 M 75.5 0.964844 L 75.5 1 M 76.5 0.765625 L 76.5 1 M 77.5 0.433594 L 77.5 1 M 78.5 0.265625 L 78.5 1 M 79.5 1 L 79.5 1 " transform="matrix(1,0,0,1,10,89)"/>
<path style="fill:none;stroke-width:10;stroke-linecap:butt;stroke-linejoin:miter;stroke:rgb(38.039216%,50.588235%,100%);stroke-opacity:1;stroke-miterlimit:10;" d="M 5 5 L 105 5 L 105 16 L 5 16 Z M 5 5 " transform="matrix(1,0,0,1,0,79)"/>
</g>
</svg>
