<?xml version="1.0" encoding="UTF-8"?>
<svg xmlns="http://www.w3.org/2000/svg" xmlns:xlink="http://www.w3.org/1999/xlink" width="320pt" height="240pt" viewBox="0 0 320 240" version="1.1">
<defs>
<clipPath id="clip1">
  <path d="M 0 0 L 71 0 L 71 71 L 0 71 Z M 0 0 "/>
</clipPath>
<clipPath id="clip2">
  <path d="M -29 -24 C -29 -26.761719 -26.761719 -29 -24 -29 L 66 -29 C 68.761719 -29 71 -26.761719 71 -24 L 71 66 C 71 68.761719 68.761719 71 66 71 L -24 71 C -26.761719 71 -29 68.761719 -29 66 Z M -29 -24 "/>
</clipPath>
<clipPath id="clip3">
  <path d="M 51 51 L 151 51 L 151 151 L 51 151 Z M 51 51 "/>
</clipPath>
<clipPath id="clip4">
  <path d="M 51 56 C 51 53.238281 53.238281 51 56 51 L 146 51 C 148.761719 51 151 53.238281 151 56 L 151 146 C 151 148.761719 148.761719 151 146 151 L 56 151 C 53.238281 151 51 148.761719 51 146 Z M 51 56 "/>
</clipPath>
</defs>
<g id="surface2">
<path style="fill:none;stroke-width:1.5;stroke-linecap:butt;stroke-linejoin:miter;stroke:rgb(0%,0%,0%);stroke-opacity:0.266667;stroke-dasharray:10,4;stroke-dashoffset:1;stroke-miterlimit:10;" d="M 0.75 0.75 L 319.25 0.75 L 319.25 239.25 L 0.75 239.25 Z M 0.75 0.75 "/>
<path style="fill:none;stroke-width:1.5;stroke-linecap:butt;stroke-linejoin:miter;stroke:rgb(0%,0%,0%);stroke-opacity:0.2;stroke-dasharray:10,4;stroke-dashoffset:1;stroke-miterlimit:10;" d="M 10 10 L 310 10 L 310 230 L 10 230 Z M 10 10 "/>
<path style="fill:none;stroke-width:1.5;stroke-linecap:butt;stroke-linejoin:miter;stroke:rgb(0%,0%,0%);stroke-opacity:0.1;stroke-miterlimit:10;" d="M -30 -30 L 50 50 "/>
<path style="fill:none;stroke-width:1.5;stroke-linecap:butt;stroke-linejoin:miter;stroke:rgb(0%,0%,0%);stroke-opacity:0.1;stroke-miterlimit:10;" d="M 70 -30 L 150 50 M -30 70 L 50 150 "/>
<path style="fill:none;stroke-width:1.5;stroke-linecap:butt;stroke-linejoin:miter;stroke:rgb(0%,0%,0%);stroke-opacity:0.1;stroke-miterlimit:10;" d="M 70 70 L 150 150 "/>
<g clip-path="url(#clip1)" clip-rule="nonzero">
<g clip-path="url(#clip2)" clip-rule="nonzero">
<rect x="0" y="0" width="320" height="240" style="fill:rgb(38.039216%,50.588235%,100%);fill-opacity:0.490196;stroke:none;"/>
<path style="fill:none;stroke-width:2;stroke-linecap:butt;stroke-linejoin:miter;stroke:rgb(38.039216%,50.588235%,100%);stroke-opacity:1;stroke-miterlimit:10;" d="M 1 6 C 1 3.238281 3.238281 1 6 1 L 96 1 C 98.761719 1 101 3.238281 101 6 L 101 96 C 101 98.761719 98.761719 101 96 101 L 6 101 C 3.238281 101 1 98.761719 1 96 Z M 1 6 " transform="matrix(1,0,0,1,-30,-30)"/>
</g>
</g>
<g clip-path="url(#clip3)" clip-rule="nonzero">
<g clip-path="url(#clip4)" clip-rule="nonzero">
<rect x="0" y="0" width="320" height="240" style="fill:rgb(38.039216%,50.588235%,100%);fill-opacity:0.490196;stroke:none;"/>
<path style="fill:none;stroke-width:2;stroke-linecap:butt;stroke-linejoin:miter;stroke:rgb(38.039216%,50.588235%,100%);stroke-opacity:1;stroke-miterlimit:10;" d="M 1 6 C 1 3.238281 3.238281 1 6 1 L 96 1 C 98.761719 1 101 3.238281 101 6 L 101 96 C 101 98.761719 98.761719 101 96 101 L 6 101 C 3.238281 101 1 98.761719 1 96 Z M 1 6 " transform="matrix(1,0,0,1,50,50)"/>
</g>
</g>
</g>
</svg>
