<?xml version="1.0" encoding="UTF-8"?>
<svg xmlns="http://www.w3.org/2000/svg" xmlns:xlink="http://www.w3.org/1999/xlink" width="320pt" height="240pt" viewBox="0 0 320 240" version="1.1">
<defs>
<clipPath id="clip1">
  <path d="M 1 1 L 319 1 L 319 239 L 1 239 Z M 1 1 "/>
</clipPath>
<clipPath id="clip2">
  <path d="M 1 6 C 1 3.238281 3.238281 1 6 1 L 314 1 C 316.761719 1 319 3.238281 319 6 L 319 234 C 319 236.761719 316.761719 239 314 239 L 6 239 C 3.238281 239 1 236.761719 1 234 Z M 1 6 "/>
</clipPath>
<clipPath id="clip3">
  <path d="M 10 10 L 320 10 L 320 240 L 10 240 Z M 10 10 "/>
</clipPath>
<clipPath id="clip4">
  <path d="M 11 11 L 320 11 L 320 240 L 11 240 Z M 11 11 "/>
</clipPath>
<clipPath id="clip5">
  <path d="M 11 16 C 11 13.238281 13.238281 11 16 11 L 324 11 C 326.761719 11 329 13.238281 329 16 L 329 244 C 329 246.761719 326.761719 249 324 249 L 16 249 C 13.238281 249 11 246.761719 11 244 Z M 11 16 "/>
</clipPath>
</defs>
<g id="surface2">
<path style="fill:none;stroke-width:1.5;stroke-linecap:butt;stroke-linejoin:miter;stroke:rgb(0%,0%,0%);stroke-opacity:0.266667;stroke-dasharray:10,4;stroke-dashoffset:1;stroke-miterlimit:10;" d="M 0.75 0.75 L 319.25 0.75 L 319.25 239.25 L 0.75 239.25 Z M 0.75 0.75 "/>
<path style="fill:none;stroke-width:1.5;stroke-linecap:butt;stroke-linejoin:miter;stroke:rgb(0%,0%,0%);stroke-opacity:0.2;stroke-dasharray:10,4;stroke-dashoffset:1;stroke-miterlimit:10;" d="M 10 10 L 310 10 L 310 230 L 10 230 Z M 10 10 "/>
<path style="fill:none;stroke-width:0.75;stroke-linecap:butt;stroke-linejoin:miter;stroke:rgb(0%,0%,0%);stroke-opacity:0.1;stroke-miterlimit:10;" d="M 0 0 L 10 10 "/>
<path style="fill:none;stroke-width:0.75;stroke-linecap:butt;stroke-linejoin:miter;stroke:rgb(0%,0%,0%);stroke-opacity:0.1;stroke-miterlimit:10;" d="M 320 0 L 330 10 M 0 240 L 10 250 "/>
<path style="fill:none;stroke-width:0.75;stroke-linecap:butt;stroke-linejoin:miter;stroke:rgb(0%,0%,0%);stroke-opacity:0.1;stroke-miterlimit:10;" d="M 320 240 L 330 250 "/>
<path style="fill:none;stroke-width:1;stroke-linecap:butt;stroke-linejoin:miter;stroke:rgb(38.039216%,50.588235%,100%);stroke-opacity:1;stroke-miterlimit:10;" d="M 0 5 C 0 2.238281 2.238281 0 5 0 L 313 0 C 315.761719 0 318 2.238281 318 5 L 318 233 C 318 235.761719 315.761719 238 313 238 L 5 238 C 2.238281 238 0 235.761719 0 233 Z M 0 5 " transform="matrix(1,0,0,1,1,1)"/>
<path style=" stroke:none;fill-rule:nonzero;fill:rgb(38.039216%,50.588235%,100%);fill-opacity:0.490196;" d="M 1 6 C 1 3.238281 3.238281 1 6 1 L 314 1 C 316.761719 1 319 3.238281 319 6 L 319 234 C 319 236.761719 316.761719 239 314 239 L 6 239 C 3.238281 239 1 236.761719 1 234 Z M 1 6 "/>
<g clip-path="url(#clip1)" clip-rule="nonzero">
<g clip-path="url(#clip2)" clip-rule="nonzero">
<path style="fill:none;stroke-width:1;stroke-linecap:butt;stroke-linejoin:miter;stroke:rgb(38.039216%,50.588235%,100%);stroke-opacity:1;stroke-miterlimit:10;" d="M 0 5 C 0 2.238281 2.238281 0 5 0 L 313 0 C 315.761719 0 318 2.238281 318 5 L 318 233 C 318 235.761719 315.761719 238 313 238 L 5 238 C 2.238281 238 0 235.761719 0 233 Z M 0 5 " transform="matrix(1,0,0,1,1,1)"/>
</g>
</g>
<g clip-path="url(#clip3)" clip-rule="nonzero">
<path style="fill:none;stroke-width:1;stroke-linecap:butt;stroke-linejoin:miter;stroke:rgb(38.039216%,50.588235%,100%);stroke-opacity:1;stroke-miterlimit:10;" d="M 0 5 C 0 2.238281 2.238281 0 5 0 L 313 0 C 315.761719 0 318 2.238281 318 5 L 318 233 C 318 235.761719 315.761719 238 313 238 L 5 238 C 2.238281 238 0 235.761719 0 233 Z M 0 5 " transform="matrix(1,0,0,1,11,11)"/>
</g>
<path style=" stroke:none;fill-rule:nonzero;fill:rgb(38.039216%,50.588235%,100%);fill-opacity:0.490196;" d="M 11 16 C 11 13.238281 13.238281 11 16 11 L 324 11 C 326.761719 11 329 13.238281 329 16 L 329 244 C 329 246.761719 326.761719 249 324 249 L 16 249 C 13.238281 249 11 246.761719 11 244 Z M 11 16 "/>
<g clip-path="url(#clip4)" clip-rule="nonzero">
<g clip-path="url(#clip5)" clip-rule="nonzero">
<path style="fill:none;stroke-width:1;stroke-linecap:butt;stroke-linejoin:miter;stroke:rgb(38.039216%,50.588235%,100%);stroke-opacity:1;stroke-miterlimit:10;" d="M 0 5 C 0 2.238281 2.238281 0 5 0 L 313 0 C 315.761719 0 318 2.238281 318 5 L 318 233 C 318 235.761719 315.761719 238 313 238 L 5 238 C 2.238281 238 0 235.761719 0 233 Z M 0 5 " transform="matrix(1,0,0,1,11,11)"/>
</g>
</g>
</g>
</svg>
