<?xml version="1.0" encoding="UTF-8"?>
<svg xmlns="http://www.w3.org/2000/svg" xmlns:xlink="http://www.w3.org/1999/xlink" width="128pt" height="96pt" viewBox="0 0 128 96" version="1.1">
<defs>
<clipPath id="clip1">
  <path d="M 45 35 L 87 35 L 87 96 L 45 96 Z M 45 35 "/>
</clipPath>
<clipPath id="clip2">
  <path d="M 46 36 L 86 36 L 86 96 L 46 96 Z M 46 36 "/>
</clipPath>
<clipPath id="clip3">
  <path d="M 46 41 C 46 38.238281 48.238281 36 51 36 L 81 36 C 83.761719 36 86 38.238281 86 41 L 86 125 C 86 127.761719 83.761719 130 81 130 L 51 130 C 48.238281 130 46 127.761719 46 125 Z M 46 41 "/>
</clipPath>
<clipPath id="clip4">
  <path d="M 45 0 L 87 0 L 87 96 L 45 96 Z M 45 0 "/>
</clipPath>
<clipPath id="clip5">
  <path d="M 46 1 L 86 1 L 86 95 L 46 95 Z M 46 1 "/>
</clipPath>
<clipPath id="clip6">
  <path d="M 46 6 C 46 3.238281 48.238281 1 51 1 L 81 1 C 83.761719 1 86 3.238281 86 6 L 86 90 C 86 92.761719 83.761719 95 81 95 L 51 95 C 48.238281 95 46 92.761719 46 90 Z M 46 6 "/>
</clipPath>
</defs>
<g id="surface2">
<path style="fill:none;stroke-width:1.5;stroke-linecap:butt;stroke-linejoin:miter;stroke:rgb(0%,0%,0%);stroke-opacity:0.266667;stroke-dasharray:10,4;stroke-dashoffset:1;stroke-miterlimit:10;" d="M 0.75 0.75 L 127.25 0.75 L 127.25 95.25 L 0.75 95.25 Z M 0.75 0.75 "/>
<path style="fill:none;stroke-width:1.5;stroke-linecap:butt;stroke-linejoin:miter;stroke:rgb(0%,0%,0%);stroke-opacity:0.2;stroke-dasharray:10,4;stroke-dashoffset:1;stroke-miterlimit:10;" d="M 10 10 L 118 10 L 118 86 L 10 86 Z M 10 10 "/>
<path style="fill:none;stroke-width:0.75;stroke-linecap:butt;stroke-linejoin:miter;stroke:rgb(0%,0%,0%);stroke-opacity:0.1;stroke-miterlimit:10;" d="M 45 35 L 45 0 "/>
<path style="fill:none;stroke-width:0.75;stroke-linecap:butt;stroke-linejoin:miter;stroke:rgb(0%,0%,0%);stroke-opacity:0.1;stroke-miterlimit:10;" d="M 85 35 L 85 0 M 45 65 L 45 94 "/>
<path style="fill:none;stroke-width:0.75;stroke-linecap:butt;stroke-linejoin:miter;stroke:rgb(0%,0%,0%);stroke-opacity:0.1;stroke-miterlimit:10;" d="M 85 65 L 85 94 "/>
<g clip-path="url(#clip1)" clip-rule="nonzero">
<path style="fill:none;stroke-width:1;stroke-linecap:butt;stroke-linejoin:miter;stroke:rgb(38.039216%,50.588235%,100%);stroke-opacity:1;stroke-miterlimit:10;" d="M 0 5 C 0 2.238281 2.238281 0 5 0 L 35 0 C 37.761719 0 40 2.238281 40 5 L 40 89 C 40 91.761719 37.761719 94 35 94 L 5 94 C 2.238281 94 0 91.761719 0 89 Z M 0 5 " transform="matrix(1,0,0,1,46,36)"/>
</g>
<path style=" stroke:none;fill-rule:nonzero;fill:rgb(38.039216%,50.588235%,100%);fill-opacity:0.490196;" d="M 46 41 C 46 38.238281 48.238281 36 51 36 L 81 36 C 83.761719 36 86 38.238281 86 41 L 86 125 C 86 127.761719 83.761719 130 81 130 L 51 130 C 48.238281 130 46 127.761719 46 125 Z M 46 41 "/>
<g clip-path="url(#clip2)" clip-rule="nonzero">
<g clip-path="url(#clip3)" clip-rule="nonzero">
<path style="fill:none;stroke-width:1;stroke-linecap:butt;stroke-linejoin:miter;stroke:rgb(38.039216%,50.588235%,100%);stroke-opacity:1;stroke-miterlimit:10;" d="M 0 5 C 0 2.238281 2.238281 0 5 0 L 35 0 C 37.761719 0 40 2.238281 40 5 L 40 89 C 40 91.761719 37.761719 94 35 94 L 5 94 C 2.238281 94 0 91.761719 0 89 Z M 0 5 " transform="matrix(1,0,0,1,46,36)"/>
</g>
</g>
<g clip-path="url(#clip4)" clip-rule="nonzero">
<path style="fill:none;stroke-width:1;stroke-linecap:butt;stroke-linejoin:miter;stroke:rgb(38.039216%,50.588235%,100%);stroke-opacity:1;stroke-miterlimit:10;" d="M 0 5 C 0 2.238281 2.238281 0 5 0 L 35 0 C 37.761719 0 40 2.238281 40 5 L 40 89 C 40 91.761719 37.761719 94 35 94 L 5 94 C 2.238281 94 0 91.761719 0 89 Z M 0 5 " transform="matrix(1,0,0,1,46,1)"/>
</g>
<path style=" stroke:none;fill-rule:nonzero;fill:rgb(38.039216%,50.588235%,100%);fill-opacity:0.490196;" d="M 46 6 C 46 3.238281 48.238281 1 51 1 L 81 1 C 83.761719 1 86 3.238281 86 6 L 86 90 C 86 92.761719 83.761719 95 81 95 L 51 95 C 48.238281 95 46 92.761719 46 90 Z M 46 6 "/>
<g clip-path="url(#clip5)" clip-rule="nonzero">
<g clip-path="url(#clip6)" clip-rule="nonzero">
<path style="fill:none;stroke-width:1;stroke-linecap:butt;stroke-linejoin:miter;stroke:rgb(38.039216%,50.588235%,100%);stroke-opacity:1;stroke-miterlimit:10;" d="M 0 5 C 0 2.238281 2.238281 0 5 0 L 35 0 C 37.761719 0 40 2.238281 40 5 L 40 89 C 40 91.761719 37.761719 94 35 94 L 5 94 C 2.238281 94 0 91.761719 0 89 Z M 0 5 " transform="matrix(1,0,0,1,46,1)"/>
</g>
</g>
</g>
</svg>
