<?xml version="1.0" encoding="UTF-8"?>
<svg xmlns="http://www.w3.org/2000/svg" xmlns:xlink="http://www.w3.org/1999/xlink" width="128pt" height="96pt" viewBox="0 0 128 96" version="1.1">
<defs>
<clipPath id="clip1">
  <path d="M 46 36 L 128 36 L 128 66 L 46 66 Z M 46 36 "/>
</clipPath>
<clipPath id="clip2">
  <path d="M 46 41 C 46 38.238281 48.238281 36 51 36 L 128 36 C 130.761719 36 133 38.238281 133 41 L 133 61 C 133 63.761719 130.761719 66 128 66 L 51 66 C 48.238281 66 46 63.761719 46 61 Z M 46 41 "/>
</clipPath>
<clipPath id="clip3">
  <path d="M 1 36 L 88 36 L 88 66 L 1 66 Z M 1 36 "/>
</clipPath>
<clipPath id="clip4">
  <path d="M 1 41 C 1 38.238281 3.238281 36 6 36 L 83 36 C 85.761719 36 88 38.238281 88 41 L 88 61 C 88 63.761719 85.761719 66 83 66 L 6 66 C 3.238281 66 1 63.761719 1 61 Z M 1 41 "/>
</clipPath>
</defs>
<g id="surface2">
<path style="fill:none;stroke-width:1.5;stroke-linecap:butt;stroke-linejoin:miter;stroke:rgb(0%,0%,0%);stroke-opacity:0.266667;stroke-dasharray:10,4;stroke-dashoffset:1;stroke-miterlimit:10;" d="M 0.75 0.75 L 127.25 0.75 L 127.25 95.25 L 0.75 95.25 Z M 0.75 0.75 "/>
<path style="fill:none;stroke-width:1.5;stroke-linecap:butt;stroke-linejoin:miter;stroke:rgb(0%,0%,0%);stroke-opacity:0.2;stroke-dasharray:10,4;stroke-dashoffset:1;stroke-miterlimit:10;" d="M 10 10 L 118 10 L 118 86 L 10 86 Z M 10 10 "/>
<path style="fill:none;stroke-width:1.5;stroke-linecap:butt;stroke-linejoin:miter;stroke:rgb(0%,0%,0%);stroke-opacity:0.1;stroke-miterlimit:10;" d="M 45 35 L 0 35 "/>
<path style="fill:none;stroke-width:1.5;stroke-linecap:butt;stroke-linejoin:miter;stroke:rgb(0%,0%,0%);stroke-opacity:0.1;stroke-miterlimit:10;" d="M 85 35 L 40 35 M 45 65 L 0 65 "/>
<path style="fill:none;stroke-width:1.5;stroke-linecap:butt;stroke-linejoin:miter;stroke:rgb(0%,0%,0%);stroke-opacity:0.1;stroke-miterlimit:10;" d="M 85 65 L 40 65 "/>
<g clip-path="url(#clip1)" clip-rule="nonzero">
<g clip-path="url(#clip2)" clip-rule="nonzero">
<rect x="0" y="0" width="128" height="96" style="fill:rgb(38.039216%,50.588235%,100%);fill-opacity:0.490196;stroke:none;"/>
<path style="fill:none;stroke-width:2;stroke-linecap:butt;stroke-linejoin:miter;stroke:rgb(38.039216%,50.588235%,100%);stroke-opacity:1;stroke-miterlimit:10;" d="M 1 6 C 1 3.238281 3.238281 1 6 1 L 83 1 C 85.761719 1 88 3.238281 88 6 L 88 26 C 88 28.761719 85.761719 31 83 31 L 6 31 C 3.238281 31 1 28.761719 1 26 Z M 1 6 " transform="matrix(1,0,0,1,45,35)"/>
</g>
</g>
<g clip-path="url(#clip3)" clip-rule="nonzero">
<g clip-path="url(#clip4)" clip-rule="nonzero">
<rect x="0" y="0" width="128" height="96" style="fill:rgb(38.039216%,50.588235%,100%);fill-opacity:0.490196;stroke:none;"/>
<path style="fill:none;stroke-width:2;stroke-linecap:butt;stroke-linejoin:miter;stroke:rgb(38.039216%,50.588235%,100%);stroke-opacity:1;stroke-miterlimit:10;" d="M 1 6 C 1 3.238281 3.238281 1 6 1 L 83 1 C 85.761719 1 88 3.238281 88 6 L 88 26 C 88 28.761719 85.761719 31 83 31 L 6 31 C 3.238281 31 1 28.761719 1 26 Z M 1 6 " transform="matrix(1,0,0,1,0,35)"/>
</g>
</g>
</g>
</svg>
