<?xml version="1.0" encoding="UTF-8"?>
<svg xmlns="http://www.w3.org/2000/svg" xmlns:xlink="http://www.w3.org/1999/xlink" width="128pt" height="96pt" viewBox="0 0 128 96" version="1.1">
<g id="surface2">
<path style="fill:none;stroke-width:1.5;stroke-linecap:butt;stroke-linejoin:miter;stroke:rgb(0%,0%,0%);stroke-opacity:0.266667;stroke-dasharray:10,4;stroke-dashoffset:1;stroke-miterlimit:10;" d="M 0.75 0.75 L 127.25 0.75 L 127.25 95.25 L 0.75 95.25 Z M 0.75 0.75 "/>
<path style="fill:none;stroke-width:1.5;stroke-linecap:butt;stroke-linejoin:miter;stroke:rgb(0%,0%,0%);stroke-opacity:0.2;stroke-dasharray:10,4;stroke-dashoffset:1;stroke-miterlimit:10;" d="M 10 10 L 118 10 L 118 86 L 10 86 Z M 10 10 "/>
<path style="fill:none;stroke-width:1.5;stroke-linecap:butt;stroke-linejoin:miter;stroke:rgb(38.039216%,50.588235%,100%);stroke-opacity:1;stroke-miterlimit:10;" d="M 0 5 C 0 2.238281 2.238281 0 5 0 L 35 0 C 37.761719 0 40 2.238281 40 5 L 40 25 C 40 27.761719 37.761719 30 35 30 L 5 30 C 2.238281 30 0 27.761719 0 25 Z M 0 5 " transform="matrix(1,0,0,1,10,10)"/>
<path style=" stroke:none;fill-rule:nonzero;fill:rgb(38.039216%,50.588235%,100%);fill-opacity:0.490196;" d="M 10 15 C 10 12.238281 12.238281 10 15 10 L 45 10 C 47.761719 10 50 12.238281 50 15 L 50 35 C 50 37.761719 47.761719 40 45 40 L 15 40 C 12.238281 40 10 37.761719 10 35 Z M 10 15 "/>
<path style="fill:none;stroke-width:1.5;stroke-linecap:butt;stroke-linejoin:miter;stroke:rgb(38.039216%,50.588235%,100%);stroke-opacity:1;stroke-miterlimit:10;" d="M 0 5 C 0 2.238281 2.238281 0 5 0 L 35 0 C 37.761719 0 40 2.238281 40 5 L 40 25 C 40 27.761719 37.761719 30 35 30 L 5 30 C 2.238281 30 0 27.761719 0 25 Z M 0 5 " transform="matrix(1,0,0,1,29,34)"/>
<path style=" stroke:none;fill-rule:nonzero;fill:rgb(38.039216%,50.588235%,100%);fill-opacity:0.490196;" d="M 29 39 C 29 36.238281 31.238281 34 34 34 L 64 34 C 66.761719 34 69 36.238281 69 39 L 69 59 C 69 61.761719 66.761719 64 64 64 L 34 64 C 31.238281 64 29 61.761719 29 59 Z M 29 39 "/>
<path style="fill:none;stroke-width:1.5;stroke-linecap:butt;stroke-linejoin:miter;stroke:rgb(0%,0%,0%);stroke-opacity:0.1;stroke-miterlimit:10;" d="M 10 10 L 29 34 "/>
<path style="fill:none;stroke-width:1.5;stroke-linecap:butt;stroke-linejoin:miter;stroke:rgb(0%,0%,0%);stroke-opacity:0.1;stroke-miterlimit:10;" d="M 50 10 L 69 34 M 10 40 L 29 64 "/>
<path style="fill:none;stroke-width:1.5;stroke-linecap:butt;stroke-linejoin:miter;stroke:rgb(0%,0%,0%);stroke-opacity:0.1;stroke-miterlimit:10;" d="M 50 40 L 69 64 "/>
<path style=" stroke:none;fill-rule:nonzero;fill:rgb(100%,0%,0%);fill-opacity:1;" d="M 50 50 L 50 60 L 53 58 L 56 62 L 58 62 L 55 58 L 59 58 Z M 50 50 "/>
</g>
</svg>
