<?xml version="1.0" encoding="UTF-8"?>
<svg xmlns="http://www.w3.org/2000/svg" xmlns:xlink="http://www.w3.org/1999/xlink" width="10009pt" height="60pt" viewBox="0 0 10009 60" version="1.1">
<defs>
<clipPath id="clip1">
  <path d="M 0 0 L 60 0 L 60 60 L 0 60 Z M 0 0 "/>
</clipPath>
<clipPath id="clip2">
  <path d="M 70 0 L 130 0 L 130 60 L 70 60 Z M 70 0 "/>
</clipPath>
<clipPath id="clip3">
  <path d="M 112 5 L 130 5 L 130 38 L 112 38 Z M 112 5 "/>
</clipPath>
<clipPath id="clip4">
  <path d="M 140 0 L 200 0 L 200 60 L 140 60 Z M 140 0 "/>
</clipPath>
<clipPath id="clip5">
  <path d="M 140 0 L 200 0 L 200 60 L 140 60 Z M 140 0 "/>
</clipPath>
<clipPath id="clip6">
  <path d="M 210 0 L 270 0 L 270 60 L 210 60 Z M 210 0 "/>
</clipPath>
<clipPath id="clip7">
  <path d="M 210 0 L 270 0 L 270 60 L 210 60 Z M 210 0 "/>
</clipPath>
</defs>
<g id="surface2">
<g clip-path="url(#clip1)" clip-rule="nonzero">
<path style="fill:none;stroke-width:6;stroke-linecap:butt;stroke-linejoin:miter;stroke:rgb(100%,0%,0%);stroke-opacity:0.2;stroke-miterlimit:10;" d="M 54 27 C 54 41.910156 41.910156 54 27 54 C 12.089844 54 0 41.910156 0 27 C 0 12.089844 12.089844 0 27 0 C 41.910156 0 54 12.089844 54 27 Z M 54 27 " transform="matrix(1,0,0,1,3,3)"/>
</g>
<path style="fill:none;stroke-width:0.5;stroke-linecap:butt;stroke-linejoin:miter;stroke:rgb(0%,0%,0%);stroke-opacity:1;stroke-miterlimit:10;" d="M 59.5 29.75 L 54 29.75 Z M 59.5 29.75 " transform="matrix(1,0,0,1,0.25,0.25)"/>
<g clip-path="url(#clip2)" clip-rule="nonzero">
<path style="fill:none;stroke-width:6;stroke-linecap:butt;stroke-linejoin:miter;stroke:rgb(100%,0%,0%);stroke-opacity:0.2;stroke-miterlimit:10;" d="M 54 27 C 54 41.910156 41.910156 54 27 54 C 12.089844 54 0 41.910156 0 27 C 0 12.089844 12.089844 0 27 0 C 41.910156 0 54 12.089844 54 27 Z M 54 27 " transform="matrix(1,0,0,1,73,3)"/>
</g>
<path style=" stroke:none;fill-rule:nonzero;fill:rgb(38.039216%,50.588235%,100%);fill-opacity:0.490196;" d="M 124.066406 12.511719 C 127.761719 17.597656 129.75 23.71875 129.75 30 L 124.25 30 C 124.25 24.878906 122.628906 19.890625 119.617188 15.746094 Z M 124.066406 12.511719 "/>
<g clip-path="url(#clip3)" clip-rule="nonzero">
<path style="fill:none;stroke-width:0.5;stroke-linecap:butt;stroke-linejoin:miter;stroke:rgb(0%,0%,0%);stroke-opacity:1;stroke-miterlimit:10;" d="M 53.816406 12.261719 C 57.511719 17.347656 59.5 23.46875 59.5 29.75 L 54 29.75 C 54 24.628906 52.378906 19.640625 49.367188 15.496094 Z M 53.816406 12.261719 " transform="matrix(1,0,0,1,70.25,0.25)"/>
</g>
<g clip-path="url(#clip4)" clip-rule="nonzero">
<path style="fill:none;stroke-width:6;stroke-linecap:butt;stroke-linejoin:miter;stroke:rgb(100%,0%,0%);stroke-opacity:0.2;stroke-miterlimit:10;" d="M 54 27 C 54 41.910156 41.910156 54 27 54 C 12.089844 54 0 41.910156 0 27 C 0 12.089844 12.089844 0 27 0 C 41.910156 0 54 12.089844 54 27 Z M 54 27 " transform="matrix(1,0,0,1,143,3)"/>
</g>
<path style=" stroke:none;fill-rule:nonzero;fill:rgb(38.039216%,50.588235%,100%);fill-opacity:0.490196;" d="M 160.808594 58.292969 C 150.167969 54.835938 142.367188 45.703125 140.617188 34.652344 C 138.867188 23.605469 143.460938 12.507812 152.511719 5.933594 C 161.5625 -0.644531 173.539062 -1.585938 183.507812 3.492188 C 193.472656 8.570312 199.75 18.8125 199.75 30 L 194.25 30 C 194.25 20.882812 189.132812 12.53125 181.007812 8.394531 C 172.882812 4.253906 163.125 5.019531 155.746094 10.382812 C 148.367188 15.742188 144.621094 24.785156 146.046875 33.792969 C 147.476562 42.800781 153.832031 50.246094 162.507812 53.0625 Z M 160.808594 58.292969 "/>
<g clip-path="url(#clip5)" clip-rule="nonzero">
<path style="fill:none;stroke-width:0.5;stroke-linecap:butt;stroke-linejoin:miter;stroke:rgb(0%,0%,0%);stroke-opacity:1;stroke-miterlimit:10;" d="M 20.558594 58.042969 C 9.917969 54.585938 2.117188 45.453125 0.367188 34.402344 C -1.382812 23.355469 3.210938 12.257812 12.261719 5.683594 C 21.3125 -0.894531 33.289062 -1.835938 43.257812 3.242188 C 53.222656 8.320312 59.5 18.5625 59.5 29.75 L 54 29.75 C 54 20.632812 48.882812 12.28125 40.757812 8.144531 C 32.632812 4.003906 22.875 4.769531 15.496094 10.132812 C 8.117188 15.492188 4.371094 24.535156 5.796875 33.542969 C 7.226562 42.550781 13.582031 49.996094 22.257812 52.8125 Z M 20.558594 58.042969 " transform="matrix(1,0,0,1,140.25,0.25)"/>
</g>
<g clip-path="url(#clip6)" clip-rule="nonzero">
<path style="fill:none;stroke-width:6;stroke-linecap:butt;stroke-linejoin:miter;stroke:rgb(100%,0%,0%);stroke-opacity:0.2;stroke-miterlimit:10;" d="M 54 27 C 54 41.910156 41.910156 54 27 54 C 12.089844 54 0 41.910156 0 27 C 0 12.089844 12.089844 0 27 0 C 41.910156 0 54 12.089844 54 27 Z M 54 27 " transform="matrix(1,0,0,1,213,3)"/>
</g>
<path style=" stroke:none;fill-rule:nonzero;fill:rgb(38.039216%,50.588235%,100%);fill-opacity:0.490196;" d="M 264.066406 47.488281 C 258.289062 55.441406 248.953125 60.027344 239.125 59.738281 C 229.296875 59.449219 220.246094 54.320312 214.945312 46.039062 C 209.644531 37.757812 208.777344 27.394531 212.628906 18.347656 C 216.480469 9.300781 224.550781 2.738281 234.195312 0.820312 C 243.839844 -1.097656 253.808594 1.875 260.828125 8.757812 C 267.847656 15.640625 271.015625 25.550781 269.285156 35.230469 C 267.558594 44.910156 261.160156 53.109375 252.1875 57.136719 C 243.21875 61.167969 232.839844 60.503906 224.457031 55.367188 C 216.070312 50.230469 210.769531 41.28125 210.285156 31.460938 C 209.804688 21.640625 214.203125 12.214844 222.042969 6.28125 C 229.882812 0.34375 240.148438 -1.332031 249.46875 1.796875 C 258.792969 4.929688 265.964844 12.460938 268.632812 21.925781 C 271.300781 31.386719 269.121094 41.558594 262.8125 49.097656 C 256.5 56.636719 246.871094 60.570312 237.085938 59.605469 C 227.296875 58.644531 218.621094 52.90625 213.902344 44.28125 C 209.183594 35.65625 209.027344 25.253906 213.492188 16.492188 C 217.957031 7.734375 226.460938 1.742188 236.214844 0.492188 C 245.964844 -0.757812 255.707031 2.886719 262.238281 10.238281 C 268.769531 17.589844 271.246094 27.691406 268.859375 37.230469 C 266.46875 46.765625 259.523438 54.507812 250.296875 57.910156 C 241.070312 61.3125 230.761719 59.941406 222.75 54.238281 C 214.738281 48.539062 210.0625 39.246094 210.253906 29.414062 C 210.449219 19.585938 215.488281 10.484375 223.714844 5.101562 C 231.945312 -0.28125 242.300781 -1.25 251.386719 2.515625 C 260.46875 6.277344 267.105469 14.285156 269.121094 23.910156 C 271.132812 33.535156 268.261719 43.53125 261.445312 50.621094 C 254.628906 57.707031 244.753906 60.96875 235.058594 59.335938 C 225.363281 57.703125 217.097656 51.382812 212.984375 42.457031 C 208.867188 33.527344 209.425781 23.140625 214.484375 14.707031 C 219.539062 6.273438 228.433594 0.878906 238.25 0.300781 C 248.0625 -0.277344 257.53125 4.03125 263.542969 11.8125 C 269.554688 19.59375 271.332031 29.84375 268.292969 39.191406 C 265.253906 48.542969 257.792969 55.789062 248.355469 58.550781 C 238.917969 61.3125 228.726562 59.234375 221.125 52.996094 C 213.527344 46.757812 209.5 37.167969 210.367188 27.375 C 211.234375 17.582031 216.882812 8.847656 225.464844 4.042969 C 234.042969 -0.761719 244.441406 -1.015625 253.246094 3.359375 C 262.050781 7.738281 268.121094 16.183594 269.46875 25.925781 C 270.816406 35.664062 267.265625 45.441406 259.980469 52.042969 C 252.695312 58.644531 242.617188 61.222656 233.054688 58.929688 C 223.492188 56.632812 215.683594 49.761719 212.191406 40.570312 C 208.699219 31.378906 209.972656 21.054688 215.59375 12.988281 C 221.214844 4.921875 230.460938 0.15625 240.292969 0.25 C 250.125 0.347656 259.273438 5.296875 264.734375 13.472656 C 270.199219 21.648438 271.269531 31.992188 267.597656 41.113281 C 263.921875 50.234375 255.980469 56.953125 246.375 59.058594 C 236.773438 61.164062 226.746094 58.390625 219.59375 51.648438 C 212.4375 44.902344 209.078125 35.058594 210.617188 25.347656 C 212.15625 15.632812 218.390625 7.308594 227.28125 3.105469 C 236.167969 -1.097656 246.558594 -0.636719 255.042969 4.332031 C 263.527344 9.304688 269.003906 18.148438 269.679688 27.957031 C 270.355469 37.765625 266.140625 47.277344 258.417969 53.363281 C 250.695312 59.449219 240.464844 61.328125 231.085938 58.382812 C 221.703125 55.4375 214.386719 48.046875 211.53125 38.636719 C 208.675781 29.226562 210.65625 19.015625 216.820312 11.351562 C 222.980469 3.691406 232.53125 -0.429688 242.335938 0.339844 C 252.136719 1.113281 260.925781 6.679688 265.8125 15.210938 C 270.703125 23.742188 271.058594 34.136719 266.765625 42.984375 C 262.476562 51.828125 254.089844 57.984375 244.363281 59.429688 C 234.640625 60.871094 224.828125 57.414062 218.152344 50.195312 C 211.480469 42.972656 208.804688 32.921875 211.003906 23.339844 C 213.207031 13.757812 220 5.878906 229.15625 2.296875 C 238.3125 -1.289062 248.648438 -0.117188 256.769531 5.425781 C 264.890625 10.96875 269.75 20.167969 269.75 30 L 264.25 30 C 264.25 21.984375 260.289062 14.488281 253.667969 9.96875 C 247.050781 5.453125 238.625 4.496094 231.160156 7.417969 C 223.699219 10.339844 218.160156 16.757812 216.367188 24.570312 C 214.570312 32.382812 216.753906 40.574219 222.191406 46.460938 C 227.632812 52.347656 235.628906 55.164062 243.558594 53.988281 C 251.484375 52.8125 258.320312 47.792969 261.820312 40.582031 C 265.316406 33.371094 265.023438 24.898438 261.039062 17.945312 C 257.054688 10.988281 249.894531 6.453125 241.902344 5.824219 C 233.914062 5.195312 226.128906 8.554688 221.105469 14.800781 C 216.082031 21.046875 214.46875 29.371094 216.792969 37.039062 C 219.121094 44.710938 225.085938 50.734375 232.734375 53.136719 C 240.378906 55.539062 248.71875 54.003906 255.011719 49.042969 C 261.308594 44.082031 264.742188 36.332031 264.191406 28.335938 C 263.640625 20.339844 259.175781 13.132812 252.261719 9.078125 C 245.347656 5.027344 236.878906 4.652344 229.632812 8.078125 C 222.386719 11.503906 217.300781 18.289062 216.046875 26.207031 C 214.792969 34.121094 217.535156 42.148438 223.363281 47.644531 C 229.195312 53.144531 237.367188 55.402344 245.195312 53.6875 C 253.027344 51.96875 259.5 46.492188 262.492188 39.058594 C 265.488281 31.625 264.617188 23.191406 260.164062 16.527344 C 255.710938 9.863281 248.253906 5.828125 240.238281 5.75 C 232.222656 5.671875 224.6875 9.558594 220.105469 16.132812 C 215.523438 22.710938 214.484375 31.125 217.332031 38.617188 C 220.179688 46.109375 226.546875 51.707031 234.339844 53.578125 C 242.132812 55.449219 250.347656 53.351562 256.285156 47.96875 C 262.222656 42.585938 265.121094 34.617188 264.019531 26.675781 C 262.921875 18.738281 257.972656 11.855469 250.796875 8.285156 C 243.621094 4.71875 235.144531 4.925781 228.152344 8.84375 C 221.15625 12.757812 216.550781 19.875 215.84375 27.859375 C 215.136719 35.84375 218.421875 43.660156 224.617188 48.746094 C 230.8125 53.828125 239.117188 55.523438 246.8125 53.273438 C 254.503906 51.023438 260.585938 45.117188 263.0625 37.492188 C 265.539062 29.871094 264.089844 21.515625 259.191406 15.175781 C 254.289062 8.832031 246.574219 5.320312 238.574219 5.792969 C 230.570312 6.265625 223.320312 10.660156 219.199219 17.53125 C 215.078125 24.40625 214.621094 32.875 217.976562 40.152344 C 221.332031 47.429688 228.066406 52.582031 235.972656 53.914062 C 243.875 55.246094 251.925781 52.585938 257.480469 46.808594 C 263.035156 41.03125 265.378906 32.878906 263.738281 25.035156 C 262.097656 17.191406 256.683594 10.664062 249.28125 7.597656 C 241.875 4.527344 233.433594 5.320312 226.726562 9.707031 C 220.019531 14.09375 215.910156 21.511719 215.753906 29.523438 C 215.597656 37.539062 219.410156 45.109375 225.941406 49.757812 C 232.46875 54.40625 240.875 55.523438 248.394531 52.75 C 255.914062 49.976562 261.574219 43.667969 263.523438 35.890625 C 265.46875 28.117188 263.449219 19.882812 258.128906 13.890625 C 252.804688 7.902344 244.863281 4.925781 236.914062 5.945312 C 228.964844 6.96875 222.03125 11.847656 218.394531 18.992188 C 214.753906 26.132812 214.878906 34.609375 218.726562 41.640625 C 222.574219 48.671875 229.648438 53.347656 237.625 54.132812 C 245.597656 54.917969 253.449219 51.710938 258.59375 45.566406 C 263.738281 39.421875 265.515625 31.132812 263.339844 23.417969 C 261.164062 15.703125 255.316406 9.5625 247.71875 7.011719 C 240.121094 4.460938 231.753906 5.828125 225.363281 10.664062 C 218.972656 15.503906 215.386719 23.183594 215.777344 31.191406 C 216.171875 39.195312 220.496094 46.488281 227.328125 50.675781 C 234.164062 54.863281 242.625 55.40625 249.9375 52.121094 C 257.246094 48.835938 262.464844 42.152344 263.871094 34.261719 C 265.28125 26.375 262.699219 18.296875 256.976562 12.683594 C 251.253906 7.074219 243.128906 4.652344 235.269531 6.214844 C 227.410156 7.78125 220.828125 13.125 217.6875 20.5 C 214.546875 27.875 215.253906 36.324219 219.578125 43.074219 C 223.898438 49.824219 231.273438 54.003906 239.285156 54.238281 C 247.296875 54.476562 254.90625 50.738281 259.617188 44.253906 Z M 264.066406 47.488281 "/>
<g clip-path="url(#clip7)" clip-rule="nonzero">
<path style="fill:none;stroke-width:0.5;stroke-linecap:butt;stroke-linejoin:miter;stroke:rgb(0%,0%,0%);stroke-opacity:1;stroke-miterlimit:10;" d="M 53.816406 47.238281 C 48.039062 55.191406 38.703125 59.777344 28.875 59.488281 C 19.046875 59.199219 9.996094 54.070312 4.695312 45.789062 C -0.605469 37.507812 -1.472656 27.144531 2.378906 18.097656 C 6.230469 9.050781 14.300781 2.488281 23.945312 0.570312 C 33.589844 -1.347656 43.558594 1.625 50.578125 8.507812 C 57.597656 15.390625 60.765625 25.300781 59.035156 34.980469 C 57.308594 44.660156 50.910156 52.859375 41.9375 56.886719 C 32.96875 60.917969 22.589844 60.253906 14.207031 55.117188 C 5.820312 49.980469 0.519531 41.03125 0.0351562 31.210938 C -0.445312 21.390625 3.953125 11.964844 11.792969 6.03125 C 19.632812 0.09375 29.898438 -1.582031 39.21875 1.546875 C 48.542969 4.679688 55.714844 12.210938 58.382812 21.675781 C 61.050781 31.136719 58.871094 41.308594 52.5625 48.847656 C 46.25 56.386719 36.621094 60.320312 26.835938 59.355469 C 17.046875 58.394531 8.371094 52.65625 3.652344 44.03125 C -1.066406 35.40625 -1.222656 25.003906 3.242188 16.242188 C 7.707031 7.484375 16.210938 1.492188 25.964844 0.242188 C 35.714844 -1.007812 45.457031 2.636719 51.988281 9.988281 C 58.519531 17.339844 60.996094 27.441406 58.609375 36.980469 C 56.21875 46.515625 49.273438 54.257812 40.046875 57.660156 C 30.820312 61.0625 20.511719 59.691406 12.5 53.988281 C 4.488281 48.289062 -0.1875 38.996094 0.00390625 29.164062 C 0.199219 19.335938 5.238281 10.234375 13.464844 4.851562 C 21.695312 -0.53125 32.050781 -1.5 41.136719 2.265625 C 50.21875 6.027344 56.855469 14.035156 58.871094 23.660156 C 60.882812 33.285156 58.011719 43.28125 51.195312 50.371094 C 44.378906 57.457031 34.503906 60.71875 24.808594 59.085938 C 15.113281 57.453125 6.847656 51.132812 2.734375 42.207031 C -1.382812 33.277344 -0.824219 22.890625 4.234375 14.457031 C 9.289062 6.023438 18.183594 0.628906 28 0.0507812 C 37.8125 -0.527344 47.28125 3.78125 53.292969 11.5625 C 59.304688 19.34375 61.082031 29.59375 58.042969 38.941406 C 55.003906 48.292969 47.542969 55.539062 38.105469 58.300781 C 28.667969 61.0625 18.476562 58.984375 10.875 52.746094 C 3.277344 46.507812 -0.75 36.917969 0.117188 27.125 C 0.984375 17.332031 6.632812 8.597656 15.214844 3.792969 C 23.792969 -1.011719 34.191406 -1.265625 42.996094 3.109375 C 51.800781 7.488281 57.871094 15.933594 59.21875 25.675781 C 60.566406 35.414062 57.015625 45.191406 49.730469 51.792969 C 42.445312 58.394531 32.367188 60.972656 22.804688 58.679688 C 13.242188 56.382812 5.433594 49.511719 1.941406 40.320312 C -1.550781 31.128906 -0.277344 20.804688 5.34375 12.738281 C 10.964844 4.671875 20.210938 -0.09375 30.042969 0 C 39.875 0.0976562 49.023438 5.046875 54.484375 13.222656 C 59.949219 21.398438 61.019531 31.742188 57.347656 40.863281 C 53.671875 49.984375 45.730469 56.703125 36.125 58.808594 C 26.523438 60.914062 16.496094 58.140625 9.34375 51.398438 C 2.1875 44.652344 -1.171875 34.808594 0.367188 25.097656 C 1.90625 15.382812 8.140625 7.058594 17.03125 2.855469 C 25.917969 -1.347656 36.308594 -0.886719 44.792969 4.082031 C 53.277344 9.054688 58.753906 17.898438 59.429688 27.707031 C 60.105469 37.515625 55.890625 47.027344 48.167969 53.113281 C 40.445312 59.199219 30.214844 61.078125 20.835938 58.132812 C 11.453125 55.1875 4.136719 47.796875 1.28125 38.386719 C -1.574219 28.976562 0.40625 18.765625 6.570312 11.101562 C 12.730469 3.441406 22.28125 -0.679688 32.085938 0.0898438 C 41.886719 0.863281 50.675781 6.429688 55.5625 14.960938 C 60.453125 23.492188 60.808594 33.886719 56.515625 42.734375 C 52.226562 51.578125 43.839844 57.734375 34.113281 59.179688 C 24.390625 60.621094 14.578125 57.164062 7.902344 49.945312 C 1.230469 42.722656 -1.445312 32.671875 0.753906 23.089844 C 2.957031 13.507812 9.75 5.628906 18.90625 2.046875 C 28.0625 -1.539062 38.398438 -0.367188 46.519531 5.175781 C 54.640625 10.71875 59.5 19.917969 59.5 29.75 L 54 29.75 C 54 21.734375 50.039062 14.238281 43.417969 9.71875 C 36.800781 5.203125 28.375 4.246094 20.910156 7.167969 C 13.449219 10.089844 7.910156 16.507812 6.117188 24.320312 C 4.320312 32.132812 6.503906 40.324219 11.941406 46.210938 C 17.382812 52.097656 25.378906 54.914062 33.308594 53.738281 C 41.234375 52.5625 48.070312 47.542969 51.570312 40.332031 C 55.066406 33.121094 54.773438 24.648438 50.789062 17.695312 C 46.804688 10.738281 39.644531 6.203125 31.652344 5.574219 C 23.664062 4.945312 15.878906 8.304688 10.855469 14.550781 C 5.832031 20.796875 4.21875 29.121094 6.542969 36.789062 C 8.871094 44.460938 14.835938 50.484375 22.484375 52.886719 C 30.128906 55.289062 38.46875 53.753906 44.761719 48.792969 C 51.058594 43.832031 54.492188 36.082031 53.941406 28.085938 C 53.390625 20.089844 48.925781 12.882812 42.011719 8.828125 C 35.097656 4.777344 26.628906 4.402344 19.382812 7.828125 C 12.136719 11.253906 7.050781 18.039062 5.796875 25.957031 C 4.542969 33.871094 7.285156 41.898438 13.113281 47.394531 C 18.945312 52.894531 27.117188 55.152344 34.945312 53.4375 C 42.777344 51.71875 49.25 46.242188 52.242188 38.808594 C 55.238281 31.375 54.367188 22.941406 49.914062 16.277344 C 45.460938 9.613281 38.003906 5.578125 29.988281 5.5 C 21.972656 5.421875 14.4375 9.308594 9.855469 15.882812 C 5.273438 22.460938 4.234375 30.875 7.082031 38.367188 C 9.929688 45.859375 16.296875 51.457031 24.089844 53.328125 C 31.882812 55.199219 40.097656 53.101562 46.035156 47.71875 C 51.972656 42.335938 54.871094 34.367188 53.769531 26.425781 C 52.671875 18.488281 47.722656 11.605469 40.546875 8.035156 C 33.371094 4.46875 24.894531 4.675781 17.902344 8.59375 C 10.90625 12.507812 6.300781 19.625 5.59375 27.609375 C 4.886719 35.59375 8.171875 43.410156 14.367188 48.496094 C 20.5625 53.578125 28.867188 55.273438 36.5625 53.023438 C 44.253906 50.773438 50.335938 44.867188 52.8125 37.242188 C 55.289062 29.621094 53.839844 21.265625 48.941406 14.925781 C 44.039062 8.582031 36.324219 5.070312 28.324219 5.542969 C 20.320312 6.015625 13.070312 10.410156 8.949219 17.28125 C 4.828125 24.15625 4.371094 32.625 7.726562 39.902344 C 11.082031 47.179688 17.816406 52.332031 25.722656 53.664062 C 33.625 54.996094 41.675781 52.335938 47.230469 46.558594 C 52.785156 40.78125 55.128906 32.628906 53.488281 24.785156 C 51.847656 16.941406 46.433594 10.414062 39.03125 7.347656 C 31.625 4.277344 23.183594 5.070312 16.476562 9.457031 C 9.769531 13.84375 5.660156 21.261719 5.503906 29.273438 C 5.347656 37.289062 9.160156 44.859375 15.691406 49.507812 C 22.21875 54.15625 30.625 55.273438 38.144531 52.5 C 45.664062 49.726562 51.324219 43.417969 53.273438 35.640625 C 55.21875 27.867188 53.199219 19.632812 47.878906 13.640625 C 42.554688 7.652344 34.613281 4.675781 26.664062 5.695312 C 18.714844 6.71875 11.78125 11.597656 8.144531 18.742188 C 4.503906 25.882812 4.628906 34.359375 8.476562 41.390625 C 12.324219 48.421875 19.398438 53.097656 27.375 53.882812 C 35.347656 54.667969 43.199219 51.460938 48.34375 45.316406 C 53.488281 39.171875 55.265625 30.882812 53.089844 23.167969 C 50.914062 15.453125 45.066406 9.3125 37.46875 6.761719 C 29.871094 4.210938 21.503906 5.578125 15.113281 10.414062 C 8.722656 15.253906 5.136719 22.933594 5.527344 30.941406 C 5.921875 38.945312 10.246094 46.238281 17.078125 50.425781 C 23.914062 54.613281 32.375 55.15625 39.6875 51.871094 C 46.996094 48.585938 52.214844 41.902344 53.621094 34.011719 C 55.03125 26.125 52.449219 18.046875 46.726562 12.433594 C 41.003906 6.824219 32.878906 4.402344 25.019531 5.964844 C 17.160156 7.53125 10.578125 12.875 7.4375 20.25 C 4.296875 27.625 5.003906 36.074219 9.328125 42.824219 C 13.648438 49.574219 21.023438 53.753906 29.035156 53.988281 C 37.046875 54.226562 44.65625 50.488281 49.367188 44.003906 Z M 53.816406 47.238281 " transform="matrix(1,0,0,1,210.25,0.25)"/>
</g>
</g>
</svg>
