<?xml version="1.0" encoding="UTF-8"?>
<svg xmlns="http://www.w3.org/2000/svg" xmlns:xlink="http://www.w3.org/1999/xlink" width="110pt" height="110pt" viewBox="0 0 110 110" version="1.1">
<defs>
<clipPath id="clip1">
  <path d="M 0 0 L 110 0 L 110 21 L 0 21 Z M 0 0 "/>
</clipPath>
<clipPath id="clip2">
  <path d="M 0 0 L 101 0 L 101 21 L 0 21 Z M 0 0 "/>
</clipPath>
<clipPath id="clip3">
  <path d="M 0 26 L 110 26 L 110 48 L 0 48 Z M 0 26 "/>
</clipPath>
<clipPath id="clip4">
  <path d="M 0 53 L 110 53 L 110 74 L 0 74 Z M 0 53 "/>
</clipPath>
<clipPath id="clip5">
  <path d="M 0 79 L 110 79 L 110 100 L 0 100 Z M 0 79 "/>
</clipPath>
</defs>
<g id="surface2">
<g clip-path="url(#clip1)" clip-rule="nonzero">
<rect x="0" y="0" width="110" height="110" style="fill:rgb(38.039216%,50.588235%,100%);fill-opacity:0.490196;stroke:none;"/>
</g>
<g clip-path="url(#clip2)" clip-rule="nonzero">
<path style="fill:none;stroke-width:2;stroke-linecap:butt;stroke-linejoin:miter;stroke:rgb(66.666667%,0%,100%);stroke-opacity:0.490196;stroke-miterlimit:10;" d="M 0.5 17.378906 L 0.5 21 M 1.5 21 L 1.5 21 M 2.5 21 L 2.5 21 M 3.5 20.277344 L 3.5 21 M 4.5 15.929688 L 4.5 21 M 5.5 8.691406 L 5.5 21 M 6.5 5.070312 L 6.5 21 M 7.5 21 L 7.5 21 M 8.5 21 L 8.5 21 M 9.5 20.277344 L 9.5 21 M 10.5 18.828125 L 10.5 21 M 11.5 21 L 11.5 21 M 12.5 21 L 12.5 21 M 13.5 10.863281 L 13.5 21 M 14.5 8.691406 L 14.5 21 M 15.5 8.691406 L 15.5 21 M 16.5 0 L 16.5 21 M 17.5 7.242188 L 17.5 21 M 18.5 10.136719 L 18.5 21 M 19.5 13.035156 L 19.5 21 M 20.5 18.101562 L 20.5 21 M 21.5 16.65625 L 21.5 21 M 22.5 17.378906 L 22.5 21 M 23.5 18.828125 L 23.5 21 M 24.5 17.378906 L 24.5 21 M 25.5 21 L 25.5 21 M 26.5 21 L 26.5 21 M 27.5 20.277344 L 27.5 21 M 28.5 15.929688 L 28.5 21 M 29.5 8.691406 L 29.5 21 M 30.5 5.070312 L 30.5 21 M 31.5 21 L 31.5 21 M 32.5 21 L 32.5 21 M 33.5 20.277344 L 33.5 21 M 34.5 18.828125 L 34.5 21 M 35.5 21 L 35.5 21 M 36.5 21 L 36.5 21 M 37.5 10.863281 L 37.5 21 M 38.5 8.691406 L 38.5 21 M 39.5 8.691406 L 39.5 21 M 40.5 0 L 40.5 21 M 41.5 7.242188 L 41.5 21 M 42.5 10.136719 L 42.5 21 M 43.5 13.035156 L 43.5 21 M 44.5 18.101562 L 44.5 21 M 45.5 16.65625 L 45.5 21 M 46.5 17.378906 L 46.5 21 M 47.5 18.828125 L 47.5 21 M 48.5 17.378906 L 48.5 21 M 49.5 21 L 49.5 21 M 50.5 21 L 50.5 21 M 51.5 20.277344 L 51.5 21 M 52.5 15.929688 L 52.5 21 M 53.5 8.691406 L 53.5 21 M 54.5 5.070312 L 54.5 21 M 55.5 21 L 55.5 21 M 56.5 21 L 56.5 21 M 57.5 20.277344 L 57.5 21 M 58.5 18.828125 L 58.5 21 M 59.5 21 L 59.5 21 M 60.5 21 L 60.5 21 M 61.5 10.863281 L 61.5 21 M 62.5 8.691406 L 62.5 21 M 63.5 8.691406 L 63.5 21 M 64.5 0 L 64.5 21 M 65.5 7.242188 L 65.5 21 M 66.5 10.136719 L 66.5 21 M 67.5 13.035156 L 67.5 21 M 68.5 18.101562 L 68.5 21 M 69.5 16.65625 L 69.5 21 M 70.5 17.378906 L 70.5 21 M 71.5 18.828125 L 71.5 21 M 72.5 17.378906 L 72.5 21 M 73.5 21 L 73.5 21 M 74.5 21 L 74.5 21 M 75.5 20.277344 L 75.5 21 M 76.5 15.929688 L 76.5 21 M 77.5 8.691406 L 77.5 21 M 78.5 5.070312 L 78.5 21 M 79.5 21 L 79.5 21 M 80.5 21 L 80.5 21 M 81.5 20.277344 L 81.5 21 M 82.5 18.828125 L 82.5 21 M 83.5 21 L 83.5 21 M 84.5 21 L 84.5 21 M 85.5 10.863281 L 85.5 21 M 86.5 8.691406 L 86.5 21 M 87.5 8.691406 L 87.5 21 M 88.5 0 L 88.5 21 M 89.5 7.242188 L 89.5 21 M 90.5 10.136719 L 90.5 21 M 91.5 13.035156 L 91.5 21 M 92.5 18.101562 L 92.5 21 M 93.5 16.65625 L 93.5 21 M 94.5 17.378906 L 94.5 21 M 95.5 18.828125 L 95.5 21 M 96.5 17.378906 L 96.5 21 M 97.5 21 L 97.5 21 M 98.5 21 L 98.5 21 M 99.5 20.277344 L 99.5 21 "/>
</g>
<g clip-path="url(#clip3)" clip-rule="nonzero">
<rect x="0" y="0" width="110" height="110" style="fill:rgb(38.039216%,50.588235%,100%);fill-opacity:0.490196;stroke:none;"/>
<path style="fill:none;stroke-width:2;stroke-linecap:butt;stroke-linejoin:miter;stroke:rgb(66.666667%,0%,100%);stroke-opacity:0.490196;stroke-miterlimit:10;" d="M -1.5 18.207031 L -1.5 22 M 1.5 22 L 1.5 22 M 4.5 22 L 4.5 22 M 7.5 21.242188 L 7.5 22 M 10.5 16.691406 L 10.5 22 M 13.5 9.101562 L 13.5 22 M 16.5 5.308594 L 16.5 22 M 19.5 22 L 19.5 22 M 22.5 22 L 22.5 22 M 25.5 21.242188 L 25.5 22 M 28.5 19.722656 L 28.5 22 M 31.5 22 L 31.5 22 M 34.5 22 L 34.5 22 M 37.5 11.378906 L 37.5 22 M 40.5 9.101562 L 40.5 22 M 43.5 9.101562 L 43.5 22 M 46.5 0 L 46.5 22 M 49.5 7.585938 L 49.5 22 M 52.5 10.621094 L 52.5 22 M 55.5 13.65625 L 55.5 22 M 58.5 18.964844 L 58.5 22 M 61.5 17.449219 L 61.5 22 M 64.5 18.207031 L 64.5 22 M 67.5 19.722656 L 67.5 22 M 70.5 18.207031 L 70.5 22 M 73.5 22 L 73.5 22 M 76.5 22 L 76.5 22 M 79.5 21.242188 L 79.5 22 M 82.5 16.691406 L 82.5 22 M 85.5 9.101562 L 85.5 22 M 88.5 5.308594 L 88.5 22 M 91.5 22 L 91.5 22 M 94.5 22 L 94.5 22 M 97.5 21.242188 L 97.5 22 M 100.5 19.722656 L 100.5 22 M 103.5 22 L 103.5 22 M 106.5 22 L 106.5 22 M 109.5 11.378906 L 109.5 22 M 112.5 9.101562 L 112.5 22 M 115.5 9.101562 L 115.5 22 M 118.5 0 L 118.5 22 M 121.5 7.585938 L 121.5 22 M 124.5 10.621094 L 124.5 22 M 127.5 13.65625 L 127.5 22 M 130.5 18.964844 L 130.5 22 M 133.5 17.449219 L 133.5 22 M 136.5 18.207031 L 136.5 22 M 139.5 19.722656 L 139.5 22 M 142.5 18.207031 L 142.5 22 M 145.5 22 L 145.5 22 M 148.5 22 L 148.5 22 M 151.5 21.242188 L 151.5 22 M 154.5 16.691406 L 154.5 22 M 157.5 9.101562 L 157.5 22 M 160.5 5.308594 L 160.5 22 M 163.5 22 L 163.5 22 M 166.5 22 L 166.5 22 M 169.5 21.242188 L 169.5 22 M 172.5 19.722656 L 172.5 22 M 175.5 22 L 175.5 22 M 178.5 22 L 178.5 22 M 181.5 11.378906 L 181.5 22 M 184.5 9.101562 L 184.5 22 M 187.5 9.101562 L 187.5 22 M 190.5 0 L 190.5 22 M 193.5 7.585938 L 193.5 22 M 196.5 10.621094 L 196.5 22 M 199.5 13.65625 L 199.5 22 M 202.5 18.964844 L 202.5 22 M 205.5 17.449219 L 205.5 22 M 208.5 18.207031 L 208.5 22 M 211.5 19.722656 L 211.5 22 M 214.5 18.207031 L 214.5 22 M 217.5 22 L 217.5 22 M 220.5 22 L 220.5 22 M 223.5 21.242188 L 223.5 22 M 226.5 16.691406 L 226.5 22 M 229.5 9.101562 L 229.5 22 M 232.5 5.308594 L 232.5 22 M 235.5 22 L 235.5 22 M 238.5 22 L 238.5 22 M 241.5 21.242188 L 241.5 22 M 244.5 19.722656 L 244.5 22 M 247.5 22 L 247.5 22 M 250.5 22 L 250.5 22 M 253.5 11.378906 L 253.5 22 M 256.5 9.101562 L 256.5 22 M 259.5 9.101562 L 259.5 22 M 262.5 0 L 262.5 22 M 265.5 7.585938 L 265.5 22 M 268.5 10.621094 L 268.5 22 M 271.5 13.65625 L 271.5 22 M 274.5 18.964844 L 274.5 22 M 277.5 17.449219 L 277.5 22 M 280.5 18.207031 L 280.5 22 M 283.5 19.722656 L 283.5 22 M 286.5 18.207031 L 286.5 22 M 289.5 22 L 289.5 22 M 292.5 22 L 292.5 22 M 295.5 21.242188 L 295.5 22 " transform="matrix(1,0,0,1,0,26)"/>
</g>
<g clip-path="url(#clip4)" clip-rule="nonzero">
<rect x="0" y="0" width="110" height="110" style="fill:rgb(38.039216%,50.588235%,100%);fill-opacity:0.490196;stroke:none;"/>
<path style="fill:none;stroke-width:2;stroke-linecap:butt;stroke-linejoin:miter;stroke:rgb(66.666667%,0%,100%);stroke-opacity:0.490196;stroke-miterlimit:10;" d="M -3.5 17.378906 L -3.5 21 M 1.5 21 L 1.5 21 M 6.5 21 L 6.5 21 M 11.5 20.277344 L 11.5 21 M 16.5 15.929688 L 16.5 21 M 21.5 8.691406 L 21.5 21 M 26.5 5.070312 L 26.5 21 M 31.5 21 L 31.5 21 M 36.5 21 L 36.5 21 M 41.5 20.277344 L 41.5 21 M 46.5 18.828125 L 46.5 21 M 51.5 21 L 51.5 21 M 56.5 21 L 56.5 21 M 61.5 10.863281 L 61.5 21 M 66.5 8.691406 L 66.5 21 M 71.5 8.691406 L 71.5 21 M 76.5 0 L 76.5 21 M 81.5 7.242188 L 81.5 21 M 86.5 10.136719 L 86.5 21 M 91.5 13.035156 L 91.5 21 M 96.5 18.101562 L 96.5 21 M 101.5 16.65625 L 101.5 21 M 106.5 17.378906 L 106.5 21 M 111.5 18.828125 L 111.5 21 M 116.5 17.378906 L 116.5 21 M 121.5 21 L 121.5 21 M 126.5 21 L 126.5 21 M 131.5 20.277344 L 131.5 21 M 136.5 15.929688 L 136.5 21 M 141.5 8.691406 L 141.5 21 M 146.5 5.070312 L 146.5 21 M 151.5 21 L 151.5 21 M 156.5 21 L 156.5 21 M 161.5 20.277344 L 161.5 21 M 166.5 18.828125 L 166.5 21 M 171.5 21 L 171.5 21 M 176.5 21 L 176.5 21 M 181.5 10.863281 L 181.5 21 M 186.5 8.691406 L 186.5 21 M 191.5 8.691406 L 191.5 21 M 196.5 0 L 196.5 21 M 201.5 7.242188 L 201.5 21 M 206.5 10.136719 L 206.5 21 M 211.5 13.035156 L 211.5 21 M 216.5 18.101562 L 216.5 21 M 221.5 16.65625 L 221.5 21 M 226.5 17.378906 L 226.5 21 M 231.5 18.828125 L 231.5 21 M 236.5 17.378906 L 236.5 21 M 241.5 21 L 241.5 21 M 246.5 21 L 246.5 21 M 251.5 20.277344 L 251.5 21 M 256.5 15.929688 L 256.5 21 M 261.5 8.691406 L 261.5 21 M 266.5 5.070312 L 266.5 21 M 271.5 21 L 271.5 21 M 276.5 21 L 276.5 21 M 281.5 20.277344 L 281.5 21 M 286.5 18.828125 L 286.5 21 M 291.5 21 L 291.5 21 M 296.5 21 L 296.5 21 M 301.5 10.863281 L 301.5 21 M 306.5 8.691406 L 306.5 21 M 311.5 8.691406 L 311.5 21 M 316.5 0 L 316.5 21 M 321.5 7.242188 L 321.5 21 M 326.5 10.136719 L 326.5 21 M 331.5 13.035156 L 331.5 21 M 336.5 18.101562 L 336.5 21 M 341.5 16.65625 L 341.5 21 M 346.5 17.378906 L 346.5 21 M 351.5 18.828125 L 351.5 21 M 356.5 17.378906 L 356.5 21 M 361.5 21 L 361.5 21 M 366.5 21 L 366.5 21 M 371.5 20.277344 L 371.5 21 M 376.5 15.929688 L 376.5 21 M 381.5 8.691406 L 381.5 21 M 386.5 5.070312 L 386.5 21 M 391.5 21 L 391.5 21 M 396.5 21 L 396.5 21 M 401.5 20.277344 L 401.5 21 M 406.5 18.828125 L 406.5 21 M 411.5 21 L 411.5 21 M 416.5 21 L 416.5 21 M 421.5 10.863281 L 421.5 21 M 426.5 8.691406 L 426.5 21 M 431.5 8.691406 L 431.5 21 M 436.5 0 L 436.5 21 M 441.5 7.242188 L 441.5 21 M 446.5 10.136719 L 446.5 21 M 451.5 13.035156 L 451.5 21 M 456.5 18.101562 L 456.5 21 M 461.5 16.65625 L 461.5 21 M 466.5 17.378906 L 466.5 21 M 471.5 18.828125 L 471.5 21 M 476.5 17.378906 L 476.5 21 M 481.5 21 L 481.5 21 M 486.5 21 L 486.5 21 M 491.5 20.277344 L 491.5 21 " transform="matrix(1,0,0,1,0,53)"/>
</g>
<g clip-path="url(#clip5)" clip-rule="nonzero">
<rect x="0" y="0" width="110" height="110" style="fill:rgb(38.039216%,50.588235%,100%);fill-opacity:0.490196;stroke:none;"/>
<path style="fill:none;stroke-width:2;stroke-linecap:butt;stroke-linejoin:miter;stroke:rgb(66.666667%,0%,100%);stroke-opacity:0.490196;stroke-miterlimit:10;" d="M -9.5 17.378906 L -9.5 21 M 1.5 21 L 1.5 21 M 12.5 21 L 12.5 21 M 23.5 20.277344 L 23.5 21 M 34.5 15.929688 L 34.5 21 M 45.5 8.691406 L 45.5 21 M 56.5 5.070312 L 56.5 21 M 67.5 21 L 67.5 21 M 78.5 21 L 78.5 21 M 89.5 20.277344 L 89.5 21 M 100.5 18.828125 L 100.5 21 M 111.5 21 L 111.5 21 M 122.5 21 L 122.5 21 M 133.5 10.863281 L 133.5 21 M 144.5 8.691406 L 144.5 21 M 155.5 8.691406 L 155.5 21 M 166.5 0 L 166.5 21 M 177.5 7.242188 L 177.5 21 M 188.5 10.136719 L 188.5 21 M 199.5 13.035156 L 199.5 21 M 210.5 18.101562 L 210.5 21 M 221.5 16.65625 L 221.5 21 M 232.5 17.378906 L 232.5 21 M 243.5 18.828125 L 243.5 21 M 254.5 17.378906 L 254.5 21 M 265.5 21 L 265.5 21 M 276.5 21 L 276.5 21 M 287.5 20.277344 L 287.5 21 M 298.5 15.929688 L 298.5 21 M 309.5 8.691406 L 309.5 21 M 320.5 5.070312 L 320.5 21 M 331.5 21 L 331.5 21 M 342.5 21 L 342.5 21 M 353.5 20.277344 L 353.5 21 M 364.5 18.828125 L 364.5 21 M 375.5 21 L 375.5 21 M 386.5 21 L 386.5 21 M 397.5 10.863281 L 397.5 21 M 408.5 8.691406 L 408.5 21 M 419.5 8.691406 L 419.5 21 M 430.5 0 L 430.5 21 M 441.5 7.242188 L 441.5 21 M 452.5 10.136719 L 452.5 21 M 463.5 13.035156 L 463.5 21 M 474.5 18.101562 L 474.5 21 M 485.5 16.65625 L 485.5 21 M 496.5 17.378906 L 496.5 21 M 507.5 18.828125 L 507.5 21 M 518.5 17.378906 L 518.5 21 M 529.5 21 L 529.5 21 M 540.5 21 L 540.5 21 M 551.5 20.277344 L 551.5 21 M 562.5 15.929688 L 562.5 21 M 573.5 8.691406 L 573.5 21 M 584.5 5.070312 L 584.5 21 M 595.5 21 L 595.5 21 M 606.5 21 L 606.5 21 M 617.5 20.277344 L 617.5 21 M 628.5 18.828125 L 628.5 21 M 639.5 21 L 639.5 21 M 650.5 21 L 650.5 21 M 661.5 10.863281 L 661.5 21 M 672.5 8.691406 L 672.5 21 M 683.5 8.691406 L 683.5 21 M 694.5 0 L 694.5 21 M 705.5 7.242188 L 705.5 21 M 716.5 10.136719 L 716.5 21 M 727.5 13.035156 L 727.5 21 M 738.5 18.101562 L 738.5 21 M 749.5 16.65625 L 749.5 21 M 760.5 17.378906 L 760.5 21 M 771.5 18.828125 L 771.5 21 M 782.5 17.378906 L 782.5 21 M 793.5 21 L 793.5 21 M 804.5 21 L 804.5 21 M 815.5 20.277344 L 815.5 21 M 826.5 15.929688 L 826.5 21 M 837.5 8.691406 L 837.5 21 M 848.5 5.070312 L 848.5 21 M 859.5 21 L 859.5 21 M 870.5 21 L 870.5 21 M 881.5 20.277344 L 881.5 21 M 892.5 18.828125 L 892.5 21 M 903.5 21 L 903.5 21 M 914.5 21 L 914.5 21 M 925.5 10.863281 L 925.5 21 M 936.5 8.691406 L 936.5 21 M 947.5 8.691406 L 947.5 21 M 958.5 0 L 958.5 21 M 969.5 7.242188 L 969.5 21 M 980.5 10.136719 L 980.5 21 M 991.5 13.035156 L 991.5 21 M 1002.5 18.101562 L 1002.5 21 M 1013.5 16.65625 L 1013.5 21 M 1024.5 17.378906 L 1024.5 21 M 1035.5 18.828125 L 1035.5 21 M 1046.5 17.378906 L 1046.5 21 M 1057.5 21 L 1057.5 21 M 1068.5 21 L 1068.5 21 M 1079.5 20.277344 L 1079.5 21 " transform="matrix(1,0,0,1,0,79)"/>
</g>
</g>
</svg>
